<?xml version="1.0" encoding="UTF-8"?>
<!DOCTYPE svg PUBLIC "-//W3C//DTD SVG 1.1//EN" "http://www.w3.org/Graphics/SVG/1.1/DTD/svg11.dtd">
<svg xmlns="http://www.w3.org/2000/svg" version="1.1" width="538px" height="490px" style="shape-rendering:geometricPrecision; text-rendering:geometricPrecision; image-rendering:optimizeQuality; fill-rule:evenodd; clip-rule:evenodd" xmlns:xlink="http://www.w3.org/1999/xlink">
<g><path style="opacity:1" fill="#fdfefe" d="M -0.5,-0.5 C 82.1667,-0.5 164.833,-0.5 247.5,-0.5C 224.385,1.36167 202.052,6.86167 180.5,16C 152.108,30.4368 124.774,46.4368 98.5,64C 38.0477,106.966 5.04768,165.466 -0.5,239.5C -0.5,159.5 -0.5,79.5 -0.5,-0.5 Z"/></g>
<g><path style="opacity:1" fill="#fdfdfd" d="M 279.5,-0.5 C 365.5,-0.5 451.5,-0.5 537.5,-0.5C 537.5,70.5 537.5,141.5 537.5,212.5C 535.668,203.999 533.001,195.666 529.5,187.5C 526.912,175.231 521.912,164.064 514.5,154C 519.499,151.24 519.832,147.907 515.5,144C 514.207,143.51 512.873,143.343 511.5,143.5C 508.575,118.15 497.575,96.9834 478.5,80C 458.84,65.1687 437.174,54.0021 413.5,46.5C 408.526,40.195 402.193,35.8617 394.5,33.5C 373.587,24.5559 352.253,16.3892 330.5,9C 313.589,4.58247 296.589,1.4158 279.5,-0.5 Z"/></g>
<g><path style="opacity:1" fill="#91ccbd" d="M 391.5,38.5 C 392.766,39.0899 394.099,39.5899 395.5,40C 394.833,40.1667 394.167,40.3333 393.5,40.5C 385.686,37.8793 377.686,36.2126 369.5,35.5C 365.412,34.1256 361.079,33.4589 356.5,33.5C 345.889,34.463 335.389,36.1297 325,38.5C 321.856,32.6889 317.356,28.1889 311.5,25C 303.708,20.769 295.708,17.1023 287.5,14C 304.365,15.1043 321.032,17.771 337.5,22C 355.53,27.5059 373.53,33.0059 391.5,38.5 Z"/></g>
<g><path style="opacity:1" fill="#f1f3e6" d="M 316.5,37.5 C 316.631,38.3764 316.298,39.0431 315.5,39.5C 312.43,40.2841 309.763,41.6174 307.5,43.5C 291.364,49.2354 276.031,56.5687 261.5,65.5C 244.662,72.4209 231.662,83.7542 222.5,99.5C 211.953,88.4502 198.953,81.6169 183.5,79C 178.22,77.9054 172.887,77.4054 167.5,77.5C 168.313,69.8934 170.813,62.8934 175,56.5C 188.112,37.6931 205.612,24.8598 227.5,18C 255.342,16.5844 282.342,20.9177 308.5,31C 311.787,32.4675 314.454,34.6341 316.5,37.5 Z"/></g>
<g><path style="opacity:1" fill="#787c70" d="M 261.5,65.5 C 260.306,66.2719 259.306,67.2719 258.5,68.5C 244.908,77.2595 233.742,88.5929 225,102.5C 224.31,103.738 223.81,103.738 223.5,102.5C 222.89,101.609 222.557,100.609 222.5,99.5C 231.662,83.7542 244.662,72.4209 261.5,65.5 Z"/></g>
<g><path style="opacity:1" fill="#070706" d="M 394.5,33.5 C 402.193,35.8617 408.526,40.195 413.5,46.5C 437.174,54.0021 458.84,65.1687 478.5,80C 497.575,96.9834 508.575,118.15 511.5,143.5C 512.873,143.343 514.207,143.51 515.5,144C 519.832,147.907 519.499,151.24 514.5,154C 521.912,164.064 526.912,175.231 529.5,187.5C 528.883,187.611 528.383,187.944 528,188.5C 527.502,191.482 527.335,194.482 527.5,197.5C 524.166,187.869 520.666,178.202 517,168.5C 516.111,167.112 515.611,167.278 515.5,169C 516.348,171.77 516.681,174.603 516.5,177.5C 518.222,195.093 515.889,212.093 509.5,228.5C 507.992,230.181 506.992,232.181 506.5,234.5C 478.813,293.195 432.48,324.862 367.5,329.5C 360.159,329.334 352.826,329.5 345.5,330C 346.044,330.717 346.711,331.217 347.5,331.5C 353.894,337.899 360.561,343.899 367.5,349.5C 367.38,350.586 366.713,351.253 365.5,351.5C 363.864,350.696 362.364,349.696 361,348.5C 359.586,349.413 358.086,349.413 356.5,348.5C 351.5,343.833 346.5,339.167 341.5,334.5C 338.529,332.343 335.529,330.176 332.5,328C 317.954,325.485 303.954,321.152 290.5,315C 288.5,314.333 286.5,314.333 284.5,315C 277.711,316.874 271.045,319.041 264.5,321.5C 262.87,319.642 262.537,317.642 263.5,315.5C 267.656,313.665 271.989,311.999 276.5,310.5C 277.408,309.21 277.241,307.877 276,306.5C 262.744,294.251 248.577,283.085 233.5,273C 227.238,270.699 220.905,268.699 214.5,267C 213.833,265.667 212.833,264.667 211.5,264C 191.783,259.203 174.783,263.869 160.5,278C 148.322,290.522 140.489,305.355 137,322.5C 136.171,327.533 136.338,332.533 137.5,337.5C 140.83,334.748 143.83,335.081 146.5,338.5C 143.573,340.816 143.907,342.316 147.5,343C 146.072,345.185 144.405,347.185 142.5,349C 140.633,349.711 139.133,349.211 138,347.5C 138.116,351.914 138.949,356.247 140.5,360.5C 142.045,361.452 143.712,361.785 145.5,361.5C 145.551,363.57 144.885,365.403 143.5,367C 145.489,368.61 145.822,370.443 144.5,372.5C 148.781,380.063 152.781,387.729 156.5,395.5C 154.101,397.366 151.435,398.699 148.5,399.5C 148.5,400.5 148.5,401.5 148.5,402.5C 139.719,390.614 132.719,377.614 127.5,363.5C 102.215,360.272 80.3819,349.939 62,332.5C 53.781,323.393 48.781,312.726 47,300.5C 45.0844,274.903 48.0844,249.903 56,225.5C 59.0724,216.341 63.9058,208.341 70.5,201.5C 72.433,201.271 74.0997,200.438 75.5,199C 73.6331,196.607 72.9665,194.107 73.5,191.5C 74.1411,192.993 75.1411,193.993 76.5,194.5C 76.56,195.043 76.8933,195.376 77.5,195.5C 88.6457,186.838 101.312,182.005 115.5,181C 136.07,179.149 156.07,181.649 175.5,188.5C 175.842,189.338 176.508,189.672 177.5,189.5C 187.212,193.695 196.045,199.362 204,206.5C 203.65,201.537 203.15,196.537 202.5,191.5C 202.124,177.099 202.791,162.765 204.5,148.5C 206.347,141.443 208.347,134.443 210.5,127.5C 214.17,121.794 217.503,115.794 220.5,109.5C 219.754,108.264 219.421,106.93 219.5,105.5C 221.43,105.229 222.764,104.229 223.5,102.5C 223.81,103.738 224.31,103.738 225,102.5C 233.742,88.5929 244.908,77.2595 258.5,68.5C 261.884,69.5022 262.884,71.5022 261.5,74.5C 241.892,88.9539 227.725,107.621 219,130.5C 204.983,172.111 209.65,211.445 233,248.5C 255.788,279.814 286.622,296.314 325.5,298C 284.174,291.313 251.674,270.813 228,236.5C 218.763,220.272 214.597,202.772 215.5,184C 215.95,158.007 223.117,134.174 237,112.5C 262.025,85.7319 292.192,67.2319 327.5,57C 377.163,51.9973 422.163,63.9973 462.5,93C 473.807,102.766 482.307,114.6 488,128.5C 492.612,140.727 496.946,153.06 501,165.5C 504.455,132.584 493.622,105.418 468.5,84C 449.308,69.9037 428.308,59.2371 405.5,52C 395.614,48.6942 385.614,45.6942 375.5,43C 366.614,40.9654 357.614,40.132 348.5,40.5C 349.936,39.5714 351.269,38.4048 352.5,37C 356.643,36.9192 360.643,37.0859 364.5,37.5C 366.075,36.5435 367.742,35.8769 369.5,35.5C 377.686,36.2126 385.686,37.8793 393.5,40.5C 394.167,40.3333 394.833,40.1667 395.5,40C 394.099,39.5899 392.766,39.0899 391.5,38.5C 392.953,37.1751 392.619,36.3418 390.5,36C 391.984,35.3378 393.317,34.5045 394.5,33.5 Z"/></g>
<g><path style="opacity:1" fill="#f49739" d="M 359.5,68.5 C 378.104,69.9322 396.104,73.9322 413.5,80.5C 412.047,81.8249 412.381,82.6582 414.5,83C 420.203,84.859 425.87,86.6923 431.5,88.5C 444.511,93.872 455.845,101.539 465.5,111.5C 465.77,115.358 467.103,118.691 469.5,121.5C 470.72,128.323 473.22,134.656 477,140.5C 477.671,141.252 478.504,141.586 479.5,141.5C 479.5,142.167 479.5,142.833 479.5,143.5C 479.511,146.89 480.845,149.556 483.5,151.5C 484.516,154.282 485.516,156.949 486.5,159.5C 485.88,163.302 486.714,166.635 489,169.5C 491.189,182.049 492.022,194.716 491.5,207.5C 490.5,207.5 489.5,207.5 488.5,207.5C 488.666,200.825 488.5,194.158 488,187.5C 488.07,184.008 487.237,181.008 485.5,178.5C 482.225,173.779 478.059,172.779 473,175.5C 466.229,171.969 462.062,173.969 460.5,181.5C 461.912,186.668 464.579,191.002 468.5,194.5C 470.609,192.405 472.276,190.072 473.5,187.5C 477.564,186.791 481.564,186.791 485.5,187.5C 484.669,194.131 484.336,200.798 484.5,207.5C 485.5,207.5 486.5,207.5 487.5,207.5C 487.917,215.657 485.417,222.657 480,228.5C 479.667,227.5 479.333,226.5 479,225.5C 478.667,225.833 478.333,226.167 478,226.5C 477.782,229.426 477.282,232.26 476.5,235C 475.5,235.667 474.5,235.667 473.5,235C 474.172,229.379 474.505,223.545 474.5,217.5C 470.881,218.244 467.215,218.577 463.5,218.5C 463.174,215.393 464.341,213.06 467,211.5C 468.416,207.492 467.082,205.159 463,204.5C 460.489,204.84 458.322,205.84 456.5,207.5C 455.5,207.5 454.5,207.5 453.5,207.5C 453.5,208.833 453.5,210.167 453.5,211.5C 449.524,216.585 448.524,222.252 450.5,228.5C 450.76,230.595 451.926,231.928 454,232.5C 457.105,231.633 460.272,231.299 463.5,231.5C 463.5,233.5 463.5,235.5 463.5,237.5C 451.5,238.167 451.5,238.833 463.5,239.5C 463.665,245.872 464.999,246.038 467.5,240C 466.692,239.692 466.025,239.192 465.5,238.5C 466.06,236.146 466.727,233.813 467.5,231.5C 469.065,234.953 470.065,238.619 470.5,242.5C 470.081,243.672 469.415,244.672 468.5,245.5C 467.575,244.359 466.741,244.359 466,245.5C 465.798,247.256 465.298,248.922 464.5,250.5C 462.088,249.182 459.754,249.349 457.5,251C 458.546,252.539 459.879,252.705 461.5,251.5C 462.713,251.747 463.38,252.414 463.5,253.5C 463.672,254.492 463.338,255.158 462.5,255.5C 458.82,258.49 454.82,261.156 450.5,263.5C 449.174,264.642 448.174,265.976 447.5,267.5C 441.11,271.23 434.777,275.397 428.5,280C 420,283.214 411.333,285.881 402.5,288C 400.937,288.759 399.937,289.926 399.5,291.5C 388.798,293.522 378.132,295.189 367.5,296.5C 361.332,297.1 355.165,297.766 349,298.5C 346.833,298.167 344.667,297.833 342.5,297.5C 340.585,293.992 337.585,292.659 333.5,293.5C 331.708,293.634 330.042,293.301 328.5,292.5C 326.396,291.088 324.063,290.088 321.5,289.5C 321.147,287.365 321.98,286.032 324,285.5C 326.911,287.611 330.077,288.945 333.5,289.5C 339.648,289.338 345.648,288.338 351.5,286.5C 351.5,284.833 351.5,283.167 351.5,281.5C 347.833,281.5 344.167,281.5 340.5,281.5C 344.634,280.515 348.968,280.182 353.5,280.5C 355.199,280.66 356.866,280.494 358.5,280C 359.517,278.951 359.684,277.784 359,276.5C 354.689,273.816 350.189,271.816 345.5,270.5C 345.209,269.351 344.376,268.684 343,268.5C 337.111,267.454 331.278,266.287 325.5,265C 327.22,263.566 329.22,262.733 331.5,262.5C 338.14,263.497 344.807,264.163 351.5,264.5C 351.5,263.5 351.5,262.5 351.5,261.5C 340.532,260.869 329.532,260.869 318.5,261.5C 317.45,252.968 315.616,244.635 313,236.5C 310.067,234.236 307.9,231.402 306.5,228C 309.478,227.304 312.478,226.804 315.5,226.5C 315.64,224.876 314.973,223.71 313.5,223C 315.657,222.922 317.657,222.755 319.5,222.5C 318.691,220.929 318.357,219.262 318.5,217.5C 321.364,217.064 323.697,217.897 325.5,220C 331.749,220.809 337.916,220.642 344,219.5C 344.167,219.167 344.333,218.833 344.5,218.5C 343.624,217.749 342.624,217.249 341.5,217C 334.142,216.684 326.809,216.184 319.5,215.5C 319.146,213.459 319.146,211.626 319.5,210C 318.354,209.355 317.354,208.522 316.5,207.5C 315.638,208.766 314.971,210.099 314.5,211.5C 314.389,212.117 314.056,212.617 313.5,213C 311.167,213.667 308.833,213.667 306.5,213C 305.643,212.311 304.977,211.478 304.5,210.5C 306.631,209.831 308.631,209.165 310.5,208.5C 311.431,206.354 311.097,204.188 309.5,202C 306.419,201.473 303.419,200.64 300.5,199.5C 293.728,200.612 290.728,204.612 291.5,211.5C 291.676,215.792 292.676,219.792 294.5,223.5C 297.598,223.413 297.932,223.913 295.5,225C 291.442,225.34 287.442,226.007 283.5,227C 281.681,227.74 280.348,228.907 279.5,230.5C 279.167,231.5 278.5,232.167 277.5,232.5C 275.224,232.756 274.057,234.09 274,236.5C 273.699,239.507 273.865,242.507 274.5,245.5C 272.876,245.64 271.71,244.973 271,243.5C 270,244.167 269,244.833 268,245.5C 267.828,248.826 267.995,252.159 268.5,255.5C 266.508,255.328 264.842,255.995 263.5,257.5C 262.103,255.093 260.77,252.593 259.5,250C 256.382,248.978 253.382,247.811 250.5,246.5C 241.543,235.921 235.21,223.921 231.5,210.5C 230.669,199.848 230.002,189.181 229.5,178.5C 230.513,166.704 232.18,155.037 234.5,143.5C 235.5,143.5 236.5,143.5 237.5,143.5C 239.493,136.354 241.827,129.354 244.5,122.5C 245.11,120.566 246.11,118.899 247.5,117.5C 248.688,116.316 249.855,116.316 251,117.5C 252.202,119.677 252.702,122.011 252.5,124.5C 251.167,124.5 249.833,124.5 248.5,124.5C 248.334,129.179 248.501,133.845 249,138.5C 250.337,134.974 250.837,131.308 250.5,127.5C 251.5,127.5 252.5,127.5 253.5,127.5C 252.543,134.477 252.377,141.477 253,148.5C 253.934,149.858 254.768,151.192 255.5,152.5C 256.247,155.793 256.58,158.959 256.5,162C 260.063,163.596 263.729,163.763 267.5,162.5C 267.723,160.658 268.057,158.825 268.5,157C 266.851,152.668 266.185,148.168 266.5,143.5C 266.334,138.489 266.501,133.489 267,128.5C 267.739,127.426 268.739,126.759 270,126.5C 271.766,127.233 273.599,127.567 275.5,127.5C 276.693,127.03 277.36,126.03 277.5,124.5C 277.097,121.239 276.43,118.072 275.5,115C 276.449,114.383 277.282,114.549 278,115.5C 281.64,111.838 280.807,110.672 275.5,112C 274.845,113.487 273.845,114.653 272.5,115.5C 266.585,113.396 260.585,113.062 254.5,114.5C 254.167,114 253.833,113.5 253.5,113C 254.32,111.2 254.986,109.366 255.5,107.5C 255.5,107.167 255.5,106.833 255.5,106.5C 257.312,106.229 258.978,105.562 260.5,104.5C 263.326,101.473 265.993,98.4728 268.5,95.5C 283.965,84.2685 300.965,75.9351 319.5,70.5C 332.781,68.9466 346.115,68.2799 359.5,68.5 Z"/></g>
<g><path style="opacity:1" fill="#f2f4e6" d="M 218.5,105.5 C 215.636,112.757 212.97,120.09 210.5,127.5C 208.347,134.443 206.347,141.443 204.5,148.5C 200.7,161.438 199.533,174.772 201,188.5C 201.232,189.737 201.732,190.737 202.5,191.5C 203.15,196.537 203.65,201.537 204,206.5C 196.045,199.362 187.212,193.695 177.5,189.5C 177.665,186.15 177.498,182.817 177,179.5C 176.819,182.695 176.319,185.695 175.5,188.5C 156.07,181.649 136.07,179.149 115.5,181C 101.312,182.005 88.6457,186.838 77.5,195.5C 76.8933,195.376 76.56,195.043 76.5,194.5C 75.7895,155.754 91.1228,125.254 122.5,103C 137.548,94.2056 153.715,89.0389 171,87.5C 186.807,87.4072 201.307,91.5739 214.5,100C 215.665,101.992 216.998,103.825 218.5,105.5 Z"/></g>
<g><path style="opacity:1" fill="#0d0e0c" d="M 180.5,95.5 C 183.044,95.1043 185.211,95.771 187,97.5C 187.147,100.11 187.981,102.444 189.5,104.5C 189.291,105.086 188.957,105.586 188.5,106C 185.263,105.252 182.096,104.085 179,102.5C 178.167,99.829 178.667,97.4957 180.5,95.5 Z"/></g>
<g><path style="opacity:1" fill="#747e6f" d="M 348.5,40.5 C 357.614,40.132 366.614,40.9654 375.5,43C 385.614,45.6942 395.614,48.6942 405.5,52C 428.308,59.2371 449.308,69.9037 468.5,84C 493.622,105.418 504.455,132.584 501,165.5C 496.946,153.06 492.612,140.727 488,128.5C 482.307,114.6 473.807,102.766 462.5,93C 422.163,63.9973 377.163,51.9973 327.5,57C 292.192,67.2319 262.025,85.7319 237,112.5C 223.117,134.174 215.95,158.007 215.5,184C 214.597,202.772 218.763,220.272 228,236.5C 251.674,270.813 284.174,291.313 325.5,298C 286.622,296.314 255.788,279.814 233,248.5C 209.65,211.445 204.983,172.111 219,130.5C 227.725,107.621 241.892,88.9539 261.5,74.5C 280.983,62.9306 301.65,53.7639 323.5,47C 331.418,45.3469 339.418,44.3469 347.5,44C 348.337,42.9887 348.67,41.8221 348.5,40.5 Z"/></g>
<g><path style="opacity:1" fill="#da9448" d="M 361.5,78.5 C 351.73,73.606 343.897,75.9393 338,85.5C 336.75,88.0766 336.416,90.7433 337,93.5C 337.561,94.0219 338.228,94.3552 339,94.5C 341.156,93.0149 343.323,91.5149 345.5,90C 349.882,89.5566 354.048,88.39 358,86.5C 360.468,87.5032 362.968,88.0032 365.5,88C 366.728,86.5098 366.728,85.0098 365.5,83.5C 367.344,85.2789 368.01,87.6122 367.5,90.5C 370.554,89.6789 373.554,89.6789 376.5,90.5C 377.309,92.0709 377.643,93.7376 377.5,95.5C 376.163,94.6851 375.163,93.5185 374.5,92C 369.301,90.4966 367.135,92.33 368,97.5C 369.997,98.6718 371.83,100.005 373.5,101.5C 375,101.547 376,100.881 376.5,99.5C 374.833,98.8333 373.167,98.1667 371.5,97.5C 373.284,96.394 375.118,96.394 377,97.5C 378.03,97.1639 378.53,96.4972 378.5,95.5C 384.932,95.8727 384.932,97.0394 378.5,99C 377.79,101.544 376.124,102.711 373.5,102.5C 370.068,100.52 366.402,99.0203 362.5,98C 361.743,96.4878 360.743,95.1545 359.5,94C 361.107,94.0187 362.774,94.1854 364.5,94.5C 364.5,93.1667 364.5,91.8333 364.5,90.5C 356.485,88.6379 349.152,89.9712 342.5,94.5C 340.257,95.4742 337.924,95.8076 335.5,95.5C 335.555,99.7181 337.388,100.718 341,98.5C 342.681,98.6083 343.848,99.2749 344.5,100.5C 340.358,98.4219 337.691,99.5886 336.5,104C 336.759,105.261 337.426,106.261 338.5,107C 340.473,107.495 342.473,107.662 344.5,107.5C 344.5,108.833 344.5,110.167 344.5,111.5C 343.596,110.791 343.263,109.791 343.5,108.5C 340.606,108.042 338.106,108.709 336,110.5C 335.482,104.78 334.649,99.4464 333.5,94.5C 335.014,90.697 336.014,86.697 336.5,82.5C 342.809,74.5608 350.809,72.3942 360.5,76C 361.252,76.6708 361.586,77.5041 361.5,78.5 Z"/></g>
<g><path style="opacity:1" fill="#2a110b" d="M 377.5,95.5 C 377.833,95.5 378.167,95.5 378.5,95.5C 378.53,96.4972 378.03,97.1639 377,97.5C 375.118,96.394 373.284,96.394 371.5,97.5C 373.167,98.1667 374.833,98.8333 376.5,99.5C 376,100.881 375,101.547 373.5,101.5C 371.83,100.005 369.997,98.6718 368,97.5C 367.135,92.33 369.301,90.4966 374.5,92C 375.163,93.5185 376.163,94.6851 377.5,95.5 Z"/></g>
<g><path style="opacity:1" fill="#d09748" d="M 413.5,80.5 C 419.997,82.2747 425.997,84.9414 431.5,88.5C 425.87,86.6923 420.203,84.859 414.5,83C 412.381,82.6582 412.047,81.8249 413.5,80.5 Z"/></g>
<g><path style="opacity:1" fill="#120505" d="M 361.5,78.5 C 363.531,79.5387 364.864,81.2054 365.5,83.5C 366.728,85.0098 366.728,86.5098 365.5,88C 362.968,88.0032 360.468,87.5032 358,86.5C 354.048,88.39 349.882,89.5566 345.5,90C 343.323,91.5149 341.156,93.0149 339,94.5C 338.228,94.3552 337.561,94.0219 337,93.5C 336.416,90.7433 336.75,88.0766 338,85.5C 343.897,75.9393 351.73,73.606 361.5,78.5 Z"/></g>
<g><path style="opacity:1" fill="#ce9245" d="M 359.5,68.5 C 346.115,68.2799 332.781,68.9466 319.5,70.5C 322.628,69.3681 325.962,68.5348 329.5,68C 339.675,67.1751 349.675,67.3417 359.5,68.5 Z"/></g>
<g><path style="opacity:1" fill="#cd9247" d="M 268.5,95.5 C 265.993,98.4728 263.326,101.473 260.5,104.5C 258.978,105.562 257.312,106.229 255.5,106.5C 257.99,103.51 260.657,100.677 263.5,98C 265.078,96.9055 266.745,96.0722 268.5,95.5 Z"/></g>
<g><path style="opacity:1" fill="#160505" d="M 324.5,98.5 C 324.768,100.099 324.434,101.432 323.5,102.5C 323.44,101.957 323.107,101.624 322.5,101.5C 320.833,102.833 319.167,104.167 317.5,105.5C 316.009,104.652 315.342,103.319 315.5,101.5C 316.295,97.5234 318.629,95.6901 322.5,96C 323.381,96.7083 324.047,97.5416 324.5,98.5 Z"/></g>
<g><path style="opacity:1" fill="#763309" d="M 324.5,98.5 C 325.895,100.847 325.728,103.181 324,105.5C 323.517,104.552 323.351,103.552 323.5,102.5C 324.434,101.432 324.768,100.099 324.5,98.5 Z"/></g>
<g><path style="opacity:1" fill="#1e0905" d="M 344.5,100.5 C 344.905,103.381 345.905,106.048 347.5,108.5C 346.812,109.855 345.812,110.855 344.5,111.5C 344.5,110.167 344.5,108.833 344.5,107.5C 342.473,107.662 340.473,107.495 338.5,107C 337.426,106.261 336.759,105.261 336.5,104C 337.691,99.5886 340.358,98.4219 344.5,100.5 Z"/></g>
<g><path style="opacity:1" fill="#d08d47" d="M 324.5,128.5 C 325.412,127.262 325.579,125.928 325,124.5C 319.91,121.706 315.077,118.54 310.5,115C 310.352,111.657 308.685,109.657 305.5,109C 295.786,106.664 292.453,110.164 295.5,119.5C 294.25,119.423 293.417,118.756 293,117.5C 292.211,113.909 292.378,110.409 293.5,107C 299.167,106.333 304.833,106.333 310.5,107C 312.455,109.168 313.121,111.502 312.5,114C 316.664,117.586 321.331,120.419 326.5,122.5C 328.259,125.505 327.592,127.505 324.5,128.5 Z"/></g>
<g><path style="opacity:1" fill="#070908" d="M 247.5,-0.5 C 258.167,-0.5 268.833,-0.5 279.5,-0.5C 296.589,1.4158 313.589,4.58247 330.5,9C 352.253,16.3892 373.587,24.5559 394.5,33.5C 393.317,34.5045 391.984,35.3378 390.5,36C 392.619,36.3418 392.953,37.1751 391.5,38.5C 373.53,33.0059 355.53,27.5059 337.5,22C 321.032,17.771 304.365,15.1043 287.5,14C 295.708,17.1023 303.708,20.769 311.5,25C 317.356,28.1889 321.856,32.6889 325,38.5C 335.389,36.1297 345.889,34.463 356.5,33.5C 361.079,33.4589 365.412,34.1256 369.5,35.5C 367.742,35.8769 366.075,36.5435 364.5,37.5C 360.643,37.0859 356.643,36.9192 352.5,37C 351.269,38.4048 349.936,39.5714 348.5,40.5C 348.67,41.8221 348.337,42.9887 347.5,44C 339.418,44.3469 331.418,45.3469 323.5,47C 301.65,53.7639 280.983,62.9306 261.5,74.5C 262.884,71.5022 261.884,69.5022 258.5,68.5C 259.306,67.2719 260.306,66.2719 261.5,65.5C 276.031,56.5687 291.364,49.2354 307.5,43.5C 310.55,42.7054 313.55,41.7054 316.5,40.5C 317.776,39.3864 317.776,38.3864 316.5,37.5C 314.454,34.6341 311.787,32.4675 308.5,31C 282.342,20.9177 255.342,16.5844 227.5,18C 205.612,24.8598 188.112,37.6931 175,56.5C 170.813,62.8934 168.313,69.8934 167.5,77.5C 172.887,77.4054 178.22,77.9054 183.5,79C 198.953,81.6169 211.953,88.4502 222.5,99.5C 222.557,100.609 222.89,101.609 223.5,102.5C 222.764,104.229 221.43,105.229 219.5,105.5C 219.167,105.5 218.833,105.5 218.5,105.5C 216.998,103.825 215.665,101.992 214.5,100C 201.307,91.5739 186.807,87.4072 171,87.5C 153.715,89.0389 137.548,94.2056 122.5,103C 91.1228,125.254 75.7895,155.754 76.5,194.5C 75.1411,193.993 74.1411,192.993 73.5,191.5C 72.9665,194.107 73.6331,196.607 75.5,199C 74.0997,200.438 72.433,201.271 70.5,201.5C 71.7199,199.716 71.7199,198.05 70.5,196.5C 70.5,186.833 70.5,177.167 70.5,167.5C 74.763,140.146 87.0964,116.979 107.5,98C 123.506,85.9419 141.506,79.1086 161.5,77.5C 165.254,54.1666 176.588,35.3333 195.5,21C 191.433,21.3499 187.433,22.3499 183.5,24C 149.852,39.1423 118.519,57.8089 89.5,80C 29.7026,131.342 3.53597,196.508 11,275.5C 13.5859,300.268 22.2526,322.602 37,342.5C 23.1569,311.102 17.8235,278.102 21,243.5C 27.3473,199.176 42.3473,158.176 66,120.5C 76.2094,105.957 88.7094,93.7903 103.5,84C 119.5,73.3333 135.5,62.6667 151.5,52C 153.949,51.2754 156.283,50.2754 158.5,49C 161.76,48.2165 164.927,48.3832 168,49.5C 168.492,50.549 168.326,51.549 167.5,52.5C 162.975,53.4284 158.642,54.9284 154.5,57C 136.5,70 118.5,83 100.5,96C 89.9,105.265 80.7334,115.765 73,127.5C 53.0281,163.082 40.0281,201.082 34,241.5C 27.0704,328.837 63.5704,390.003 143.5,425C 153.423,428.863 163.423,432.53 173.5,436C 175.063,438.476 174.396,439.976 171.5,440.5C 143.959,433.049 118.292,421.882 94.5,407C 115.315,424.58 137.982,439.413 162.5,451.5C 181.788,461.485 202.122,468.485 223.5,472.5C 235.649,475.757 248.149,477.09 261,476.5C 267.167,476.333 273.333,476.167 279.5,476C 284.076,475.728 288.409,474.895 292.5,473.5C 295.568,473.453 298.568,472.953 301.5,472C 276.718,466.945 255.384,455.612 237.5,438C 230.872,438.495 224.205,438.495 217.5,438C 203.977,435.83 190.644,432.83 177.5,429C 164.764,423.427 155.098,414.594 148.5,402.5C 148.5,401.5 148.5,400.5 148.5,399.5C 151.435,398.699 154.101,397.366 156.5,395.5C 162.313,407.478 171.313,416.312 183.5,422C 199.454,427.524 215.788,430.857 232.5,432C 209.404,401.054 208.904,369.887 231,338.5C 240.224,328.479 251.058,320.812 263.5,315.5C 262.537,317.642 262.87,319.642 264.5,321.5C 248.496,329.839 236.496,342.172 228.5,358.5C 230.018,357.696 231.852,357.696 234,358.5C 233.086,361.445 232.586,364.612 232.5,368C 232.641,371.552 233.141,375.052 234,378.5C 238.86,391.413 243.527,404.413 248,417.5C 250.796,424.12 254.796,429.786 260,434.5C 260.795,437.383 259.629,438.883 256.5,439C 278.118,453.983 302.118,461.316 328.5,461C 342.44,456.529 355.44,450.196 367.5,442C 390.613,420.684 393.613,396.85 376.5,370.5C 370.907,362.238 364.24,354.904 356.5,348.5C 358.086,349.413 359.586,349.413 361,348.5C 362.364,349.696 363.864,350.696 365.5,351.5C 366.713,351.253 367.38,350.586 367.5,349.5C 385.587,363.334 395.587,381.668 397.5,404.5C 396.242,423.794 388.242,439.628 373.5,452C 378.454,451.354 383.12,449.854 387.5,447.5C 421.375,434.94 450.708,415.607 475.5,389.5C 489.681,375.125 500.514,358.458 508,339.5C 516.974,310.98 523.807,281.98 528.5,252.5C 531.486,234.058 531.153,215.725 527.5,197.5C 527.335,194.482 527.502,191.482 528,188.5C 528.383,187.944 528.883,187.611 529.5,187.5C 533.001,195.666 535.668,203.999 537.5,212.5C 537.5,220.167 537.5,227.833 537.5,235.5C 533.441,273.489 525.607,310.823 514,347.5C 502.537,373.313 486.037,395.479 464.5,414C 442.06,433.073 417.06,448.073 389.5,459C 366.8,465.874 344.133,472.874 321.5,480C 305.576,484.285 289.576,487.452 273.5,489.5C 263.5,489.5 253.5,489.5 243.5,489.5C 195.508,482.889 151.842,465.389 112.5,437C 73.318,408.821 41.4847,373.988 17,332.5C 6.15763,311.722 0.324296,289.722 -0.5,266.5C -0.5,257.5 -0.5,248.5 -0.5,239.5C 5.04768,165.466 38.0477,106.966 98.5,64C 124.774,46.4368 152.108,30.4368 180.5,16C 202.052,6.86167 224.385,1.36167 247.5,-0.5 Z"/></g>
<g><path style="opacity:1" fill="#12120f" d="M 189.5,58.5 C 192.694,58.1756 193.694,59.3422 192.5,62C 193.448,62.4828 194.448,62.6495 195.5,62.5C 195.469,68.1861 192.803,70.6861 187.5,70C 185.556,67.8471 185.056,65.3471 186,62.5C 187.376,61.2949 188.542,59.9616 189.5,58.5 Z"/></g>
<g><path style="opacity:1" fill="#1b1c18" d="M 208.5,56.5 C 211.649,57.1603 213.149,59.1603 213,62.5C 216.004,56.8557 217.004,57.1891 216,63.5C 214.806,65.5254 213.306,65.8587 211.5,64.5C 207.732,67.591 205.732,66.591 205.5,61.5C 206.092,59.5775 207.092,57.9108 208.5,56.5 Z"/></g>
<g><path style="opacity:1" fill="#131412" d="M 228.5,51.5 C 230.939,52.0525 233.273,52.0525 235.5,51.5C 239.785,53.3902 240.619,56.3902 238,60.5C 234.918,60.414 231.751,60.5807 228.5,61C 225.914,57.839 225.914,54.6724 228.5,51.5 Z"/></g>
<g><path style="opacity:1" fill="#494b3f" d="M 259.5,43.5 C 260.713,44.4971 260.546,45.4971 259,46.5C 258.53,45.4232 258.697,44.4232 259.5,43.5 Z"/></g>
<g><path style="opacity:1" fill="#788378" d="M 316.5,37.5 C 317.776,38.3864 317.776,39.3864 316.5,40.5C 313.55,41.7054 310.55,42.7054 307.5,43.5C 309.763,41.6174 312.43,40.2841 315.5,39.5C 316.298,39.0431 316.631,38.3764 316.5,37.5 Z"/></g>
<g><path style="opacity:1" fill="#0f100b" d="M 238.5,36.5 C 241.967,36.4457 244.634,37.9457 246.5,41C 243.5,41.6667 240.5,41.6667 237.5,41C 236.419,39.2894 236.752,37.7894 238.5,36.5 Z"/></g>
<g><path style="opacity:1" fill="#0f0f0e" d="M 213.5,34.5 C 217.182,34.5907 220.349,35.924 223,38.5C 223.667,39.5 223.667,40.5 223,41.5C 221.615,42.5505 220.615,43.8839 220,45.5C 218.506,41.6959 217.672,42.0293 217.5,46.5C 211.501,46.998 209.334,44.3313 211,38.5C 212.481,37.5291 213.315,36.1958 213.5,34.5 Z"/></g>
<g><path style="opacity:1" fill="#191a17" d="M 256.5,34.5 C 257.5,34.5 258.5,34.5 259.5,34.5C 260.092,37.1272 260.425,39.7938 260.5,42.5C 258.076,42.8076 255.743,42.4742 253.5,41.5C 252.118,38.1985 253.118,35.8652 256.5,34.5 Z"/></g>
<g><path style="opacity:1" fill="#1f201c" d="M 274.5,25.5 C 277.261,24.9147 278.927,25.9147 279.5,28.5C 277.527,31.4817 275.527,34.4817 273.5,37.5C 273.167,37.1667 272.833,36.8333 272.5,36.5C 273.248,32.8433 273.915,29.1766 274.5,25.5 Z"/></g>
<g><path style="opacity:1" fill="#0e0405" d="M 324.5,128.5 C 313.217,130.127 303.551,127.127 295.5,119.5C 292.453,110.164 295.786,106.664 305.5,109C 308.685,109.657 310.352,111.657 310.5,115C 315.077,118.54 319.91,121.706 325,124.5C 325.579,125.928 325.412,127.262 324.5,128.5 Z"/></g>
<g><path style="opacity:1" fill="#84877c" d="M 218.5,105.5 C 218.833,105.5 219.167,105.5 219.5,105.5C 219.421,106.93 219.754,108.264 220.5,109.5C 217.503,115.794 214.17,121.794 210.5,127.5C 212.97,120.09 215.636,112.757 218.5,105.5 Z"/></g>
<g><path style="opacity:1" fill="#0b0c0a" d="M 147.5,118.5 C 149.792,118.244 151.959,118.577 154,119.5C 154.967,121.63 156.134,123.63 157.5,125.5C 154.449,130.031 150.616,130.697 146,127.5C 145.068,124.177 145.568,121.177 147.5,118.5 Z"/></g>
<g><path style="opacity:1" fill="#d69250" d="M 373.5,105.5 C 372.005,108.512 372.838,110.845 376,112.5C 377.479,118.108 379.979,123.108 383.5,127.5C 381.236,125.903 379.236,123.903 377.5,121.5C 375.167,117.582 373,113.582 371,109.5C 370.09,107.055 370.924,105.722 373.5,105.5 Z"/></g>
<g><path style="opacity:1" fill="#130403" d="M 373.5,105.5 C 379.696,105.514 384.863,107.847 389,112.5C 390.009,114.025 390.509,115.692 390.5,117.5C 390.5,120.167 390.5,122.833 390.5,125.5C 391.5,125.5 392.5,125.5 393.5,125.5C 396.288,126.226 398.288,127.893 399.5,130.5C 395.317,132.778 390.984,132.945 386.5,131C 385.837,129.482 384.837,128.315 383.5,127.5C 379.979,123.108 377.479,118.108 376,112.5C 372.838,110.845 372.005,108.512 373.5,105.5 Z"/></g>
<g><path style="opacity:1" fill="#e19441" d="M 255.5,107.5 C 254.986,109.366 254.32,111.2 253.5,113C 253.833,113.5 254.167,114 254.5,114.5C 260.585,113.062 266.585,113.396 272.5,115.5C 273.845,114.653 274.845,113.487 275.5,112C 280.807,110.672 281.64,111.838 278,115.5C 277.282,114.549 276.449,114.383 275.5,115C 276.43,118.072 277.097,121.239 277.5,124.5C 277.36,126.03 276.693,127.03 275.5,127.5C 274.855,119.353 270.522,115.187 262.5,115C 260.403,116.61 258.07,117.777 255.5,118.5C 255.267,125.399 254.6,132.399 253.5,139.5C 254.169,143.843 254.836,148.177 255.5,152.5C 254.768,151.192 253.934,149.858 253,148.5C 252.377,141.477 252.543,134.477 253.5,127.5C 252.5,127.5 251.5,127.5 250.5,127.5C 250.837,131.308 250.337,134.974 249,138.5C 248.501,133.845 248.334,129.179 248.5,124.5C 249.833,124.5 251.167,124.5 252.5,124.5C 252.702,122.011 252.202,119.677 251,117.5C 249.855,116.316 248.688,116.316 247.5,117.5C 249.033,113.296 251.7,109.963 255.5,107.5 Z"/></g>
<g><path style="opacity:1" fill="#5f401d" d="M 390.5,117.5 C 391.065,120.305 392.065,122.972 393.5,125.5C 392.5,125.5 391.5,125.5 390.5,125.5C 390.5,122.833 390.5,120.167 390.5,117.5 Z"/></g>
<g><path style="opacity:1" fill="#1a1a17" d="M 119.5,124.5 C 122.272,124.22 124.772,124.887 127,126.5C 127.916,130.779 126.083,132.612 121.5,132C 123.221,132.739 124.887,133.573 126.5,134.5C 124.051,135.91 121.884,135.576 120,133.5C 117.274,130.406 117.107,127.406 119.5,124.5 Z"/></g>
<g><path style="opacity:1" fill="#0f0505" d="M 275.5,127.5 C 273.599,127.567 271.766,127.233 270,126.5C 268.739,126.759 267.739,127.426 267,128.5C 266.501,133.489 266.334,138.489 266.5,143.5C 265.073,145.148 264.24,147.148 264,149.5C 263.825,153.446 263.658,157.28 263.5,161C 261.097,161.63 259.263,160.797 258,158.5C 257.434,156.277 256.6,154.277 255.5,152.5C 254.836,148.177 254.169,143.843 253.5,139.5C 254.6,132.399 255.267,125.399 255.5,118.5C 258.07,117.777 260.403,116.61 262.5,115C 270.522,115.187 274.855,119.353 275.5,127.5 Z"/></g>
<g><path style="opacity:1" fill="#da9851" d="M 469.5,121.5 C 472.818,128.137 476.152,134.803 479.5,141.5C 478.504,141.586 477.671,141.252 477,140.5C 473.22,134.656 470.72,128.323 469.5,121.5 Z"/></g>
<g><path style="opacity:1" fill="#161714" d="M 174.5,136.5 C 178.697,136.194 180.697,138.194 180.5,142.5C 177.187,141.955 173.854,141.455 170.5,141C 172.041,139.629 173.375,138.129 174.5,136.5 Z"/></g>
<g><path style="opacity:1" fill="#787a67" d="M 465.5,111.5 C 471.888,118.584 477.055,126.584 481,135.5C 485.951,147.733 490.617,160.067 495,172.5C 499.278,186.143 498.111,199.143 491.5,211.5C 491.5,210.167 491.5,208.833 491.5,207.5C 495.347,190.834 493.68,174.834 486.5,159.5C 486.454,152.984 484.121,147.651 479.5,143.5C 479.5,142.833 479.5,142.167 479.5,141.5C 476.152,134.803 472.818,128.137 469.5,121.5C 467.103,118.691 465.77,115.358 465.5,111.5 Z"/></g>
<g><path style="opacity:1" fill="#212419" d="M 124.5,140.5 C 125.797,141.849 125.63,143.182 124,144.5C 123.421,143.072 123.588,141.738 124.5,140.5 Z"/></g>
<g><path style="opacity:1" fill="#0f0506" d="M 447.5,161.5 C 446.022,161.238 444.689,161.571 443.5,162.5C 443.047,164.565 442.047,166.232 440.5,167.5C 439.522,167.023 438.689,166.357 438,165.5C 437.809,163.292 437.309,161.292 436.5,159.5C 437.3,151.598 434.3,145.765 427.5,142C 425.443,141.695 423.443,141.695 421.5,142C 419.78,138.914 420.447,136.581 423.5,135C 432.162,132.332 439.328,134.499 445,141.5C 445.739,140.426 446.739,139.759 448,139.5C 454.051,142.765 456.051,147.765 454,154.5C 451.628,156.703 449.461,159.037 447.5,161.5 Z"/></g>
<g><path style="opacity:1" fill="#282a22" d="M 126.5,143.5 C 127.675,143.281 128.675,143.614 129.5,144.5C 127.948,145.798 126.948,145.465 126.5,143.5 Z"/></g>
<g><path style="opacity:1" fill="#262821" d="M 122.5,145.5 C 123.458,145.953 124.292,146.619 125,147.5C 125.333,147.167 125.667,146.833 126,146.5C 126.711,150.498 125.711,151.165 123,148.5C 122.517,147.552 122.351,146.552 122.5,145.5 Z"/></g>
<g><path style="opacity:1" fill="#12130e" d="M 130.5,146.5 C 131.532,148.503 131.198,150.503 129.5,152.5C 128.692,152.192 128.025,151.692 127.5,151C 129.141,149.871 130.141,148.371 130.5,146.5 Z"/></g>
<g><path style="opacity:1" fill="#aa8655" d="M 479.5,143.5 C 484.121,147.651 486.454,152.984 486.5,159.5C 485.516,156.949 484.516,154.282 483.5,151.5C 480.845,149.556 479.511,146.89 479.5,143.5 Z"/></g>
<g><path style="opacity:1" fill="#121210" d="M 186.5,155.5 C 188.199,155.34 189.866,155.506 191.5,156C 192.022,156.561 192.355,157.228 192.5,158C 191.338,160.258 189.671,162.091 187.5,163.5C 182.502,161.488 182.168,158.822 186.5,155.5 Z"/></g>
<g><path style="opacity:1" fill="#140807" d="M 283.5,148.5 C 284.583,148.539 285.583,148.873 286.5,149.5C 290.552,156.804 288.719,161.804 281,164.5C 280.228,164.355 279.561,164.022 279,163.5C 278.468,160.736 277.634,158.07 276.5,155.5C 278.673,152.932 281.006,150.599 283.5,148.5 Z"/></g>
<g><path style="opacity:1" fill="#c1904b" d="M 319.5,162.5 C 313.718,159.128 309.051,160.128 305.5,165.5C 305.178,163.278 305.845,161.444 307.5,160C 311.486,159.501 315.486,159.334 319.5,159.5C 319.5,160.5 319.5,161.5 319.5,162.5 Z"/></g>
<g><path style="opacity:1" fill="#e19447" d="M 266.5,143.5 C 266.185,148.168 266.851,152.668 268.5,157C 268.057,158.825 267.723,160.658 267.5,162.5C 263.729,163.763 260.063,163.596 256.5,162C 256.58,158.959 256.247,155.793 255.5,152.5C 256.6,154.277 257.434,156.277 258,158.5C 259.263,160.797 261.097,161.63 263.5,161C 263.658,157.28 263.825,153.446 264,149.5C 264.24,147.148 265.073,145.148 266.5,143.5 Z"/></g>
<g><path style="opacity:1" fill="#161713" d="M 141.5,160.5 C 144.05,160.884 145.383,162.384 145.5,165C 145.18,167.799 144.18,170.299 142.5,172.5C 138.843,168.924 138.51,164.924 141.5,160.5 Z"/></g>
<g><path style="opacity:1" fill="#ca8b48" d="M 436.5,159.5 C 437.309,161.292 437.809,163.292 438,165.5C 438.689,166.357 439.522,167.023 440.5,167.5C 442.047,166.232 443.047,164.565 443.5,162.5C 444.689,161.571 446.022,161.238 447.5,161.5C 445,162.855 443.333,165.022 442.5,168C 440.527,168.495 438.527,168.662 436.5,168.5C 436.5,165.5 436.5,162.5 436.5,159.5 Z"/></g>
<g><path style="opacity:1" fill="#774115" d="M 340.5,162.5 C 341.638,165.304 341.805,168.304 341,171.5C 340.023,172.774 339.189,172.774 338.5,171.5C 338.611,170.883 338.944,170.383 339.5,170C 338.584,169.722 337.918,169.222 337.5,168.5C 338.5,168.5 339.5,168.5 340.5,168.5C 340.5,166.5 340.5,164.5 340.5,162.5 Z"/></g>
<g><path style="opacity:1" fill="#252522" d="M 93.5,168.5 C 92.7693,170.803 92.436,173.136 92.5,175.5C 88.4994,172.434 88.6661,169.434 93,166.5C 93.4643,167.094 93.631,167.761 93.5,168.5 Z"/></g>
<g><path style="opacity:1" fill="#626358" d="M 93.5,168.5 C 95.9484,168.01 97.615,168.843 98.5,171C 97.6321,173.235 96.6321,175.402 95.5,177.5C 95.1667,177.167 94.8333,176.833 94.5,176.5C 96.1174,174.368 96.6174,172.035 96,169.5C 94.0588,173.554 93.2254,173.22 93.5,168.5 Z"/></g>
<g><path style="opacity:1" fill="#c3dad1" d="M 70.5,167.5 C 70.5,177.167 70.5,186.833 70.5,196.5C 69.7321,195.737 69.2321,194.737 69,193.5C 68.1411,183.781 68.4745,174.115 70,164.5C 70.4828,165.448 70.6495,166.448 70.5,167.5 Z"/></g>
<g><path style="opacity:1" fill="#4d4e46" d="M 204.5,148.5 C 202.791,162.765 202.124,177.099 202.5,191.5C 201.732,190.737 201.232,189.737 201,188.5C 199.533,174.772 200.7,161.438 204.5,148.5 Z"/></g>
<g><path style="opacity:1" fill="#d18e46" d="M 244.5,122.5 C 241.827,129.354 239.493,136.354 237.5,143.5C 236.5,143.5 235.5,143.5 234.5,143.5C 232.18,155.037 230.513,166.704 229.5,178.5C 230.002,189.181 230.669,199.848 231.5,210.5C 230.252,207.058 229.419,203.392 229,199.5C 225.421,174.827 228.921,151.327 239.5,129C 240.729,126.401 242.396,124.234 244.5,122.5 Z"/></g>
<g><path style="opacity:1" fill="#160907" d="M 485.5,178.5 C 485.5,180.833 485.5,183.167 485.5,185.5C 482.673,184.026 480.173,184.36 478,186.5C 475.955,184.957 474.455,185.29 473.5,187.5C 472.276,190.072 470.609,192.405 468.5,194.5C 464.579,191.002 461.912,186.668 460.5,181.5C 462.062,173.969 466.229,171.969 473,175.5C 478.059,172.779 482.225,173.779 485.5,178.5 Z"/></g>
<g><path style="opacity:1" fill="#0c0405" d="M 340.5,162.5 C 340.5,164.5 340.5,166.5 340.5,168.5C 339.5,168.5 338.5,168.5 337.5,168.5C 334.52,168.759 332.687,167.426 332,164.5C 330.134,168.892 327.3,172.559 323.5,175.5C 326.583,177.417 328.75,180.084 330,183.5C 330.816,184.823 331.983,185.489 333.5,185.5C 333.5,186.167 333.833,186.5 334.5,186.5C 336.871,188.997 337.871,191.997 337.5,195.5C 340.86,195.384 344.193,195.051 347.5,194.5C 346.961,190.584 348.294,187.584 351.5,185.5C 352.167,185.5 352.833,185.5 353.5,185.5C 356.167,185.5 358.833,185.5 361.5,185.5C 361.5,182.167 361.5,178.833 361.5,175.5C 363.294,173.203 365.294,171.037 367.5,169C 364.627,166.629 364.961,164.796 368.5,163.5C 372.81,164.633 374.31,167.3 373,171.5C 371.267,173.723 369.767,176.056 368.5,178.5C 372.788,187.824 369.955,193.491 360,195.5C 359.364,202.635 355.53,206.635 348.5,207.5C 344.151,207.585 339.818,207.918 335.5,208.5C 333.035,208.522 330.702,208.022 328.5,207C 326.49,204.122 325.157,200.956 324.5,197.5C 321.228,196.069 318.062,194.402 315,192.5C 312.961,188.704 313.794,185.537 317.5,183C 308.452,180.763 304.452,174.93 305.5,165.5C 309.051,160.128 313.718,159.128 319.5,162.5C 320.251,163.573 321.251,163.74 322.5,163C 324.397,159.941 326.731,157.441 329.5,155.5C 332.259,155.977 333.925,157.644 334.5,160.5C 337.505,158.741 339.505,159.408 340.5,162.5 Z"/></g>
<g><path style="opacity:1" fill="#df9448" d="M 337.5,168.5 C 337.918,169.222 338.584,169.722 339.5,170C 338.944,170.383 338.611,170.883 338.5,171.5C 332.003,167.996 331.003,169.163 335.5,175C 333.098,175.678 330.932,175.178 329,173.5C 327.941,173.63 327.108,174.13 326.5,175C 328.703,178.568 331.036,182.068 333.5,185.5C 331.983,185.489 330.816,184.823 330,183.5C 328.75,180.084 326.583,177.417 323.5,175.5C 327.3,172.559 330.134,168.892 332,164.5C 332.687,167.426 334.52,168.759 337.5,168.5 Z"/></g>
<g><path style="opacity:1" fill="#90cfbf" d="M 70.5,167.5 C 70.6495,166.448 70.4828,165.448 70,164.5C 68.4745,174.115 68.1411,183.781 69,193.5C 69.2321,194.737 69.7321,195.737 70.5,196.5C 71.7199,198.05 71.7199,199.716 70.5,201.5C 63.9058,208.341 59.0724,216.341 56,225.5C 48.0844,249.903 45.0844,274.903 47,300.5C 48.781,312.726 53.781,323.393 62,332.5C 80.3819,349.939 102.215,360.272 127.5,363.5C 132.719,377.614 139.719,390.614 148.5,402.5C 155.098,414.594 164.764,423.427 177.5,429C 190.644,432.83 203.977,435.83 217.5,438C 224.205,438.495 230.872,438.495 237.5,438C 255.384,455.612 276.718,466.945 301.5,472C 298.568,472.953 295.568,473.453 292.5,473.5C 273.494,474.445 254.494,474.445 235.5,473.5C 234.833,472.5 234.167,471.5 233.5,470.5C 227.198,470.295 221.365,468.628 216,465.5C 211.211,464.452 206.378,463.785 201.5,463.5C 188.167,461.167 175.5,456.833 163.5,450.5C 162.893,450.624 162.56,450.957 162.5,451.5C 137.982,439.413 115.315,424.58 94.5,407C 118.292,421.882 143.959,433.049 171.5,440.5C 174.396,439.976 175.063,438.476 173.5,436C 163.423,432.53 153.423,428.863 143.5,425C 63.5704,390.003 27.0704,328.837 34,241.5C 40.0281,201.082 53.0281,163.082 73,127.5C 80.7334,115.765 89.9,105.265 100.5,96C 118.5,83 136.5,70 154.5,57C 158.642,54.9284 162.975,53.4284 167.5,52.5C 168.326,51.549 168.492,50.549 168,49.5C 164.927,48.3832 161.76,48.2165 158.5,49C 156.283,50.2754 153.949,51.2754 151.5,52C 135.5,62.6667 119.5,73.3333 103.5,84C 88.7094,93.7903 76.2094,105.957 66,120.5C 42.3473,158.176 27.3473,199.176 21,243.5C 17.8235,278.102 23.1569,311.102 37,342.5C 22.2526,322.602 13.5859,300.268 11,275.5C 3.53597,196.508 29.7026,131.342 89.5,80C 118.519,57.8089 149.852,39.1423 183.5,24C 187.433,22.3499 191.433,21.3499 195.5,21C 176.588,35.3333 165.254,54.1666 161.5,77.5C 141.506,79.1086 123.506,85.9419 107.5,98C 87.0964,116.979 74.763,140.146 70.5,167.5 Z"/></g>
<g><path style="opacity:1" fill="#6c6e63" d="M 177.5,189.5 C 176.508,189.672 175.842,189.338 175.5,188.5C 176.319,185.695 176.819,182.695 177,179.5C 177.498,182.817 177.665,186.15 177.5,189.5 Z"/></g>
<g><path style="opacity:1" fill="#6f4717" d="M 360.5,175.5 C 360.833,175.5 361.167,175.5 361.5,175.5C 361.5,178.833 361.5,182.167 361.5,185.5C 358.833,185.5 356.167,185.5 353.5,185.5C 355.607,184.532 357.941,184.198 360.5,184.5C 360.5,181.5 360.5,178.5 360.5,175.5 Z"/></g>
<g><path style="opacity:1" fill="#d59953" d="M 486.5,159.5 C 493.68,174.834 495.347,190.834 491.5,207.5C 492.022,194.716 491.189,182.049 489,169.5C 486.714,166.635 485.88,163.302 486.5,159.5 Z"/></g>
<g><path style="opacity:1" fill="#d29452" d="M 351.5,185.5 C 348.294,187.584 346.961,190.584 347.5,194.5C 344.193,195.051 340.86,195.384 337.5,195.5C 337.871,191.997 336.871,188.997 334.5,186.5C 338.093,187.43 339.759,189.763 339.5,193.5C 341.5,193.5 343.5,193.5 345.5,193.5C 344.676,188.555 346.676,185.888 351.5,185.5 Z"/></g>
<g><path style="opacity:1" fill="#f2f4e6" d="M 148.5,276.5 C 147.835,274.302 147.168,271.969 146.5,269.5C 145.513,272.768 145.18,276.102 145.5,279.5C 126.268,301.709 119.601,327.376 125.5,356.5C 106.514,354.174 89.8478,346.674 75.5,334C 62.1803,322.19 55.847,307.356 56.5,289.5C 57.3548,267.393 61.8548,246.059 70,225.5C 80.3893,205.538 96.8893,194.372 119.5,192C 147.406,188.753 173.072,194.753 196.5,210C 200.702,213.867 204.535,218.033 208,222.5C 211.791,231.414 216.124,240.081 221,248.5C 221.667,251.833 221.667,255.167 221,258.5C 220.107,259.081 219.107,259.415 218,259.5C 190.832,249.873 167.665,255.54 148.5,276.5 Z"/></g>
<g><path style="opacity:1" fill="#e99540" d="M 348.5,207.5 C 355.53,206.635 359.364,202.635 360,195.5C 369.955,193.491 372.788,187.824 368.5,178.5C 369.767,176.056 371.267,173.723 373,171.5C 374.31,167.3 372.81,164.633 368.5,163.5C 364.961,164.796 364.627,166.629 367.5,169C 365.294,171.037 363.294,173.203 361.5,175.5C 361.167,175.5 360.833,175.5 360.5,175.5C 362.058,171.254 363.724,166.921 365.5,162.5C 371.534,161.696 377.534,160.696 383.5,159.5C 382.199,161.672 381.199,164.005 380.5,166.5C 379.167,166.5 377.833,166.5 376.5,166.5C 376.452,169.313 375.785,171.979 374.5,174.5C 375.995,181.913 375.662,189.247 373.5,196.5C 372.5,197.5 371.5,198.5 370.5,199.5C 364.371,194.731 361.038,196.231 360.5,204C 357.05,206.949 353.05,208.116 348.5,207.5 Z"/></g>
<g><path style="opacity:1" fill="#cb8a49" d="M 245.5,197.5 C 244.524,198.815 243.524,200.148 242.5,201.5C 243.439,203.053 244.606,204.387 246,205.5C 246.574,204.646 247.241,203.646 248,202.5C 249.766,201.767 251.599,201.433 253.5,201.5C 253.185,197.2 250.851,195.533 246.5,196.5C 247.719,194.699 249.552,193.699 252,193.5C 254.884,194.424 256.051,196.424 255.5,199.5C 255.449,201.1 255.116,202.6 254.5,204C 245.512,209.054 241.178,206.554 241.5,196.5C 243.099,196.232 244.432,196.566 245.5,197.5 Z"/></g>
<g><path style="opacity:1" fill="#1b0c07" d="M 246.5,196.5 C 250.851,195.533 253.185,197.2 253.5,201.5C 251.599,201.433 249.766,201.767 248,202.5C 247.241,203.646 246.574,204.646 246,205.5C 244.606,204.387 243.439,203.053 242.5,201.5C 243.524,200.148 244.524,198.815 245.5,197.5C 246.167,197.5 246.5,197.167 246.5,196.5 Z"/></g>
<g><path style="opacity:1" fill="#434343" d="M 504.5,213.5 C 505.219,208.407 506.386,203.407 508,198.5C 508.232,203.902 507.065,208.902 504.5,213.5 Z"/></g>
<g><path style="opacity:1" fill="#e8f0ee" d="M 527.5,197.5 C 531.153,215.725 531.486,234.058 528.5,252.5C 528.491,232.409 526.324,212.409 522,192.5C 520.45,187.347 518.617,182.347 516.5,177.5C 516.681,174.603 516.348,171.77 515.5,169C 515.611,167.278 516.111,167.112 517,168.5C 520.666,178.202 524.166,187.869 527.5,197.5 Z"/></g>
<g><path style="opacity:1" fill="#b58a5f" d="M 456.5,207.5 C 455.974,209.23 454.974,210.564 453.5,211.5C 453.5,210.167 453.5,208.833 453.5,207.5C 454.5,207.5 455.5,207.5 456.5,207.5 Z"/></g>
<g><path style="opacity:1" fill="#da9551" d="M 395.5,226.5 C 394.503,226.53 393.836,226.03 393.5,225C 394.078,223.189 394.578,221.355 395,219.5C 396.907,219.579 398.907,219.246 401,218.5C 401.087,213.591 398.587,210.924 393.5,210.5C 389.936,211.283 386.603,212.616 383.5,214.5C 385.279,210.633 388.445,208.967 393,209.5C 396.651,209.766 400.151,210.599 403.5,212C 405.44,216.512 404.273,220.012 400,222.5C 396.691,221.324 395.191,222.657 395.5,226.5 Z"/></g>
<g><path style="opacity:1" fill="#110505" d="M 463.5,218.5 C 466.399,220.383 469.566,222.05 473,223.5C 473.415,227.26 471.915,228.594 468.5,227.5C 464.578,228.814 460.578,229.814 456.5,230.5C 454.286,230.389 452.286,229.722 450.5,228.5C 448.524,222.252 449.524,216.585 453.5,211.5C 454.974,210.564 455.974,209.23 456.5,207.5C 458.322,205.84 460.489,204.84 463,204.5C 467.082,205.159 468.416,207.492 467,211.5C 464.341,213.06 463.174,215.393 463.5,218.5 Z"/></g>
<g><path style="opacity:1" fill="#ce8e4c" d="M 253.5,223.5 C 251.662,213.987 245.996,209.987 236.5,211.5C 236.611,210.883 236.944,210.383 237.5,210C 248.601,207.713 253.934,212.213 253.5,223.5 Z"/></g>
<g><path style="opacity:1" fill="#130705" d="M 395.5,226.5 C 397.982,228.039 397.982,229.539 395.5,231C 396.624,231.249 397.624,231.749 398.5,232.5C 398.333,232.833 398.167,233.167 398,233.5C 395.555,234.906 393.055,236.24 390.5,237.5C 389.817,237.137 389.15,236.804 388.5,236.5C 383.317,231.143 381.317,224.81 382.5,217.5C 383.404,216.791 383.737,215.791 383.5,214.5C 386.603,212.616 389.936,211.283 393.5,210.5C 398.587,210.924 401.087,213.591 401,218.5C 398.907,219.246 396.907,219.579 395,219.5C 394.578,221.355 394.078,223.189 393.5,225C 393.836,226.03 394.503,226.53 395.5,226.5 Z"/></g>
<g><path style="opacity:1" fill="#100504" d="M 253.5,223.5 C 253.5,225.167 253.5,226.833 253.5,228.5C 244.098,227.935 238.098,223.102 235.5,214C 235.743,213.098 236.077,212.265 236.5,211.5C 245.996,209.987 251.662,213.987 253.5,223.5 Z"/></g>
<g><path style="opacity:1" fill="#131311" d="M 149.5,217.5 C 159.791,216.456 162.124,220.122 156.5,228.5C 151.019,230.983 148.019,229.317 147.5,223.5C 147.611,221.286 148.278,219.286 149.5,217.5 Z"/></g>
<g><path style="opacity:1" fill="#535453" d="M 504.5,213.5 C 503.75,218.582 501.917,223.249 499,227.5C 499.989,222.52 501.822,217.853 504.5,213.5 Z"/></g>
<g><path style="opacity:1" fill="#e29446" d="M 344.5,226.5 C 343.945,222.315 345.778,219.982 350,219.5C 355.806,220.376 361.639,221.043 367.5,221.5C 367.579,222.93 367.246,224.264 366.5,225.5C 367.59,227.003 368.757,227.336 370,226.5C 370.079,222.642 370.746,218.976 372,215.5C 374.408,219.142 375.075,223.142 374,227.5C 371.954,229.7 370.954,232.367 371,235.5C 369.266,237.451 367.099,238.451 364.5,238.5C 364.33,237.178 364.663,236.011 365.5,235C 360.23,234.326 355.064,234.826 350,236.5C 348,235.833 346,235.167 344,234.5C 341.702,232.696 341.035,230.363 342,227.5C 342.671,226.748 343.504,226.414 344.5,226.5 Z"/></g>
<g><path style="opacity:1" fill="#110607" d="M 344.5,226.5 C 346.932,225.25 349.266,223.75 351.5,222C 361.038,220.418 366.704,224.251 368.5,233.5C 361.159,233.666 353.826,233.5 346.5,233C 344.984,231.103 344.317,228.936 344.5,226.5 Z"/></g>
<g><path style="opacity:1" fill="#e2e3dc" d="M 149.5,224.5 C 151.728,225.322 152.395,226.655 151.5,228.5C 149.889,227.68 149.222,226.346 149.5,224.5 Z"/></g>
<g><path style="opacity:1" fill="#1f201e" d="M 135.5,228.5 C 138.893,228.062 141.893,228.895 144.5,231C 140.279,234.457 136.279,234.29 132.5,230.5C 133.602,229.824 134.602,229.158 135.5,228.5 Z"/></g>
<g><path style="opacity:1" fill="#0f0405" d="M 313.5,259.5 C 312.596,260.209 312.263,261.209 312.5,262.5C 310.763,265.008 309.93,268.008 310,271.5C 303.96,277.028 298.46,276.361 293.5,269.5C 295.394,268.055 297.06,266.388 298.5,264.5C 301.413,264.276 304.413,263.943 307.5,263.5C 309.874,251.766 305.208,244.266 293.5,241C 290.518,240.502 287.518,240.335 284.5,240.5C 284.802,245.467 287.135,249.133 291.5,251.5C 291.137,252.183 290.804,252.85 290.5,253.5C 286.484,254.1 282.984,253.1 280,250.5C 277.789,246.916 276.289,243.083 275.5,239C 275.482,236.59 276.149,234.423 277.5,232.5C 278.5,232.167 279.167,231.5 279.5,230.5C 295.519,225.262 307.019,230.262 314,245.5C 314.648,250.204 314.481,254.871 313.5,259.5 Z"/></g>
<g><path style="opacity:1" fill="#e79844" d="M 485.5,178.5 C 487.237,181.008 488.07,184.008 488,187.5C 488.5,194.158 488.666,200.825 488.5,207.5C 489.5,207.5 490.5,207.5 491.5,207.5C 491.5,208.833 491.5,210.167 491.5,211.5C 489.631,216.599 487.464,221.599 485,226.5C 477.969,235.687 470.803,244.687 463.5,253.5C 463.38,252.414 462.713,251.747 461.5,251.5C 459.879,252.705 458.546,252.539 457.5,251C 459.754,249.349 462.088,249.182 464.5,250.5C 465.298,248.922 465.798,247.256 466,245.5C 466.741,244.359 467.575,244.359 468.5,245.5C 469.415,244.672 470.081,243.672 470.5,242.5C 470.065,238.619 469.065,234.953 467.5,231.5C 466.727,233.813 466.06,236.146 465.5,238.5C 466.025,239.192 466.692,239.692 467.5,240C 464.999,246.038 463.665,245.872 463.5,239.5C 451.5,238.833 451.5,238.167 463.5,237.5C 463.5,235.5 463.5,233.5 463.5,231.5C 460.272,231.299 457.105,231.633 454,232.5C 451.926,231.928 450.76,230.595 450.5,228.5C 452.286,229.722 454.286,230.389 456.5,230.5C 460.578,229.814 464.578,228.814 468.5,227.5C 471.915,228.594 473.415,227.26 473,223.5C 469.566,222.05 466.399,220.383 463.5,218.5C 467.215,218.577 470.881,218.244 474.5,217.5C 474.505,223.545 474.172,229.379 473.5,235C 474.5,235.667 475.5,235.667 476.5,235C 477.282,232.26 477.782,229.426 478,226.5C 478.333,226.167 478.667,225.833 479,225.5C 479.333,226.5 479.667,227.5 480,228.5C 485.417,222.657 487.917,215.657 487.5,207.5C 486.5,207.5 485.5,207.5 484.5,207.5C 484.336,200.798 484.669,194.131 485.5,187.5C 481.564,186.791 477.564,186.791 473.5,187.5C 474.455,185.29 475.955,184.957 478,186.5C 480.173,184.36 482.673,184.026 485.5,185.5C 485.5,183.167 485.5,180.833 485.5,178.5 Z"/></g>
<g><path style="opacity:1" fill="#cf8d4a" d="M 382.5,217.5 C 381.317,224.81 383.317,231.143 388.5,236.5C 385.43,235.757 383.764,233.757 383.5,230.5C 382.5,230.5 381.5,230.5 380.5,230.5C 380.334,226.486 380.501,222.486 381,218.5C 381.383,217.944 381.883,217.611 382.5,217.5 Z"/></g>
<g><path style="opacity:1" fill="#151613" d="M 96.5,237.5 C 98.1667,237.5 99.8333,237.5 101.5,237.5C 101.776,242.412 99.9425,246.412 96,249.5C 96.0275,247.583 96.8608,245.916 98.5,244.5C 96.9547,243.548 95.288,243.215 93.5,243.5C 93.0283,240.642 94.0283,238.642 96.5,237.5 Z"/></g>
<g><path style="opacity:1" fill="#e49442" d="M 298.5,264.5 C 298.611,263.883 298.944,263.383 299.5,263C 301.81,262.503 304.143,262.337 306.5,262.5C 306.823,258.774 306.489,255.107 305.5,251.5C 301.531,250.67 297.531,250.004 293.5,249.5C 293.912,251.973 292.912,253.306 290.5,253.5C 290.804,252.85 291.137,252.183 291.5,251.5C 287.135,249.133 284.802,245.467 284.5,240.5C 287.518,240.335 290.518,240.502 293.5,241C 305.208,244.266 309.874,251.766 307.5,263.5C 304.413,263.943 301.413,264.276 298.5,264.5 Z"/></g>
<g><path style="opacity:1" fill="#e99640" d="M 277.5,232.5 C 276.149,234.423 275.482,236.59 275.5,239C 276.289,243.083 277.789,246.916 280,250.5C 282.984,253.1 286.484,254.1 290.5,253.5C 289.243,254.818 287.909,256.151 286.5,257.5C 285.369,256.249 284.036,255.249 282.5,254.5C 278.909,256.12 275.576,255.787 272.5,253.5C 271.125,256.547 268.792,257.88 265.5,257.5C 265.281,258.675 265.614,259.675 266.5,260.5C 270.38,260.71 272.047,262.71 271.5,266.5C 263.631,260.781 256.631,254.115 250.5,246.5C 253.382,247.811 256.382,248.978 259.5,250C 260.77,252.593 262.103,255.093 263.5,257.5C 264.842,255.995 266.508,255.328 268.5,255.5C 267.995,252.159 267.828,248.826 268,245.5C 269,244.833 270,244.167 271,243.5C 271.71,244.973 272.876,245.64 274.5,245.5C 273.865,242.507 273.699,239.507 274,236.5C 274.057,234.09 275.224,232.756 277.5,232.5 Z"/></g>
<g><path style="opacity:1" fill="#23342f" d="M 509.5,228.5 C 509.5,229.167 509.5,229.833 509.5,230.5C 508.189,236 508.189,241.5 509.5,247C 508.307,249.87 507.307,252.704 506.5,255.5C 507.448,248.336 507.448,241.336 506.5,234.5C 506.992,232.181 507.992,230.181 509.5,228.5 Z"/></g>
<g><path style="opacity:1" fill="#fdfdfd" d="M 537.5,235.5 C 537.5,320.167 537.5,404.833 537.5,489.5C 449.5,489.5 361.5,489.5 273.5,489.5C 289.576,487.452 305.576,484.285 321.5,480C 344.133,472.874 366.8,465.874 389.5,459C 417.06,448.073 442.06,433.073 464.5,414C 486.037,395.479 502.537,373.313 514,347.5C 525.607,310.823 533.441,273.489 537.5,235.5 Z"/></g>
<g><path style="opacity:1" fill="#121211" d="M 121.5,246.5 C 122.833,246.5 124.167,246.5 125.5,246.5C 125.608,250.247 125.108,253.914 124,257.5C 122.604,259.527 120.938,259.86 119,258.5C 118.51,259.793 118.343,261.127 118.5,262.5C 112.697,262.19 110.53,259.19 112,253.5C 112.273,251.671 113.107,250.171 114.5,249C 116.927,248.098 119.26,247.264 121.5,246.5 Z"/></g>
<g><path style="opacity:1" fill="#d5924e" d="M 419.5,246.5 C 421.833,246.833 423.167,248.167 423.5,250.5C 421.5,250.5 419.5,250.5 417.5,250.5C 417.629,252.216 417.962,253.883 418.5,255.5C 417.325,255.719 416.325,255.386 415.5,254.5C 416.189,252.556 416.689,250.556 417,248.5C 417.708,247.619 418.542,246.953 419.5,246.5 Z"/></g>
<g><path style="opacity:1" fill="#7c3c12" d="M 419.5,246.5 C 421.153,245.201 422.653,245.534 424,247.5C 424.498,250.482 424.665,253.482 424.5,256.5C 422.901,256.768 421.568,256.434 420.5,255.5C 421.5,255.5 422.5,255.5 423.5,255.5C 423.5,253.833 423.5,252.167 423.5,250.5C 423.167,248.167 421.833,246.833 419.5,246.5 Z"/></g>
<g><path style="opacity:1" fill="#1b0701" d="M 423.5,250.5 C 423.5,252.167 423.5,253.833 423.5,255.5C 422.5,255.5 421.5,255.5 420.5,255.5C 419.833,255.5 419.167,255.5 418.5,255.5C 417.962,253.883 417.629,252.216 417.5,250.5C 419.5,250.5 421.5,250.5 423.5,250.5 Z"/></g>
<g><path style="opacity:1" fill="#190d09" d="M 391.5,255.5 C 391.299,259.574 390.632,263.574 389.5,267.5C 386.642,268.661 383.975,269.994 381.5,271.5C 380.167,271.5 378.833,271.5 377.5,271.5C 375.717,260.36 380.383,255.026 391.5,255.5 Z"/></g>
<g><path style="opacity:1" fill="#f49737" d="M 298.5,264.5 C 293.546,264.962 290.879,267.628 290.5,272.5C 288.512,272.827 286.512,273.16 284.5,273.5C 282.465,272.796 280.465,272.129 278.5,271.5C 275.883,270.214 273.55,268.547 271.5,266.5C 272.047,262.71 270.38,260.71 266.5,260.5C 265.614,259.675 265.281,258.675 265.5,257.5C 268.792,257.88 271.125,256.547 272.5,253.5C 275.576,255.787 278.909,256.12 282.5,254.5C 284.036,255.249 285.369,256.249 286.5,257.5C 287.909,256.151 289.243,254.818 290.5,253.5C 292.912,253.306 293.912,251.973 293.5,249.5C 297.531,250.004 301.531,250.67 305.5,251.5C 306.489,255.107 306.823,258.774 306.5,262.5C 304.143,262.337 301.81,262.503 299.5,263C 298.944,263.383 298.611,263.883 298.5,264.5 Z"/></g>
<g><path style="opacity:1" fill="#727c75" d="M 495.5,231.5 C 496.043,231.56 496.376,231.893 496.5,232.5C 487.744,250.699 475.744,265.865 460.5,278C 473.513,263.455 485.18,247.955 495.5,231.5 Z"/></g>
<g><path style="opacity:1" fill="#9e9e9e" d="M 226.5,258.5 C 230.06,260.283 230.06,261.283 226.5,261.5C 226.5,260.5 226.5,259.5 226.5,258.5 Z"/></g>
<g><path style="opacity:1" fill="#c08e4d" d="M 462.5,255.5 C 460.883,258.784 458.55,261.451 455.5,263.5C 452.588,264.429 449.921,265.762 447.5,267.5C 448.174,265.976 449.174,264.642 450.5,263.5C 454.82,261.156 458.82,258.49 462.5,255.5 Z"/></g>
<g><path style="opacity:1" fill="#e89642" d="M 310.5,208.5 C 310.16,206.321 309.16,204.488 307.5,203C 296.501,201.668 292.001,206.501 294,217.5C 301.187,225.165 308.853,225.498 317,218.5C 319.63,214.621 318.797,212.288 314.5,211.5C 314.971,210.099 315.638,208.766 316.5,207.5C 317.354,208.522 318.354,209.355 319.5,210C 319.146,211.626 319.146,213.459 319.5,215.5C 326.809,216.184 334.142,216.684 341.5,217C 342.624,217.249 343.624,217.749 344.5,218.5C 344.333,218.833 344.167,219.167 344,219.5C 337.916,220.642 331.749,220.809 325.5,220C 323.697,217.897 321.364,217.064 318.5,217.5C 318.357,219.262 318.691,220.929 319.5,222.5C 317.657,222.755 315.657,222.922 313.5,223C 314.973,223.71 315.64,224.876 315.5,226.5C 312.478,226.804 309.478,227.304 306.5,228C 307.9,231.402 310.067,234.236 313,236.5C 315.616,244.635 317.45,252.968 318.5,261.5C 329.532,260.869 340.532,260.869 351.5,261.5C 351.5,262.5 351.5,263.5 351.5,264.5C 344.807,264.163 338.14,263.497 331.5,262.5C 329.22,262.733 327.22,263.566 325.5,265C 331.278,266.287 337.111,267.454 343,268.5C 344.376,268.684 345.209,269.351 345.5,270.5C 341.51,269.837 337.51,269.17 333.5,268.5C 325.86,268.969 322.36,272.969 323,280.5C 326.053,284.055 329.553,287.055 333.5,289.5C 330.077,288.945 326.911,287.611 324,285.5C 321.98,286.032 321.147,287.365 321.5,289.5C 324.063,290.088 326.396,291.088 328.5,292.5C 322.467,291.703 316.8,290.036 311.5,287.5C 313.167,287.5 314.833,287.5 316.5,287.5C 315.833,283.5 317.5,281.833 321.5,282.5C 321.177,278.774 321.511,275.107 322.5,271.5C 323.308,271.192 323.975,270.692 324.5,270C 323.109,268.98 321.609,268.147 320,267.5C 319.667,266.167 319.333,264.833 319,263.5C 317.625,265.937 317.125,268.603 317.5,271.5C 316.5,271.5 315.5,271.5 314.5,271.5C 314.693,267.434 314.36,263.434 313.5,259.5C 314.481,254.871 314.648,250.204 314,245.5C 307.019,230.262 295.519,225.262 279.5,230.5C 280.348,228.907 281.681,227.74 283.5,227C 287.442,226.007 291.442,225.34 295.5,225C 297.932,223.913 297.598,223.413 294.5,223.5C 292.676,219.792 291.676,215.792 291.5,211.5C 290.728,204.612 293.728,200.612 300.5,199.5C 303.419,200.64 306.419,201.473 309.5,202C 311.097,204.188 311.431,206.354 310.5,208.5 Z"/></g>
<g><path style="opacity:1" fill="#0e0507" d="M 310.5,208.5 C 308.631,209.165 306.631,209.831 304.5,210.5C 304.977,211.478 305.643,212.311 306.5,213C 308.833,213.667 311.167,213.667 313.5,213C 314.056,212.617 314.389,212.117 314.5,211.5C 318.797,212.288 319.63,214.621 317,218.5C 308.853,225.498 301.187,225.165 294,217.5C 292.001,206.501 296.501,201.668 307.5,203C 309.16,204.488 310.16,206.321 310.5,208.5 Z"/></g>
<g><path style="opacity:1" fill="#141412" d="M 76.5,265.5 C 79.5184,265.335 82.5184,265.502 85.5,266C 87.0736,275.082 83.4069,277.749 74.5,274C 73.9415,273.275 73.6082,272.442 73.5,271.5C 74.8214,269.668 75.8214,267.668 76.5,265.5 Z"/></g>
<g><path style="opacity:1" fill="#f2f4e6" d="M 263.5,315.5 C 251.058,320.812 240.224,328.479 231,338.5C 208.904,369.887 209.404,401.054 232.5,432C 215.788,430.857 199.454,427.524 183.5,422C 171.313,416.312 162.313,407.478 156.5,395.5C 152.781,387.729 148.781,380.063 144.5,372.5C 145.822,370.443 145.489,368.61 143.5,367C 144.885,365.403 145.551,363.57 145.5,361.5C 143.712,361.785 142.045,361.452 140.5,360.5C 138.949,356.247 138.116,351.914 138,347.5C 139.133,349.211 140.633,349.711 142.5,349C 144.405,347.185 146.072,345.185 147.5,343C 143.907,342.316 143.573,340.816 146.5,338.5C 143.83,335.081 140.83,334.748 137.5,337.5C 136.338,332.533 136.171,327.533 137,322.5C 140.489,305.355 148.322,290.522 160.5,278C 174.783,263.869 191.783,259.203 211.5,264C 212.833,264.667 213.833,265.667 214.5,267C 220.905,268.699 227.238,270.699 233.5,273C 248.577,283.085 262.744,294.251 276,306.5C 277.241,307.877 277.408,309.21 276.5,310.5C 271.989,311.999 267.656,313.665 263.5,315.5 Z"/></g>
<g><path style="opacity:1" fill="#f69736" d="M 313.5,259.5 C 314.36,263.434 314.693,267.434 314.5,271.5C 315.5,271.5 316.5,271.5 317.5,271.5C 317.125,268.603 317.625,265.937 319,263.5C 319.333,264.833 319.667,266.167 320,267.5C 321.609,268.147 323.109,268.98 324.5,270C 323.975,270.692 323.308,271.192 322.5,271.5C 321.511,275.107 321.177,278.774 321.5,282.5C 317.5,281.833 315.833,283.5 316.5,287.5C 314.833,287.5 313.167,287.5 311.5,287.5C 310.833,287.5 310.167,287.5 309.5,287.5C 308.878,284.224 306.878,282.891 303.5,283.5C 303.5,282.5 303.5,281.5 303.5,280.5C 301.801,280.62 300.135,280.954 298.5,281.5C 295.149,281.012 294.816,279.845 297.5,278C 300.518,277.501 303.518,277.668 306.5,278.5C 308.374,278.61 309.874,277.944 311,276.5C 311.665,271.844 312.165,267.177 312.5,262.5C 312.263,261.209 312.596,260.209 313.5,259.5 Z"/></g>
<g><path style="opacity:1" fill="#0c0406" d="M 345.5,270.5 C 350.189,271.816 354.689,273.816 359,276.5C 359.684,277.784 359.517,278.951 358.5,280C 356.866,280.494 355.199,280.66 353.5,280.5C 349.019,279.352 344.352,279.185 339.5,280C 338.288,281.107 338.621,281.607 340.5,281.5C 344.167,281.5 347.833,281.5 351.5,281.5C 351.5,283.167 351.5,284.833 351.5,286.5C 345.648,288.338 339.648,289.338 333.5,289.5C 329.553,287.055 326.053,284.055 323,280.5C 322.36,272.969 325.86,268.969 333.5,268.5C 337.51,269.17 341.51,269.837 345.5,270.5 Z"/></g>
<g><path style="opacity:1" fill="#55564f" d="M 148.5,276.5 C 147.5,277.5 146.5,278.5 145.5,279.5C 145.18,276.102 145.513,272.768 146.5,269.5C 147.168,271.969 147.835,274.302 148.5,276.5 Z"/></g>
<g><path style="opacity:1" fill="#d78f49" d="M 391.5,255.5 C 393.042,260.548 394.542,260.548 396,255.5C 397.883,256.653 398.716,258.319 398.5,260.5C 396.801,260.34 395.134,260.506 393.5,261C 392.167,262.333 392.167,263.667 393.5,265C 396.84,264.845 400.174,264.345 403.5,263.5C 400.733,264.431 398.733,266.264 397.5,269C 397.281,270.971 398.115,272.138 400,272.5C 405.843,270.981 407.343,267.981 404.5,263.5C 405.919,262.549 407.585,262.216 409.5,262.5C 409.663,264.857 409.497,267.19 409,269.5C 405.872,272.123 402.372,274.123 398.5,275.5C 395.826,274.501 395.159,272.834 396.5,270.5C 392.068,269.314 387.902,269.98 384,272.5C 383.329,271.748 382.496,271.414 381.5,271.5C 383.975,269.994 386.642,268.661 389.5,267.5C 390.632,263.574 391.299,259.574 391.5,255.5 Z"/></g>
<g><path style="opacity:1" fill="#110303" d="M 403.5,263.5 C 403.833,263.5 404.167,263.5 404.5,263.5C 407.343,267.981 405.843,270.981 400,272.5C 398.115,272.138 397.281,270.971 397.5,269C 398.733,266.264 400.733,264.431 403.5,263.5 Z"/></g>
<g><path style="opacity:1" fill="#111110" d="M 227.5,272.5 C 230.599,273.634 233.099,275.634 235,278.5C 235.49,279.793 235.657,281.127 235.5,282.5C 234.127,282.343 232.793,282.51 231.5,283C 227.518,286.391 225.684,285.558 226,280.5C 225.035,282.26 223.868,282.594 222.5,281.5C 221.572,280.232 221.405,278.899 222,277.5C 223.812,275.7 225.645,274.033 227.5,272.5 Z"/></g>
<g><path style="opacity:1" fill="#e39644" d="M 312.5,262.5 C 312.165,267.177 311.665,271.844 311,276.5C 309.874,277.944 308.374,278.61 306.5,278.5C 303.518,277.668 300.518,277.501 297.5,278C 294.816,279.845 295.149,281.012 298.5,281.5C 300.135,280.954 301.801,280.62 303.5,280.5C 303.5,281.5 303.5,282.5 303.5,283.5C 306.878,282.891 308.878,284.224 309.5,287.5C 297.852,284.51 287.518,279.177 278.5,271.5C 280.465,272.129 282.465,272.796 284.5,273.5C 286.512,273.16 288.512,272.827 290.5,272.5C 290.879,267.628 293.546,264.962 298.5,264.5C 297.06,266.388 295.394,268.055 293.5,269.5C 298.46,276.361 303.96,277.028 310,271.5C 309.93,268.008 310.763,265.008 312.5,262.5 Z"/></g>
<g><path style="opacity:1" fill="#fdfdfd" d="M -0.5,266.5 C 0.324296,289.722 6.15763,311.722 17,332.5C 41.4847,373.988 73.318,408.821 112.5,437C 151.842,465.389 195.508,482.889 243.5,489.5C 162.167,489.5 80.8333,489.5 -0.5,489.5C -0.5,415.167 -0.5,340.833 -0.5,266.5 Z"/></g>
<g><path style="opacity:1" fill="#151513" d="M 128.5,282.5 C 121.036,283.11 119.703,280.61 124.5,275C 125.784,274.316 126.951,274.483 128,275.5C 128.497,277.81 128.663,280.143 128.5,282.5 Z"/></g>
<g><path style="opacity:1" fill="#131312" d="M 94.5,276.5 C 95.8333,276.5 97.1667,276.5 98.5,276.5C 98.6636,282.167 98.9969,282.5 99.5,277.5C 105.281,279.81 105.948,283.31 101.5,288C 91.3538,288.872 89.0205,285.038 94.5,276.5 Z"/></g>
<g><path style="opacity:1" fill="#6d390b" d="M 353.5,280.5 C 348.968,280.182 344.634,280.515 340.5,281.5C 338.621,281.607 338.288,281.107 339.5,280C 344.352,279.185 349.019,279.352 353.5,280.5 Z"/></g>
<g><path style="opacity:1" fill="#222321" d="M 128.5,282.5 C 131.047,284.29 130.714,285.956 127.5,287.5C 127.167,287.167 126.833,286.833 126.5,286.5C 127.63,285.378 128.297,284.044 128.5,282.5 Z"/></g>
<g><path style="opacity:1" fill="#bab9be" d="M 97.5,284.5 C 98.7125,285.497 98.5458,286.497 97,287.5C 96.5304,286.423 96.6971,285.423 97.5,284.5 Z"/></g>
<g><path style="opacity:1" fill="#787e6e" d="M 455.5,263.5 C 440.865,281.328 422.198,292.828 399.5,298C 379.233,301.907 358.899,302.407 338.5,299.5C 338.624,298.893 338.957,298.56 339.5,298.5C 344.985,299.652 350.651,299.818 356.5,299C 360.43,298.758 364.097,297.925 367.5,296.5C 375.214,296.705 382.881,296.205 390.5,295C 391.167,294.333 391.833,293.667 392.5,293C 395.036,292.814 397.369,292.314 399.5,291.5C 399.937,289.926 400.937,288.759 402.5,288C 411.333,285.881 420,283.214 428.5,280C 434.777,275.397 441.11,271.23 447.5,267.5C 449.921,265.762 452.588,264.429 455.5,263.5 Z"/></g>
<g><path style="opacity:1" fill="#cd9751" d="M 399.5,291.5 C 397.369,292.314 395.036,292.814 392.5,293C 391.833,293.667 391.167,294.333 390.5,295C 382.881,296.205 375.214,296.705 367.5,296.5C 378.132,295.189 388.798,293.522 399.5,291.5 Z"/></g>
<g><path style="opacity:1" fill="#20211b" d="M 191.5,293.5 C 192.239,293.369 192.906,293.536 193.5,294C 192.061,297.049 190.894,300.215 190,303.5C 189.037,299.851 189.537,296.518 191.5,293.5 Z"/></g>
<g><path style="opacity:1" fill="#b38c58" d="M 333.5,293.5 C 337.585,292.659 340.585,293.992 342.5,297.5C 344.667,297.833 346.833,298.167 349,298.5C 355.165,297.766 361.332,297.1 367.5,296.5C 364.097,297.925 360.43,298.758 356.5,299C 350.651,299.818 344.985,299.652 339.5,298.5C 339.5,297.5 339.5,296.5 339.5,295.5C 337.214,295.405 335.214,294.738 333.5,293.5 Z"/></g>
<g><path style="opacity:1" fill="#90cfbf" d="M 516.5,177.5 C 518.617,182.347 520.45,187.347 522,192.5C 526.324,212.409 528.491,232.409 528.5,252.5C 523.807,281.98 516.974,310.98 508,339.5C 500.514,358.458 489.681,375.125 475.5,389.5C 475.565,389.062 475.399,388.728 475,388.5C 458.403,402.433 441.236,415.6 423.5,428C 411.598,434.783 399.598,441.283 387.5,447.5C 383.12,449.854 378.454,451.354 373.5,452C 388.242,439.628 396.242,423.794 397.5,404.5C 395.587,381.668 385.587,363.334 367.5,349.5C 360.561,343.899 353.894,337.899 347.5,331.5C 354.167,330.833 360.833,330.167 367.5,329.5C 432.48,324.862 478.813,293.195 506.5,234.5C 507.448,241.336 507.448,248.336 506.5,255.5C 504.265,305.264 487.098,348.931 455,386.5C 441.057,401.781 425.89,415.614 409.5,428C 408.62,429.356 408.286,430.856 408.5,432.5C 410.199,432.66 411.866,432.494 413.5,432C 436.127,417.571 456.627,400.404 475,380.5C 493.371,358.078 505.037,332.411 510,303.5C 513.298,279.585 514.131,255.585 512.5,231.5C 511.583,230.873 510.583,230.539 509.5,230.5C 509.5,229.833 509.5,229.167 509.5,228.5C 515.889,212.093 518.222,195.093 516.5,177.5 Z"/></g>
<g><path style="opacity:1" fill="#050908" d="M 509.5,230.5 C 510.583,230.539 511.583,230.873 512.5,231.5C 514.131,255.585 513.298,279.585 510,303.5C 505.037,332.411 493.371,358.078 475,380.5C 456.627,400.404 436.127,417.571 413.5,432C 411.866,432.494 410.199,432.66 408.5,432.5C 408.286,430.856 408.62,429.356 409.5,428C 425.89,415.614 441.057,401.781 455,386.5C 487.098,348.931 504.265,305.264 506.5,255.5C 507.307,252.704 508.307,249.87 509.5,247C 508.189,241.5 508.189,236 509.5,230.5 Z"/></g>
<g><path style="opacity:1" fill="#0e0f0c" d="M 253.5,303.5 C 257.029,302.889 258.862,304.223 259,307.5C 255.392,308.949 251.892,308.783 248.5,307C 250.881,306.777 252.547,305.61 253.5,303.5 Z"/></g>
<g><path style="opacity:1" fill="#12120f" d="M 194.5,303.5 C 195.5,303.5 196.5,303.5 197.5,303.5C 197.5,305.167 197.5,306.833 197.5,308.5C 199.199,308.34 200.866,308.506 202.5,309C 198.037,311.174 194.037,310.508 190.5,307C 192.093,306.051 193.426,304.885 194.5,303.5 Z"/></g>
<g><path style="opacity:1" fill="#181917" d="M 90.5,311.5 C 94.4778,314.877 94.4778,318.377 90.5,322C 85.7083,322.542 83.5417,320.375 84,315.5C 86.0948,313.875 88.2615,312.542 90.5,311.5 Z"/></g>
<g><path style="opacity:1" fill="#757b70" d="M 287.5,304.5 C 287.735,303.903 288.235,303.57 289,303.5C 326.686,314.254 364.853,316.754 403.5,311C 363.925,322.858 325.258,320.692 287.5,304.5 Z"/></g>
<g><path style="opacity:1" fill="#f2f4e7" d="M 341.5,334.5 C 343.637,339.815 346.804,344.481 351,348.5C 351.483,349.448 351.649,350.448 351.5,351.5C 358.805,355.288 365.138,360.454 370.5,367C 372.405,368.421 374.405,369.588 376.5,370.5C 393.613,396.85 390.613,420.684 367.5,442C 355.44,450.196 342.44,456.529 328.5,461C 302.118,461.316 278.118,453.983 256.5,439C 259.629,438.883 260.795,437.383 260,434.5C 254.796,429.786 250.796,424.12 248,417.5C 243.527,404.413 238.86,391.413 234,378.5C 233.141,375.052 232.641,371.552 232.5,368C 232.586,364.612 233.086,361.445 234,358.5C 231.852,357.696 230.018,357.696 228.5,358.5C 236.496,342.172 248.496,329.839 264.5,321.5C 271.045,319.041 277.711,316.874 284.5,315C 286.5,314.333 288.5,314.333 290.5,315C 303.954,321.152 317.954,325.485 332.5,328C 335.529,330.176 338.529,332.343 341.5,334.5 Z"/></g>
<g><path style="opacity:1" fill="#0f1a18" d="M 470.5,317.5 C 471.141,319.042 472.141,320.376 473.5,321.5C 478.746,317.212 480.913,318.546 480,325.5C 479.586,325.957 479.086,326.291 478.5,326.5C 476.32,324.91 473.987,323.576 471.5,322.5C 470.691,320.929 470.357,319.262 470.5,317.5 Z"/></g>
<g><path style="opacity:1" fill="#131411" d="M 156.5,327.5 C 157.833,327.5 159.167,327.5 160.5,327.5C 160.187,330.572 160.854,333.405 162.5,336C 160.816,338.706 158.483,339.206 155.5,337.5C 154.146,333.979 154.48,330.646 156.5,327.5 Z"/></g>
<g><path style="opacity:1" fill="#34514c" d="M 367.5,329.5 C 360.833,330.167 354.167,330.833 347.5,331.5C 346.711,331.217 346.044,330.717 345.5,330C 352.826,329.5 360.159,329.334 367.5,329.5 Z"/></g>
<g><path style="opacity:1" fill="#30312b" d="M 164.5,328.5 C 165.712,330.264 165.379,331.93 163.5,333.5C 162.799,331.808 163.133,330.142 164.5,328.5 Z"/></g>
<g><path style="opacity:1" fill="#080e0f" d="M 380.5,336.5 C 380.5,338.167 380.5,339.833 380.5,341.5C 377.918,341.975 375.918,341.308 374.5,339.5C 375.336,335.809 377.336,334.809 380.5,336.5 Z"/></g>
<g><path style="opacity:1" fill="#4d6e67" d="M 380.5,336.5 C 381.167,338.167 381.833,339.833 382.5,341.5C 381.89,342.391 381.557,343.391 381.5,344.5C 379.2,342.798 376.533,342.132 373.5,342.5C 373.263,341.209 373.596,340.209 374.5,339.5C 375.918,341.308 377.918,341.975 380.5,341.5C 380.5,339.833 380.5,338.167 380.5,336.5 Z"/></g>
<g><path style="opacity:1" fill="#071b15" d="M 381.5,344.5 C 381.557,343.391 381.89,342.391 382.5,341.5C 383.767,340.913 384.767,340.913 385.5,341.5C 384.717,343.288 383.384,344.288 381.5,344.5 Z"/></g>
<g><path style="opacity:1" fill="#1e1e1c" d="M 154.5,341.5 C 159.358,342.484 159.691,344.65 155.5,348C 158.539,347.63 160.373,345.796 161,342.5C 162.017,350.002 159.184,352.335 152.5,349.5C 150.982,346.239 151.648,343.573 154.5,341.5 Z"/></g>
<g><path style="opacity:1" fill="#9bcbbb" d="M 341.5,334.5 C 346.5,339.167 351.5,343.833 356.5,348.5C 364.24,354.904 370.907,362.238 376.5,370.5C 374.405,369.588 372.405,368.421 370.5,367C 365.138,360.454 358.805,355.288 351.5,351.5C 351.649,350.448 351.483,349.448 351,348.5C 346.804,344.481 343.637,339.815 341.5,334.5 Z"/></g>
<g><path style="opacity:1" fill="#0a0b06" d="M 296.5,346.5 C 297.822,346.33 298.989,346.663 300,347.5C 301.007,352.294 300.84,354.294 299.5,353.5C 297.5,353.5 295.5,353.5 293.5,353.5C 293.15,350.547 294.15,348.213 296.5,346.5 Z"/></g>
<g><path style="opacity:1" fill="#0d0d0b" d="M 333.5,359.5 C 336.585,359.418 338.252,360.918 338.5,364C 337.763,367.31 335.929,369.81 333,371.5C 329.551,367.245 329.718,363.245 333.5,359.5 Z"/></g>
<g><path style="opacity:1" fill="#adafa1" d="M 193.5,359.5 C 194.117,359.611 194.617,359.944 195,360.5C 195.825,364.211 195.659,367.878 194.5,371.5C 193.509,367.555 193.176,363.555 193.5,359.5 Z"/></g>
<g><path style="opacity:1" fill="#404236" d="M 177.5,369.5 C 178.476,368.185 179.476,366.852 180.5,365.5C 181.262,367.781 180.262,369.114 177.5,369.5 Z"/></g>
<g><path style="opacity:1" fill="#10110f" d="M 249.5,365.5 C 256.636,364.968 260.303,368.302 260.5,375.5C 256.96,375.377 254.96,377.043 254.5,380.5C 250.317,381.154 247.484,379.488 246,375.5C 245.333,373.5 245.333,371.5 246,369.5C 247.376,368.295 248.542,366.962 249.5,365.5 Z"/></g>
<g><path style="opacity:1" fill="#21221e" d="M 152.5,362.5 C 157.084,361.793 160.75,363.293 163.5,367C 161.833,368 160.167,369 158.5,370C 156.094,370.779 154.427,369.946 153.5,367.5C 155.5,366.833 157.5,366.167 159.5,365.5C 156.705,365.062 154.372,364.062 152.5,362.5 Z"/></g>
<g><path style="opacity:1" fill="#191a16" d="M 177.5,369.5 C 174.689,372.302 172.022,372.135 169.5,369C 170.029,364.05 172.696,361.883 177.5,362.5C 177.415,364.929 176.415,366.929 174.5,368.5C 175.325,369.386 176.325,369.719 177.5,369.5 Z"/></g>
<g><path style="opacity:1" fill="#12140d" d="M 356.5,373.5 C 355.833,373.5 355.167,373.5 354.5,373.5C 354.5,372.5 354.5,371.5 354.5,370.5C 358.25,370.504 358.917,371.504 356.5,373.5 Z"/></g>
<g><path style="opacity:1" fill="#808179" d="M 354.5,373.5 C 355.167,373.5 355.833,373.5 356.5,373.5C 355.922,376.28 355.255,378.947 354.5,381.5C 354.5,379.5 354.5,377.5 354.5,375.5C 354.5,374.833 354.5,374.167 354.5,373.5 Z"/></g>
<g><path style="opacity:1" fill="#1d1e18" d="M 354.5,375.5 C 354.5,377.5 354.5,379.5 354.5,381.5C 352.58,382.94 350.913,382.607 349.5,380.5C 350.855,378.479 352.521,376.812 354.5,375.5 Z"/></g>
<g><path style="opacity:1" fill="#7e7f7b" d="M 224.5,383.5 C 226.356,389.636 227.522,395.969 228,402.5C 225.611,396.388 224.444,390.055 224.5,383.5 Z"/></g>
<g><path style="opacity:1" fill="#e7f2f0" d="M 475.5,389.5 C 450.708,415.607 421.375,434.94 387.5,447.5C 399.598,441.283 411.598,434.783 423.5,428C 441.236,415.6 458.403,402.433 475,388.5C 475.399,388.728 475.565,389.062 475.5,389.5 Z"/></g>
<g><path style="opacity:1" fill="#161614" d="M 282.5,431.5 C 283.833,431.5 285.167,431.5 286.5,431.5C 289.063,437.6 287.063,440.933 280.5,441.5C 280.576,438.027 281.242,434.694 282.5,431.5 Z"/></g>
<g><path style="opacity:1" fill="#1a1a18" d="M 325.5,435.5 C 326.721,434.535 328.054,434.702 329.5,436C 334.697,439.989 334.53,443.489 329,446.5C 324.538,446.208 322.372,443.874 322.5,439.5C 324.604,439.799 326.604,439.466 328.5,438.5C 327.812,437.145 326.812,436.145 325.5,435.5 Z"/></g>
<g><path style="opacity:1" fill="#dfeae9" d="M 162.5,451.5 C 162.56,450.957 162.893,450.624 163.5,450.5C 175.5,456.833 188.167,461.167 201.5,463.5C 209.785,466.163 218.119,468.997 226.5,472C 225.552,472.483 224.552,472.649 223.5,472.5C 202.122,468.485 181.788,461.485 162.5,451.5 Z"/></g>
<g><path style="opacity:1" fill="#9bc8bd" d="M 201.5,463.5 C 206.378,463.785 211.211,464.452 216,465.5C 221.365,468.628 227.198,470.295 233.5,470.5C 234.167,471.5 234.833,472.5 235.5,473.5C 254.494,474.445 273.494,474.445 292.5,473.5C 288.409,474.895 284.076,475.728 279.5,476C 273.333,476.167 267.167,476.333 261,476.5C 248.149,477.09 235.649,475.757 223.5,472.5C 224.552,472.649 225.552,472.483 226.5,472C 218.119,468.997 209.785,466.163 201.5,463.5 Z"/></g>
</svg>
