<?xml version="1.0" encoding="UTF-8" standalone="no"?>
<!-- Uploaded to: SVG Repo, www.svgrepo.com, Generator: SVG Repo Mixer Tools -->

<svg
   fill="#000000"
   height="800px"
   width="800px"
   version="1.1"
   id="Capa_1"
   viewBox="0 0 312.85 312.85"
   xml:space="preserve"
   xmlns="http://www.w3.org/2000/svg"
   xmlns:svg="http://www.w3.org/2000/svg"><defs
   id="defs11" />
<g
   id="g6"
   style="fill:#ff6600">
	<path
   d="M146.216,0.146c-3.314-0.681-6.636,1.07-7.96,4.177l-48.22,113.148c-14.866,32.859-1.147,72.203,4.714,86.19l-57.86,47.961   c-1.478,1.225-2.397,2.996-2.549,4.909c-0.152,1.914,0.477,3.807,1.743,5.25l42.698,48.649c1.354,1.542,3.302,2.419,5.341,2.419   c0.12,0,0.24-0.003,0.36-0.009c2.169-0.11,4.168-1.205,5.428-2.974l60.574-85.014c0.857-1.203,1.318-2.644,1.319-4.121   l0.004-10.139c0.02-43.193,0.092-195.469,0.092-203.485C151.901,3.732,149.525,0.821,146.216,0.146z"
   id="path2"
   style="fill:#ff6600" />
	<path
   d="M278.509,256.531c-0.151-1.914-1.071-3.685-2.549-4.909l-57.861-47.961c5.862-13.987,19.581-53.331,4.714-86.19   L174.593,4.323c-1.323-3.107-4.651-4.857-7.96-4.177c-3.309,0.675-5.685,3.586-5.685,6.963c0,8.016,0.072,160.292,0.092,203.485   l0.004,10.139c0.001,1.477,0.461,2.917,1.319,4.121l60.574,85.014c1.26,1.768,3.259,2.864,5.428,2.974   c0.121,0.006,0.241,0.009,0.36,0.009c2.04,0,3.988-0.877,5.341-2.419l42.698-48.649   C278.032,260.338,278.661,258.445,278.509,256.531z"
   id="path4"
   style="fill:#ff6600" />
</g>
<path
   style="fill:none;stroke:#000000;stroke-width:0.391062px;stroke-linecap:butt;stroke-linejoin:miter;stroke-opacity:1"
   d="m 59.744139,239.59753 c 7.229315,13.56088 19.656182,17.8617 31.901417,26.02507 3.574815,2.38318 7.026685,5.01686 10.639464,7.40935 1.60007,1.05961 2.53982,3.34207 4.22951,4.22951 2.98155,1.56592 2.87567,-1.43332 7.26319,2.954"
   id="path74" /><path
   style="fill:none;stroke:#000000;stroke-width:0.391062px;stroke-linecap:butt;stroke-linejoin:miter;stroke-opacity:1"
   d="m 59.744139,239.59753 c -2.694616,3.84908 -6.098244,7.28886 -8.083852,11.54723 -0.60784,1.30358 15.359003,19.53411 17.334311,20.32423 1.77594,0.71038 3.91599,0.26995 5.626799,1.12536 5.282132,2.64106 9.388292,12.20656 15.464527,12.20656 2.426457,0 3.428183,3.52432 5.537402,4.11143 1.054027,0.29339 2.305051,-0.49199 3.282289,0 0.906327,0.45629 1.326925,2.74241 2.152535,2.1525 4.53422,-3.23976 8.47971,-7.23292 12.71957,-10.84938"
   id="path76" /><path
   style="fill:none;stroke:#000000;stroke-width:0.391062px;stroke-linecap:butt;stroke-linejoin:miter;stroke-opacity:1"
   d="m 206.66798,285.11302 c 3.59538,-7.28222 19.1895,-15.39472 22.87384,-22.7634 0.5305,-1.061 0.46736,-2.38907 1.12536,-3.37608 0.46528,-0.69792 1.78476,-0.42789 2.25072,-1.12536 3.40849,-5.10201 8.68955,-8.57572 12.36488,-13.47615 2.25572,-3.00764 3.68079,-7.20118 5.5852,-10.05179 0.65238,-1.50634 2.47696,-2.04729 3.362,-3.362 1.2434,-1.84704 0.61235,-2.75509 2.02392,-4.16666"
   id="path78" /><path
   style="fill:none;stroke:#000000;stroke-width:0.391062px;stroke-linecap:butt;stroke-linejoin:miter;stroke-opacity:1"
   d="m 206.66798,285.11302 44.2,-50.79278"
   id="path80" /><path
   style="fill:none;stroke:#000000;stroke-width:0.391062px;stroke-linecap:butt;stroke-linejoin:miter;stroke-opacity:1"
   d="m 206.66798,285.11302 44.2,-50.79278"
   id="path82" /><path
   style="fill:none;stroke:#000000;stroke-width:0.391062px;stroke-linecap:butt;stroke-linejoin:miter;stroke-opacity:1"
   d="m 218.099,203.661 -37.01613,45.05538"
   id="path84" /><path
   style="fill:none;stroke:#000000;stroke-width:0.391062px;stroke-linecap:butt;stroke-linejoin:miter;stroke-opacity:1"
   d="m 94.750001,203.661 41.845409,39.90537"
   id="path86" /><circle
   id="path123"
   style="fill:#ff0000;stroke:#000000;stroke-width:0.391062"
   cx="51.611759"
   cy="242.69417"
   r="0.22155222" /><circle
   id="path125"
   style="fill:#ff0000;stroke:#000000;stroke-width:0.391062"
   cx="51.611759"
   cy="242.69417"
   r="0.22155222" /><path
   style="fill:#ff0000;stroke-width:0.391062"
   id="path127"
   d="m 46.63635,250.30718 c 0.239107,0.58809 0.367591,1.23445 0.717322,1.76427 2.89398,4.38416 8.666121,7.70278 13.12543,10.29203 4.027287,3.1855 7.440985,7.08751 11.803901,9.85099 2.400342,1.52039 3.36331,1.83718 5.815952,2.89461 1.817072,0.73883 4.003663,1.04538 5.520387,2.38045 0.228353,0.20101 1.161213,1.7063 1.165941,1.71364 2.706645,2.78496 6.160677,4.69541 9.758769,6.07863 4.265819,1.86823 5.743578,2.62998 11.782048,1.47801 0.31496,-0.0601 2.50232,-1.86139 3.45799,-2.64337 0.80488,-0.95646 -12.721588,-12.33914 -13.526465,-11.38267 v 0 c -0.684844,1.03642 0.937342,-1.44865 2.352183,-1.66925 15.203132,-2.37042 4.492542,-0.706 9.064742,0.82336 0.0942,0.0315 -0.0466,-0.19316 -0.0699,-0.28975 -2.21233,-2.60415 -5.13812,-4.40998 -8.060528,-6.11929 -0.76685,-0.4421 -1.525152,-0.89937 -2.30055,-1.32628 -0.574096,-0.31609 -1.153435,-0.62409 -1.746876,-0.90215 -0.144694,-0.0678 -0.33692,-0.0313 -0.460754,-0.13225 -0.925766,-0.75492 -1.177012,-2.19018 -2.069972,-2.9573 -4.700794,-5.95724 -10.20968,-9.57344 -16.656795,-13.45662 -4.970796,-4.56076 -10.700905,-8.68177 -17.501369,-9.78947 -0.946985,-0.86066 -13.118461,12.53175 -12.171476,13.39241 z" /><circle
   id="path129"
   style="fill:#ff0000;stroke:#000000;stroke-width:0.391062"
   cx="205.68063"
   cy="277.61044"
   r="0.22155222" /><circle
   id="path131"
   style="fill:#ff0000;stroke:#000000;stroke-width:0.391062"
   cx="205.68063"
   cy="277.61044"
   r="0.22155222" /><path
   style="fill:#ff0000;stroke-width:0.391062"
   id="path133"
   d="m 215.18645,278.00748 c 0.53617,-0.34384 1.10987,-0.63522 1.60851,-1.03154 2.74734,-2.18358 5.1967,-4.81357 7.69172,-7.26558 4.96392,-4.87835 1.69529,-1.34029 6.12401,-6.38409 1.87547,-2.35845 3.66534,-4.7905 5.02232,-7.48971 0.56627,-1.12638 0.97516,-2.30814 1.56357,-3.42337 -3.21332,3.29559 4.70368,-1.05712 5.17551,-1.2867 3.1332,-1.40842 5.99692,-3.29173 8.55272,-5.57678 1.31922,-0.11774 3.21458,-5.20369 3.85812,-5.60853 0.17488,-0.11002 0.41273,-0.0512 0.60881,-0.11626 0.95856,-0.62281 0.43103,-0.20661 1.47211,-1.37717 0.82247,-1.03348 -13.79317,-12.66498 -14.61564,-11.6315 v 0 c -0.99434,0.73438 -0.41728,0.25845 -1.6449,1.52643 -1.05464,1.32345 -1.96488,2.70256 -2.93412,4.08559 -0.12253,0.17486 0.48233,-1.09352 -0.24786,-0.38834 -2.93764,0.93408 -5.6955,2.37356 -8.2455,4.09593 -2.2171,1.81701 -4.45363,3.60239 -6.62963,5.46834 -1.01998,0.44595 -2.07741,0.77289 -3.08633,1.25228 -3.12016,1.48256 -5.97272,3.43012 -8.66136,5.59242 -1.26954,1.22262 -2.63737,2.35078 -3.8086,3.66787 -4.34037,4.88091 -8.25312,11.01514 -9.67829,17.46851 -0.23495,1.06389 -0.24184,2.16559 -0.36276,3.24839 -0.36585,1.28959 17.87175,6.46341 18.23759,5.17381 z" /><circle
   id="path135"
   style="fill:#ff0000;stroke:#000000;stroke-width:0.391062"
   cx="89.851219"
   cy="211.02016"
   r="0.22155222" /><circle
   id="path137"
   style="fill:#ff0000;stroke:#000000;stroke-width:0.391062"
   cx="89.851219"
   cy="211.02016"
   r="0.22155222" /><path
   style="fill:#ff0000;stroke-width:0.391062"
   id="path139"
   d="m 80.711906,213.93539 c -0.05186,5.49859 2.684808,9.91869 5.962987,14.10105 1.797753,3.07183 7.095974,3.7599 9.261963,6.29605 0.322858,0.36892 0.697977,0.69795 0.968576,1.10674 0.541195,0.81756 0.831692,1.77919 1.33079,2.62311 1.188177,2.00909 2.534408,3.86645 3.951978,5.71689 2.40953,2.97318 5.3093,5.48603 8.56029,7.48771 4.63907,2.61554 8.22915,3.18199 13.76382,1.64865 0.19035,0.009 0.3807,0.0177 0.57105,0.0266 1.1629,-0.54731 -6.57713,-16.99318 -7.74003,-16.44588 v 0 c -0.27527,0.11516 -0.55054,0.23032 -0.82581,0.34548 -0.0143,-0.004 -0.0287,-0.008 -0.043,-0.0121 1.80209,-0.10905 3.6042,-0.2181 5.40629,-0.32715 0.3672,0.008 0.67585,0.29137 0.99568,0.47192 0.22666,0.12796 0.82322,0.62756 0.59061,0.51079 -0.18544,-0.0931 -0.34394,-0.23223 -0.51591,-0.34834 -1.26378,-0.74813 -2.35445,-1.6059 -3.01744,-2.94648 -2.39077,-4.49022 -4.60366,-9.15284 -8.51525,-12.57539 -1.36479,-1.16903 -6.41387,-6.21539 -8.24986,-5.52437 -2.03567,-0.84144 -2.5399,-3.81086 -3.848038,-5.38455 -0.183439,-0.22067 -0.511462,-0.26038 -0.76719,-0.39057 -0.255966,-1.26159 -18.097489,2.35831 -17.841526,3.61989 z" /><path
   style="fill:#ff0000;stroke-width:0.391062"
   id="path141"
   d="m 190.02428,258.4412 c 3.77833,-1.42755 7.74133,-2.45263 11.41992,-4.17316 1.25124,-0.58522 2.41284,-1.34556 3.61926,-2.01834 5.52524,-2.68218 10.69021,-5.85191 14.7076,-10.53414 1.2504,-1.69749 1.75575,-2.23269 2.7096,-4.17026 0.45564,-0.92555 0.57146,-2.03036 1.18708,-2.85817 0.13879,-0.18665 0.45886,-0.0765 0.68845,-0.11373 1.43655,-2.1001 3.46951,-3.67328 5.35542,-5.3463 2.47817,-3.05832 4.86965,-6.16823 5.71623,-10.10566 0.1946,-0.90508 0.24265,-1.83556 0.36397,-2.75333 0.29923,-2.49322 0.0864,-4.99465 -0.26214,-7.46904 0.0154,0.42113 0.0308,0.84225 0.0462,1.26338 0.19423,-1.26723 -17.72701,-4.01399 -17.92124,-2.74677 v 0 c -0.0672,0.87247 -0.13446,1.74493 -0.2017,2.6174 -0.1123,1.3837 -0.61757,2.70214 -0.77252,4.08329 -0.78643,0.80478 -1.30571,2.28703 -2.51645,2.85155 -2.42943,2.56896 -4.64385,5.30999 -6.31836,8.44221 -1.06327,2.16315 -0.739,1.34973 -1.50322,3.44831 -0.0719,0.19729 -0.26905,0.7956 -0.20292,0.59632 0.22439,-0.67611 0.77461,-1.34575 0.48909,-2.06035 -5.73181,-0.005 -12.11429,4.22837 -17.00295,6.76224 -3.3484,2.16652 -6.52582,4.47368 -9.24069,7.43423 -0.5965,0.65047 -1.04577,1.42349 -1.61252,2.10005 -1.85008,2.20854 -1.06499,0.69108 -1.83946,2.46428 -0.86875,0.9257 12.22265,13.2117 13.09139,12.28599 z" /><circle
   id="path209"
   style="fill:#ff0000;stroke:#000000;stroke-width:0.391062"
   cx="-129.80603"
   cy="57.686607"
   r="0.22155222" /><circle
   id="path211"
   style="fill:#ff0000;stroke:#000000;stroke-width:0.391062"
   cx="-129.80603"
   cy="57.686607"
   r="0.22155222" /><circle
   id="path213"
   style="fill:#ff0000;stroke:#000000;stroke-width:0.391062"
   cx="-129.80603"
   cy="57.686607"
   r="0.22155222" /><circle
   id="path215"
   style="fill:#ffff00;stroke:#000000;stroke-width:0.391062"
   cx="-129.80603"
   cy="57.686607"
   r="0.22155222" /><circle
   id="path250"
   style="fill:#ffff00;stroke:#000000;stroke-width:0.391062"
   cx="137.47165"
   cy="35.841854"
   r="0.22155222" /><circle
   id="path252"
   style="fill:#ffff00;stroke:#000000;stroke-width:0.391062"
   cx="137.47165"
   cy="35.841854"
   r="0.22155222" /><circle
   id="path254"
   style="fill:#ffff00;stroke:#000000;stroke-width:0.391062"
   cx="137.47165"
   cy="35.841854"
   r="0.22155222" /><circle
   id="path256"
   style="fill:#ffff00;stroke:#000000;stroke-width:0.391062"
   cx="137.47165"
   cy="35.841854"
   r="0.22155222" /><circle
   id="path258"
   style="fill:#ffff00;stroke:#000000;stroke-width:0.391062"
   cx="135.20207"
   cy="56.748344"
   r="0.22155222" /><circle
   id="path260"
   style="fill:#ffff00;stroke:#000000;stroke-width:0.391062"
   cx="135.20207"
   cy="56.748344"
   r="0.22155222" /><path
   style="fill:#ffff00;stroke-width:0.391062"
   id="path262"
   d="m 124.66014,59.737558 c -0.40228,0.331941 -0.8873,0.583629 -1.20686,0.995825 -2.23386,2.881497 -2.99549,6.715255 -3.50016,10.21343 -0.37546,1.478357 20.53162,6.788168 20.90708,5.309815 v 0 c 2.40266,-5.244852 3.90628,-10.898501 1.75554,-16.51907 0,-1.269651 -17.9556,-1.269651 -17.9556,0 z" /><circle
   id="path264"
   style="fill:#ffff00;stroke:#000000;stroke-width:0.391062"
   cx="130.26186"
   cy="73.203438"
   r="0.22155222" /><circle
   id="path266"
   style="fill:#ffff00;stroke:#000000;stroke-width:0.391062"
   cx="130.26186"
   cy="73.203438"
   r="0.22155222" /><circle
   id="path268"
   style="fill:#ffff00;stroke:#000000;stroke-width:0.391062"
   cx="497.12579"
   cy="162.94627"
   r="0.22155222" /><circle
   id="path270"
   style="fill:#ffff00;stroke:#000000;stroke-width:0.391062"
   cx="497.12579"
   cy="162.94627"
   r="0.22155222" /><path
   style="fill:#ffff00;stroke-width:0.391062"
   id="path272"
   d="m 177.13125,74.127711 c 2.32303,1.344438 4.91992,1.944093 7.49587,2.575045 1.22175,0.577138 9.38367,-16.701043 8.16192,-17.278177 v 0 c -2.28363,-0.485583 -4.5704,-1.023536 -6.9131,-1.125928 -1.11928,-0.618344 -9.86397,15.210716 -8.74469,15.82906 z" /><circle
   id="path274"
   style="fill:#ffff00;stroke:#000000;stroke-width:0.391062"
   cx="173.23907"
   cy="65.363998"
   r="0.22155222" /><circle
   id="path276"
   style="fill:#ffff00;stroke:#000000;stroke-width:0.391062"
   cx="173.23907"
   cy="65.363998"
   r="0.22155222" /><path
   style="fill:#ffff00;stroke-width:0.391062"
   id="path278"
   d="m 177.5618,73.27742 c 0.73926,0.113326 2.71054,-0.222655 2.2178,0.339978 -0.59349,0.677665 -2.14278,-0.507431 -2.69467,0.204514 -0.48381,0.624124 1.57099,0.163547 2.35788,0.229953 1.83248,0.154638 3.64244,0.221396 5.47938,0.191014 -0.0564,-0.136125 -0.11273,-0.272253 -0.16909,-0.408378 1.08994,0.62243 9.89243,-14.791728 8.80248,-15.414159 v 0 c -0.63436,-0.326709 -1.26873,-0.653422 -1.90309,-0.980132 -5.87632,-1.990394 -12.47492,-2.556035 -18.57504,-1.628142 -1.23498,0.317094 3.24936,17.782441 4.48435,17.465352 z" /><circle
   id="path280"
   style="fill:#ffff00;stroke:#000000;stroke-width:0.391062"
   cx="187.76917"
   cy="66.638992"
   r="0.22155222" /><circle
   id="path282"
   style="fill:#ffff00;stroke:#000000;stroke-width:0.391062"
   cx="187.76917"
   cy="66.638992"
   r="0.22155222" /></svg>
