<svg xmlns="http://www.w3.org/2000/svg" viewBox="0 -1024 1024 1024">
	<path fill="#000000" d="M337 -1V-9Q329 -8 313 -8Q206 -8 130.5 -83.5Q55 -159 55 -266Q55 -372 130 -443.5Q205 -515 313 -515Q329 -515 337 -514H489V-1ZM337 -369Q325 -372 313 -372Q268 -372 237 -341Q206 -310 206 -266Q206 -221 237 -190Q268 -159 313 -159Q325 -159 337 -162Z"/>
	<path fill="#00ff00" d="M332 0L333 -2Q325 -2 309 -2Q202 -2 132 -17Q62 -32 69 -53Q77 -74 157 -88.5Q237 -103 345 -103Q361 -103 369 -103H521L484 0ZM359 -74Q347 -75 335 -74Q290 -74 257 -68Q224 -62 220 -53Q217 -44 246 -38Q275 -32 320 -32Q332 -32 344 -32Z"/>
	<path fill="#ffff00" d="M332 -1V-9Q324 -8 308 -8Q201 -8 125.5 -83.5Q50 -159 50 -266Q50 -372 125 -443.5Q200 -515 308 -515Q324 -515 332 -514H484V-1ZM332 -369Q320 -372 308 -372Q263 -372 232 -341Q201 -310 201 -266Q201 -221 232 -190Q263 -159 308 -159Q320 -159 332 -162Z"/>
	<path fill="#ff0000" d="M489 -522Q496 -522 496 -514V-1Q496 6 489 6H337Q330 6 330 -1Q323 0 313 0Q203 0 125.5 -78Q48 -156 48 -266Q48 -375 125 -448.5Q202 -522 313 -522Q329 -522 337 -522ZM482 -506H337Q337 -506 336 -507Q329 -508 313 -508Q208 -508 135 -438.5Q62 -369 62 -266Q62 -162 135.5 -89Q209 -16 313 -16Q329 -16 336 -16Q337 -16 337 -16Q344 -16 344 -9V-8H482ZM344 -369V-162Q344 -156 339 -155Q326 -152 313 -152Q265 -152 231.5 -185Q198 -218 198 -266Q198 -313 231.5 -346.5Q265 -380 313 -380Q326 -380 339 -376Q344 -375 344 -369ZM313 -364Q271 -364 242.5 -335.5Q214 -307 214 -266Q214 -224 242.5 -195Q271 -166 313 -166Q321 -166 330 -168V-363Q321 -364 313 -364Z"/>
</svg>