<svg xmlns="http://www.w3.org/2000/svg" viewBox="0 -1024 1024 1024">
	<path fill="#000000" d="M207 -780V-517Q215 -518 231 -518Q338 -518 413.5 -442.5Q489 -367 489 -260Q489 -153 413.5 -78Q338 -3 231 -3Q215 -3 207 -4H55V-780ZM207 -157Q219 -154 231 -154Q276 -154 307 -185Q338 -216 338 -260Q338 -305 307 -336Q276 -367 231 -367Q219 -367 207 -364Z"/>
	<path fill="#00ff00" d="M259 -156L240 -103Q248 -103 264 -104Q371 -104 441 -88.5Q511 -73 503 -52Q495 -31 414 -16Q333 -1 226 -1Q210 -1 202 -1H50L107 -156ZM213 -31Q225 -30 237 -31Q282 -31 315.5 -37Q349 -43 352 -52Q355 -61 326.5 -67Q298 -73 253 -73Q241 -73 228 -73Z"/>
	<path fill="#ffff00" d="M202 -780V-517Q210 -518 226 -518Q333 -518 408.5 -442.5Q484 -367 484 -260Q484 -153 408.5 -78Q333 -3 226 -3Q210 -3 202 -4H50V-780ZM202 -157Q214 -154 226 -154Q271 -154 302 -185Q333 -216 333 -260Q333 -305 302 -336Q271 -367 226 -367Q214 -367 202 -364Z"/>
	<path fill="#ff0000" d="M55 4Q48 4 48 -4V-780Q48 -788 55 -788H207Q214 -788 214 -780V-525Q221 -526 231 -526Q341 -526 418.5 -448Q496 -370 496 -260Q496 -150 418.5 -73Q341 4 231 4Q215 4 207 4ZM62 -12H207Q207 -12 208 -11Q215 -10 231 -10Q335 -10 408.5 -83Q482 -156 482 -260Q482 -364 408.5 -437Q335 -510 231 -510Q215 -510 208 -510Q207 -510 207 -510Q200 -510 200 -517V-772H62ZM200 -157V-364Q200 -370 205 -371Q218 -374 231 -374Q279 -374 312.5 -341Q346 -308 346 -260Q346 -213 312.5 -179.5Q279 -146 231 -146Q218 -146 205 -150Q200 -151 200 -157ZM231 -162Q273 -162 301.5 -190.5Q330 -219 330 -260Q330 -302 301.5 -331Q273 -360 231 -360Q223 -360 214 -358V-163Q223 -162 231 -162Z"/>
</svg>