<svg xmlns="http://www.w3.org/2000/svg" viewBox="0 -1024 1024 1024">
	<path fill="#000000" d="M339 -4Q326 -3 313 -3Q206 -3 130.5 -78Q55 -153 55 -260Q55 -367 130.5 -442.5Q206 -518 313 -518Q326 -518 339 -517V-364Q326 -367 313 -367Q268 -367 237 -336Q206 -305 206 -260Q206 -216 237 -185Q268 -154 313 -154Q326 -154 339 -157Z"/>
	<path fill="#00ff00" d="M334 -1Q321 -1 308 -1Q201 -1 131 -16Q61 -31 69 -52Q77 -73 158 -88.5Q239 -104 346 -104Q359 -104 372 -103L360 -73Q347 -74 335 -73Q290 -73 256.5 -67Q223 -61 220 -52Q217 -43 245.5 -37Q274 -31 319 -31Q332 -31 345 -31Z"/>
	<path fill="#ffff00" d="M334 -4Q321 -3 308 -3Q201 -3 125.5 -78Q50 -153 50 -260Q50 -367 125.5 -442.5Q201 -518 308 -518Q321 -518 334 -517V-364Q321 -367 308 -367Q263 -367 232 -336Q201 -305 201 -260Q201 -216 232 -185Q263 -154 308 -154Q321 -154 334 -157Z"/>
	<path fill="#ff0000" d="M313 4Q203 4 125.5 -73Q48 -150 48 -260Q48 -370 125.5 -448Q203 -526 313 -526Q326 -526 340 -524Q346 -524 346 -517V-364Q346 -356 339 -356Q338 -356 337 -357Q325 -360 313 -360Q271 -360 242.5 -331Q214 -302 214 -260Q214 -219 242.5 -190.5Q271 -162 313 -162Q325 -162 337 -164Q338 -164 339 -164Q346 -164 346 -157V-4Q346 3 340 3Q326 4 313 4ZM313 -10Q322 -10 332 -11V-148Q322 -146 313 -146Q265 -146 231.5 -179.5Q198 -213 198 -260Q198 -308 231.5 -341Q265 -374 313 -374Q322 -374 332 -373V-510Q322 -510 313 -510Q209 -511 135.5 -437.5Q62 -364 62 -260Q62 -156 135.5 -83Q209 -10 313 -10Z"/>
</svg>