<svg xmlns="http://www.w3.org/2000/svg" viewBox="0 -1024 1024 1024">
	<path fill="#000000" d="M349 -4Q336 -3 323 -3Q216 -3 140.5 -78Q65 -153 65 -260Q65 -367 140.5 -442.5Q216 -518 323 -518Q336 -518 349 -517V-364Q336 -367 323 -367Q278 -367 247 -336Q216 -305 216 -260Q216 -216 247 -185Q278 -154 323 -154Q336 -154 349 -157Z"/>
	<path fill="#00ff00" d="M304 -1Q291 -1 278 -1Q171 -1 110 -16Q49 -31 69 -52Q89 -73 179 -88.5Q269 -104 376 -104Q389 -104 401 -103L372 -73Q359 -74 347 -73Q302 -73 265 -67Q228 -61 220 -52Q212 -43 237 -37Q262 -31 307 -31Q320 -31 333 -31Z"/>
	<path fill="#ffff00" d="M334 -4Q321 -3 308 -3Q201 -3 125.5 -78Q50 -153 50 -260Q50 -367 125.5 -442.5Q201 -518 308 -518Q321 -518 334 -517V-364Q321 -367 308 -367Q263 -367 232 -336Q201 -305 201 -260Q201 -216 232 -185Q263 -154 308 -154Q321 -154 334 -157Z"/>
	<path fill="#ff0000" d="M313 4Q204 4 125 -73Q48 -149 48 -260Q48 -371 125 -448Q203 -526 313 -526Q322 -526 340 -524Q346 -524 346 -517V-364Q346 -356 339 -356Q338 -356 338 -356.5Q338 -357 337 -357Q325 -360 313 -360Q271 -360 242 -331Q214 -303 214 -260Q214 -218 242 -190Q270 -162 313 -162Q329 -162 337 -164H339Q346 -164 346 -157V-4Q346 3 340 3Q331 4 313 4ZM136 -83Q209 -10 313 -10Q316 -10 322.5 -10.5Q329 -11 332 -11V-148Q320 -146 313 -146Q266 -146 232 -180Q198 -214 198 -260Q198 -307 232 -341Q265 -374 313 -374Q326 -374 332 -373V-510H313Q209 -510 136 -437Q62 -363 62 -260Q62 -157 136 -83Z"/>
</svg>