<svg xmlns="http://www.w3.org/2000/svg" viewBox="0 -1024 1024 1024">
	<path fill="#000000" d="M337 -780H489V-4H337Q325 -3 313 -3Q206 -3 130.5 -78Q55 -153 55 -260Q55 -367 130.5 -442.5Q206 -518 313 -518Q325 -518 337 -517ZM337 -157V-364Q325 -367 313 -367Q268 -367 237 -336Q206 -305 206 -260Q206 -216 237 -185Q268 -154 313 -154Q325 -154 337 -157Z"/>
	<path fill="#00ff00" d="M389 -156H541L484 -1H332Q320 -1 308 -1Q201 -1 131 -16Q61 -31 69 -52Q77 -73 158 -88.5Q239 -104 346 -104Q358 -104 370 -103ZM343 -31L359 -73Q347 -74 335 -73Q290 -73 256.5 -67Q223 -61 220 -52Q217 -43 245.5 -37Q274 -31 319 -31Q331 -30 343 -31Z"/>
	<path fill="#ffff00" d="M332 -780H484V-4H332Q320 -3 308 -3Q201 -3 125.5 -78Q50 -153 50 -260Q50 -367 125.5 -442.5Q201 -518 308 -518Q320 -518 332 -517ZM332 -157V-364Q320 -367 308 -367Q263 -367 232 -336Q201 -305 201 -260Q201 -216 232 -185Q263 -154 308 -154Q320 -154 332 -157Z"/>
	<path fill="#ff0000" d="M337 -788H489Q496 -788 496 -780V-4Q496 4 489 4H337Q325 4 313 4Q203 4 125.5 -73Q48 -150 48 -260Q48 -370 125.5 -448Q203 -526 313 -526Q321 -526 330 -525V-780Q330 -788 337 -788ZM482 -772H344V-517Q344 -510 337 -510Q337 -510 336 -510Q325 -510 313 -510Q209 -510 135.5 -437Q62 -364 62 -260Q62 -156 135.5 -83Q209 -10 313 -10Q325 -10 336 -11Q337 -11 337 -12H482ZM313 -146Q265 -146 231.5 -179.5Q198 -213 198 -260Q198 -308 231.5 -341Q265 -374 313 -374Q326 -374 339 -371Q344 -370 344 -364V-157Q344 -151 339 -150Q326 -146 313 -146ZM313 -360Q271 -360 242.5 -331Q214 -302 214 -260Q214 -219 242.5 -190.5Q271 -162 313 -162Q321 -162 330 -163V-358Q321 -360 313 -360Z"/>
</svg>