<svg xmlns="http://www.w3.org/2000/svg" viewBox="0 -1024 1024 1024">
	<path fill="#000000" d="M315 -367Q302 -367 291 -364V-365Q254 -358 230 -328.5Q206 -299 206 -260Q206 -222 230 -193Q254 -164 291 -156V-157Q302 -154 315 -154Q327 -154 339 -157V-156Q376 -163 400 -192.5Q424 -222 424 -260Q424 -299 400 -328Q376 -357 339 -365V-364Q327 -367 315 -367ZM314 -3Q314 -3 313 -3Q311 -3 309 -3Q308 -3 305 -3Q268 -3 264 -4Q166 -11 110.5 -82.5Q55 -154 55 -260Q55 -362 124.5 -436.5Q194 -511 295 -517Q301 -517 309 -518Q311 -518 313 -518Q313 -518 314 -518Q315 -518 317 -518Q424 -518 499.5 -443Q575 -368 575 -261Q575 -261 575 -260Q575 -257 575 -253L572 18Q548 101 482.5 153Q417 205 330 205Q159 205 125 196V28Q137 38 216 46Q295 54 330 54Q356 54 382.5 44Q409 34 424 17V-26Q373 -3 317 -3Q315 -3 314 -3Z"/>
	<path fill="#00ff00" d="M337 -73Q324 -73 312 -73H313Q275 -72 249 -66Q223 -60 220 -52Q217 -44 239 -38.5Q261 -33 297 -31Q308 -30 321 -31Q333 -31 345 -31Q383 -32 409 -38Q435 -44 438 -52Q441 -60 419 -65.5Q397 -71 361 -73H360Q349 -73 337 -73ZM309 -1H308Q306 -1 305 -1Q304 -1 301 -1Q264 -1 259 -1Q162 -2 111.5 -16.5Q61 -31 69 -52Q76 -72 151 -87Q226 -102 328 -103Q334 -103 342 -104Q344 -104 346 -104H347Q348 -104 350 -104Q457 -104 526.5 -89Q596 -74 589 -52Q589 -51 588 -51L566 4Q536 21 466.5 31Q397 41 310 41Q139 41 106 39L118 6Q129 8 207.5 9.5Q286 11 321 11Q347 11 374.5 9Q402 7 418 3L421 -5Q369 0 312 -1Q310 -1 309 -1Z"/>
	<path fill="#ffff00" d="M310 -367Q297 -367 286 -364V-365Q249 -357 225 -328Q201 -299 201 -260Q201 -222 225 -193Q249 -164 286 -156V-157Q297 -154 310 -154Q322 -154 334 -157V-156Q371 -164 395 -193Q419 -222 419 -260Q419 -299 395 -328Q371 -357 334 -365V-364Q322 -367 310 -367ZM309 -3Q308 -3 308 -3Q306 -3 304 -3Q304 -3 300 -3Q263 -3 259 -4Q161 -11 105.5 -82.5Q50 -154 50 -260Q50 -362 119.5 -436.5Q189 -511 290 -517Q296 -518 304 -518Q306 -518 308 -518Q308 -518 309 -518Q310 -518 312 -518Q419 -518 494.5 -443Q570 -368 570 -261Q570 -260 570 -260Q570 -257 570 -253L567 18Q543 101 477.5 153Q412 205 325 205Q154 205 120 196V28Q132 38 211 46Q290 54 325 54Q351 54 377.5 44Q404 34 419 17V-26Q368 -3 312 -3Q310 -3 309 -3Z"/>
	<path fill="#ff0000" d="M339 -372Q340 -372 341 -372Q380 -364 406 -333Q432 -302 432 -260Q432 -219 406 -187.5Q380 -156 340 -149Q340 -148 339 -148Q338 -148 337 -149Q326 -147 315 -146Q303 -146 293 -149Q292 -148 291 -148Q290 -148 289 -149Q250 -157 224 -188Q198 -219 198 -260Q198 -302 224 -333.5Q250 -365 290 -372Q290 -372 291 -372Q292 -372 293 -372Q303 -374 315 -374Q326 -374 337 -372Q338 -372 339 -372ZM315 -360Q303 -360 293 -357Q292 -356 291 -356Q290 -356 289 -357Q257 -350 236 -324Q214 -296 214 -260Q214 -225 236 -198Q257 -172 289 -164Q290 -164 291 -164Q292 -164 293 -164Q303 -162 315 -162Q326 -162 337 -164Q338 -164 339 -164Q340 -164 341 -164Q373 -171 394 -197Q416 -225 416 -260Q416 -296 394 -323Q373 -349 341 -357Q340 -356 339 -356Q338 -356 337 -357Q326 -360 315 -360ZM317 4H305Q304 4 301.5 4.5Q299 5 298 5Q268 5 263 3Q162 -4 105 -78Q48 -151 48 -260Q48 -365 119.5 -441.5Q191 -518 295 -524Q301 -524 308 -525Q309 -526 309 -526H317Q427 -526 504.5 -448.5Q582 -371 582 -261V-253L579 18Q579 19 579 20Q555 105 487.5 158.5Q420 212 330 212Q158 212 123 203Q118 202 118 196V28Q118 20 125 20Q128 20 130 22Q134 26 151 29Q173 34 217 39Q295 46 330 46Q355 46 380 37Q403 28 416 14V-15Q369 5 317 4ZM305 -10H317Q371 -10 421 -33Q422 -34 424 -34Q432 -34 432 -26V17Q432 20 430 22Q413 40 385 51Q357 62 330 62Q295 62 215 53Q171 49 147 44Q138 42 132 40V190Q174 198 330 198Q414 198 478 147Q541 97 565 17L568 -253V-261Q568 -365 494.5 -437.5Q421 -510 317 -510H309Q301 -510 295 -510Q197 -504 129.5 -431.5Q62 -359 62 -260Q62 -157 116 -87Q170 -18 265 -11Q278 -10 305 -10Z"/>
</svg>