<svg xmlns="http://www.w3.org/2000/svg" viewBox="0 -1024 1024 1024">
	<path fill="#000000" d="M85 -512H237V2H85ZM85 -772H237V-630H85Z"/>
	<path fill="#00ff00" d="M101 -102H253L158 0H6ZM150 -154H302L276 -126H124Z"/>
	<path fill="#e3ab45" d="M50 -512H202V2H50ZM50 -772H202V-630H50Z"/>
	<path fill="#ff0000" d="M55 -520H207Q214 -520 214 -512V2Q214 10 207 10H55Q48 10 48 2V-512Q48 -520 55 -520ZM200 -504H62V-6H200ZM55 -780H207Q214 -780 214 -772V-630Q214 -622 207 -622H55Q48 -622 48 -630V-772Q48 -780 55 -780ZM200 -764H62V-638H200Z"/>
</svg>