<svg xmlns="http://www.w3.org/2000/svg" viewBox="0 -1024 1024 1024">
	<path fill="#000000" d="M55 195V27Q86 53 126 53Q175 53 207 16V-517H374L371 17Q347 100 280 152Q213 204 126 204Q89 204 55 195ZM219 -772H371V-630H219Z"/>
	<path fill="#00ff00" d="M36 39L48 5Q77 10 117 11Q166 11 201 3L240 -103H407L365 3Q335 20 264 30.5Q193 41 106 41Q69 41 36 39ZM270 -154H422L412 -126H260Z"/>
	<path fill="#ffff00" d="M50 195V27Q81 53 121 53Q170 53 202 16V-517H369L366 17Q342 100 275 152Q208 204 121 204Q84 204 50 195ZM214 -772H366V-630H214Z"/>
	<path fill="#ff0000" d="M48 195V27Q48 20 55 20Q58 20 60 21Q89 46 126 46Q170 46 200 13V-517Q200 -524 207 -524H374Q382 -524 381 -517L378 17Q378 18 378 19Q354 104 285 158Q216 212 126 212Q88 212 53 202Q48 201 48 195ZM126 196Q210 196 275 146Q340 96 364 16L366 -510H214V16Q214 19 213 21Q178 60 126 60Q91 60 62 42V189Q93 196 126 196ZM219 -780H371Q378 -780 378 -772V-630Q378 -622 371 -622H219Q212 -622 212 -630V-772Q212 -780 219 -780ZM364 -764H226V-638H364Z"/>
</svg>