<svg xmlns="http://www.w3.org/2000/svg" viewBox="0 -1024 1024 1024">
	<path fill="#000000" d="M55 -522H224V-512Q263 -524 304 -524Q391 -524 458 -472Q525 -420 549 -337L552 -6H385V-336Q353 -373 304 -373Q256 -373 224 -338V-6H55ZM386 -429L551 -512Q590 -524 631 -524Q718 -524 785 -472Q852 -420 876 -337L879 -6H712V-336Q680 -373 631 -373Q583 -373 551 -338V-6H382Z"/>
	<path fill="#00ff00" d="M88 -104H257L256 -102Q296 -104 337 -105Q424 -105 487.5 -94.5Q551 -84 569 -67L547 -1H380L404 -67Q375 -74 326 -75Q278 -75 244 -68L219 -1H50ZM412 -86L583 -102Q623 -104 664 -105Q751 -105 814.5 -94.5Q878 -84 896 -67L874 -1H707L731 -67Q702 -74 653 -75Q605 -75 571 -68L546 -1H377Z"/>
	<path fill="#ffff00" d="M50 -522H219V-512Q258 -524 299 -524Q386 -524 453 -472Q520 -420 544 -337L547 -6H380V-336Q348 -373 299 -373Q251 -373 219 -338V-6H50ZM381 -429L546 -512Q585 -524 626 -524Q713 -524 780 -472Q847 -420 871 -337L874 -6H707V-336Q675 -373 626 -373Q578 -373 546 -338V-6H377Z"/>
	<path fill="#ff0000" d="M50 -530H219Q226 -530 226 -522Q262 -532 299 -532Q389 -532 459 -477L543 -519Q543 -519 544 -519Q584 -532 626 -532Q716 -532 785 -478Q854 -424 878 -339Q878 -338 878 -337Q881 -6 882 -6Q882 2 874 2H707Q700 2 700 -6V-333Q670 -366 626 -366Q583 -366 553 -335Q553 -226 553 -116L554 -6Q554 2 547 2H377Q369 2 370 -6L372 -323V-333Q343 -366 299 -366Q256 -366 226 -335V-6Q226 2 219 2H50Q42 2 42 -6V-522Q42 -530 50 -530ZM212 -514H58V-14H212V-338Q212 -341 213 -343Q248 -380 299 -380Q351 -380 386 -341Q388 -339 388 -336V-323L385 -14H539V-116V-338Q539 -341 540 -343Q575 -380 626 -380Q678 -380 713 -341Q714 -339 714 -336V-14H866L864 -336Q840 -416 775.5 -466Q711 -516 626 -516Q586 -516 549 -505L462 -461Q460 -460 458 -460Q456 -460 454 -462Q387 -516 299 -516Q259 -516 221 -505Q220 -504 219 -504Q212 -504 212 -512Z"/>
</svg>