<svg xmlns="http://www.w3.org/2000/svg" viewBox="0 -1024 1024 1024">
	<path fill="#000000" d="M324 -3Q324 -3 323 -3Q321 -3 319 -3Q311 -3 305 -4Q204 -11 134.5 -84.5Q65 -158 65 -260Q65 -362 134.5 -436.5Q204 -511 305 -517Q311 -517 319 -518Q321 -518 323 -518H324Q325 -518 327 -518Q434 -518 509.5 -442.5Q585 -367 585 -260Q585 -153 509.5 -78Q434 -3 327 -3Q325 -3 324 -3ZM325 -367Q312 -367 301 -364V-365Q264 -358 240 -328.5Q216 -299 216 -260Q216 -222 240 -193Q264 -164 301 -156V-157Q312 -154 325 -154Q337 -154 349 -157V-156Q386 -163 410 -192.5Q434 -222 434 -260Q434 -299 410 -328Q386 -357 349 -365V-364Q337 -367 325 -367Z"/>
	<path fill="#00ff00" d="M279 -1Q279 -1 278 -1Q276 -1 275 -1Q267 -1 260 -1Q160 -2 105 -17Q50 -32 68.5 -52Q87 -72 171 -87Q255 -102 357 -103Q363 -103 372 -104Q374 -104 376 -104H377Q378 -104 380 -104Q487 -104 548 -88.5Q609 -73 589 -52Q569 -31 479 -16Q389 -1 282 -1Q280 -1 279 -1ZM349 -73Q336 -73 324 -73H325Q286 -72 256.5 -66Q227 -60 219.5 -52Q212 -44 231 -38.5Q250 -33 285 -31Q295 -30 309 -31Q321 -31 333 -31Q371 -32 400.5 -38Q430 -44 437.5 -52Q445 -60 426.5 -65.5Q408 -71 373 -73H372Q361 -73 349 -73Z"/>
	<path fill="#ffff00" d="M309 -3Q308 -3 308 -3Q306 -3 304 -3Q296 -3 290 -4Q189 -10 119.5 -84Q50 -158 50 -260Q50 -362 119.5 -436.5Q189 -511 290 -517Q296 -518 304 -518Q306 -518 308 -518Q308 -518 309 -518Q310 -518 312 -518Q419 -518 494.5 -442.5Q570 -367 570 -260Q570 -153 494.5 -78Q419 -3 312 -3Q310 -3 309 -3ZM310 -367Q297 -367 286 -364V-365Q249 -357 225 -328Q201 -299 201 -260Q201 -222 225 -193Q249 -164 286 -156V-157Q297 -154 310 -154Q322 -154 334 -157V-156Q371 -164 395 -193Q419 -222 419 -260Q419 -299 395 -328Q371 -357 334 -365V-364Q322 -367 310 -367Z"/>
	<path fill="#ff0000" d="M317 4H309Q298 4 294 3Q189 -5 119 -79Q48 -153 48 -260Q48 -367 119 -442Q190 -518 295 -524Q303 -524 308 -525L309 -526H317Q427 -526 505 -448Q582 -371 582 -260Q582 -149 505 -73Q426 4 317 4ZM309 -10H317Q421 -10 494 -83Q568 -157 568 -260Q568 -363 494 -437Q421 -510 317 -510H309Q307 -510 304.5 -510Q302 -510 299 -510Q296 -510 295 -510Q198 -504 130 -431Q62 -358 62 -260Q62 -163 130 -90Q197 -18 296 -11Q298 -11 302 -10.5Q306 -10 309 -10ZM339 -372H341Q382 -363 406 -333Q432 -301 432 -260Q432 -220 406 -188Q381 -157 340 -149L339 -148Q338 -148 338 -148.5Q338 -149 337 -149Q326 -146 315 -146Q304 -146 293 -149Q292 -149 292 -148.5Q292 -148 291 -148Q290 -148 290 -148.5Q290 -149 289 -149Q248 -158 224 -188Q198 -220 198 -260Q198 -301 224 -333Q249 -364 290 -372H291H293Q300 -374 315 -374Q330 -374 337 -372ZM293 -357Q292 -357 292 -356.5Q292 -356 291 -356Q290 -356 290 -356.5Q290 -357 289 -357Q257 -349 236 -324Q214 -298 214 -260Q214 -224 236 -198Q258 -171 289 -164H291H293Q300 -162 315 -162Q330 -162 337 -164H339H341Q373 -172 394 -197Q416 -223 416 -260Q416 -297 394 -323Q372 -350 341 -357Q340 -357 340 -356.5Q340 -356 339 -356Q338 -356 338 -356.5Q338 -357 337 -357Q326 -360 315 -360Q304 -360 293 -357Z"/>
</svg>