<svg xmlns="http://www.w3.org/2000/svg" viewBox="0 -1024 1024 1024">
	<path fill="#000000" d="M314 -3Q314 -3 313 -3Q311 -3 309 -3Q301 -3 295 -4Q194 -11 124.5 -84.5Q55 -158 55 -260Q55 -362 124.5 -436.5Q194 -511 295 -517Q301 -517 309 -518Q311 -518 313 -518H314Q315 -518 317 -518Q424 -518 499.5 -442.5Q575 -367 575 -260Q575 -153 499.5 -78Q424 -3 317 -3Q315 -3 314 -3ZM315 -367Q302 -367 291 -364V-365Q254 -358 230 -328.5Q206 -299 206 -260Q206 -222 230 -193Q254 -164 291 -156V-157Q302 -154 315 -154Q327 -154 339 -157V-156Q376 -163 400 -192.5Q424 -222 424 -260Q424 -299 400 -328Q376 -357 339 -365V-364Q327 -367 315 -367Z"/>
	<path fill="#00ff00" d="M309 -1Q309 -1 308 -1Q306 -1 305 -1Q297 -1 290 -1Q189 -2 125.5 -17Q62 -32 69 -52Q76 -72 151 -87Q226 -102 328 -103Q334 -103 342 -104Q344 -104 346 -104H347Q348 -104 350 -104Q457 -104 527 -88.5Q597 -73 589 -52Q581 -31 500 -16Q419 -1 312 -1Q310 -1 309 -1ZM337 -73Q324 -73 312 -73H313Q275 -72 249 -66Q223 -60 220 -52Q217 -44 239 -38.5Q261 -33 297 -31Q308 -30 321 -31Q333 -31 345 -31Q383 -32 409 -38Q435 -44 438 -52Q441 -60 419 -65.5Q397 -71 361 -73H360Q349 -73 337 -73Z"/>
	<path fill="#ffff00" d="M309 -3Q308 -3 308 -3Q306 -3 304 -3Q296 -3 290 -4Q189 -10 119.5 -84Q50 -158 50 -260Q50 -362 119.5 -436.5Q189 -511 290 -517Q296 -518 304 -518Q306 -518 308 -518Q308 -518 309 -518Q310 -518 312 -518Q419 -518 494.5 -442.5Q570 -367 570 -260Q570 -153 494.5 -78Q419 -3 312 -3Q310 -3 309 -3ZM310 -367Q297 -367 286 -364V-365Q249 -357 225 -328Q201 -299 201 -260Q201 -222 225 -193Q249 -164 286 -156V-157Q297 -154 310 -154Q322 -154 334 -157V-156Q371 -164 395 -193Q419 -222 419 -260Q419 -299 395 -328Q371 -357 334 -365V-364Q322 -367 310 -367Z"/>
	<path fill="#ff0000" d="M317 4H309Q301 4 294 3Q190 -4 119 -79.5Q48 -155 48 -260Q48 -365 119.5 -441.5Q191 -518 295 -524Q301 -524 308 -525Q309 -526 309 -526H317Q427 -526 504.5 -448Q582 -370 582 -260Q582 -150 504.5 -73Q427 4 317 4ZM309 -10H317Q421 -10 494.5 -83Q568 -156 568 -260Q568 -364 494.5 -437Q421 -510 317 -510H309Q301 -510 295 -510Q197 -504 129.5 -431.5Q62 -359 62 -260Q62 -161 129.5 -89.5Q197 -18 296 -11Q296 -11 301 -10.5Q306 -10 309 -10ZM339 -372Q340 -372 341 -372Q380 -364 406 -333Q432 -302 432 -260Q432 -219 406 -187.5Q380 -156 340 -149Q340 -148 339 -148Q338 -148 337 -149Q326 -147 315 -146Q303 -146 293 -149Q292 -148 291 -148Q290 -148 289 -149Q250 -157 224 -188Q198 -219 198 -260Q198 -302 224 -333.5Q250 -365 290 -372Q290 -372 291 -372Q292 -372 293 -372Q303 -374 315 -374Q326 -374 337 -372Q338 -372 339 -372ZM315 -360Q303 -360 293 -357Q292 -356 291 -356Q290 -356 289 -357Q257 -350 236 -324Q214 -296 214 -260Q214 -225 236 -198Q257 -172 289 -164Q290 -164 291 -164Q292 -164 293 -164Q303 -162 315 -162Q326 -162 337 -164Q338 -164 339 -164Q340 -164 341 -164Q373 -171 394 -197Q416 -225 416 -260Q416 -296 394 -323Q373 -349 341 -357Q340 -356 339 -356Q338 -356 337 -357Q326 -360 315 -360Z"/>
</svg>