<svg xmlns="http://www.w3.org/2000/svg" viewBox="0 -1024 1024 1024">
	<path fill="#000000" d="M217 202H65V-509H217Q225 -510 241 -510Q348 -510 423.5 -435Q499 -360 499 -253Q499 -146 423.5 -70.5Q348 5 241 5Q225 5 217 4ZM217 -356V-149Q229 -146 241 -146Q286 -146 317 -177Q348 -208 348 -253Q348 -297 317 -328Q286 -359 241 -359Q229 -359 217 -356Z"/>
	<path fill="#00ff00" d="M147 40H-5L129 -102H281Q289 -102 305 -102Q412 -102 473.5 -87Q535 -72 515 -50.5Q495 -29 405.5 -14Q316 1 209 1Q193 1 185 1ZM252 -71L213 -30Q225 -29 237 -29Q282 -29 318.5 -35.5Q355 -42 363.5 -51Q372 -60 347 -66Q322 -72 277 -72Q265 -72 252 -71Z"/>
	<path fill="#ffff00" d="M202 202H50V-509H202Q210 -510 226 -510Q333 -510 408.5 -435Q484 -360 484 -253Q484 -146 408.5 -70.5Q333 5 226 5Q210 5 202 4ZM202 -356V-149Q214 -146 226 -146Q271 -146 302 -177Q333 -208 333 -253Q333 -297 302 -328Q271 -359 226 -359Q214 -359 202 -356Z"/>
	<path fill="#ff0000" d="M207 210H55Q48 210 48 202V-509Q48 -516 55 -516H207Q219 -518 231 -518Q339 -518 419 -440Q496 -364 496 -253Q496 -142 419 -65Q342 12 231 12H214V202Q214 210 207 210ZM62 194H200V4Q200 -4 207 -4L208 -3Q213 -2 231 -2Q334 -2 408 -76Q482 -150 482 -253Q482 -356 408 -430Q336 -502 231 -502H208H207H62ZM231 -366Q279 -366 312 -333Q346 -299 346 -253Q346 -206 312 -172Q278 -138 231 -138Q223 -138 205 -142Q200 -144 200 -149V-356Q200 -361 205 -363Q218 -366 231 -366ZM231 -154Q274 -154 302 -182Q330 -210 330 -253Q330 -295 302 -323Q273 -352 231 -352Q226 -352 214 -350V-155Q220 -154 231 -154Z"/>
</svg>