<svg xmlns="http://www.w3.org/2000/svg" viewBox="0 -1024 1024 1024">
	<path fill="#000000" d="M337 202V4Q329 5 313 5Q206 5 130.5 -70.5Q55 -146 55 -253Q55 -360 130.5 -435Q206 -510 313 -510Q329 -510 337 -509H489V202ZM337 -356Q325 -359 313 -359Q268 -359 237 -328Q206 -297 206 -253Q206 -208 237 -177Q268 -146 313 -146Q325 -146 337 -149Z"/>
	<path fill="#00ff00" d="M317 40L332 1Q324 1 308 1Q201 1 131 -14Q61 -29 68.5 -50.5Q76 -72 157 -87Q238 -102 345 -102Q361 -102 369 -102H521L469 40ZM358 -71Q346 -72 334 -72Q289 -72 256 -65.5Q223 -59 219 -51Q216 -42 245 -35.5Q274 -29 319 -29Q331 -29 343 -30Z"/>
	<path fill="#ffff00" d="M332 202V4Q324 5 308 5Q201 5 125.5 -70.5Q50 -146 50 -253Q50 -360 125.5 -435Q201 -510 308 -510Q324 -510 332 -509H484V202ZM332 -356Q320 -359 308 -359Q263 -359 232 -328Q201 -297 201 -253Q201 -208 232 -177Q263 -146 308 -146Q320 -146 332 -149Z"/>
	<path fill="#ff0000" d="M489 -516Q496 -516 496 -509V202Q496 210 489 210H337Q330 210 330 202V12Q323 12 313 12Q203 12 125.5 -65.5Q48 -143 48 -253Q48 -363 125.5 -440.5Q203 -518 313 -518Q329 -518 337 -516ZM482 -502H337Q337 -502 336 -502Q329 -502 313 -502Q209 -502 135.5 -429.5Q62 -357 62 -253Q62 -149 135.5 -75.5Q209 -2 313 -2Q329 -2 336 -3Q337 -4 337 -4Q344 -4 344 4V194H482ZM344 -356V-149Q344 -143 339 -142Q326 -138 313 -138Q265 -138 231.5 -171.5Q198 -205 198 -253Q198 -300 231.5 -333Q265 -366 313 -366Q326 -366 339 -363Q344 -362 344 -356ZM313 -352Q271 -352 242.5 -323Q214 -294 214 -253Q214 -211 242.5 -182.5Q271 -154 313 -154Q321 -154 330 -155V-350Q321 -352 313 -352Z"/>
</svg>