<svg xmlns="http://www.w3.org/2000/svg" viewBox="0 -1024 1024 1024">
	<path fill="#000000" d="M469 -6Q435 3 398 3Q311 3 244 -49Q177 -101 153 -184L152 -364H55V-516H151L150 -761H317V-516H414V-364H317V-185Q349 -148 398 -148Q438 -148 469 -174Z"/>
	<path fill="#00ff00" d="M464 -1Q429 1 393 1Q306 1 242.5 -9.5Q179 -20 161 -37L174 -73H76L88 -103H184L200 -152H367L350 -103H447L435 -73H338L325 -37Q354 -30 404 -30Q444 -30 477 -35Z"/>
	<path fill="#ffff00" d="M464 -6Q430 3 393 3Q306 3 239 -49Q172 -101 148 -184L147 -364H50V-516H146L145 -761H312V-516H409V-364H312V-185Q344 -148 393 -148Q433 -148 464 -174Z"/>
	<path fill="#ff0000" d="M398 10Q308 10 239 -43.5Q170 -97 146 -182Q146 -183 146 -184L145 -356H55Q48 -356 48 -364V-516Q48 -524 55 -524H143L142 -761Q142 -768 150 -768H317Q324 -768 324 -761V-524H414Q422 -524 422 -516V-364Q422 -356 414 -356H324V-188Q354 -156 398 -156Q435 -156 464 -180Q466 -182 469 -182Q476 -182 476 -174V-6Q476 0 471 1Q436 10 398 10ZM398 -4Q431 -4 462 -12V-159Q433 -140 398 -140Q346 -140 311 -180Q310 -182 310 -185V-364Q310 -372 317 -372H406V-508H317Q310 -508 310 -516V-754H158V-516Q158 -508 151 -508H62V-372H152Q159 -372 159 -364L160 -185Q184 -105 249 -55Q314 -4 398 -4Z"/>
</svg>