<svg xmlns="http://www.w3.org/2000/svg" viewBox="0 -1024 1024 1024">
	<path fill="#000000" d="M65 -511H217L341 -144L465 -511H617L417 0H265Z"/>
	<path fill="#00ff00" d="M116 -102H268L323 -29L516 -102H668L373 0H221Z"/>
	<path fill="#ffff00" d="M50 -511H202L326 -144L450 -511H602L402 0H250Z"/>
	<path fill="#ff0000" d="M55 -518H207Q212 -518 214 -513L331 -167L448 -513Q450 -518 455 -518H607Q614 -518 614 -511Q614 -511 614 -508L414 3Q412 8 407 8H255Q250 8 248 3L48 -508Q48 -508 48 -511Q48 -518 55 -518ZM324 -142L202 -504H66L260 -8H402L596 -504H460L338 -142Q336 -136 331 -136Q326 -136 324 -142Z"/>
</svg>