<svg xmlns="http://www.w3.org/2000/svg" viewBox="0 -1024 1024 1024">
	<path fill="#000000" d="M65 -513L251 -511L380 -360L513 -512L688 -511L468 -258L689 0L514 2L377 -155L244 -2L66 1L290 -256Z"/>
	<path fill="#00ff00" d="M117 -103L302 -102L404 -72L564 -102H739L471 -52L644 0H469L362 -31L199 0H21L293 -51Z"/>
	<path fill="#ffff00" d="M50 -513L236 -511L365 -360L498 -512L673 -511L453 -258L674 0L499 2L362 -155L229 -2L51 1L274 -256Z"/>
	<path fill="#ff0000" d="M503 -520L678 -518Q686 -518 686 -511Q686 -508 684 -506L468 -258L685 -5Q686 -4 686 0Q686 7 679 7L504 10Q500 10 498 7L367 -144L240 3Q239 5 234 5L56 9Q48 9 48 1Q48 -2 50 -4L270 -256L49 -508Q48 -509 48 -513Q48 -520 55 -520L241 -518Q246 -518 247 -516L370 -371L497 -517Q498 -520 503 -520ZM286 -251L73 -7L231 -9L361 -160Q362 -162 367 -162Q372 -162 373 -160L507 -6L663 -7L452 -253Q450 -255 450 -258Q450 -261 452 -263L662 -504H506L376 -355Q374 -352 370 -352Q366 -352 364 -355L238 -504L72 -505L286 -261Q288 -259 288 -256Q288 -253 286 -251Z"/>
</svg>