<svg xmlns="http://www.w3.org/2000/svg" viewBox="0 -1024 1024 1024">
	<path fill="#000000" d="M55 -511H226L350 -144L455 -511L640 -514L361 200L213 204L282 0Z"/>
	<path fill="#00ff00" d="M87 -102H258L355 -29L487 -102L672 -103L341 40L193 41L277 0Z"/>
	<path fill="#ffff00" d="M50 -511H221L345 -144L450 -511L635 -514L356 200L208 204L277 0Z"/>
	<path fill="#ff0000" d="M55 -518H226Q231 -518 233 -513L349 -169L448 -513Q449 -518 455 -518L640 -522Q648 -522 648 -514Q648 -513 647 -511L368 203Q366 207 361 207L213 212Q206 212 206 204Q206 203 206 202L274 0L48 -508Q48 -509 48 -511Q48 -518 55 -518ZM290 0Q290 1 289 2L224 196L356 193L629 -506L461 -504L357 -142Q356 -136 350 -136Q345 -136 343 -142L221 -504H67L289 -3Q290 -2 290 0Z"/>
</svg>