<svg xmlns="http://www.w3.org/2000/svg" viewBox="0 -1024 1024 1024">
	<path fill="#000000" d="M55 -10V-162L298 -366H55V-518H508V-366L306 -162H508V-10Z"/>
	<path fill="#00ff00" d="M51 -2L62 -32L320 -73H77L88 -104H541L530 -73L313 -32H515L504 -2Z"/>
	<path fill="#ffff00" d="M50 -10V-162L293 -366H50V-518H503V-366L301 -162H503V-10Z"/>
	<path fill="#ff0000" d="M48 -10V-162Q48 -165 50 -168L277 -358H55Q48 -358 48 -366V-518Q48 -526 55 -526H508Q516 -526 516 -518V-366Q516 -363 513 -361L324 -170H508Q516 -170 516 -162V-10Q516 -2 508 -2H55Q48 -2 48 -10ZM62 -18H500V-154H306Q298 -154 298 -162Q298 -165 301 -167L500 -369V-510H62V-374H298Q306 -374 306 -366Q306 -363 303 -360L62 -159Z"/>
</svg>