<svg xmlns="http://www.w3.org/2000/svg" viewBox="0 -1024 1024 1024">
	<path fill="#000000" d="M467 -612Q372 -612 305 -543.5Q238 -475 238 -378Q238 -280 305 -211.5Q372 -143 467 -143Q476 -143 484 -144V-313H636V14H484Q476 14 467 14Q309 14 197 -101.5Q85 -217 85 -380Q85 -543 197 -658Q309 -773 467 -773Q504 -773 540 -766V-600Q505 -612 467 -612Z"/>
	<path fill="#60a04c" d="M504 -122Q409 -122 329 -108.5Q249 -95 231 -76Q212 -56 266 -42.5Q320 -29 415 -29Q424 -29 432 -29L464 -63H616L554 3H402Q394 3 385 3Q227 3 137 -20Q47 -43 78 -76Q109 -109 242.5 -132Q376 -155 534 -155Q571 -155 605 -153L574 -120Q542 -122 504 -122Z"/>
	<path fill="#fdb70d" d="M432 -612Q337 -612 270 -543.5Q203 -475 203 -378Q203 -280 270 -211.5Q337 -143 432 -143Q441 -143 449 -144V-313H601V14H449Q441 14 432 14Q274 14 162 -101.5Q50 -217 50 -380Q50 -543 162 -658Q274 -773 432 -773Q469 -773 505 -766V-600Q470 -612 432 -612Z"/>
	<path fill="#f40224" d="M437 -604Q344 -604 280 -538Q216 -473 216 -378Q216 -282 280 -217Q345 -150 437 -150Q438 -150 441 -150.5Q444 -151 446 -151V-313Q446 -320 454 -320H606Q614 -320 614 -313V14Q614 22 606 22H437Q277 22 162 -96Q48 -213 48 -380Q48 -546 162 -663Q276 -780 437 -780Q477 -780 511 -773Q518 -771 518 -766V-600Q518 -592 510 -592Q510 -592 509 -592L508 -593Q476 -604 437 -604ZM462 -306V-144Q462 -137 455 -137Q449 -136 437 -136Q339 -136 270 -206Q200 -278 200 -378Q200 -477 270 -549Q339 -620 437 -620Q467 -620 502 -610V-760Q469 -766 437 -766Q282 -766 172 -653Q62 -540 62 -380Q62 -222 172 -107Q281 6 437 6H598V-306Z"/>
</svg>