<svg xmlns="http://www.w3.org/2000/svg" viewBox="0 -1024 1024 1024">
	<path fill="#000000" d="M485 -774H637V2H485V-333H237V2H85V-774H237V-485H485Z"/>
	<path fill="#00ff00" d="M551 -155H703L557 0H405L468 -67H220L157 0H5L151 -155H303L248 -97H496Z"/>
	<path fill="#e3ab45" d="M450 -774H602V2H450V-333H202V2H50V-774H202V-485H450Z"/>
	<path fill="#ff0000" d="M455 -782H607Q614 -782 614 -774V2Q614 10 607 10H455Q448 10 448 2V-326H214V2Q214 10 207 10H55Q48 10 48 2V-774Q48 -782 55 -782H207Q214 -782 214 -774V-492H448V-774Q448 -782 455 -782ZM600 -766H462V-485Q462 -478 455 -478H207Q200 -478 200 -485V-766H62V-6H200V-333Q200 -340 207 -340H455Q462 -340 462 -333V-6H600Z"/>
</svg>