<svg xmlns="http://www.w3.org/2000/svg" viewBox="0 -1024 1024 1024">
	<path fill="#000000" d="M85 -6V-174Q116 -148 156 -148Q205 -148 237 -185V-761H404L401 -184Q377 -101 310 -49Q243 3 156 3Q119 3 85 -6Z"/>
	<path fill="#00ff00" d="M7 -1L40 -35Q66 -30 106 -30Q155 -30 193 -37L301 -152H468L357 -37Q317 -20 240.5 -9.5Q164 1 77 1Q39 1 7 -1Z"/>
	<path fill="#e3ab45" d="M50 -6V-174Q81 -148 121 -148Q170 -148 202 -185V-761H369L366 -184Q342 -101 275 -49Q208 3 121 3Q84 3 50 -6Z"/>
	<path fill="#ff0000" d="M48 -6V-174Q48 -182 55 -182Q58 -182 60 -180Q88 -156 126 -156Q171 -156 200 -188V-761Q200 -768 207 -768H374Q381 -768 381 -761L378 -184Q378 -184 378 -182Q354 -97 285 -43Q217 10 126 10Q88 10 53 1Q48 -1 48 -6ZM214 -754V-185Q214 -181 213 -180Q178 -140 126 -140Q92 -140 62 -159V-12Q94 -4 126 -4Q210 -4 275 -55Q340 -107 364 -185L366 -754Z"/>
</svg>