<svg xmlns="http://www.w3.org/2000/svg" viewBox="0 -1024 1024 1024">
	<path fill="#000000" d="M85 -774H237V-433L482 -770L668 -768L407 -387L738 3L546 2L294 -302L237 -219V2H85Z"/>
	<path fill="#60a04c" d="M151 -155H303L240 -87L547 -154H733L400 -77L658 1L467 0L271 -60L199 -44L158 0H6Z"/>
	<path fill="#fdb70d" d="M50 -774H202V-433L447 -770L633 -768L372 -387L703 3L511 2L259 -302L202 -219V2H50Z"/>
	<path fill="#f40224" d="M55 -782H207Q214 -782 214 -774V-456L446 -774Q448 -777 452 -777L638 -775Q646 -775 646 -768Q646 -766 644 -764L386 -387L714 -2Q716 0 716 3Q716 10 708 10L516 9Q511 9 510 7L265 -290L214 -217V2Q214 10 207 10H55Q48 10 48 2V-774Q48 -782 55 -782ZM200 -766H62V-6H200V-219Q200 -222 201 -223L258 -306Q260 -310 264 -310Q268 -310 270 -307L520 -5H692L371 -382Q370 -383 370 -387Q370 -390 371 -391L624 -761L456 -762L213 -429Q212 -426 207 -426Q200 -426 200 -433Z"/>
</svg>