<svg xmlns="http://www.w3.org/2000/svg" viewBox="0 -1024 1024 1024">
	<path fill="#000000" d="M849 -380Q849 -217 737 -101.5Q625 14 467 14Q309 14 197 -101.5Q85 -217 85 -380Q85 -543 197 -658Q309 -773 467 -773Q625 -773 737 -658Q849 -543 849 -380ZM696 -378Q696 -475 629 -543.5Q562 -612 467 -612Q372 -612 305 -543.5Q238 -475 238 -378Q238 -280 305 -211.5Q372 -143 467 -143Q562 -143 629 -211.5Q696 -280 696 -378Z"/>
	<path fill="#60a04c" d="M842 -76Q811 -43 677 -20Q543 3 385 3Q227 3 137 -20Q47 -43 78 -76Q109 -109 242.5 -132Q376 -155 534 -155Q692 -155 782.5 -132Q873 -109 842 -76ZM689 -76Q707 -95 653 -108.5Q599 -122 504 -122Q409 -122 329 -108.5Q249 -95 231 -76Q212 -56 266 -42.5Q320 -29 415 -29Q510 -29 590 -42.5Q670 -56 689 -76Z"/>
	<path fill="#fdb70d" d="M814 -380Q814 -217 702 -101.5Q590 14 432 14Q274 14 162 -101.5Q50 -217 50 -380Q50 -543 162 -658Q274 -773 432 -773Q590 -773 702 -658Q814 -543 814 -380ZM661 -378Q661 -475 594 -543.5Q527 -612 432 -612Q337 -612 270 -543.5Q203 -475 203 -378Q203 -280 270 -211.5Q337 -143 432 -143Q527 -143 594 -211.5Q661 -280 661 -378Z"/>
	<path fill="#f40224" d="M826 -380Q826 -213 712 -96Q597 22 437 22Q277 22 162 -96Q48 -213 48 -380Q48 -546 162 -663Q276 -780 437 -780Q598 -780 712 -663Q826 -546 826 -380ZM812 -380Q812 -540 702 -653Q592 -766 437 -766Q282 -766 172 -653Q62 -540 62 -380Q62 -222 172 -107Q281 6 437 6Q593 6 702 -107Q812 -222 812 -380ZM674 -378Q674 -278 604 -206Q535 -136 437 -136Q339 -136 270 -206Q200 -278 200 -378Q200 -477 270 -549Q339 -620 437 -620Q535 -620 604 -549Q674 -477 674 -378ZM658 -378Q658 -473 594 -538Q530 -604 437 -604Q344 -604 280 -538Q216 -473 216 -378Q216 -282 280 -217Q345 -150 437 -150Q529 -150 594 -217Q658 -282 658 -378Z"/>
</svg>