<svg xmlns="http://www.w3.org/2000/svg" viewBox="0 -1024 1024 1024">
	<path fill="#000000" d="M237 -3H85V-779H237Q245 -780 261 -780Q368 -780 443.5 -705Q519 -630 519 -523Q519 -416 443.5 -340.5Q368 -265 261 -265Q245 -265 237 -266ZM237 -626V-419Q249 -416 261 -416Q306 -416 337 -447Q368 -478 368 -523Q368 -567 337 -598Q306 -629 261 -629Q249 -629 237 -626Z"/>
	<path fill="#60a04c" d="M157 -1H5L152 -156H304Q312 -156 328 -156Q435 -156 496 -141Q557 -126 537 -104.5Q517 -83 427 -68Q337 -53 230 -53Q214 -53 206 -53ZM275 -125L236 -84Q248 -83 259 -83Q304 -83 341 -89.5Q378 -96 386 -105Q394 -114 369 -120Q344 -126 299 -126Q287 -126 275 -125Z"/>
	<path fill="#fdb70d" d="M202 -3H50V-779H202Q210 -780 226 -780Q333 -780 408.5 -705Q484 -630 484 -523Q484 -416 408.5 -340.5Q333 -265 226 -265Q210 -265 202 -266ZM202 -626V-419Q214 -416 226 -416Q271 -416 302 -447Q333 -478 333 -523Q333 -567 302 -598Q271 -629 226 -629Q214 -629 202 -626Z"/>
	<path fill="#f40224" d="M207 4H55Q48 4 48 -3V-779Q48 -786 55 -786H207Q219 -788 231 -788Q339 -788 419 -710Q496 -634 496 -523Q496 -412 419 -335Q342 -258 231 -258H214V-3Q214 4 207 4ZM62 -10H200V-266Q200 -274 207 -274L208 -273Q213 -272 231 -272Q334 -272 408 -346Q482 -420 482 -523Q482 -626 408 -700Q336 -772 231 -772H208H207H62ZM231 -636Q279 -636 312 -603Q346 -569 346 -523Q346 -476 312 -442Q278 -408 231 -408Q223 -408 205 -412Q200 -414 200 -419V-626Q200 -631 205 -633Q218 -636 231 -636ZM330 -523Q330 -565 302 -593Q273 -622 231 -622Q226 -622 214 -620V-425Q220 -424 231 -424Q274 -424 302 -452Q330 -480 330 -523Z"/>
</svg>