<svg xmlns="http://www.w3.org/2000/svg" viewBox="0 -1024 1024 1024">
	<path fill="#000000" d="M239 -483H237H230Q179 -487 144.5 -523.5Q110 -560 110 -611Q110 -662 145 -699Q180 -736 230 -740H237H239H241Q295 -740 332.5 -702.5Q370 -665 370 -611Q370 -558 332.5 -520.5Q295 -483 241 -483ZM240 -665Q236 -665 228 -663V-664Q209 -660 197.5 -645.5Q186 -631 186 -611Q186 -592 197.5 -577.5Q209 -563 228 -559V-560Q236 -558 240 -558Q244 -558 252 -560V-559Q271 -563 282.5 -577.5Q294 -592 294 -611Q294 -631 282.5 -645.5Q271 -660 252 -664V-663Q244 -665 240 -665ZM544 -82H542H535Q484 -86 449.5 -122.5Q415 -159 415 -210Q415 -261 450 -298Q485 -335 535 -339H542H544H546Q600 -339 637.5 -301.5Q675 -264 675 -210Q675 -157 637.5 -119.5Q600 -82 546 -82ZM545 -264Q541 -264 533 -262V-263Q514 -259 502.5 -244.5Q491 -230 491 -210Q491 -191 502.5 -176.5Q514 -162 533 -158V-159Q541 -157 545 -157Q549 -157 557 -159V-158Q576 -162 587.5 -176.5Q599 -191 599 -210Q599 -230 587.5 -244.5Q576 -259 557 -263V-262Q549 -264 545 -264ZM570 -818L676 -757L191 83L85 22Z"/>
	<path fill="#00ff00" d="M253 -97H251H244Q193 -98 165.5 -105Q138 -112 147.5 -122Q157 -132 199 -139.5Q241 -147 292 -148H299H301H303Q357 -148 387 -140.5Q417 -133 407 -122Q397 -111 353 -104Q309 -97 255 -97ZM287 -133Q283 -133 275 -133Q256 -132 241.5 -129Q227 -126 223 -122Q220 -118 229 -115.5Q238 -113 256 -112Q264 -112 268 -112Q272 -112 280 -112Q300 -113 314 -115.5Q328 -118 331 -122Q334 -126 326 -129Q318 -132 299 -133Q291 -133 287 -133ZM482 -16H480H473Q422 -17 395 -24.5Q368 -32 377.5 -42Q387 -52 428.5 -59.5Q470 -67 522 -68H529H531H533Q587 -68 617 -60.5Q647 -53 636.5 -42Q626 -31 582 -23.5Q538 -16 484 -16ZM517 -53Q513 -53 505 -52V-53Q486 -52 471.5 -49Q457 -46 453 -42Q450 -38 458.5 -35Q467 -32 486 -32Q494 -32 497 -31.5Q500 -31 510 -32Q530 -33 544 -35.5Q558 -38 561 -42Q564 -46 556 -49Q548 -52 529 -53V-52Q521 -53 517 -53ZM647 -164L741 -151L98 17L3 4Z"/>
	<path fill="#e3ab45" d="M204 -483H202H195Q144 -487 109.5 -523.5Q75 -560 75 -611Q75 -662 110 -699Q145 -736 195 -740H202H204H206Q260 -740 297.5 -702.5Q335 -665 335 -611Q335 -558 297.5 -520.5Q260 -483 206 -483ZM205 -665Q201 -665 193 -663V-664Q174 -660 162.5 -645.5Q151 -631 151 -611Q151 -592 162.5 -577.5Q174 -563 193 -559V-560Q201 -558 205 -558Q209 -558 217 -560V-559Q236 -563 247.5 -577.5Q259 -592 259 -611Q259 -631 247.5 -645.5Q236 -660 217 -664V-663Q209 -665 205 -665ZM509 -82H507H500Q449 -86 414.5 -122.5Q380 -159 380 -210Q380 -261 415 -298Q450 -335 500 -339H507H509H511Q565 -339 602.5 -301.5Q640 -264 640 -210Q640 -157 602.5 -119.5Q565 -82 511 -82ZM510 -264Q506 -264 498 -262V-263Q479 -259 467.5 -244.5Q456 -230 456 -210Q456 -191 467.5 -176.5Q479 -162 498 -158V-159Q506 -157 510 -157Q514 -157 522 -159V-158Q541 -162 552.5 -176.5Q564 -191 564 -210Q564 -230 552.5 -244.5Q541 -259 522 -263V-262Q514 -264 510 -264ZM535 -818L641 -757L156 83L50 22Z"/>
	<path fill="#ff0000" d="M211 -476H200H199Q144 -481 109 -518Q72 -558 72 -611Q72 -664 110 -704Q147 -743 199 -747L200 -748H211Q268 -748 308 -708Q348 -668 348 -611Q348 -555 308 -515Q269 -476 211 -476ZM200 -490H211Q261 -490 297 -526Q332 -561 332 -611Q332 -662 297 -697Q262 -732 211 -732H200Q152 -727 120 -694Q88 -661 88 -611Q88 -562 120 -529Q153 -494 200 -490ZM222 -672H223L224 -671Q245 -666 258.5 -650Q272 -634 272 -611Q272 -590 258 -573Q244 -556 224 -552H222H220Q212 -550 210 -550Q208 -550 200 -552H198H196Q176 -556 162 -573Q148 -590 148 -611Q148 -634 161.5 -650Q175 -666 196 -671L197 -672H198H199L200 -671Q204 -672 210 -672Q216 -672 220 -671L221 -672ZM224 -567Q256 -576 256 -611Q256 -648 224 -656H222H220Q218 -656 215 -657Q211 -658 210 -658L200 -656H198H196Q164 -648 164 -611Q164 -576 196 -567L197 -568H198H199L200 -567Q205 -566 210 -566Q215 -566 220 -567L221 -568H222H223ZM516 -74H505L504 -75Q448 -80 414 -117Q378 -156 378 -210Q378 -265 415 -303Q452 -342 504 -346H505H516Q574 -346 613 -307Q652 -268 652 -210Q652 -153 613 -114Q573 -74 516 -74ZM505 -90H516Q567 -90 602 -125Q638 -161 638 -210Q638 -260 602 -296Q566 -332 516 -332H505Q458 -327 425 -293Q392 -258 392 -210Q392 -162 425 -128Q457 -94 505 -90ZM576 -210Q576 -188 563 -172Q549 -155 529 -151Q528 -151 528 -150.5Q528 -150 527 -150Q526 -150 526 -150.5Q526 -151 525 -151Q521 -150 515 -150Q509 -150 505 -151Q504 -151 504 -150.5Q504 -150 503 -150Q502 -150 502 -150.5Q502 -151 501 -151Q481 -155 467 -172Q454 -188 454 -210Q454 -233 467 -249Q480 -265 501 -270H503H505Q513 -272 515 -272Q517 -272 525 -270H527H529Q550 -265 563 -249Q576 -233 576 -210ZM529 -166Q543 -170 552.5 -182Q562 -194 562 -210Q562 -246 529 -255Q528 -255 528 -254.5Q528 -254 527 -254Q526 -254 526 -254.5Q526 -255 525 -255Q520 -256 515 -256Q510 -256 505 -255Q504 -255 504 -254.5Q504 -254 503 -254Q502 -254 502 -254.5Q502 -255 501 -255Q468 -246 468 -210Q468 -194 477.5 -182Q487 -170 501 -166H503H505Q507 -166 510 -165Q514 -164 515 -164L525 -166H527ZM654 -757Q654 -755 652 -753L167 87Q166 90 161 90H157L51 29Q48 28 48 22Q48 19 49 18L534 -822Q536 -826 540 -826Q543 -826 544 -825L650 -764Q654 -762 654 -757ZM636 -754L543 -808L65 19L158 73Z"/>
</svg>