<svg xmlns="http://www.w3.org/2000/svg" viewBox="0 -1024 1024 1024">
	<path fill="#000000" d="M237 -626V-419Q249 -416 261 -416Q306 -416 337 -447Q368 -478 368 -523Q368 -567 337 -598Q306 -629 261 -629Q249 -629 237 -626ZM237 -3H85V-779H237Q245 -780 261 -780Q368 -780 443.5 -705Q519 -630 519 -523Q519 -440 471.5 -373.5Q424 -307 348 -280L547 3H407L242 -266Q239 -266 237 -266Z"/>
	<path fill="#60a04c" d="M275 -125L237 -84Q248 -83 259 -83Q304 -83 341.5 -89.5Q379 -96 387 -105Q395 -114 370 -120Q345 -126 300 -126Q288 -126 275 -125ZM158 -1H6L152 -156H304Q312 -156 328 -156Q435 -156 496.5 -141Q558 -126 538 -105Q522 -88 461.5 -74.5Q401 -61 322 -56L467 1H327L212 -53Q209 -53 207 -53Z"/>
	<path fill="#fdb70d" d="M202 -626V-419Q214 -416 226 -416Q271 -416 302 -447Q333 -478 333 -523Q333 -567 302 -598Q271 -629 226 -629Q214 -629 202 -626ZM202 -3H50V-779H202Q210 -780 226 -780Q333 -780 408.5 -705Q484 -630 484 -523Q484 -440 436.5 -373.5Q389 -307 313 -280L512 3H372L207 -266Q204 -266 202 -266Z"/>
	<path fill="#f40224" d="M231 -636Q279 -636 312 -603Q346 -569 346 -523Q346 -476 312 -442Q278 -408 231 -408Q223 -408 205 -412Q200 -414 200 -419V-626Q200 -631 205 -633Q218 -636 231 -636ZM330 -523Q330 -565 302 -593Q273 -622 231 -622Q226 -622 214 -620V-425Q220 -424 231 -424Q274 -424 302 -452Q330 -480 330 -523ZM207 4H55Q48 4 48 -3V-779Q48 -786 55 -786H207Q219 -788 231 -788Q339 -788 419 -710Q496 -634 496 -523Q496 -436 448 -369Q401 -304 330 -276L523 -1Q524 0 524 3Q524 10 517 10H377Q372 10 371 7L214 -248V-3Q214 4 207 4ZM62 -10H200V-266Q200 -274 207 -274H212Q216 -274 218 -270L381 -4H503L312 -276Q310 -278 310 -280Q310 -285 315 -287Q389 -314 435 -378Q482 -443 482 -523Q482 -626 408 -700Q336 -772 231 -772H208H207H62Z"/>
</svg>