<svg xmlns="http://www.w3.org/2000/svg" viewBox="0 -1024 1024 1024">
	<path fill="#000000" d="M16 -651Q12 -651 4 -666V-420Q4 -416 7 -413Q10 -410 14 -410H1076Q1080 -410 1083 -413Q1086 -416 1086 -420V-661Q1083 -651 1078 -651H740Q659 -650 558 -651ZM547 -749Q417 -749 321 -659Q472 -656 562 -655H737Q760 -655 779 -655Q734 -699 674.5 -724Q615 -749 547 -749ZM547 -753Q615 -753 677 -727Q739 -701 785 -655H1078Q1081 -656 1087 -673Q1087 -675 1088 -675Q1090 -675 1090 -673V-420Q1090 -414 1086 -410Q1082 -406 1076 -406H890Q889 -267 791 -168Q692 -69 552 -69Q412 -69 313 -168Q214 -267 214 -406H14Q8 -406 4 -410Q0 -414 0 -420V-673Q0 -673 0 -674Q0 -676 2 -676Q4 -676 5 -672L16 -655H316Q314 -655 314 -657Q314 -657 314 -658Q413 -753 547 -753ZM886 -405H218Q218 -268 315.5 -170.5Q413 -73 551.5 -73Q690 -73 787.5 -170.5Q885 -268 886 -405ZM402.5 -323Q369 -290 369 -243Q369 -196 402.5 -163Q436 -130 482.5 -130Q529 -130 562 -163Q595 -196 595 -243Q595 -290 562 -323Q529 -356 482.5 -356Q436 -356 402.5 -323ZM399.5 -160.5Q365 -195 365 -243Q365 -291 399.5 -325.5Q434 -360 482 -360Q530 -360 564.5 -325.5Q599 -291 599 -243Q599 -195 564.5 -160.5Q530 -126 482 -126Q434 -126 399.5 -160.5ZM642.5 -295.5Q621 -272 621 -238.5Q621 -205 642.5 -181.5Q664 -158 693.5 -158Q723 -158 744.5 -181.5Q766 -205 766 -238.5Q766 -272 744.5 -295.5Q723 -319 693.5 -319Q664 -319 642.5 -295.5ZM639.5 -178.5Q617 -203 617 -238Q617 -273 639.5 -298Q662 -323 693.5 -323Q725 -323 747.5 -298Q770 -273 770 -238Q770 -203 747.5 -178.5Q725 -154 693.5 -154Q662 -154 639.5 -178.5Z"/>
	<path fill="#60a04c" d="M930 -423ZM622 -237Q621 -273 645 -297Q669 -321 703 -321Q737 -321 761 -297Q785 -273 784 -238Q785 -201 761 -177Q737 -153 703 -153Q669 -153 645 -177Q621 -201 622 -237Z"/>
	<path fill="#fdb70d" d="M388 -237Q388 -279 415 -309Q442 -339 481.5 -339Q521 -339 549 -309Q577 -279 577 -237Q577 -195 550 -165Q523 -135 483.5 -135Q444 -135 416 -165Q388 -195 388 -237ZM885 -700ZM862.5 -579Q859 -583 859 -588.5Q859 -594 862.5 -598Q866 -602 870 -602Q874 -602 877 -598Q880 -594 880 -588.5Q880 -583 877 -579Q874 -575 870 -575Q866 -575 862.5 -579ZM931 -509.5Q927 -513 927 -517Q927 -521 931 -524Q935 -527 940.5 -527Q946 -527 950 -524Q954 -521 954 -517Q954 -513 950 -509.5Q946 -506 940.5 -506Q935 -506 931 -509.5ZM993 -563Q988 -568 988 -575Q988 -582 993 -587Q998 -592 1005 -592Q1012 -592 1017 -587Q1022 -582 1022 -575Q1022 -568 1017 -563Q1012 -558 1005 -558Q998 -558 993 -563ZM929 -615Q924 -620 924 -627Q924 -634 929 -639Q934 -644 941 -644Q948 -644 953 -639Q958 -634 958 -627Q958 -620 953 -615Q948 -610 941 -610Q934 -610 929 -615ZM622.5 -555Q619 -559 619 -564.5Q619 -570 622.5 -574Q626 -578 630 -578Q634 -578 637 -574Q640 -570 640 -564.5Q640 -559 637 -555Q634 -551 630 -551Q626 -551 622.5 -555ZM691 -485.5Q687 -489 687 -493Q687 -497 691 -500Q695 -503 700.5 -503Q706 -503 710 -500Q714 -497 714 -493Q714 -489 710 -485.5Q706 -482 700.5 -482Q695 -482 691 -485.5ZM753 -539Q748 -544 748 -551Q748 -558 753 -563Q758 -568 765 -568Q772 -568 777 -563Q782 -558 782 -551Q782 -544 777 -539Q772 -534 765 -534Q758 -534 753 -539ZM689 -591Q684 -596 684 -603Q684 -610 689 -615Q694 -620 701 -620Q708 -620 713 -615Q718 -610 718 -603Q718 -596 713 -591Q708 -586 701 -586Q694 -586 689 -591ZM709 -555Q706 -559 706 -564.5Q706 -570 709 -574Q712 -578 716 -578Q720 -578 723 -574Q726 -570 726 -564.5Q726 -559 723 -555Q720 -551 716 -551Q712 -551 709 -555ZM778 -485.5Q774 -489 774 -493Q774 -497 778 -500Q782 -503 787.5 -503Q793 -503 797 -500Q801 -497 801 -493Q801 -489 797 -485.5Q793 -482 787.5 -482Q782 -482 778 -485.5ZM839 -539Q834 -544 834 -551Q834 -558 839 -563Q844 -568 851 -568Q858 -568 863 -563Q868 -558 868 -551Q868 -544 863 -539Q858 -534 851 -534Q844 -534 839 -539ZM775 -591Q770 -596 770 -603Q770 -610 775 -615Q780 -620 787 -620Q794 -620 799 -615Q804 -610 804 -603Q804 -596 799 -591Q794 -586 787 -586Q780 -586 775 -591ZM469 -531Q466 -535 466 -540.5Q466 -546 469 -550Q472 -554 476 -554Q480 -554 483 -550Q486 -546 486 -540.5Q486 -535 483 -531Q480 -527 476 -527Q472 -527 469 -531ZM538 -461.5Q534 -465 534 -469Q534 -473 538 -476Q542 -479 547.5 -479Q553 -479 557 -476Q561 -473 561 -469Q561 -465 557 -461.5Q553 -458 547.5 -458Q542 -458 538 -461.5ZM599 -515Q594 -520 594 -527Q594 -534 599 -539Q604 -544 611 -544Q618 -544 623 -539Q628 -534 628 -527Q628 -520 623 -515Q618 -510 611 -510Q604 -510 599 -515ZM535 -567Q530 -572 530 -579Q530 -586 535 -591Q540 -596 547 -596Q554 -596 559 -591Q564 -586 564 -579Q564 -572 559 -567Q554 -562 547 -562Q540 -562 535 -567ZM243 -579Q240 -583 240 -588.5Q240 -594 243 -598Q246 -602 250 -602Q254 -602 257.5 -598Q261 -594 261 -588.5Q261 -583 257.5 -579Q254 -575 250 -575Q246 -575 243 -579ZM312 -509.5Q308 -513 308 -517Q308 -521 312 -524Q316 -527 321.5 -527Q327 -527 331 -524Q335 -521 335 -517Q335 -513 331 -509.5Q327 -506 321.5 -506Q316 -506 312 -509.5ZM373.5 -563Q369 -568 369 -575Q369 -582 373.5 -587Q378 -592 385.5 -592Q393 -592 397.5 -587Q402 -582 402 -575Q402 -568 397.5 -563Q393 -558 385.5 -558Q378 -558 373.5 -563ZM309.5 -615Q305 -620 305 -627Q305 -634 309.5 -639Q314 -644 321.5 -644Q329 -644 333.5 -639Q338 -634 338 -627Q338 -620 333.5 -615Q329 -610 321.5 -610Q314 -610 309.5 -615ZM3 -555Q0 -559 0 -564.5Q0 -570 3 -574Q6 -578 10 -578Q14 -578 17.5 -574Q21 -570 21 -564.5Q21 -559 17.5 -555Q14 -551 10 -551Q6 -551 3 -555ZM72 -485.5Q68 -489 68 -493Q68 -497 72 -500Q76 -503 81.5 -503Q87 -503 91 -500Q95 -497 95 -493Q95 -489 91 -485.5Q87 -482 81.5 -482Q76 -482 72 -485.5ZM133.5 -539Q129 -544 129 -551Q129 -558 133.5 -563Q138 -568 145.5 -568Q153 -568 157.5 -563Q162 -558 162 -551Q162 -544 157.5 -539Q153 -534 145.5 -534Q138 -534 133.5 -539ZM69.5 -591Q65 -596 65 -603Q65 -610 69.5 -615Q74 -620 81.5 -620Q89 -620 93.5 -615Q98 -610 98 -603Q98 -596 93.5 -591Q89 -586 81.5 -586Q74 -586 69.5 -591Z"/>
	<path fill="#f40224" d="M28 -651H1067Q1072 -651 1076.5 -647Q1081 -643 1081 -637V-421Q1081 -415 1076.5 -411Q1072 -407 1067 -407H28Q20 -407 10 -410Q0 -413 0 -418V-634Q0 -639 10.5 -645Q21 -651 28 -651ZM28 -647Q24 -647 21 -644Q18 -641 18 -637V-421Q18 -417 21 -414Q24 -411 28 -411H1067Q1071 -411 1074 -414Q1077 -417 1077 -421V-637Q1077 -641 1074 -644Q1071 -647 1067 -647Z"/>
</svg>