<svg xmlns="http://www.w3.org/2000/svg" viewBox="0 -1024 1024 1024">
	<path fill="#000000" d="M773 -82Q773 -64 685 -52Q597 -40 473 -40Q349 -40 261 -52Q173 -64 173 -82Q173 -100 261 -112Q349 -124 473 -124Q597 -124 685 -112Q773 -100 773 -82Z"/>
	<path fill="#60a04c" d="M271 -440L253 -476L286 -491L325 -473L307 -455L337 -446L325 -419L292 -407ZM502 -344Q683 -343 804.5 -389Q926 -435 931 -512Q935 -581 809 -630.5Q683 -680 505 -680Q388 -680 289.5 -657.5Q191 -635 133.5 -596.5Q76 -558 76 -512Q76 -466 132.5 -428Q189 -390 287 -367.5Q385 -345 502 -344ZM156.5 -209Q13 -290 13 -404Q13 -518 156.5 -599Q300 -680 502 -680Q704 -680 847.5 -599Q991 -518 991 -404Q991 -290 847.5 -209Q704 -128 502 -128Q300 -128 156.5 -209Z"/>
	<path fill="#fdb70d" d="M271 -440L253 -476L286 -491L325 -473L307 -455L337 -446L325 -419L292 -407ZM502 -344Q683 -343 804.5 -389Q926 -435 931 -512Q935 -581 809 -630.5Q683 -680 505 -680Q388 -680 289.5 -657.5Q191 -635 133.5 -596.5Q76 -558 76 -512Q76 -466 132.5 -428Q189 -390 287 -367.5Q385 -345 502 -344ZM614 -509L323 -531L372 -558L321 -602Q329 -600 339.5 -597Q350 -594 353.5 -593Q357 -592 365 -591Q373 -590 381 -589.5Q389 -589 402 -589L614 -580Q665 -580 688 -558L723 -522Q740 -506 740.5 -473.5Q741 -441 724 -423Q715 -413 703.5 -405Q692 -397 675.5 -390.5Q659 -384 648.5 -380.5Q638 -377 616.5 -371.5Q595 -366 587 -364L528 -391L567 -403L539 -431Q544 -431 555 -431Q576 -431 586 -431Q601 -430 614 -431Q627 -432 638 -433.5Q649 -435 657 -440.5Q665 -446 669.5 -453.5Q674 -461 673 -473.5Q672 -486 665 -502Q647 -509 614 -509Z"/>
	<path fill="#f40224" d="M614 -509L323 -531L372 -558L321 -602Q329 -600 339.5 -597Q350 -594 353.5 -593Q357 -592 365 -591Q373 -590 381 -589.5Q389 -589 402 -589L614 -580Q665 -580 688 -558L723 -522Q740 -506 740.5 -473.5Q741 -441 724 -423Q715 -413 703.5 -405Q692 -397 675.5 -390.5Q659 -384 648.5 -380.5Q638 -377 616.5 -371.5Q595 -366 587 -364L528 -391L567 -403L539 -431H586Q601 -430 614 -431Q627 -432 638 -433.5Q649 -435 657 -440.5Q665 -446 669.5 -453.5Q674 -461 673 -473.5Q672 -486 665 -502Q647 -509 614 -509Z"/>
</svg>