<svg xmlns="http://www.w3.org/2000/svg" viewBox="0 -1024 1024 1024">
	<path fill="#000000" d="M277 13Q174 8 174 0Q174 -8 270 -14Q366 -20 501 -20Q636 -20 732 -14Q828 -8 835 -1Q842 6 746 12Q650 18 515 18Q380 18 277 13Z"/>
	<path fill="#00ff00" d="M309 -122Q302 -122 302 -132Q302 -142 309 -142Q316 -142 316 -132Q316 -122 309 -122ZM623 -46Q617 -46 617 -63Q617 -80 623 -80Q629 -80 629 -63Q629 -46 623 -46ZM255 37Q248 37 248 19Q248 1 255 1Q262 1 262 19Q262 37 255 37ZM822 -20Z"/>
	<path fill="#e3ab45" d="M561 -749Q552 -749 533 -748.5Q514 -748 504 -748Q496 -748 480 -748Q464 -748 456 -748Q455 -748 451 -748Q444 -748 420 -743Q418 -742 415 -741Q406 -737 387 -730Q357 -718 343.5 -712Q330 -706 305.5 -694Q281 -682 264 -667.5Q247 -653 234 -636Q198 -591 190 -524Q186 -489 186 -447Q186 -446 186 -446Q186 -436 188 -425.5Q190 -415 191.5 -407.5Q193 -400 196.5 -388Q200 -376 202 -371Q204 -366 209 -352Q214 -338 215 -335Q280 -166 403 -92Q481 -45 575 -45Q605 -45 636 -50Q650 -47 664 -47Q707 -47 738.5 -70.5Q770 -94 774 -128Q778 -127 781 -127Q813 -127 836 -157Q849 -173 865 -213Q873 -234 877 -238Q879 -242 880 -246L890 -320Q890 -320 890 -320L898 -394Q898 -395 898 -395Q898 -396 898 -396L896 -471Q896 -473 895 -475Q895 -477 890 -491Q885 -505 884 -512Q884 -512 884 -516Q884 -537 868 -586Q859 -642 808 -682Q763 -716 697 -732.5Q631 -749 561 -749ZM834 -516Q834 -515 834 -514Q834 -513 834 -512Q834 -506 837 -496Q838 -490 841.5 -480Q845 -470 846 -468L848 -396Q840 -322 831 -254Q826 -247 817 -225Q803 -190 793 -178Q785 -167 781 -167Q776 -167 769 -168Q761 -202 761 -247Q761 -261 762 -272Q762 -273 762 -274Q762 -277 761 -280L751 -302Q764 -311 773 -323Q786 -342 797 -361Q799 -363 799 -366L811 -410Q812 -413 812 -415L810 -509Q810 -514 808 -517L788 -553Q786 -555 785 -557L723 -619Q718 -623 712 -625L670 -638Q667 -639 664 -639L580 -647Q580 -647 531 -651Q530 -651 529 -651H517Q511 -651 505 -648Q502 -647 495 -646Q483 -643 476 -641Q377 -604 344 -546Q321 -504 319 -501Q319 -500 318 -498L308 -448Q308 -447 308 -446L304 -397Q304 -396 304 -395Q304 -395 304 -395L306 -356Q306 -355 306 -353Q315 -321 326 -301Q355 -237 415 -190Q443 -165 493.5 -152Q544 -139 594.5 -135Q645 -131 646 -131Q652 -131 664.5 -131Q677 -131 683 -131Q707 -131 724 -130Q721 -112 704 -99.5Q687 -87 664 -87Q654 -87 644 -90Q641 -91 637 -91Q634 -91 632 -90Q603 -85 575 -85Q498 -85 433 -124Q376 -158 333 -217.5Q290 -277 263 -347Q237 -418 236 -447Q236 -487 240 -520Q247 -578 276 -615Q294 -639 325.5 -656Q357 -673 409 -694Q427 -701 437 -705Q450 -708 451 -708Q452 -708 453 -708Q454 -708 455 -708Q463 -708 479.5 -708Q496 -708 504 -708Q514 -708 533 -708.5Q552 -709 561 -709Q622 -709 679.5 -694.5Q737 -680 773 -653Q812 -623 818 -580Q818 -579 822 -567Q834 -533 834 -516ZM558 -487Q559 -487 563 -485Q567 -483 569.5 -481.5Q572 -480 576.5 -479Q581 -478 585 -478Q595 -478 602.5 -484Q610 -490 610 -498Q610 -512 594 -517Q592 -517 587 -520Q582 -523 576.5 -525Q571 -527 564 -527Q562 -527 561 -527Q540 -527 524 -521Q513 -516 499 -503Q493 -497 490 -496Q481 -491 479 -484L469 -452Q468 -449 468 -447Q468 -446 468 -446L470 -387Q470 -382 473 -378L499 -338Q500 -337 508 -329Q522 -316 534 -312Q566 -299 589 -296Q591 -295 593 -295Q608 -295 639 -291.5Q670 -288 687 -287Q693 -287 700 -287Q702 -287 705 -287L712 -271Q711 -260 711 -247Q711 -205 718 -170Q705 -171 683 -171Q677 -171 664.5 -171Q652 -171 646 -171Q575 -171 529 -179.5Q483 -188 452 -217Q451 -217 451 -218Q398 -259 373 -316Q372 -317 372 -318Q363 -332 356 -360L354 -395L358 -443L367 -490Q370 -495 373.5 -502Q377 -509 382 -517Q387 -525 390 -530Q415 -574 498 -605Q501 -606 509.5 -607.5Q518 -609 523 -611H528Q558 -609 655 -600L688 -590L744 -534L760 -505L762 -417L751 -376Q742 -361 732 -347Q731 -349 726 -355Q718 -364 705 -364Q695 -364 687.5 -358Q680 -352 680 -344Q680 -338 686 -331L688 -327Q673 -328 642.5 -331.5Q612 -335 595 -335Q581 -338 556 -348Q552 -349 547 -355Q543 -358 542 -359L520 -393L518 -444L525 -467Q530 -470 538 -477Q544 -484 548 -486Q552 -487 558 -487Z"/>
	<path fill="#ff0000" d="M705 -362Q697 -362 689.5 -357Q682 -352 682 -344Q682 -339 688 -332Q690 -330 690 -327.5Q690 -325 688 -325Q673 -325 642 -329Q611 -333 595 -333Q580 -335 555 -345Q551 -347 545 -353Q544 -354 542 -355Q540 -357 539 -358L518 -391Q517 -392 517 -393Q516 -444 516 -444Q516 -445 516 -445L523 -468Q523 -469 524 -469Q528 -472 536 -479Q547 -490 558 -490Q559 -490 564 -487Q576 -480 585 -480Q593 -480 600.5 -485.5Q608 -491 608 -498Q608 -510 593 -514Q592 -515 586 -518Q573 -525 561 -525Q526 -525 501 -502Q494 -495 491 -493Q483 -490 481 -483L471 -451Q470 -449 470 -447L471 -446L473 -387Q473 -383 475 -379.5Q477 -376 486.5 -361.5Q496 -347 501 -340Q502 -338 510 -331Q522 -320 535 -314Q567 -301 589 -298Q591 -298 593 -298Q608 -298 640 -294Q671 -290 687 -290Q689 -290 693.5 -289.5Q698 -289 700 -289Q701 -289 702.5 -289Q704 -289 705 -289Q707 -289 707 -288L714 -272Q714 -272 714 -271Q713 -260 713 -247Q713 -205 720 -171Q720 -171 720 -170Q720 -168 718 -168Q714 -168 702.5 -168Q691 -168 683 -168Q664 -168 646 -168Q575 -168 529 -177Q482 -186 450 -215Q450 -215 449 -216Q396 -258 370 -315Q370 -316 369 -316Q361 -331 353 -359L352 -395Q352 -395 352 -395L355 -443L365 -490V-491Q368 -496 371.5 -503Q375 -510 380.5 -518.5Q386 -527 388 -531Q413 -576 497 -607Q499 -608 509 -610Q519 -612 522 -613Q522 -613 523 -613H528Q558 -612 655 -602H656L688 -592Q689 -592 689 -592L745 -536Q746 -535 746 -535L762 -506Q763 -505 763 -505Q764 -417 764 -417Q764 -416 764 -416L754 -376Q754 -375 753 -375Q744 -360 734 -346Q733 -345 732 -345Q731 -345 730 -346Q729 -348 724 -354Q717 -362 705 -362ZM612 -498Q612 -488 603.5 -481.5Q595 -475 585 -475Q576 -475 557 -485Q552 -485 549 -483.5Q546 -482 539 -476Q532 -469 527 -465L521 -444L522 -393L543 -361Q545 -359 548 -356Q553 -352 557 -350Q581 -340 596 -338Q612 -338 643 -334Q669 -331 684 -330Q678 -338 678 -344Q678 -354 686.5 -360.5Q695 -367 705 -367Q720 -367 728 -357Q731 -353 732 -352Q741 -364 749 -377L759 -417L758 -504L741 -532L686 -588L654 -597Q557 -607 528 -608H523Q521 -607 511 -605Q501 -603 498 -602Q416 -572 392 -528Q390 -525 385 -516.5Q380 -508 376 -501Q372 -494 370 -489L360 -442L357 -395L358 -360Q365 -333 374 -319Q374 -318 375 -317Q400 -261 452 -220Q453 -219 453 -219Q484 -191 530 -182Q576 -173 646 -173Q664 -173 683 -173Q702 -173 715 -173Q708 -206 708 -247Q708 -260 709 -271L703 -284Q702 -284 700 -284Q693 -284 687 -285Q670 -285 639 -289Q608 -293 593 -293Q591 -293 589 -293Q566 -296 533 -309Q520 -314 507 -327Q498 -336 497 -337L471 -377Q468 -382 468 -387L466 -446Q466 -446 466 -447Q466 -450 466 -452L476 -484Q479 -493 489 -498Q491 -499 498 -505Q524 -530 561 -530Q575 -530 588 -522Q593 -520 594 -519Q612 -514 612 -498ZM504 -710Q510 -710 533 -711Q556 -712 561 -712Q623 -712 680 -697Q739 -683 775 -655Q814 -624 821 -581Q821 -579 825 -568Q837 -533 837 -516Q837 -516 836.5 -514.5Q836 -513 836 -512Q836 -506 848 -469Q849 -468 849 -468Q850 -396 850 -396Q843 -322 833 -254Q833 -253 833 -253Q829 -246 820 -224Q805 -189 795 -176Q787 -165 781 -165Q775 -165 769 -165Q767 -165 767 -167Q758 -201 758 -247Q758 -262 759 -272Q760 -273 760 -274Q760 -277 758 -279L749 -301Q749 -302 749 -302Q749 -303 750 -304Q762 -313 771 -325Q784 -343 795 -362Q796 -364 797 -366L809 -411Q810 -413 810 -414L807 -509Q807 -513 806 -516L786 -551Q784 -553 783 -555L721 -617Q717 -621 711 -623L669 -636Q667 -637 664 -637Q562 -646 531 -648Q530 -648 529 -648H517Q511 -648 506 -646Q503 -645 495 -643Q484 -641 477 -638Q378 -602 346 -545Q323 -503 322 -500Q321 -499 321 -497L311 -448Q311 -447 311 -446L307 -397Q307 -396 306.5 -395.5Q306 -395 307 -395L309 -356Q309 -355 309 -354Q317 -321 328 -303Q328 -303 328 -302Q357 -239 416 -192Q444 -167 494 -154Q545 -141 595 -137Q643 -134 646 -133Q664 -133 683 -133Q707 -133 725 -132Q727 -132 727 -130Q727 -130 727 -129Q724 -110 705.5 -97.5Q687 -85 664 -85Q654 -85 644 -87Q640 -88 637 -88Q635 -88 632 -88Q603 -83 575 -83Q427 -83 331 -216Q287 -276 261 -346Q234 -418 234 -447Q234 -487 237 -520Q249 -617 325 -658Q356 -676 408 -696Q427 -703 436 -707Q450 -711 451.5 -711Q453 -711 455 -711Q460 -711 480 -710.5Q500 -710 504 -710ZM832 -512Q832 -513 832 -514.5Q832 -516 832 -516Q832 -532 820 -566Q816 -578 816 -580Q810 -622 771 -651Q736 -678 679 -692Q622 -707 561 -707Q556 -707 533 -706Q510 -705 504 -705Q500 -705 480 -705.5Q460 -706 455 -706Q455 -706 453.5 -706Q452 -706 451 -706Q447 -705 437 -703Q428 -699 410 -691Q358 -671 327 -654Q253 -614 242 -520Q239 -487 238 -447Q239 -419 265 -348Q292 -278 334.5 -219Q377 -160 434 -126Q498 -88 575 -88Q603 -88 631 -93Q634 -93 637 -93Q641 -93 645 -92Q654 -90 664 -90Q685 -90 701.5 -100.5Q718 -111 721 -127Q705 -128 683 -128Q664 -128 646 -128Q646 -128 640.5 -128.5Q635 -129 622 -130Q609 -131 594 -132Q544 -136 493 -149Q442 -162 413 -188Q353 -235 324 -300Q312 -320 304 -352Q304 -354 304 -356L302 -394Q302 -395 302 -395Q302 -396 302 -397L306 -447Q306 -448 306 -449L316 -498Q316 -500 317 -502Q318 -505 342 -547Q375 -606 476 -643Q483 -646 494 -648Q502 -650 504 -651Q510 -653 517 -653H529Q530 -653 531 -653Q563 -651 664 -642Q668 -641 671 -641L713 -628Q720 -626 724 -621L786 -558Q789 -556 790 -554L810 -519Q812 -514 812 -509L815 -414Q815 -412 814 -410L802 -365Q801 -362 800 -360Q788 -341 775 -322Q767 -310 754 -301L763 -281Q764 -278 764 -274Q764 -273 764 -272Q763 -261 763 -247Q763 -203 771 -170Q776 -170 781 -170Q784 -170 791 -179Q801 -191 815 -226Q824 -248 828 -255Q838 -323 845 -396L844 -468Q832 -504 832 -512ZM504 -750Q510 -750 533 -751Q556 -752 561 -752Q631 -752 698 -735Q765 -719 813 -681Q861 -643 870 -587Q887 -537 887 -516V-512Q887 -506 892 -492Q897 -477 898 -476Q898 -474 898 -471L900 -396Q901 -396 900 -395Q900 -394 900 -393L892 -320Q892 -320 892 -319L882 -246Q882 -241 879 -237Q876 -233 867 -212Q851 -172 838 -155Q814 -125 781 -125Q779 -125 777 -125Q771 -91 740 -68Q708 -45 664 -45Q650 -45 636 -48Q605 -43 575 -43Q480 -43 402 -90Q278 -164 213 -335Q199 -371 194 -387Q189 -405 185 -425Q184 -438 184 -447Q184 -489 188 -524Q199 -617 262 -669Q280 -684 305 -696Q338 -713 386 -732Q405 -740 415 -744Q417 -744 419 -745Q441 -750 450 -750.5Q459 -751 480 -750Q496 -750 504 -750ZM504 -745Q493 -745 451 -746Q444 -746 420 -740Q418 -740 416 -739Q410 -736 380.5 -724Q351 -712 345 -710Q332 -704 307 -692Q262 -669 236 -635Q200 -590 193 -523Q188 -488 188 -447Q188 -433 194 -408Q196 -396 204 -372Q206 -368 217 -336Q282 -167 404 -94Q482 -48 575 -48Q605 -48 636 -53H637Q650 -50 664 -50Q706 -50 737 -73Q768 -95 772 -128Q772 -130 781 -130Q812 -130 834 -158Q846 -174 862 -214Q871 -235 875 -240Q877 -243 877 -246Q888 -321 895 -394Q896 -395 896 -395L893 -471Q893 -473 893 -475Q893 -476 888 -490Q882 -505 882 -512Q882 -512 882 -516Q882 -536 865 -586Q857 -641 809.5 -677.5Q762 -714 696 -730Q631 -747 561 -747Q556 -747 533 -746Q510 -745 504 -745Z"/>
</svg>