<svg xmlns="http://www.w3.org/2000/svg" viewBox="0 -1024 1024 1024">
	<path fill="#000000" d="M454 -815Q454 -815 456 -816L458 -818L452 -819Q446 -820 419 -804Q394 -790 385 -785Q369 -776 336 -754Q303 -732 293 -724Q254 -693 228 -639Q218 -618 216 -604Q214 -590 212 -588Q211 -587 209 -569L206 -535L196 -521Q205 -508 203 -467Q203 -453 203 -452Q201 -445 205 -429Q206 -423 207 -394Q208 -365 204 -349Q199 -332 198 -327Q197 -322 190 -292Q175 -231 173 -211Q172 -203 171 -200Q167 -189 167 -141Q167 -72 173 -44Q174 -37 175.5 -30Q177 -23 178.5 -19.5Q180 -16 186 4Q196 39 212 62L283 137Q300 147 312 153Q351 174 397 176Q413 176 453 165Q493 153 529 137Q536 134 537 134Q538 134 562 123Q587 111 587 112Q588 112 609 99Q659 70 694 21Q729 -28 737 -79Q750 -152 728 -430Q727 -442 723 -462Q719 -482 718 -486Q699 -552 688 -578Q672 -617 655 -641Q643 -657 627 -676Q626 -677 618 -689Q611 -701 600 -711Q584 -729 576 -739Q571 -744 563 -750Q554 -756 551 -759Q548 -763 545 -766Q542 -770 544 -771Q545 -772 541 -773Q534 -775 534 -775Q532 -776 524 -782Q508 -794 499 -803Q482 -819 478 -819Q474 -819 493 -801Q512 -782 525 -773Q557 -750 586 -719Q615 -688 627 -665Q650 -620 666 -526Q674 -477 666 -455Q657 -429 627 -406Q597 -383 577 -376Q573 -375 527 -359L520 -357Q521 -356 532 -358Q549 -361 560 -363Q571 -365 579 -366Q586 -366 589 -366Q592 -365 592 -363Q592 -360 594 -360Q596 -360 596 -363Q596 -366 607 -363Q644 -352 661 -308Q665 -299 666 -274L667 -248L661 -246Q654 -243 657 -240Q659 -237 664 -238Q667 -239 668 -236Q669 -233 670 -219Q673 -137 660 -98Q656 -84 653 -84.5Q650 -85 649 -82Q648 -80 651 -79.5Q654 -79 649 -65Q646 -58 643 -53Q638 -43 638 -48Q637 -52 636 -50Q632 -46 636 -44Q638 -43 633 -36Q629 -28 622 -19Q615 -9 609 -3Q600 6 587 15Q576 22 554 35.5Q532 49 515 59Q497 69 497 68Q496 65 493 66Q490 67 491 69Q492 72 485.5 76Q479 80 458 91Q424 110 421 109Q413 108 413 112Q413 115 401 120Q377 129 341 121Q305 113 272 91Q257 82 238.5 63.5Q220 45 211 31Q190 -2 181 -35Q172 -67 172 -115Q173 -158 179 -207Q180 -211 184 -230Q187 -249 194 -281Q202 -313 209 -321Q220 -332 237 -337Q255 -342 311 -349Q323 -351 331 -352Q354 -356 336 -356Q327 -356 296 -358Q265 -360 252 -366Q231 -377 219 -399Q216 -405 216 -406Q216 -407 219.5 -407Q223 -407 224 -409Q224 -411 223 -412Q221 -414 219 -414Q217 -414 216 -412Q214 -409 213 -413Q212 -417 210 -422Q207 -429 208 -435Q211 -457 219 -477L212 -490L211 -497Q210 -518 210 -539Q209 -565 227 -613Q231 -627 234 -632Q237 -641 238 -637Q240 -633 241 -634Q244 -637 240 -641Q238 -642 242 -650Q246 -658 253 -670Q261 -681 268 -691Q286 -713 303 -726Q320 -739 370 -768Q398 -784 431 -802ZM390 -166L392 -174Q393 -174 402 -131.5Q411 -89 413 -81Q415 -75 414 -72.5Q413 -70 406 -61Q373 -21 363 -1Q334 58 366 92Q371 99 368 99Q356 99 329.5 78.5Q303 58 296 43Q285 20 297 -14Q309 -50 348 -91Q360 -104 374 -129Q388 -154 390 -166Z"/>
	<path fill="#00ff00" d="M504 -145Q467 -167 457 -204.5Q447 -242 450 -295Q453 -351 462 -490L504 -544Q505 -541 507.5 -519Q510 -497 516 -487Q512 -423 537 -346Q552 -300 552 -205Q552 -190 545.5 -167.5Q539 -145 531 -145H525ZM871 -267Q875 -271 875.5 -270.5Q876 -270 875 -265Q874 -260 878 -251Q881 -244 880.5 -242.5Q880 -241 875 -242Q871 -242 872 -238Q873 -234 872.5 -233.5Q872 -233 868 -235Q859 -240 868 -243Q873 -245 873 -252L872 -257Q871 -256 871 -254Q871 -252 869 -252H865Q863 -252 865.5 -254.5Q868 -257 868 -260Q868 -263 871 -267ZM894 -292Q894 -294 895 -294.5Q896 -295 896 -295Q898 -293 895 -291Q894 -289 893.5 -289.5Q893 -290 894 -292ZM827 -236Q829 -227 847 -216Q848 -216 856 -224Q857 -225 861 -222Q865 -219 867 -219Q874 -218 874 -214Q874 -210 878 -211Q887 -212 879 -200Q876 -196 877 -196Q877 -196 880 -197Q891 -200 891 -191V-187L895 -191Q896 -192 897 -193Q903 -205 899 -204Q897 -204 897 -210Q897 -216 895 -218Q893 -219 895 -223Q897 -227 896 -227Q895 -227 898 -235Q902 -244 899 -244Q897 -244 893 -234L889 -224H879Q870 -224 866 -228Q859 -234 859 -235Q860 -238 853 -238Q845 -238 843 -236ZM849 -258Q845 -254 847 -250Q848 -246 842 -246Q841 -246 839 -238L851 -243L849 -251Q852 -251 853 -254Q856 -258 856 -264Q856 -266 858 -265Q861 -264 871 -273Q880 -283 883 -280Q885 -277 889 -273Q893 -269 896 -258Q900 -246 901 -248Q906 -253 901 -255Q899 -256 899 -261Q899 -265 895 -271L890 -277L895 -281Q900 -285 898 -285Q896 -285 892 -282Q889 -279 886 -284Q884 -289 882 -289Q881 -289 876 -297L872 -304L878 -316Q885 -328 888 -332Q890 -334 890 -334Q891 -335 888 -334Q884 -333 881 -326.5Q878 -320 878 -321L866 -278L841 -292Q860 -285 849 -258ZM873 -352L862 -370L860 -372Q862 -378 866 -380Q870 -383 870 -379Q870 -374 875 -375Q879 -375 882 -369Q885 -363 883 -360Q882 -357 885 -359Q888 -360 891 -354Q893 -347 891 -345Q889 -342 882 -343L876 -344ZM853 -364L852 -365Q852 -366 851 -368Q851 -369 847 -366Q845 -363 845 -358Q845 -354 848 -352Q852 -350 848.5 -348.5Q845 -347 849 -344Q853 -341 852 -339Q851 -337 853 -337Q855 -337 855 -333Q854 -330 857 -325Q859 -321 858 -320L860 -318Q864 -318 863 -325Q862 -331 864 -331Q866 -331 865 -332Q864 -333 867 -342Q871 -354 868 -353Q862 -352 866 -357Q868 -360 865 -364Q861 -367 863 -364Q864 -361 862 -363ZM823 -336Q823 -346 823 -345Q820 -338 819 -338Q743 -359 754 -328Q754 -327 752 -323L751 -321Q753 -319 755 -319Q818 -284 820 -317Q820 -319 821 -323Q822 -328 823 -336ZM859 -300Q858 -300 858 -300Q857 -300 850 -306Q848 -308 845 -304Q843 -300 845 -300Q847 -300 847 -298L853 -299Q853 -295 840 -297Q837 -297 836 -298Q835 -301 837 -302Q840 -304 837 -304Q834 -304 834.5 -306Q835 -308 836 -307Q838 -306 840.5 -309.5Q843 -313 836 -315Q830 -318 833 -321Q836 -324 834 -326.5Q832 -329 833 -329Q835 -329 832 -332Q831 -334 832 -335Q835 -337 842 -331Q847 -327 847 -324.5Q847 -322 850 -318Q854 -314 856 -314Q859 -314 863 -307Q864 -305 859 -300ZM504 -145Q467 -167 457 -204.5Q447 -242 450 -295Q453 -351 462 -490L504 -544Q505 -541 507.5 -519Q510 -497 516 -487Q512 -423 537 -346Q552 -300 552 -205Q552 -190 545.5 -167.5Q539 -145 531 -145H525ZM871 -267Q875 -271 875.5 -270.5Q876 -270 875 -265Q874 -260 878 -251Q881 -244 880.5 -242.5Q880 -241 875 -242Q871 -242 872 -238Q873 -234 872.5 -233.5Q872 -233 868 -235Q859 -240 868 -243Q873 -245 873 -252L872 -257Q871 -256 871 -254Q871 -252 869 -252H865Q863 -252 865.5 -254.5Q868 -257 868 -260Q868 -263 871 -267ZM894 -292Q894 -294 895 -294.5Q896 -295 896 -295Q898 -293 895 -291Q894 -289 893.5 -289.5Q893 -290 894 -292ZM827 -236Q829 -227 847 -216Q848 -216 856 -224Q857 -225 861 -222Q865 -219 867 -219Q874 -218 874 -214Q874 -210 878 -211Q887 -212 879 -200Q876 -196 877 -196Q877 -196 880 -197Q891 -200 891 -191V-187L895 -191Q896 -192 897 -193Q903 -205 899 -204Q897 -204 897 -210Q897 -216 895 -218Q893 -219 895 -223Q897 -227 896 -227Q895 -227 898 -235Q902 -244 899 -244Q897 -244 893 -234L889 -224H879Q870 -224 866 -228Q859 -234 859 -235Q860 -238 853 -238Q845 -238 843 -236ZM849 -258Q845 -254 847 -250Q848 -246 842 -246Q841 -246 839 -238L851 -243L849 -251Q852 -251 853 -254Q856 -258 856 -264Q856 -266 858 -265Q861 -264 871 -273Q880 -283 883 -280Q885 -277 889 -273Q893 -269 896 -258Q900 -246 901 -248Q906 -253 901 -255Q899 -256 899 -261Q899 -265 895 -271L890 -277L895 -281Q900 -285 898 -285Q896 -285 892 -282Q889 -279 886 -284Q884 -289 882 -289Q881 -289 876 -297L872 -304L878 -316Q885 -328 888 -332Q890 -334 890 -334Q891 -335 888 -334Q884 -333 881 -326.5Q878 -320 878 -321L866 -278L841 -292Q860 -285 849 -258ZM873 -352L862 -370L860 -372Q862 -378 866 -380Q870 -383 870 -379Q870 -374 875 -375Q879 -375 882 -369Q885 -363 883 -360Q882 -357 885 -359Q888 -360 891 -354Q893 -347 891 -345Q889 -342 882 -343L876 -344ZM853 -364L852 -365Q852 -366 851 -368Q851 -369 847 -366Q845 -363 845 -358Q845 -354 848 -352Q852 -350 848.5 -348.5Q845 -347 849 -344Q853 -341 852 -339Q851 -337 853 -337Q855 -337 855 -333Q854 -330 857 -325Q859 -321 858 -320L860 -318Q864 -318 863 -325Q862 -331 864 -331Q866 -331 865 -332Q864 -333 867 -342Q871 -354 868 -353Q862 -352 866 -357Q868 -360 865 -364Q861 -367 863 -364Q864 -361 862 -363ZM823 -336Q823 -346 823 -345Q820 -338 819 -338Q743 -359 754 -328Q754 -327 752 -323L751 -321Q753 -319 755 -319Q818 -284 820 -317Q820 -319 821 -323Q822 -328 823 -336ZM859 -300Q858 -300 858 -300Q857 -300 850 -306Q848 -308 845 -304Q843 -300 845 -300Q847 -300 847 -298L853 -299Q853 -295 840 -297Q837 -297 836 -298Q835 -301 837 -302Q840 -304 837 -304Q834 -304 834.5 -306Q835 -308 836 -307Q838 -306 840.5 -309.5Q843 -313 836 -315Q830 -318 833 -321Q836 -324 834 -326.5Q832 -329 833 -329Q835 -329 832 -332Q831 -334 832 -335Q835 -337 842 -331Q847 -327 847 -324.5Q847 -322 850 -318Q854 -314 856 -314Q859 -314 863 -307Q864 -305 859 -300Z"/>
	<path fill="#e3ab45" d="M871 -267Q875 -271 875.5 -270.5Q876 -270 875 -265Q874 -260 878 -251Q881 -244 880.5 -242.5Q880 -241 875 -242Q871 -242 872 -238Q873 -234 872.5 -233.5Q872 -233 868 -235Q859 -240 868 -243Q873 -245 873 -252L872 -257Q871 -256 871 -254Q871 -252 869 -252H865Q863 -252 865.5 -254.5Q868 -257 868 -260Q868 -263 871 -267ZM894 -292Q894 -294 895 -294.5Q896 -295 896 -295Q898 -293 895 -291Q894 -289 893.5 -289.5Q893 -290 894 -292ZM827 -236Q829 -227 847 -216Q848 -216 856 -224Q857 -225 861 -222Q865 -219 867 -219Q874 -218 874 -214Q874 -210 878 -211Q887 -212 879 -200Q876 -196 877 -196Q877 -196 880 -197Q891 -200 891 -191V-187L895 -191Q896 -192 897 -193Q903 -205 899 -204Q897 -204 897 -210Q897 -216 895 -218Q893 -219 895 -223Q897 -227 896 -227Q895 -227 898 -235Q902 -244 899 -244Q897 -244 893 -234L889 -224H879Q870 -224 866 -228Q859 -234 859 -235Q860 -238 853 -238Q845 -238 843 -236ZM849 -258Q845 -254 847 -250Q848 -246 842 -246Q841 -246 839 -238L851 -243L849 -251Q852 -251 853 -254Q856 -258 856 -264Q856 -266 858 -265Q861 -264 871 -273Q880 -283 883 -280Q885 -277 889 -273Q893 -269 896 -258Q900 -246 901 -248Q906 -253 901 -255Q899 -256 899 -261Q899 -265 895 -271L890 -277L895 -281Q900 -285 898 -285Q896 -285 892 -282Q889 -279 886 -284Q884 -289 882 -289Q881 -289 876 -297L872 -304L878 -316Q885 -328 888 -332Q890 -334 890 -334Q891 -335 888 -334Q884 -333 881 -326.5Q878 -320 878 -321L866 -278L841 -292Q860 -285 849 -258ZM873 -352L862 -370L860 -372Q862 -378 866 -380Q870 -383 870 -379Q870 -374 875 -375Q879 -375 882 -369Q885 -363 883 -360Q882 -357 885 -359Q888 -360 891 -354Q893 -347 891 -345Q889 -342 882 -343L876 -344ZM853 -364L852 -365Q852 -366 851 -368Q851 -369 847 -366Q845 -363 845 -358Q845 -354 848 -352Q852 -350 848.5 -348.5Q845 -347 849 -344Q853 -341 852 -339Q851 -337 853 -337Q855 -337 855 -333Q854 -330 857 -325Q859 -321 858 -320L860 -318Q864 -318 863 -325Q862 -331 864 -331Q866 -331 865 -332Q864 -333 867 -342Q871 -354 868 -353Q862 -352 866 -357Q868 -360 865 -364Q861 -367 863 -364Q864 -361 862 -363ZM823 -336Q824 -345 823 -345Q822 -345 819 -338Q815 -329 816 -328Q816 -327 814 -323L813 -321Q814 -322 817 -319Q820 -315 820 -317Q820 -319 821 -323Q822 -328 823 -336ZM859 -300Q858 -300 858 -300Q857 -300 850 -306Q848 -308 845 -304Q843 -300 845 -300Q847 -300 847 -298L853 -299Q853 -295 840 -297Q837 -297 836 -298Q835 -301 837 -302Q840 -304 837 -304Q834 -304 834.5 -306Q835 -308 836 -307Q838 -306 840.5 -309.5Q843 -313 836 -315Q830 -318 833 -321Q836 -324 834 -326.5Q832 -329 833 -329Q835 -329 832 -332Q831 -334 832 -335Q835 -337 842 -331Q847 -327 847 -324.5Q847 -322 850 -318Q854 -314 856 -314Q859 -314 863 -307Q864 -305 859 -300ZM502 -155Q502 -155 523 -155H529Q537 -155 543.5 -177.5Q550 -200 550 -215Q550 -310 535 -356Q510 -433 514 -497Q508 -507 505.5 -529Q503 -551 502 -554L460 -500Q451 -361 448 -305Q445 -252 455 -214.5Q465 -177 502 -155ZM871 -267Q875 -271 875.5 -270.5Q876 -270 875 -265Q874 -260 878 -251Q881 -244 880.5 -242.5Q880 -241 875 -242Q871 -242 872 -238Q873 -234 872.5 -233.5Q872 -233 868 -235Q859 -240 868 -243Q873 -245 873 -252L872 -257Q871 -256 871 -254Q871 -252 869 -252H865Q863 -252 865.5 -254.5Q868 -257 868 -260Q868 -263 871 -267ZM894 -292Q894 -294 895 -294.5Q896 -295 896 -295Q898 -293 895 -291Q894 -289 893.5 -289.5Q893 -290 894 -292ZM827 -236Q829 -227 847 -216Q848 -216 856 -224Q857 -225 861 -222Q865 -219 867 -219Q874 -218 874 -214Q874 -210 878 -211Q887 -212 879 -200Q876 -196 877 -196Q877 -196 880 -197Q891 -200 891 -191V-187L895 -191Q896 -192 897 -193Q903 -205 899 -204Q897 -204 897 -210Q897 -216 895 -218Q893 -219 895 -223Q897 -227 896 -227Q895 -227 898 -235Q902 -244 899 -244Q897 -244 893 -234L889 -224H879Q870 -224 866 -228Q859 -234 859 -235Q860 -238 853 -238Q845 -238 843 -236ZM849 -258Q845 -254 847 -250Q848 -246 842 -246Q841 -246 839 -238L851 -243L849 -251Q852 -251 853 -254Q856 -258 856 -264Q856 -266 858 -265Q861 -264 871 -273Q880 -283 883 -280Q885 -277 889 -273Q893 -269 896 -258Q900 -246 901 -248Q906 -253 901 -255Q899 -256 899 -261Q899 -265 895 -271L890 -277L895 -281Q900 -285 898 -285Q896 -285 892 -282Q889 -279 886 -284Q884 -289 882 -289Q881 -289 876 -297L872 -304L878 -316Q885 -328 888 -332Q890 -334 890 -334Q891 -335 888 -334Q884 -333 881 -326.5Q878 -320 878 -321L866 -278L841 -292Q860 -285 849 -258ZM873 -352L862 -370L860 -372Q862 -378 866 -380Q870 -383 870 -379Q870 -374 875 -375Q879 -375 882 -369Q885 -363 883 -360Q882 -357 885 -359Q888 -360 891 -354Q893 -347 891 -345Q889 -342 882 -343L876 -344ZM853 -364L852 -365Q852 -366 851 -368Q851 -369 847 -366Q845 -363 845 -358Q845 -354 848 -352Q852 -350 848.5 -348.5Q845 -347 849 -344Q853 -341 852 -339Q851 -337 853 -337Q855 -337 855 -333Q854 -330 857 -325Q859 -321 858 -320L860 -318Q864 -318 863 -325Q862 -331 864 -331Q866 -331 865 -332Q864 -333 867 -342Q871 -354 868 -353Q862 -352 866 -357Q868 -360 865 -364Q861 -367 863 -364Q864 -361 862 -363ZM823 -336Q824 -345 823 -345Q822 -345 819 -338Q815 -329 816 -328Q816 -327 814 -323L813 -321Q814 -322 817 -319Q820 -315 820 -317Q820 -319 821 -323Q822 -328 823 -336ZM859 -300Q858 -300 858 -300Q857 -300 850 -306Q848 -308 845 -304Q843 -300 845 -300Q847 -300 847 -298L853 -299Q853 -295 840 -297Q837 -297 836 -298Q835 -301 837 -302Q840 -304 837 -304Q834 -304 834.5 -306Q835 -308 836 -307Q838 -306 840.5 -309.5Q843 -313 836 -315Q830 -318 833 -321Q836 -324 834 -326.5Q832 -329 833 -329Q835 -329 832 -332Q831 -334 832 -335Q835 -337 842 -331Q847 -327 847 -324.5Q847 -322 850 -318Q854 -314 856 -314Q859 -314 863 -307Q864 -305 859 -300ZM420 -70Q413 -69 408.5 -64.5Q404 -60 399 -51Q394 -42 392 -39Q379 -21 370 0Q359 22 356 38Q353 56 358 71Q365 92 376 99Q388 106 407 99Q414 97 419 94.5Q424 92 431 87Q438 82 442 79Q452 73 478 54Q498 40 502 36Q506 32 504 28Q500 20 490 14Q486 11 478 7Q470 3 466 0Q455 -7 452 -12L444 -28Q442 -31 438 -36.5Q434 -42 432 -46Q431 -48 430 -52Q429 -56 428.5 -59Q428 -62 427 -65Q426 -68 424.5 -69.5Q423 -71 420 -70ZM466 -821Q466 -819 480 -819Q480 -819 495 -801Q505 -788 527 -773Q559 -750 588 -719Q617 -688 629 -665Q652 -620 668 -526Q676 -477 668 -455Q659 -429 629 -406Q599 -383 579 -376Q575 -375 529 -359L522 -357Q523 -356 534 -358Q551 -361 562 -363Q573 -365 581 -366Q588 -366 591 -366Q594 -365 594 -363Q594 -360 596 -360Q598 -360 598 -363Q598 -366 609 -363Q646 -352 663 -308Q667 -299 668 -274L669 -248L663 -246Q656 -243 659 -240Q661 -237 666 -238Q669 -239 670 -236Q671 -233 672 -219Q675 -137 662 -98Q658 -84 655 -84.5Q652 -85 651 -82Q650 -80 653 -79.5Q656 -79 651 -65Q648 -58 645 -53Q640 -43 640 -48Q639 -52 638 -50Q634 -46 638 -44Q640 -43 635 -36Q631 -28 624 -19Q617 -9 611 -3Q602 6 589 15Q578 22 556 35.5Q534 49 517 59Q499 69 499 68Q498 65 495 66Q492 67 493 69Q494 72 487.5 76Q481 80 460 91Q426 110 423 109Q415 108 415 112Q415 115 403 120Q379 129 343 121Q307 113 274 91Q259 82 240.5 63.5Q222 45 213 31Q192 -2 183 -35Q174 -67 174 -115Q175 -158 181 -207Q182 -211 186 -230Q189 -249 196 -281Q204 -313 211 -321Q222 -332 239 -337Q257 -342 313 -349Q325 -351 333 -352Q356 -356 338 -356Q329 -356 298 -358Q267 -360 254 -366Q233 -377 221 -399Q218 -405 218 -406Q218 -407 221.5 -407Q225 -407 226 -409Q226 -411 225 -412Q223 -414 221 -414Q219 -414 218 -412Q216 -409 215 -413Q214 -417 212 -422Q209 -429 210 -435Q213 -457 221 -477L214 -490L213 -497Q212 -518 212 -539Q211 -558 229 -613Q233 -627 236 -632Q239 -641 240 -637Q242 -633 243 -634Q248 -639 242 -641Q240 -642 244 -650Q248 -658 255 -670Q263 -681 270 -691Q288 -713 305 -726Q322 -739 372 -768Q400 -784 433 -802Q450 -811 456 -815Q455 -816 456 -816L458 -818ZM390 -164Q385 -147 374 -127Q360 -102 348 -89Q309 -48 297 -12Q285 22 296 45Q303 60 329.5 80.5Q356 101 368 101Q371 101 366 94Q337 54 363 1Q373 -19 406 -59Q413 -68 414 -70Q415 -73 413 -79Q411 -87 402 -129Q393 -172 392 -172Z"/>
	<path fill="#ff0000" d="M365 122Q362 122 363 119Q364 116 366 116Q368 116 368 119Q368 122 365 122ZM316 107Q316 107 316.5 106Q317 105 318.5 105Q320 105 321 106Q322 107 322 107Q321 110 319 110Q317 110 316 107ZM378 99Q380 100 380 102Q380 104 378 105Q377 105 376.5 104.5Q376 104 376 102.5Q376 101 376.5 100Q377 99 378 99ZM749 85Q753 81 755 80Q759 80 751 86Q750 86 749 87L745 89ZM427 77Q430 77 430 79Q430 81 427 82Q424 83 424 79.5Q424 76 427 77ZM754.5 78Q753 78 757 75Q761 72 761 72Q761 72 761.5 76.5Q762 81 759 79.5Q756 78 754.5 78ZM758 70L749 76Q748 76 748 79Q748 82 743.5 82Q739 82 739 81.5Q739 81 748 75.5Q757 70 758 70ZM725 60Q728 59 728 60Q727 62 724.5 62Q722 62 725 60ZM734 52Q736 48 740 53L739 54Q736 51 734 53ZM741 45Q745 44 745 45Q743 47 740.5 47Q738 47 741 45ZM748 40L749 39Q753 39 753.5 40.5Q754 42 751 44Q750 45 750 45Q750 45 750 44Q752 41 748 40ZM751 36L753 35L755 36Q754 37 751 36ZM754 31Q755 30 759 33H757Q754 32 754 31ZM524 29Q523 28 524 27Q525 26 526.5 26Q528 26 529 27Q530 28 529 29Q529 31 527 31Q525 31 524 29ZM522 16Q524 14 527.5 14Q531 14 532 16L527 18ZM548 6Q546 6 546 3.5Q546 1 549.5 1Q553 1 551.5 3.5Q550 6 548 6ZM527 3Q532 -2 532 5Q532 8 529 8Q522 8 527 3ZM540 0.5Q538 -1 538 -3Q538 -5 540 -4Q542 -3 542 -0.5Q542 2 540 0.5ZM559 -6Q565 -8 565 -3Q565 1 562 1Q559 1 558 -2Q557 -5 559 -6ZM547 -9Q549 -11 551.5 -11Q554 -11 554 -8Q554 -5 553 -4Q551 -3 548.5 -5Q546 -7 547 -9ZM580 -10Q585 -12 586 -10Q586 -7 582.5 -5.5Q579 -4 578 -6Q577 -7 580 -10ZM563 -18Q565 -22 566.5 -20.5Q568 -19 567 -15Q566 -11 564 -13Q562 -15 563 -18ZM591 -23Q588 -22 588 -25Q588 -28 591 -28Q594 -28 594 -26Q594 -24 591 -23ZM559 -32Q559 -33 559.5 -33.5Q560 -34 561.5 -34Q563 -34 564 -33.5Q565 -33 565 -32Q564 -30 562 -30Q560 -30 559 -32ZM569 -37L570 -39Q572 -38 570 -36ZM186 -38Q183 -38 183 -40Q183 -42 185 -42Q187 -42 188 -40Q189 -38 186 -38ZM586 -47Q588 -46 587.5 -44Q587 -42 585 -42Q582 -42 583 -45Q584 -48 586 -47ZM193 -30Q193 -27 190 -26.5Q187 -26 182.5 -27Q178 -28 176 -30Q172 -34 172.5 -35Q173 -36 179 -33Q185 -30 187 -30Q189 -30 192 -37Q195 -44 194 -46Q193 -48 196 -48Q199 -48 198.5 -41.5Q198 -35 195.5 -34Q193 -33 193 -30ZM575 -46Q573 -46 573 -48Q573 -50 576.5 -50Q580 -50 578.5 -48Q577 -46 575 -46ZM178 -52Q179 -54 182 -53Q189 -50 180 -50Q179 -50 178 -51Q177 -52 178 -52ZM167 -55Q169 -57 170.5 -55.5Q172 -54 172 -52Q172 -50 169 -50Q163 -50 167 -55ZM171 -64Q170 -67 174 -67Q176 -67 177.5 -65Q179 -63 183 -64Q187 -65 187 -62Q187 -60 183 -59.5Q179 -59 175 -60Q171 -61 171 -64ZM158 -66Q158 -69 162 -69Q166 -69 166.5 -66.5Q167 -64 163 -62Q158 -60 158 -66ZM175 -79Q178 -83 189 -77Q191 -76 191 -75Q190 -73 184 -73Q178 -73 176 -75Q174 -77 175 -79ZM165 -80Q166 -83 168.5 -83Q171 -83 172 -80Q173 -77 169.5 -76Q166 -75 165 -76Q164 -77 165 -80ZM190 -88Q191 -90 193 -89Q195 -88 195 -86Q195 -84 192 -84Q185 -84 190 -88ZM618 -84.5Q615 -86 616 -89Q617 -92 619 -92Q621 -92 622.5 -89Q624 -86 622.5 -84.5Q621 -83 618 -84.5ZM180 -91Q185 -96 185 -89Q185 -86 182 -86Q175 -86 180 -91ZM629 -102Q629 -107 632.5 -107Q636 -107 635 -103Q634 -97 631 -99Q629 -100 629 -102ZM621 -110L619 -108Q616 -106 613.5 -102.5Q611 -99 611 -103.5Q611 -108 615.5 -109Q620 -110 621 -110ZM601 -107Q603 -111 605 -108Q609 -104 606 -102Q605 -101 603 -102Q600 -103 601 -107ZM179 -111Q179 -111 179.5 -112Q180 -113 181.5 -113Q183 -113 184 -112Q185 -111 184 -111Q184 -108 182 -108Q180 -108 179 -111ZM170 -117Q173 -116 173 -114Q173 -112 170 -111Q170 -111 169 -111.5Q168 -112 168 -113.5Q168 -115 169 -116Q170 -117 170 -117ZM608.5 -113Q606 -113 606 -116Q606 -119 608.5 -119Q611 -119 611 -116Q611 -113 608.5 -113ZM609 -127Q611 -129 614.5 -129Q618 -129 615 -127Q609 -125 609 -127ZM621 -129Q621 -130 622 -130.5Q623 -131 624 -131Q625 -131 626 -130.5Q627 -130 627 -129Q626 -127 624 -127Q622 -127 621 -129ZM617 -141Q619 -143 621 -142.5Q623 -142 623 -139Q623 -136 618 -136Q613 -136 611.5 -135.5Q610 -135 609 -138Q608 -139 609 -139.5Q610 -140 611 -139Q615 -138 617 -141ZM640 -147Q640 -145 636 -141.5Q632 -138 630 -138Q628 -138 627.5 -139.5Q627 -141 628 -143Q629 -145 631 -146Q633 -147 635 -147.5Q637 -148 638.5 -148Q640 -148 640 -147ZM609 -154Q611 -155 614 -155.5Q617 -156 619 -156Q621 -156 621 -156Q621 -148 612 -148Q606 -148 605 -150Q604 -152 609 -154ZM628 -157Q630 -152 628 -150Q627 -150 624.5 -152Q622 -154 624 -158Q626 -162 628 -157ZM605 -164Q607 -164 607 -162Q607 -160 605 -159Q604 -159 603 -159.5Q602 -160 602 -161.5Q602 -163 603 -164Q604 -165 605 -164ZM615 -161.5Q613 -163 613 -165Q613 -167 615 -167Q617 -167 617 -163.5Q617 -160 615 -161.5ZM615 -184.5Q613 -186 613 -188Q613 -190 615 -190Q617 -190 617 -186.5Q617 -183 615 -184.5ZM623 -188Q623 -192 626.5 -192Q630 -192 629 -189Q627 -185 624 -186Q623 -187 623 -188ZM636 -229Q635 -231 638.5 -231Q642 -231 642 -228Q642 -224 638 -226Q637 -227 636 -229ZM609 -235Q611 -234 611 -232Q611 -230 609 -230Q608 -229 607 -230Q606 -231 606 -232.5Q606 -234 607 -234.5Q608 -235 609 -235ZM601 -239Q598 -239 598 -241.5Q598 -244 601 -244Q604 -244 604 -241.5Q604 -239 601 -239ZM588 -245H589Q590 -242 592.5 -242Q595 -242 593 -240Q592 -239 593.5 -237.5Q595 -236 597 -234.5Q599 -233 601 -233Q604 -233 604 -230Q604 -227 602 -227Q599 -227 593.5 -234Q588 -241 588 -245ZM193 -252Q193 -255 195 -253Q195 -252 196 -251L195 -249Q193 -250 193 -252ZM601 -255Q603 -256 604.5 -255Q606 -254 606 -252Q606 -250 603 -250Q597 -250 601 -255ZM204 -264Q205 -264 205.5 -262.5Q206 -261 204.5 -259.5Q203 -258 201 -259.5Q199 -261 200.5 -262.5Q202 -264 204 -264ZM191 -267Q191 -270 191.5 -270.5Q192 -271 193 -268Q195 -264 194 -261Q193 -258 189.5 -258Q186 -258 188.5 -260.5Q191 -263 191 -267ZM221 -271Q218 -271 219 -273Q220 -275 222 -275Q224 -275 224 -273Q224 -271 221 -271ZM206 -271Q207 -275 209 -275Q212 -275 212.5 -272Q213 -269 212 -266Q209 -262 206 -267Q205 -269 206 -271ZM587 -281Q588 -283 591 -283Q594 -283 594 -280Q594 -278 592.5 -276.5Q591 -275 588.5 -277.5Q586 -280 587 -281ZM577 -279Q575 -279 575 -281Q575 -283 577 -283Q579 -283 579 -281Q579 -279 577 -279ZM205 -284Q210 -289 210 -282Q210 -279 208 -279Q206 -279 205 -281Q204 -283 205 -284ZM216 -285Q218 -287 220 -286Q222 -285 222 -282Q222 -279 220 -278Q216 -275 215 -281Q215 -283 216 -285ZM232.5 -283Q230 -283 230 -286Q230 -289 232.5 -289Q235 -289 235 -286Q235 -283 232.5 -283ZM245 -285Q243 -285 243 -288.5Q243 -292 245 -290.5Q247 -289 247 -287Q247 -285 245 -285ZM611 -295Q614 -295 614.5 -292.5Q615 -290 613 -288Q611 -287 611 -288Q611 -289 609.5 -292Q608 -295 611 -295ZM227 -295Q226 -296 227 -297Q228 -298 230 -298Q234 -298 233 -295Q232 -292 230 -292Q228 -292 227 -295ZM212 -295Q212 -298 215 -298Q218 -298 218 -294Q217 -291 215 -291Q213 -291 212 -295ZM200 -293Q197 -293 197 -295.5Q197 -298 200 -298Q203 -298 203 -295.5Q203 -293 200 -293ZM264 -296Q262 -296 262 -298Q262 -300 264 -300Q266 -300 266 -298Q266 -296 264 -296ZM192 -299Q193 -295 190 -294Q187 -293 184.5 -295Q182 -297 183.5 -299.5Q185 -302 188 -301.5Q191 -301 192 -299ZM608.5 -301Q606 -302 606 -304Q606 -306 608.5 -306Q611 -306 611 -303Q611 -300 608.5 -301ZM617 -301Q617 -308 619.5 -307.5Q622 -307 622 -304.5Q622 -302 621 -298Q621 -294 620 -294Q619 -293 618 -296Q617 -298 617 -301ZM221 -307Q223 -308 224.5 -307Q226 -306 226 -304Q226 -302 223 -302Q217 -302 221 -307ZM262 -306Q260 -306 260 -309Q260 -312 262 -312Q264 -312 264 -309Q264 -306 262 -306ZM212 -310Q212 -311 212.5 -311.5Q213 -312 214.5 -312Q216 -312 217 -311.5Q218 -311 218 -310Q217 -308 215 -308Q213 -308 212 -310ZM606 -314Q604 -314 605.5 -316Q607 -318 607.5 -318Q608 -318 608 -316Q608 -314 606 -314ZM626 -316Q623 -316 624 -318.5Q625 -321 627 -321Q629 -321 629 -318.5Q629 -316 626 -316ZM467 -318Q465 -318 465 -320.5Q465 -323 467 -323Q469 -323 469 -320.5Q469 -318 467 -318ZM456 -318Q453 -318 454 -320.5Q455 -323 456 -323Q457 -323 458 -320.5Q459 -318 456 -318ZM229 -320Q228 -321 229 -322Q230 -323 232 -323Q237 -323 237 -319Q237 -314 231 -318Q229 -319 229 -320ZM613 -319.5Q611 -321 611 -323Q611 -325 613 -325Q615 -325 615 -321.5Q615 -318 613 -319.5ZM599 -323Q601 -321 600 -319.5Q599 -318 596.5 -319.5Q594 -321 595 -323Q596 -325 599 -323ZM212 -323Q212 -327 215 -327Q218 -327 218 -322Q218 -317 214 -319Q213 -321 212 -323ZM520 -325Q517 -325 517 -327Q517 -329 520 -329Q523 -329 523 -327Q523 -325 520 -325ZM474 -327Q473 -329 477 -329Q480 -329 483 -324Q486 -319 484 -318Q483 -317 478.5 -321.5Q474 -326 474 -327ZM494 -326Q493 -324 491.5 -325Q490 -326 491 -328.5Q492 -331 494.5 -329.5Q497 -328 494 -326ZM310 -328Q309 -331 312.5 -331Q316 -331 315 -327Q315 -324 313 -324Q311 -324 310 -328ZM602 -332Q603 -333 605 -331Q607 -329 606 -326Q605 -323 602 -323Q600 -323 600 -326.5Q600 -330 602 -332ZM225 -333Q227 -335 228 -335Q231 -335 231.5 -332.5Q232 -330 231 -328Q228 -326 225.5 -328Q223 -330 225 -333ZM528 -334L529 -336Q530 -335 529 -333ZM513 -332Q511 -333 512 -335Q513 -337 515 -336Q517 -335 516 -333Q515 -331 513 -332ZM505 -337Q511 -337 508 -333Q507 -332 504 -331Q500 -331 500 -334Q500 -337 505 -337ZM486 -334Q484 -336 484 -336.5Q484 -337 487 -337Q492 -337 493 -334Q494 -333 492 -332Q490 -330 486 -334ZM577 -336Q575 -335 575 -337Q575 -339 577 -339Q579 -339 579 -338Q579 -337 577 -336ZM470 -333Q467 -333 469.5 -336Q472 -339 472.5 -339Q473 -339 473 -336Q473 -333 470 -333ZM608 -334.5Q605 -337 608.5 -339Q612 -341 614 -339Q616 -337 613.5 -334.5Q611 -332 608 -334.5ZM591 -340Q593 -341 594.5 -340Q596 -339 596 -336.5Q596 -334 591.5 -330.5Q587 -327 586 -328Q584 -329 586 -333.5Q588 -338 591 -340ZM496 -341Q494 -341 494 -343Q494 -345 496 -345Q498 -345 498 -343Q498 -341 496 -341ZM599 -341Q596 -341 596 -344Q596 -347 599 -346Q602 -345 602 -343Q602 -341 599 -341ZM584 -346Q586 -344 585 -342.5Q584 -341 581.5 -342.5Q579 -344 580.5 -346Q582 -348 584 -346ZM516 -341Q513 -341 513 -344.5Q513 -348 516 -348Q519 -348 519 -345.5Q519 -343 522 -343Q525 -343 525 -341Q525 -339 522 -340Q519 -341 516 -341ZM483 -341Q480 -341 480 -344.5Q480 -348 483 -348Q486 -348 486 -344.5Q486 -341 483 -341ZM553 -359Q556 -359 556 -356Q556 -353 553 -352Q552 -352 551 -353Q550 -354 550 -356Q550 -358 551 -359Q552 -360 553 -359ZM405 -359Q428 -354 454 -353L466 -352Q465 -352 461 -352Q453 -350 430.5 -350.5Q408 -351 404 -353Q401 -354 401 -357Q401 -360 405 -359ZM333 -360Q332 -362 335 -362Q338 -362 338 -359Q338 -355 335 -357Q333 -358 333 -360ZM420.5 -362Q417 -362 417 -364Q417 -366 419 -366Q421 -366 422.5 -364Q424 -362 420.5 -362ZM448.5 -364Q446 -364 446 -366Q446 -368 448.5 -368Q451 -368 451 -366Q451 -364 448.5 -364ZM252 -370Q251 -370 250 -372.5Q249 -375 251 -375Q253 -375 253 -372.5Q253 -370 252 -370ZM225 -379Q222 -379 222 -381Q222 -383 225 -383Q228 -383 228 -381Q228 -379 225 -379ZM272 -379Q270 -379 270 -382Q270 -385 272 -385Q274 -385 274 -382Q274 -379 272 -379ZM267 -380Q268 -377 265 -377Q262 -377 260.5 -379.5Q259 -382 261 -383.5Q263 -385 265 -384Q267 -383 267 -380ZM257.5 -382Q255 -381 255 -384Q255 -387 257.5 -387Q260 -387 260 -385Q260 -383 257.5 -382ZM265 -389Q262 -389 262 -391Q262 -393 264 -393Q266 -393 267 -391Q268 -389 265 -389ZM239 -389Q239 -395 243 -392Q244 -391 245 -388Q245 -385 242 -385Q239 -385 239 -389ZM546 -396Q546 -401 549 -399Q551 -398 552 -396Q553 -393 559 -394Q565 -395 565 -392Q565 -389 561.5 -389.5Q558 -390 555 -388.5Q552 -387 552 -390Q552 -393 549 -393Q546 -393 546 -396ZM223 -397Q224 -399 226 -399Q229 -399 229.5 -396.5Q230 -394 229 -393Q226 -390 223.5 -392Q221 -394 223 -397ZM559 -399Q557 -399 557 -401.5Q557 -404 559 -404Q561 -404 561 -401.5Q561 -399 559 -399ZM580 -406Q581 -406 581.5 -404Q582 -402 580.5 -400.5Q579 -399 577 -400.5Q575 -402 576.5 -404Q578 -406 580 -406ZM237 -406Q239 -406 240 -403.5Q241 -401 240 -399Q238 -398 235 -399.5Q232 -401 233.5 -403.5Q235 -406 237 -406ZM209 -404Q214 -409 214 -403Q214 -399 212 -399Q210 -399 209 -401Q208 -403 209 -404ZM564 -409Q566 -410 568.5 -409.5Q571 -409 571 -407Q571 -404 568 -404Q566 -404 564.5 -405.5Q563 -407 564 -409ZM226 -406Q224 -406 224 -408Q224 -410 226 -410Q228 -410 228 -408Q228 -406 226 -406ZM589 -410Q592 -415 595 -410Q596 -407 594 -405Q592 -403 590 -406Q588 -409 589 -410ZM550 -407Q552 -408 552 -411Q552 -414 555.5 -414Q559 -414 554 -407.5Q549 -401 548.5 -403.5Q548 -406 550 -407ZM581 -416Q585 -416 585.5 -414Q586 -412 583 -411Q581 -409 578.5 -412.5Q576 -416 573.5 -416Q571 -416 571 -418Q571 -420 574 -420Q577 -420 577 -418Q577 -416 581 -416ZM248 -420Q245 -420 245 -422Q245 -424 247 -424Q249 -424 250 -422Q251 -420 248 -420ZM595 -423Q596 -426 598 -426Q602 -426 598 -420Q595 -415 594 -420Q594 -422 595 -423ZM583 -431Q596 -428 590 -424Q587 -423 582 -425Q577 -427 577 -430Q577 -433 583 -431ZM218 -431Q216 -431 216 -434Q216 -437 218 -437Q220 -437 220 -434Q220 -431 218 -431ZM593 -435Q590 -435 590 -437Q590 -439 593 -439Q596 -439 596 -437Q596 -435 593 -435ZM583.5 -439Q581 -439 581 -441Q581 -443 583.5 -443Q586 -443 586 -441Q586 -439 583.5 -439ZM617 -447Q615 -447 615 -449Q615 -451 617 -451Q619 -451 619 -449Q619 -447 617 -447ZM606 -451Q604 -451 604 -453.5Q604 -456 607.5 -456Q611 -456 609.5 -453.5Q608 -451 606 -451ZM602 -460Q600 -460 600 -463Q600 -466 602 -466Q604 -466 604 -463Q604 -460 602 -460ZM546 -464Q544 -464 544 -467Q544 -470 546 -470Q548 -470 548 -467Q548 -464 546 -464ZM555 -476Q556 -476 556.5 -474.5Q557 -473 555.5 -471.5Q554 -470 552 -471.5Q550 -473 551.5 -474.5Q553 -476 555 -476ZM588 -475Q588 -478 591 -478Q594 -478 594 -474Q594 -468 590 -471Q589 -472 588 -475ZM623 -485.5Q621 -487 621 -489Q621 -491 623 -491Q625 -491 625 -487.5Q625 -484 623 -485.5ZM640 -491Q638 -491 638 -494Q638 -497 640 -497Q642 -497 642 -494Q642 -491 640 -491ZM624 -503Q623 -506 624 -506.5Q625 -507 627 -506Q629 -505 630 -504Q631 -503 631 -502Q630 -500 627 -500.5Q624 -501 624 -503ZM588 -507Q590 -506 590 -504Q590 -502 588 -502Q587 -501 586.5 -502Q586 -503 586 -504.5Q586 -506 586.5 -506.5Q587 -507 588 -507ZM610 -510Q612 -512 614.5 -511.5Q617 -511 617 -508Q617 -505 614 -505Q611 -505 609.5 -507Q608 -509 610 -510ZM212 -512Q210 -512 210 -514Q210 -516 212 -516Q214 -516 214 -514Q214 -512 212 -512ZM197 -514Q197 -516 201 -512Q207 -505 204 -503Q203 -502 201.5 -504Q200 -506 198.5 -509.5Q197 -513 197 -514ZM629 -514Q629 -518 632.5 -518Q636 -518 635 -515Q634 -511 631 -512Q629 -513 629 -514ZM222 -515Q222 -519 224.5 -516.5Q227 -514 224 -509Q221 -504 216 -501Q208 -497 208 -502Q208 -504 208.5 -504.5Q209 -505 209 -504Q211 -503 216.5 -507.5Q222 -512 222 -515ZM212 -528Q213 -528 214.5 -526Q216 -524 216 -523Q215 -522 212 -525Q209 -528 212 -528ZM627 -529Q627 -532 631 -532L632 -531Q630 -529 629 -527ZM203.5 -529Q201 -528 201 -531Q201 -534 203.5 -534Q206 -534 206 -532Q206 -530 203.5 -529ZM220 -536Q223 -535 223 -533.5Q223 -532 220 -531Q219 -530 218.5 -531Q218 -532 218 -533.5Q218 -535 218.5 -535.5Q219 -536 220 -536ZM620 -537Q625 -542 625 -535Q625 -532 623 -532Q621 -532 620 -534Q619 -536 620 -537ZM216 -538Q216 -535 214.5 -534.5Q213 -534 210 -536Q207 -538 208.5 -540.5Q210 -543 212.5 -542Q215 -541 216 -538ZM601 -539Q598 -539 598 -542Q598 -545 601 -543.5Q604 -542 604 -540.5Q604 -539 601 -539ZM565 -541Q565 -548 570 -544Q571 -542 569.5 -539.5Q568 -537 566.5 -537Q565 -537 565 -541ZM206 -545Q206 -544 202.5 -543.5Q199 -543 198 -545Q197 -547 198.5 -549Q200 -551 203 -551Q206 -551 206 -549Q206 -547 206 -545ZM610 -549Q613 -554 614 -551Q615 -548 613 -547Q611 -546 611 -543.5Q611 -541 608 -541Q604 -541 610 -549ZM219 -551Q222 -555 228 -549Q235 -543 231 -542Q230 -541 228 -542Q224 -543 221 -546Q218 -549 219 -551ZM238 -553Q239 -556 241 -553Q243 -550 241 -549Q238 -548 237.5 -549.5Q237 -551 238 -553ZM590 -551Q588 -551 588 -554Q588 -557 592 -557Q596 -557 596 -550Q596 -543 594 -543Q592 -543 592 -547Q592 -551 590 -551ZM628 -561Q635 -560 632 -555Q631 -554 629 -554Q626 -554 625.5 -558Q625 -562 628 -561ZM231 -561Q233 -560 233 -558Q233 -556 231 -556Q230 -555 229 -556Q228 -557 228 -558.5Q228 -560 229 -560.5Q230 -561 231 -561ZM217 -559Q218 -558 217 -555Q214 -553 210 -554Q210 -555 212.5 -558Q215 -561 217 -559ZM565 -557Q563 -557 563 -560.5Q563 -564 565 -564Q567 -564 567 -560.5Q567 -557 565 -557ZM597 -564Q600 -566 602 -565Q604 -564 604 -561Q604 -557 602 -557Q600 -557 598 -560Q596 -563 597 -564ZM609 -574Q611 -573 611 -571Q611 -569 609 -568Q608 -568 607 -568.5Q606 -569 606 -570.5Q606 -572 607 -573Q608 -574 609 -574ZM594 -571Q592 -572 592 -574Q592 -576 594 -576Q596 -576 596 -573Q596 -570 594 -571ZM598 -578Q598 -582 601.5 -582Q605 -582 604 -579Q603 -573 599 -575Q598 -575 598 -578ZM241 -581Q243 -580 242.5 -578Q242 -576 240 -576Q237 -576 238 -579Q239 -582 241 -581ZM608 -587Q612 -591 614 -585Q615 -584 614 -583Q613 -582 611 -582Q603 -582 608 -587ZM229 -586Q228 -588 231.5 -588Q235 -588 235 -585Q235 -581 231 -583Q229 -584 229 -586ZM622 -590Q625 -589 625.5 -587Q626 -585 622 -585Q619 -584 619 -587.5Q619 -591 622 -590ZM577 -589.5Q575 -591 575 -593Q575 -595 577 -595Q579 -595 579 -591.5Q579 -588 577 -589.5ZM584 -581Q582 -582 584 -584.5Q586 -587 588.5 -590Q591 -593 593 -593Q596 -593 597 -596Q598 -599 601 -597.5Q604 -596 603.5 -594Q603 -592 599.5 -592.5Q596 -593 596 -589.5Q596 -586 592.5 -584.5Q589 -583 587.5 -581.5Q586 -580 584 -581ZM584.5 -597Q581 -597 581 -599Q581 -601 584.5 -601Q588 -601 588 -599Q588 -597 584.5 -597ZM539 -601Q542 -606 542 -600Q542 -597 540 -598Q538 -599 539 -601ZM533 -607Q530 -607 530 -609Q530 -611 532 -611Q534 -611 535 -609Q536 -607 533 -607ZM581 -611Q581 -614 583 -613Q584 -612 584 -610V-608Q581 -609 581 -611ZM577 -616.5Q575 -618 575 -620Q575 -622 577 -622Q579 -622 579 -618.5Q579 -615 577 -616.5ZM599 -626Q601 -628 602.5 -627Q604 -626 604 -624Q604 -622 601 -622Q595 -622 599 -626ZM584.5 -624Q581 -624 581 -626Q581 -628 584.5 -628Q588 -628 588 -626Q588 -624 584.5 -624ZM225 -633Q233 -634 233 -632Q233 -630 226.5 -627Q220 -624 219 -626Q216 -630 225 -633ZM224 -649L225 -651Q229 -651 228 -646.5Q227 -642 225 -641L224 -642Q226 -643 226 -645.5Q226 -648 224 -649ZM240 -651Q244 -647 238 -647Q237 -647 235 -648Q232 -649 235 -651Q238 -653 240 -651ZM261 -650Q259 -652 260.5 -654.5Q262 -657 264 -655Q266 -653 264.5 -650.5Q263 -648 261 -650ZM231 -661Q237 -667 237 -658Q237 -653 233 -653Q229 -653 228.5 -655.5Q228 -658 231 -661ZM245 -662Q247 -664 251 -664Q251 -662 252 -655.5Q253 -649 250 -649Q245 -649 245 -662ZM259 -666Q260 -667 262 -666Q264 -665 264 -663Q264 -661 261 -661Q254 -661 259 -666ZM241 -671Q241 -672 242 -673Q243 -674 245 -674Q247 -674 248 -673Q249 -672 249 -671Q248 -668 245 -668Q242 -668 241 -671ZM548 -677Q552 -681 556 -676Q557 -673 563 -674Q569 -675 569 -673.5Q569 -672 569 -669.5Q569 -667 565 -669.5Q561 -672 560 -669Q559 -666 557.5 -669Q556 -672 552 -672Q549 -672 547.5 -673.5Q546 -675 548 -677ZM277 -676Q279 -678 280.5 -676.5Q282 -675 282 -673.5Q282 -672 279 -672Q273 -672 277 -676ZM557 -682Q557 -683 557.5 -683.5Q558 -684 559 -684Q562 -683 562 -680Q563 -679 562.5 -678.5Q562 -678 561 -678Q558 -679 557 -682ZM276 -682Q274 -682 274 -685Q274 -688 276 -688Q278 -688 278 -685Q278 -682 276 -682ZM568 -685Q568 -694 571 -686Q571 -684 572 -681V-676L571 -677Q568 -680 568 -685ZM549 -684Q548 -684 548 -688Q548 -692 550 -692Q552 -692 551 -688Q550 -684 549 -684ZM512 -695Q517 -700 517 -693Q517 -690 515 -690Q513 -690 512 -692Q511 -694 512 -695ZM552 -701Q553 -703 555 -701.5Q557 -700 557 -698Q557 -696 553 -696Q547 -696 552 -701ZM539 -695Q539 -700 540.5 -702Q542 -704 545 -701Q546 -700 543.5 -694Q541 -688 539.5 -688Q538 -688 539 -695ZM525 -703Q526 -707 530 -704Q532 -703 532 -702Q531 -690 526 -690Q524 -690 524.5 -696Q525 -702 525 -703ZM540 -710Q540 -712 541 -712.5Q542 -713 544 -713Q546 -713 547 -712.5Q548 -712 548 -710Q547 -708 544 -708Q541 -708 540 -710ZM526 -710Q526 -712 527 -712.5Q528 -713 530 -713Q532 -713 533 -712.5Q534 -712 533 -710Q532 -708 529.5 -708Q527 -708 526 -710ZM497.5 -711Q494 -711 494 -713Q494 -715 496 -715Q498 -715 499.5 -713Q501 -711 497.5 -711ZM280 -719Q280 -722 281 -722.5Q282 -723 284 -723Q288 -722 288 -719Q288 -716 284 -715.5Q280 -715 280 -719ZM757 -725Q758 -725 758.5 -724.5Q759 -724 759 -723Q758 -722 761 -721V-720Q758 -719 756 -722Q754 -725 757 -725ZM495 -723Q494 -724 495 -725Q496 -726 497.5 -726Q499 -726 499.5 -725Q500 -724 500 -723Q499 -721 497.5 -721Q496 -721 495 -723ZM343 -726Q345 -726 345 -724Q345 -722 343.5 -720.5Q342 -719 340.5 -720.5Q339 -722 340 -724Q341 -726 343 -726ZM749 -729Q748 -731 748 -731Q748 -731 750 -731Q752 -730 752.5 -729.5Q753 -729 753 -728Q752 -727 749 -729ZM300 -730Q301 -732 303 -730.5Q305 -729 305 -726Q305 -723 303 -723Q301 -723 300 -725.5Q299 -728 300 -730ZM337 -712Q334 -712 332.5 -713Q331 -714 332 -716Q332 -719 329 -719Q326 -719 328 -723Q330 -727 329 -728Q328 -729 329.5 -731.5Q331 -734 332.5 -729.5Q334 -725 333 -723.5Q332 -722 333.5 -718.5Q335 -715 343.5 -716Q352 -717 353.5 -719.5Q355 -722 355 -718.5Q355 -715 351 -714Q347 -713 347 -711Q347 -709 344.5 -710.5Q342 -712 337 -712ZM530.5 -732Q527 -732 527 -734Q527 -736 530.5 -736Q534 -736 534 -734Q534 -732 530.5 -732ZM349 -732Q349 -736 350 -736Q351 -736 352 -733Q353 -730 351 -729ZM358 -737Q363 -742 363 -735Q363 -732 360 -732Q354 -732 358 -737ZM384 -741Q388 -746 388 -739Q388 -736 386 -736Q384 -736 383 -738Q382 -740 384 -741ZM346 -740Q343 -740 343 -743Q343 -746 346 -746Q349 -746 349 -743Q349 -740 346 -740ZM358 -739Q356 -738 354.5 -741Q353 -744 354.5 -746.5Q356 -749 358 -748Q360 -747 360 -743Q360 -739 358 -739ZM376 -743Q379 -734 374 -734Q372 -734 369.5 -740.5Q367 -747 368.5 -748.5Q370 -750 371.5 -750Q373 -750 374 -748Q375 -746 376 -743ZM383 -746Q380 -746 380 -749.5Q380 -753 383 -753Q386 -753 386 -749.5Q386 -746 383 -746ZM365.5 -755Q364 -758 364.5 -759Q365 -760 368 -760Q371 -760 372.5 -758.5Q374 -757 370.5 -754.5Q367 -752 365.5 -755ZM351 -756Q351 -761 353 -760Q356 -760 356 -756.5Q356 -753 354 -752Q353 -752 352.5 -753Q352 -754 351 -756ZM405 -761Q405 -758 404 -757Q403 -756 401 -758Q398 -759 401 -761Q404 -763 405 -761ZM397 -771Q396 -773 399.5 -773Q403 -773 403 -770Q403 -766 399 -768Q398 -769 397 -771ZM519 -792Q522 -793 522 -792Q521 -790 518.5 -790Q516 -790 519 -792ZM269 -809Q267 -809 270 -811Q273 -813 275 -813Q277 -813 274 -811Q271 -809 269 -809ZM283 -815Q288 -817 291 -817L290 -815Q286 -813 282 -813ZM661 -258ZM659 -248ZM664 -245ZM198 82Q199 82 199 80Q199 78 197 78Q195 78 196 80Q197 82 198 82ZM429 -819L435 -818L433 -816Q429 -813 408 -802Q375 -784 347 -768Q297 -739 280 -726Q263 -713 245 -691Q238 -681 230.5 -669.5Q223 -658 219 -650Q215 -642 217 -641Q220 -638 218 -634Q216 -634 215 -637Q214 -641 211 -632Q208 -627 204 -613Q192 -579 187 -539Q185 -525 184 -522L183 -535Q185 -552 186 -568.5Q187 -585 189 -587.5Q191 -590 193 -604Q195 -618 205 -639Q231 -693 270 -724Q280 -732 313 -754Q346 -776 362 -785Q371 -790 396 -804.5Q421 -819 429 -819ZM135 -819Z"/>
</svg>