<svg xmlns="http://www.w3.org/2000/svg" viewBox="0 -1024 1024 1024">
	<path fill="#000000" d="M67 -710Q62 -710 52 -730V-422Q52 -417 56 -413.5Q60 -410 65 -410H1393Q1398 -410 1402 -413.5Q1406 -417 1406 -422V-723Q1401 -711 1395 -710H973Q871 -709 745 -710ZM731 -834Q569 -834 448 -720Q637 -717 750 -716H969Q997 -716 1021 -716Q965 -771 890.5 -802.5Q816 -834 731 -834ZM731 -838Q817 -838 894 -806Q971 -774 1029 -716H1395Q1399 -717 1406 -739Q1406 -740 1408 -740Q1410 -740 1410 -738V-422Q1410 -415 1405 -409.5Q1400 -404 1393 -404H1159Q1159 -230 1036 -107Q912 16 737 16Q562 16 438 -107Q315 -230 315 -404H65Q58 -404 53 -409.5Q48 -415 48 -422V-738Q47 -739 47 -739Q47 -742 50 -742Q52 -742 54 -738L67 -716H442Q440 -716 440 -718Q440 -719 440 -720Q564 -838 731 -838ZM1154 -404H320Q320 -232 442 -110Q564 12 737 12Q910 12 1032 -110Q1154 -232 1154 -404ZM550 -300.5Q508 -259 508 -201Q508 -143 550 -101Q592 -59 650 -59Q708 -59 750 -101Q792 -143 792 -201Q792 -259 750 -300.5Q708 -342 650 -342Q592 -342 550 -300.5ZM547 -97.5Q504 -141 504 -201Q504 -261 547 -304Q590 -347 650 -347Q710 -347 753 -304Q796 -261 796 -201Q796 -141 753 -97.5Q710 -54 650 -54Q590 -54 547 -97.5ZM850.5 -266.5Q824 -237 824 -195Q824 -153 850.5 -123.5Q877 -94 914 -94Q951 -94 977.5 -123.5Q1004 -153 1004 -195Q1004 -237 977.5 -266.5Q951 -296 914 -296Q877 -296 850.5 -266.5ZM846.5 -120.5Q818 -151 818 -195Q818 -239 846.5 -269.5Q875 -300 914 -300Q953 -300 981.5 -269.5Q1010 -239 1010 -195Q1010 -151 981.5 -120.5Q953 -90 914 -90Q875 -90 846.5 -120.5Z"/>
	<path fill="#00ff00" d="M829 -200Q828 -236 852 -260Q876 -284 910 -284Q944 -284 968 -260Q992 -236 992 -200Q992 -164 968 -140Q944 -116 910 -116Q876 -116 852 -140Q828 -164 829 -200Z"/>
	<path fill="#e3ab45" d="M1208 -586Q1204 -591 1204 -598Q1204 -605 1208 -610Q1212 -615 1217 -615Q1222 -615 1226 -610Q1230 -605 1230 -598Q1230 -591 1226 -586Q1222 -581 1217 -581Q1212 -581 1208 -586ZM1294 -499Q1289 -503 1289 -508Q1289 -513 1294 -517Q1299 -521 1306 -521Q1313 -521 1318 -517Q1323 -513 1323 -508Q1323 -503 1318 -499Q1313 -495 1306 -495Q1299 -495 1294 -499ZM1371 -566Q1365 -572 1365 -581Q1365 -590 1371 -596Q1377 -602 1386 -602Q1395 -602 1401 -596Q1407 -590 1407 -581Q1407 -572 1401 -566Q1395 -560 1386 -560Q1377 -560 1371 -566ZM1291 -631Q1285 -637 1285 -646Q1285 -655 1291 -661Q1297 -667 1306 -667Q1315 -667 1321 -661Q1327 -655 1327 -646Q1327 -637 1321 -631Q1315 -625 1306 -625Q1297 -625 1291 -631ZM908 -556Q904 -561 904 -568Q904 -575 908 -580Q912 -585 917 -585Q922 -585 926 -580Q930 -575 930 -568Q930 -561 926 -556Q922 -551 917 -551Q912 -551 908 -556ZM994 -469Q989 -473 989 -478Q989 -483 994 -487Q999 -491 1006 -491Q1013 -491 1018 -487Q1023 -483 1023 -478Q1023 -473 1018 -469Q1013 -465 1006 -465Q999 -465 994 -469ZM1071 -536Q1065 -542 1065 -551Q1065 -560 1071 -566Q1077 -572 1086 -572Q1095 -572 1101 -566Q1107 -560 1107 -551Q1107 -542 1101 -536Q1095 -530 1086 -530Q1077 -530 1071 -536ZM991 -601Q985 -607 985 -616Q985 -625 991 -631Q997 -637 1006 -637Q1015 -637 1021 -631Q1027 -625 1027 -616Q1027 -607 1021 -601Q1015 -595 1006 -595Q997 -595 991 -601ZM1016 -556Q1012 -561 1012 -568Q1012 -575 1016 -580Q1020 -585 1025 -585Q1030 -585 1034 -580Q1038 -575 1038 -568Q1038 -561 1034 -556Q1030 -551 1025 -551Q1020 -551 1016 -556ZM1102 -469Q1097 -473 1097 -478Q1097 -483 1102 -487Q1107 -491 1114 -491Q1121 -491 1126 -487Q1131 -483 1131 -478Q1131 -473 1126 -469Q1121 -465 1114 -465Q1107 -465 1102 -469ZM1179 -536Q1173 -542 1173 -551Q1173 -560 1179 -566Q1185 -572 1194 -572Q1203 -572 1209 -566Q1215 -560 1215 -551Q1215 -542 1209 -536Q1203 -530 1194 -530Q1185 -530 1179 -536ZM1099 -601Q1093 -607 1093 -616Q1093 -625 1099 -631Q1105 -637 1114 -637Q1123 -637 1129 -631Q1135 -625 1135 -616Q1135 -607 1129 -601Q1123 -595 1114 -595Q1105 -595 1099 -601ZM716 -526Q712 -531 712 -538Q712 -545 716 -550Q720 -555 725 -555Q730 -555 734 -550Q738 -545 738 -538Q738 -531 734 -526Q730 -521 725 -521Q720 -521 716 -526ZM802 -439Q797 -443 797 -448Q797 -453 802 -457Q807 -461 814 -461Q821 -461 826 -457Q831 -453 831 -448Q831 -443 826 -439Q821 -435 814 -435Q807 -435 802 -439ZM879 -506Q873 -512 873 -521Q873 -530 879 -536Q885 -542 894 -542Q903 -542 909 -536Q915 -530 915 -521Q915 -512 909 -506Q903 -500 894 -500Q885 -500 879 -506ZM799 -571Q793 -577 793 -586Q793 -595 799 -601Q805 -607 814 -607Q823 -607 829 -601Q835 -595 835 -586Q835 -577 829 -571Q823 -565 814 -565Q805 -565 799 -571ZM434 -586Q430 -591 430 -598Q430 -605 434 -610Q438 -615 443 -615Q448 -615 452 -610Q456 -605 456 -598Q456 -591 452 -586Q448 -581 443 -581Q438 -581 434 -586ZM520 -499Q515 -503 515 -508Q515 -513 520 -517Q525 -521 532 -521Q539 -521 544 -517Q549 -513 549 -508Q549 -503 544 -499Q539 -495 532 -495Q525 -495 520 -499ZM597 -566Q591 -572 591 -581Q591 -590 597 -596Q603 -602 612 -602Q621 -602 627 -596Q633 -590 633 -581Q633 -572 627 -566Q621 -560 612 -560Q603 -560 597 -566ZM517 -631Q511 -637 511 -646Q511 -655 517 -661Q523 -667 532 -667Q541 -667 547 -661Q553 -655 553 -646Q553 -637 547 -631Q541 -625 532 -625Q523 -625 517 -631ZM134 -556Q130 -561 130 -568Q130 -575 134 -580Q138 -585 143 -585Q148 -585 152 -580Q156 -575 156 -568Q156 -561 152 -556Q148 -551 143 -551Q138 -551 134 -556ZM220 -469Q215 -473 215 -478Q215 -483 220 -487Q225 -491 232 -491Q239 -491 244 -487Q249 -483 249 -478Q249 -473 244 -469Q239 -465 232 -465Q225 -465 220 -469ZM297 -536Q291 -542 291 -551Q291 -560 297 -566Q303 -572 312 -572Q321 -572 327 -566Q333 -560 333 -551Q333 -542 327 -536Q321 -530 312 -530Q303 -530 297 -536ZM217 -601Q211 -607 211 -616Q211 -625 217 -631Q223 -637 232 -637Q241 -637 247 -631Q253 -625 253 -616Q253 -607 247 -601Q241 -595 232 -595Q223 -595 217 -601Z"/>
	<path fill="#ff0000" d="M536 -198Q536 -251 569.5 -288Q603 -325 652 -325Q702 -325 736.5 -288Q771 -251 771 -198Q771 -145 737.5 -108Q704 -71 655 -71Q605 -71 570.5 -108Q536 -145 536 -198ZM85 -716H1384Q1391 -716 1396.5 -710.5Q1402 -705 1402 -698V-428Q1402 -421 1396.5 -415.5Q1391 -410 1384 -410H85Q75 -410 62.5 -414Q50 -418 50 -424V-694Q50 -701 63.5 -708.5Q77 -716 85 -716ZM85 -710Q80 -710 76 -706.5Q72 -703 72 -698V-428Q72 -423 76 -419.5Q80 -416 85 -416H1384Q1389 -416 1392.5 -419.5Q1396 -423 1396 -428V-698Q1396 -703 1392.5 -706.5Q1389 -710 1384 -710Z"/>
</svg>