<svg xmlns="http://www.w3.org/2000/svg" viewBox="0 -1024 1024 1024">
	<path fill="#000000" d="M570 50Q570 66 520 76Q470 86 399 86Q328 86 278 76Q228 66 228 50Q228 34 278 24Q328 14 399 14Q470 14 520 24Q570 34 570 50Z"/>
	<path fill="#00ff00" d="M18 -433L314 9H466L170 -433ZM346 -822L36 -440H172L482 -822Z"/>
	<path fill="#e3ab45" d="M493 -815L178 -431L466 0L751 -395Z"/>
	<path fill="#ff0000" d="M753 -394L468 1Q467 2 466 2Q465 2 464 1L176 -430Q176 -430 176 -431Q176 -432 176 -433L491 -817Q492 -818 493 -818Q494 -818 495 -816L753 -396Q754 -396 754 -395Q754 -394 753 -394ZM748 -395L493 -811L181 -431L466 -4Z"/>
</svg>