<svg xmlns="http://www.w3.org/2000/svg" viewBox="0 -1024 1024 1024">
	<path fill="#000000" d="M237 -780V-517Q245 -518 261 -518Q368 -518 443.5 -442.5Q519 -367 519 -260Q519 -153 443.5 -78Q368 -3 261 -3Q245 -3 237 -4H85V-780ZM237 -157Q249 -154 261 -154Q306 -154 337 -185Q368 -216 368 -260Q368 -305 337 -336Q306 -367 261 -367Q249 -367 237 -364Z"/>
	<path fill="#60a04c" d="M304 -156L254 -103Q262 -103 279 -104Q386 -104 447 -88.5Q508 -73 488 -52Q468 -31 378 -16Q288 -1 181 -1Q165 -1 157 -1H5L152 -156ZM186 -31Q197 -30 210 -31Q255 -31 292 -37Q329 -43 337 -52Q345 -61 320 -67Q295 -73 250 -73Q238 -73 225 -73Z"/>
	<path fill="#fdb70d" d="M202 -780V-517Q210 -518 226 -518Q333 -518 408.5 -442.5Q484 -367 484 -260Q484 -153 408.5 -78Q333 -3 226 -3Q210 -3 202 -4H50V-780ZM202 -157Q214 -154 226 -154Q271 -154 302 -185Q333 -216 333 -260Q333 -305 302 -336Q271 -367 226 -367Q214 -367 202 -364Z"/>
	<path fill="#f40224" d="M55 4Q48 4 48 -4V-780Q48 -788 55 -788H207Q214 -788 214 -780V-525Q216 -525 222 -525.5Q228 -526 231 -526Q341 -526 419 -448Q496 -371 496 -260Q496 -149 419 -73Q340 4 231 4Q231 4 207 4ZM62 -12H207L208 -11Q213 -10 231 -10Q335 -10 408 -83Q482 -157 482 -260Q482 -363 408 -437Q335 -510 231 -510H208H207Q200 -510 200 -517V-772H62ZM200 -157V-364Q200 -369 205 -371Q218 -374 231 -374Q279 -374 312 -341Q346 -307 346 -260Q346 -214 312 -180Q278 -146 231 -146Q223 -146 205 -150Q200 -152 200 -157ZM231 -162Q274 -162 302 -190Q330 -218 330 -260Q330 -303 302 -331Q273 -360 231 -360Q226 -360 214 -358V-163Q220 -162 231 -162Z"/>
</svg>