<svg xmlns="http://www.w3.org/2000/svg" viewBox="0 -1024 1024 1024">
	<path fill="#000000" d="M345 -367Q332 -367 321 -364V-365Q284 -358 260 -328.5Q236 -299 236 -260Q236 -222 260 -193Q284 -164 321 -156V-157Q332 -154 345 -154Q357 -154 369 -157V-156Q406 -163 430 -192.5Q454 -222 454 -260Q454 -299 430 -328Q406 -357 369 -365V-364Q357 -367 345 -367ZM344 -3Q344 -3 343 -3Q341 -3 339 -3Q338 -3 335 -3Q298 -3 294 -4Q196 -11 140.5 -82.5Q85 -154 85 -260Q85 -362 154.5 -436.5Q224 -511 325 -517Q331 -517 339 -518Q341 -518 343 -518Q343 -518 344 -518Q345 -518 347 -518Q454 -518 529.5 -443Q605 -368 605 -261Q605 -261 605 -260Q605 -257 605 -253L602 18Q578 101 512.5 153Q447 205 360 205Q189 205 155 196V28Q167 38 246 46Q325 54 360 54Q386 54 412.5 44Q439 34 454 17V-26Q403 -3 347 -3Q345 -3 344 -3Z"/>
	<path fill="#60a04c" d="M361 -73Q348 -73 336 -73H337Q298 -72 268.5 -66Q239 -60 231.5 -52Q224 -44 243 -38.5Q262 -33 297 -31Q307 -30 321 -31Q333 -31 345 -31Q383 -32 412.5 -38Q442 -44 449.5 -52Q457 -60 438.5 -65.5Q420 -71 385 -73H384Q373 -73 361 -73ZM291 -1H290Q288 -1 287 -1Q286 -1 283 -1Q246 -1 241 -1Q145 -2 103 -16.5Q61 -31 81 -52Q99 -72 183 -87Q267 -102 369 -103Q375 -103 384 -104Q386 -104 388 -104H389Q390 -104 392 -104Q499 -104 560 -89Q621 -74 601 -52Q600 -51 599 -51L546 4Q506 21 430.5 31Q355 41 268 41Q97 41 65 39L96 6Q106 8 183.5 9.5Q261 11 296 11Q322 11 351 9Q380 7 398 3L406 -5Q351 0 294 -1Q292 -1 291 -1Z"/>
	<path fill="#fdb70d" d="M310 -367Q297 -367 286 -364V-365Q249 -357 225 -328Q201 -299 201 -260Q201 -222 225 -193Q249 -164 286 -156V-157Q297 -154 310 -154Q322 -154 334 -157V-156Q371 -164 395 -193Q419 -222 419 -260Q419 -299 395 -328Q371 -357 334 -365V-364Q322 -367 310 -367ZM309 -3Q308 -3 308 -3Q306 -3 304 -3Q304 -3 300 -3Q263 -3 259 -4Q161 -11 105.5 -82.5Q50 -154 50 -260Q50 -362 119.5 -436.5Q189 -511 290 -517Q296 -518 304 -518Q306 -518 308 -518Q308 -518 309 -518Q310 -518 312 -518Q419 -518 494.5 -443Q570 -368 570 -261Q570 -260 570 -260Q570 -257 570 -253L567 18Q543 101 477.5 153Q412 205 325 205Q154 205 120 196V28Q132 38 211 46Q290 54 325 54Q351 54 377.5 44Q404 34 419 17V-26Q368 -3 312 -3Q310 -3 309 -3Z"/>
	<path fill="#f40224" d="M339 -372Q339 -372 341 -372Q382 -363 406 -333Q432 -301 432 -260Q432 -220 406 -188Q381 -157 340 -149L339 -148Q338 -148 338 -148.5Q338 -149 337 -149Q326 -146 315 -146Q304 -146 293 -149Q292 -149 292 -148.5Q292 -148 291 -148Q290 -148 290 -148.5Q290 -149 289 -149Q248 -158 224 -188Q198 -220 198 -260Q198 -301 224 -333Q249 -364 290 -372H291H293Q300 -374 315 -374Q330 -374 337 -372ZM293 -357Q292 -357 292 -356.5Q292 -356 291 -356Q290 -356 290 -356.5Q290 -357 289 -357Q257 -349 236 -324Q214 -298 214 -260Q214 -224 236 -198Q258 -171 289 -164H291H293Q300 -162 315 -162Q330 -162 337 -164H339H341Q373 -172 394 -197Q416 -223 416 -260Q416 -297 394 -323Q372 -350 341 -357Q340 -357 340 -356.5Q340 -356 339 -356Q338 -356 338 -356.5Q338 -357 337 -357Q326 -360 315 -360Q304 -360 293 -357ZM317 4H305Q303 4 301 4.5Q299 5 298 5Q273 5 263 3Q162 -5 105 -78Q48 -152 48 -260Q48 -367 119 -442Q190 -518 295 -524Q303 -524 308 -525L309 -526H317Q425 -526 505 -448Q582 -372 582 -261V-253L579 18V20Q555 104 487 159Q421 212 330 212Q155 212 123 203Q118 201 118 196V28Q118 20 125 20Q128 20 130 22Q132 24 151 29Q184 36 217 39Q291 46 330 46Q354 46 380 37Q401 29 416 14V-15Q369 4 317 4ZM305 -10H317Q370 -10 421 -33Q422 -33 424 -34Q432 -34 432 -26V17Q432 20 430 22Q413 41 385 51Q357 62 330 62Q310 62 215 53Q170 48 147 44Q143 43 138 41.5Q133 40 132 40V190Q174 198 330 198Q415 198 478 147Q542 95 565 17L568 -253V-261Q568 -364 494 -438Q422 -510 317 -510H309Q307 -510 304.5 -510Q302 -510 299 -510Q296 -510 295 -510Q198 -504 130 -431Q62 -358 62 -260Q62 -156 116 -87Q170 -18 265 -11L270 -10Q275 -10 284.5 -10Q294 -10 305 -10Z"/>
</svg>