<svg xmlns="http://www.w3.org/2000/svg" viewBox="0 -1024 1024 1024">
	<path fill="#000000" d="M85 -522H254V-512Q293 -524 334 -524Q414 -524 478.5 -473Q543 -422 572 -345H407V-344Q376 -373 334 -373Q286 -373 254 -338V-6H85Z"/>
	<path fill="#60a04c" d="M117 -104H286L284 -102Q325 -104 367 -105Q447 -105 502 -94.5Q557 -84 571 -69H406Q382 -75 339 -75Q291 -75 253 -68L189 -1H20Z"/>
	<path fill="#fdb70d" d="M50 -522H219V-512Q258 -524 299 -524Q379 -524 443.5 -473Q508 -422 537 -345H372V-344Q341 -373 299 -373Q251 -373 219 -338V-6H50Z"/>
	<path fill="#f40224" d="M55 -530H224Q232 -530 232 -522Q272 -532 304 -532Q386 -532 453 -479Q520 -426 549 -348L550 -347Q550 -346 550 -345Q550 -338 542 -338H381Q379 -336 377 -336Q375 -336 372 -339Q344 -366 304 -366Q263 -366 232 -335V-6Q232 2 224 2H55Q48 2 48 -6V-522Q48 -530 55 -530ZM216 -514H62V-14H216V-338Q216 -341 218 -343Q252 -380 304 -380Q348 -380 379 -352H531Q503 -420 444 -467Q382 -516 304 -516Q260 -516 226 -505L225 -504H224Q216 -504 216 -512Z"/>
</svg>