<svg xmlns="http://www.w3.org/2000/svg" viewBox="0 -1024 1024 1024">
	<path fill="#000000" d="M499 -6Q465 3 428 3Q341 3 274 -49Q207 -101 183 -184L182 -364H85V-516H181L180 -761H347V-516H444V-364H347V-185Q379 -148 428 -148Q468 -148 499 -174Z"/>
	<path fill="#60a04c" d="M421 -1Q385 1 349 1Q262 1 204.5 -9.5Q147 -20 139 -37L173 -73H75L104 -103H200L244 -152H411L366 -103H463L434 -73H337L303 -37Q328 -30 378 -30Q418 -30 454 -35Z"/>
	<path fill="#fdb70d" d="M464 -6Q430 3 393 3Q306 3 239 -49Q172 -101 148 -184L147 -364H50V-516H146L145 -761H312V-516H409V-364H312V-185Q344 -148 393 -148Q433 -148 464 -174Z"/>
	<path fill="#f40224" d="M398 10Q307 10 239 -43Q170 -97 146 -182Q146 -182 146 -184L145 -356H55Q48 -356 48 -364V-516Q48 -524 55 -524H143L142 -761Q142 -768 150 -768H317Q324 -768 324 -761V-524H414Q422 -524 422 -516V-364Q422 -356 414 -356H324V-188Q353 -156 398 -156Q436 -156 464 -180Q466 -182 469 -182Q476 -182 476 -174V-6Q476 -1 471 1Q436 10 398 10ZM398 -4Q430 -4 462 -12V-159Q432 -140 398 -140Q346 -140 311 -180Q310 -181 310 -185V-364Q310 -372 317 -372H406V-508H317Q310 -508 310 -516V-754H158V-516Q158 -508 151 -508H62V-372H152Q159 -372 159 -364L160 -185Q184 -107 249 -55Q314 -4 398 -4Z"/>
</svg>