<svg xmlns="http://www.w3.org/2000/svg" viewBox="0 -1024 1024 1024">
	<path fill="#000000" d="M481 -511H633L753 -144L877 -511H1029L829 0H681L557 -317L433 0H285L85 -511H233L357 -144Z"/>
	<path fill="#60a04c" d="M512 -102H664L715 -29L908 -102H1060L765 0H617L552 -63L369 0H221L116 -102H264L319 -29Z"/>
	<path fill="#fdb70d" d="M446 -511H598L718 -144L842 -511H994L794 0H646L522 -317L398 0H250L50 -511H198L322 -144Z"/>
	<path fill="#f40224" d="M451 -518H603Q608 -518 610 -513L723 -168L840 -513Q842 -518 847 -518H999Q1006 -518 1006 -511Q1006 -511 1006 -508L806 3Q804 8 799 8H651Q646 8 644 3L527 -296L410 3Q408 8 403 8H255Q250 8 248 3L48 -508Q48 -508 48 -511Q48 -518 55 -518H203Q208 -518 210 -513L327 -167L444 -513Q446 -518 451 -518ZM320 -142L198 -504H66L260 -8H398L520 -320Q521 -324 527 -324Q533 -324 534 -320L656 -8H794L988 -504H852L730 -142Q728 -136 723 -136Q718 -136 716 -142L598 -504H456L334 -142Q332 -136 327 -136Q322 -136 320 -142Z"/>
</svg>