<svg xmlns="http://www.w3.org/2000/svg" viewBox="0 -1024 1024 1024">
	<path fill="#000000" d="M584 -577V-425Q583 -421 567.5 -403Q552 -385 520 -364.5Q488 -344 456 -344H356Q324 -344 279.5 -372Q235 -400 203 -400Q180 -400 150.5 -386Q121 -372 103 -358L85 -344V-496Q149 -552 199 -552Q232 -552 279 -524.5Q326 -497 359 -497Q404 -497 448 -497Q479 -497 513 -517Q547 -537 565 -557Z"/>
	<path fill="#60a04c" d="M604 -115L576 -85Q574 -84 555 -80.5Q536 -77 500.5 -73Q465 -69 433 -69H333Q301 -69 261.5 -74.5Q222 -80 190 -80Q167 -80 135 -77Q103 -74 82 -72L62 -69L90 -99Q164 -110 214 -110Q247 -110 289 -104.5Q331 -99 364 -99Q409 -99 453 -99Q484 -99 522 -103Q560 -107 582 -111Z"/>
	<path fill="#fdb70d" d="M549 -577V-425Q548 -421 532.5 -403Q517 -385 485 -364.5Q453 -344 421 -344H321Q289 -344 244.5 -372Q200 -400 168 -400Q145 -400 115.5 -386Q86 -372 68 -358L50 -344V-496Q114 -552 164 -552Q197 -552 244 -524.5Q291 -497 324 -497Q369 -497 413 -497Q444 -497 478 -517Q512 -537 530 -557Z"/>
	<path fill="#f40224" d="M562 -577V-425Q562 -420 556 -414Q535 -385 494 -358Q459 -336 426 -336H326Q293 -336 246 -366Q204 -392 173 -392Q151 -392 124 -379Q93 -364 78 -352L60 -338Q58 -336 55 -336Q48 -336 48 -344V-496Q48 -501 50 -502Q116 -560 169 -560Q204 -560 253 -531Q299 -504 329 -504H418Q447 -504 479 -523Q513 -543 529 -562Q532 -566 539 -572.5Q546 -579 549 -582Q551 -584 554 -584Q562 -584 562 -577ZM418 -490H329Q292 -490 245 -518Q200 -544 169 -544Q122 -544 62 -493V-359Q125 -408 173 -408Q206 -408 253 -378Q295 -352 326 -352H426Q457 -352 486 -371Q514 -389 532 -408Q542 -420 546 -427V-558L541 -552Q524 -533 487 -511Q451 -490 418 -490Z"/>
</svg>