<svg xmlns="http://www.w3.org/2000/svg" viewBox="0 -1024 1024 1024">
	<path fill="#000000" d="M559 -166ZM520 -420Q516 -421 508 -421Q485 -421 469.5 -405.5Q454 -390 454 -368Q454 -346 469.5 -330Q485 -314 508 -314Q512 -314 520 -316ZM596 -236ZM522 -228L508 -239Q454 -239 416 -276.5Q378 -314 378 -368Q378 -421 416 -456.5Q454 -492 508 -492H520H596L603 -318Q605 -306 618.5 -292Q632 -278 648.5 -270.5Q665 -263 679.5 -276Q694 -289 697 -326Q697 -327 695 -334Q693 -341 693 -342Q702 -396 686 -448.5Q670 -501 630 -541Q562 -608 466.5 -606.5Q371 -605 303 -537Q234 -468 233 -372.5Q232 -277 299 -209Q351 -157 423 -146Q495 -135 559 -166Q570 -171 598 -143Q626 -114 649 -84L672 -54Q559 22 422 10.5Q285 -1 188 -98Q76 -210 78.5 -371Q81 -532 196 -647Q311 -762 471.5 -764.5Q632 -767 744 -655Q828 -571 849 -448Q870 -325 822 -220Q800 -207 778 -199Q756 -191 731.5 -189.5Q707 -188 690 -187.5Q673 -187 646 -193.5Q619 -200 606.5 -203Q594 -206 562.5 -215.5Q531 -225 522 -228Z"/>
	<path fill="#60a04c" d="M512 -33ZM521 -84Q517 -84 509 -84Q486 -84 467.5 -81Q449 -78 444.5 -73.5Q440 -69 453 -66Q466 -63 489 -63Q493 -63 501 -63ZM562 -47ZM487 -46L474 -48Q420 -48 389.5 -55.5Q359 -63 369.5 -74Q380 -85 424 -91.5Q468 -98 522 -98H534H610L585 -64Q584 -62 595.5 -59Q607 -56 621.5 -54.5Q636 -53 653 -55.5Q670 -58 680 -65V-66L679 -68Q698 -79 691.5 -89.5Q685 -100 653 -108Q597 -121 501.5 -121Q406 -121 325 -107Q243 -93 224 -74Q205 -55 260 -42Q302 -32 372 -29.5Q442 -27 512 -33Q523 -34 546 -28.5Q569 -23 586 -17L604 -11Q476 4 341.5 2Q207 0 128 -20Q37 -42 70 -74Q103 -106 239 -129Q375 -152 536.5 -152.5Q698 -153 789 -131Q857 -114 855 -89.5Q853 -65 785 -44Q760 -41 737 -39.5Q714 -38 689.5 -38Q665 -38 647.5 -37.5Q630 -37 604.5 -38.5Q579 -40 566.5 -40.5Q554 -41 525 -43Q496 -45 487 -46Z"/>
	<path fill="#fdb70d" d="M524 -166ZM485 -420Q481 -421 473 -421Q450 -421 434.5 -405.5Q419 -390 419 -368Q419 -346 434.5 -330Q450 -314 473 -314Q477 -314 485 -316ZM561 -236ZM487 -228L473 -239Q419 -239 381 -276.5Q343 -314 343 -368Q343 -421 381 -456.5Q419 -492 473 -492H485H561L568 -318Q570 -306 583.5 -292Q597 -278 613.5 -270.5Q630 -263 644.5 -276Q659 -289 662 -326Q662 -327 660 -334Q658 -341 658 -342Q667 -396 651 -448.5Q635 -501 595 -541Q527 -608 431.5 -606.5Q336 -605 268 -537Q199 -468 198 -372.5Q197 -277 264 -209Q316 -157 388 -146Q460 -135 524 -166Q535 -171 563 -143Q591 -115 614 -84L637 -54Q524 22 387 10.5Q250 -1 153 -98Q41 -210 43.5 -371Q46 -532 161 -647Q276 -762 436.5 -764.5Q597 -767 709 -655Q793 -571 814 -448Q835 -325 787 -220Q765 -207 743 -199Q721 -191 696.5 -189.5Q672 -188 655 -187.5Q638 -187 611 -193.5Q584 -200 571.5 -203Q559 -206 527.5 -215.5Q496 -225 487 -228Z"/>
	<path fill="#f40224" d="M478 -428Q498 -428 498 -420V-316Q498 -311 492 -309Q489 -309 484.5 -307.5Q480 -306 478 -306Q453 -306 434 -325Q416 -343 416 -368Q416 -393 434 -411Q451 -428 478 -428ZM432 -368Q432 -348 445 -335Q458 -322 478 -322H482V-413L480 -414Q479 -414 478 -414Q459 -414 445 -400Q432 -387 432 -368ZM566 -228Q558 -228 558 -236Q558 -244 566 -244Q574 -244 574 -236Q574 -228 566 -228ZM659 -326Q656 -335 656 -342V-343Q659 -362 659 -381Q659 -415 649 -446Q634 -497 595 -536Q530 -599 441 -599Q345 -599 278 -532Q210 -464 210 -370Q210 -278 274 -214Q324 -164 394 -153Q406 -151 430 -151Q480 -151 525 -173Q527 -174 529 -174Q529 -174 530 -174Q531 -174 533 -174Q547 -174 573 -148Q603 -116 625 -89L648 -59Q650 -57 650 -54Q650 -50 646 -48Q545 20 428 20Q415 20 391 18Q252 6 153 -93Q41 -205 41 -364V-371Q44 -535 161 -652Q278 -769 441 -772H448Q607 -772 719 -660Q805 -574 826 -449Q833 -405 833 -375Q833 -291 799 -217L796 -214Q776 -202 751 -192Q730 -184 702 -182Q666 -180 658 -180Q636 -180 575 -196Q557 -201 490 -221Q488 -221 487 -222L475 -232Q418 -234 381 -271Q340 -310 340 -368Q340 -424 381 -462Q422 -500 478 -500H566Q573 -500 573 -492L580 -319Q581 -311 594 -297Q604 -286 622 -277Q628 -275 630 -275Q637 -275 644 -282Q656 -292 659 -326ZM671 -342Q674 -330 674 -326V-325Q671 -284 655 -270Q643 -260 630 -260Q625 -260 615 -264Q600 -270 583 -287Q569 -301 566 -317V-318L559 -484H478Q427 -484 391 -451Q356 -419 356 -368Q356 -317 391 -282Q427 -246 478 -246Q482 -246 483 -245L496 -235Q498 -234 518 -228Q538 -222 556 -216.5Q574 -211 578 -210L618 -201Q642 -195 658 -195Q667 -195 701 -197Q740 -199 786 -225Q818 -297 818 -375Q818 -410 812 -447Q791 -568 709 -650Q602 -757 448 -757Q286 -757 171 -642Q56 -527 56 -364Q56 -210 163 -103Q257 -9 393 3Q417 5 428 5Q536 5 631 -56L613 -79Q591 -109 563 -138Q542 -159 533 -159H532Q531 -158 530 -158Q485 -136 430 -136Q412 -136 392 -139Q317 -151 264 -204Q195 -275 195 -370Q195 -469 268 -542Q340 -614 441 -614Q535 -614 605 -546Q647 -504 663 -451Q674 -415 674 -381Q674 -362 671 -342Z"/>
</svg>