<svg xmlns="http://www.w3.org/2000/svg" viewBox="0 -1024 1024 1024">
	<path fill="#000000" d="M214 85V-50Q230 -29 251 -29Q276 -29 292 -58V-228L373 -369L291 -470L292 -654Q275 -684 251 -684Q230 -684 214 -663V-798Q229 -805 251 -805Q295 -805 329.5 -763Q364 -721 376 -655L377 -485L486 -358L377 -228L376 -58Q364 8 329.5 50Q295 92 251 92Q229 92 214 85Z"/>
	<path fill="#60a04c" d="M122 17L147 -10Q159 -6 180 -6Q205 -6 227 -12L259 -46L366 -74L303 -94L339 -131Q328 -137 304 -137Q283 -137 263 -133L288 -160Q305 -161 327 -161Q371 -161 397 -152.5Q423 -144 423 -131L392 -97L477 -72L344 -46L311 -12Q286 1 243.5 9.5Q201 18 157 18Q135 18 122 17Z"/>
	<path fill="#fdb70d" d="M179 85V-50Q195 -29 216 -29Q241 -29 257 -58V-228L338 -369L256 -470L257 -654Q240 -684 216 -684Q195 -684 179 -663V-798Q194 -805 216 -805Q260 -805 294.5 -763Q329 -721 341 -655L342 -485L451 -358L342 -228L341 -58Q329 8 294.5 50Q260 92 216 92Q194 92 179 85Z"/>
	<path fill="#f40224" d="M176 85V-50Q176 -58 184 -58Q188 -58 190 -55Q205 -36 221 -36Q240 -36 254 -60V-228Q254 -231 255 -232L334 -368L255 -465Q254 -466 254 -470V-652Q241 -676 221 -676Q204 -676 190 -658Q189 -656 184 -656Q176 -656 176 -663V-798Q176 -803 181 -805Q196 -812 221 -812Q269 -812 305 -768Q341 -725 353 -656V-655L354 -488L462 -363Q464 -361 464 -358Q464 -355 462 -353L354 -225L353 -58V-57Q341 12 305 55Q268 100 221 100Q199 100 181 92Q176 90 176 85ZM221 84Q262 84 294 45Q327 4 339 -59L340 -228Q340 -232 341 -233L446 -358L341 -480Q340 -481 340 -485L339 -654Q327 -717 294 -758Q261 -798 221 -798Q205 -798 192 -793V-681Q206 -692 221 -692Q250 -692 269 -658V-654V-473L349 -374Q350 -373 350 -369V-365L270 -226V-58Q270 -55 269 -54Q252 -22 221 -22Q205 -22 192 -32V80Q203 84 221 84Z"/>
</svg>