<svg xmlns="http://www.w3.org/2000/svg" viewBox="0 -1024 1024 1024">
	<path fill="#000000" d="M346 81H85L86 -4H253V-689H86L85 -774H346H347V-773V80V81Z"/>
	<path fill="#60a04c" d="M257 16H-4L12 -1H179L309 -138H142L156 -155H417H418L258 16Z"/>
	<path fill="#fdb70d" d="M311 81H50L51 -4H218V-689H51L50 -774H311H312V-773V80V81Z"/>
	<path fill="#f40224" d="M317 88H55Q48 88 48 81L49 -4Q49 -12 56 -12H216V-682H56Q49 -682 49 -689L48 -774Q48 -782 55 -782H317Q324 -782 324 -774V81Q324 88 317 88ZM310 74V-766H63V-696H223Q230 -696 230 -689V-4Q230 4 223 4H63V74Z"/>
</svg>