<svg xmlns="http://www.w3.org/2000/svg" viewBox="0 -1024 1024 1024">
	<path fill="#000000" d="M86 80H85V79V-773V-774H86H347L346 -689H179V-5H346L347 80Z"/>
	<path fill="#60a04c" d="M-3 16H-4L156 -155H157H418L402 -138H235L105 -1H272L258 16Z"/>
	<path fill="#fdb70d" d="M51 80H50V79V-773V-774H51H312L311 -689H144V-5H311L312 80Z"/>
	<path fill="#f40224" d="M55 88Q48 88 48 80V-774Q48 -782 55 -782H317Q324 -782 324 -774L323 -689Q323 -682 316 -682H156V-12H316Q323 -12 323 -5L324 80Q324 88 317 88ZM62 -766V72H309V2H149Q142 2 142 -5V-689Q142 -696 149 -696H309V-766Z"/>
</svg>