<svg xmlns="http://www.w3.org/2000/svg" viewBox="0 -1024 1024 1024">
	<path fill="#000000" d="M85 -398V-540H237V-398ZM85 2V-140H237V2Z"/>
	<path fill="#00ff00" d="M94 -80L120 -108H272L246 -80ZM19 0L45 -28H197L171 0Z"/>
	<path fill="#e3ab45" d="M50 -398V-540H202V-398ZM50 2V-140H202V2Z"/>
	<path fill="#ff0000" d="M48 -398V-540Q48 -548 55 -548H207Q214 -548 214 -540V-398Q214 -390 207 -390H55Q48 -390 48 -398ZM62 -532V-406H200V-532ZM48 2V-140Q48 -148 55 -148H207Q214 -148 214 -140V2Q214 10 207 10H55Q48 10 48 2ZM62 -132V-6H200V-132Z"/>
</svg>