<svg xmlns="http://www.w3.org/2000/svg" viewBox="0 -1024 1024 1024">
	<path fill="#000000" d="M85 -546L629 -403V-402V-251V-250L85 -144V-296L299 -338L85 -394Z"/>
	<path fill="#00ff00" d="M113 -109L630 -81L629 -80L601 -50L37 -29L66 -59L288 -68L85 -79Z"/>
	<path fill="#e3ab45" d="M50 -546L594 -403V-402V-251V-250L50 -144V-296L264 -338L50 -394Z"/>
	<path fill="#ff0000" d="M606 -403V-250Q606 -245 600 -243L56 -137L55 -136Q48 -136 48 -144V-296Q48 -301 54 -303L235 -339L53 -387Q48 -389 48 -394V-546Q48 -554 55 -554Q56 -554 56 -553.5Q56 -553 57 -553L601 -410Q606 -408 606 -403ZM270 -331L62 -290V-153L592 -256V-397L62 -536V-400L271 -345Q276 -343 276 -338Q276 -333 270 -331Z"/>
</svg>