<svg xmlns="http://www.w3.org/2000/svg" viewBox="0 -1024 1024 1024">
	<path fill="#000000" d="M629 -546V-394L415 -338L629 -296V-144L85 -250V-251V-402V-403Z"/>
	<path fill="#60a04c" d="M657 -109L629 -79L403 -68L610 -59L581 -29L57 -50L85 -80L86 -81Z"/>
	<path fill="#fdb70d" d="M594 -546V-394L380 -338L594 -296V-144L50 -250V-251V-402V-403Z"/>
	<path fill="#f40224" d="M606 -546V-394Q606 -389 601 -387L419 -339L600 -303Q606 -301 606 -296V-144Q606 -136 599 -136L598 -137L54 -243Q48 -245 48 -250V-403Q48 -408 53 -410L597 -553Q598 -553 598 -553.5Q598 -554 599 -554Q606 -554 606 -546ZM383 -345L592 -400V-536L62 -397V-256L592 -153V-290L384 -331Q378 -333 378 -338Q378 -343 383 -345Z"/>
</svg>