<svg xmlns="http://www.w3.org/2000/svg" viewBox="0 -1024 1024 1024">
	<path fill="#000000" d="M85 -774H237L685 -251V-774H837V2H685L237 -523V2H85Z"/>
	<path fill="#60a04c" d="M151 -155H303L652 -50L751 -155H903L757 0H605L256 -105L157 0H5Z"/>
	<path fill="#fdb70d" d="M50 -774H202L650 -251V-774H802V2H650L202 -523V2H50Z"/>
	<path fill="#f40224" d="M55 -782H207Q212 -782 213 -779L648 -271V-774Q648 -782 655 -782H807Q814 -782 814 -774V2Q814 10 807 10H655Q650 10 649 7L214 -503V2Q214 10 207 10H55Q48 10 48 2V-774Q48 -782 55 -782ZM62 -766V-6H200V-523Q200 -530 207 -530Q212 -530 213 -528L658 -6H800V-766H662V-251Q662 -244 655 -244Q650 -244 649 -246L204 -766Z"/>
</svg>