<svg xmlns="http://www.w3.org/2000/svg" viewBox="0 -1024 1024 1024">
	<path fill="#000000" d="M312 -146Q397 -146 461 -202Q525 -258 538 -342Q468 -265 365 -259Q357 -258 351 -258Q349 -258 347 -258Q347 -258 346 -258Q345 -258 343 -258Q252 -258 181.5 -314.5Q111 -371 91 -458Q85 -486 85 -516Q85 -556 97 -594Q127 -688 213 -738Q262 -772 312 -772Q316 -772 319 -772Q331 -773 343 -773Q344 -773 345 -773H346Q346 -773 347 -773Q349 -773 351 -773Q360 -773 365 -772Q445 -765 507 -717Q593 -665 643.5 -575Q694 -485 694 -378Q694 -215 582 -100Q470 15 312 15Q229 15 193 8V-158Q208 -153 248 -149.5Q288 -146 312 -146ZM361 -391Q372 -391 385 -394V-393Q422 -400 446 -429.5Q470 -459 470 -498Q470 -552 426 -584Q410 -593 394 -600Q390 -601 385 -602V-601Q374 -604 361 -604Q349 -604 337 -601V-602Q300 -595 276 -565.5Q252 -536 252 -498Q252 -459 276 -430Q300 -401 337 -393V-394Q349 -391 361 -391Z"/>
	<path fill="#60a04c" d="M261 -29Q346 -29 420 -40.5Q494 -52 523 -68Q440 -53 335 -52Q327 -52 320 -52Q318 -52 317 -52Q317 -52 316 -52Q315 -52 313 -52Q222 -52 162 -63Q102 -74 99 -92Q99 -98 104 -103Q111 -111 130 -119Q178 -138 273 -148Q329 -155 378 -154Q382 -154 385 -154Q397 -154 410 -155Q411 -155 412 -155H413Q413 -155 414 -155Q416 -155 418 -155Q427 -155 431 -154Q509 -153 563 -143Q639 -133 672.5 -115Q706 -97 687 -76Q656 -43 522 -20Q388 3 230 3Q147 3 112 2L145 -32Q159 -31 198 -30Q237 -29 261 -29ZM356 -78Q367 -78 381 -79Q419 -80 448 -86Q477 -92 485 -100Q495 -111 458 -117Q444 -119 427 -120Q423 -120 419 -120Q409 -121 396 -121Q384 -121 371 -120Q333 -119 303.5 -113Q274 -107 267 -100Q259 -92 277.5 -86Q296 -80 333 -79Q344 -78 356 -78Z"/>
	<path fill="#fdb70d" d="M277 -146Q362 -146 426 -202Q490 -258 503 -342Q433 -266 330 -259Q322 -258 316 -258Q313 -258 312 -258Q312 -258 311 -258Q310 -258 308 -258Q217 -258 146.5 -314.5Q76 -371 56 -458Q50 -486 50 -516Q50 -556 62 -594Q92 -688 178 -738Q227 -772 277 -772Q281 -772 284 -772Q296 -773 308 -773Q309 -773 310 -773Q311 -773 311 -773Q311 -773 312 -773Q314 -773 316 -773Q324 -773 330 -772Q410 -766 472 -717Q557 -665 608 -575Q659 -485 659 -378Q659 -215 547 -100Q435 15 277 15Q194 15 158 8V-158Q173 -153 213 -149.5Q253 -146 277 -146ZM326 -391Q337 -391 350 -394V-393Q387 -401 411 -430Q435 -459 435 -498Q435 -552 391 -584Q376 -593 359 -600Q354 -601 350 -602V-601Q339 -604 326 -604Q314 -604 302 -601V-602Q265 -594 241 -565Q217 -536 217 -498Q217 -459 241 -430Q265 -401 302 -393V-394Q314 -391 326 -391Z"/>
	<path fill="#f40224" d="M282 -154Q364 -154 426 -208Q480 -256 496 -319Q429 -258 336 -252Q336 -252 321 -250H313Q220 -250 147 -309Q75 -368 54 -456Q48 -484 48 -516Q48 -557 60 -596Q92 -694 179 -744Q232 -780 282 -780H289Q289 -780 313 -780Q313 -780 321 -780Q332 -780 336 -779Q420 -771 481 -723Q570 -670 620 -579Q672 -486 672 -378Q672 -213 557 -95Q443 22 282 22Q197 22 162 15Q156 13 156 8V-158Q156 -166 163 -166Q164 -166 164 -165.5Q164 -165 165 -165Q180 -160 219 -157Q260 -154 282 -154ZM282 -138Q216 -138 170 -148V2Q206 8 282 8Q437 8 547 -105Q656 -217 656 -378Q656 -483 607 -571Q557 -660 473 -711H472Q412 -758 334 -765Q333 -765 328.5 -765.5Q324 -766 321 -766H313Q298 -766 290 -765L289 -764H282Q234 -764 187 -732Q103 -684 74 -592Q62 -554 62 -516Q62 -487 68 -460Q88 -375 156 -320Q223 -266 313 -266H321H335Q434 -272 502 -347Q504 -350 508 -350Q516 -350 516 -342L515 -341Q501 -252 436 -196Q369 -138 282 -138ZM307 -386Q307 -386 305 -386Q264 -395 240 -425Q214 -457 214 -498Q214 -538 240 -570Q265 -601 306 -609L307 -610Q308 -610 308 -609.5Q308 -609 309 -609Q319 -612 331 -612Q342 -612 353 -609Q354 -609 354 -609.5Q354 -610 355 -610Q358 -610 367 -607Q389 -597 400 -591V-590Q448 -554 448 -498Q448 -457 422 -425Q397 -394 356 -386H355H353Q332 -383 331 -383Q320 -383 309 -386ZM331 -398Q341 -398 353 -401Q354 -401 354 -401.5Q354 -402 355 -402Q356 -402 356 -401.5Q356 -401 357 -401Q389 -409 410 -434Q432 -460 432 -498Q432 -548 392 -578Q377 -587 362 -593L360 -594Q358 -594 357 -594H355H353Q346 -596 331 -596Q316 -596 309 -594H307H305Q273 -586 252 -561Q230 -535 230 -498Q230 -461 252 -435Q274 -408 305 -401Q306 -401 306 -401.5Q306 -402 307 -402Q308 -402 308 -401.5Q308 -401 309 -401Q320 -398 331 -398Z"/>
</svg>