<svg xmlns="http://www.w3.org/2000/svg" viewBox="0 -1024 1024 1024">
	<path fill="#000000" d="M467 -744Q367 -744 278 -633.5Q189 -523 189 -378Q189 -232 278 -121.5Q367 -11 467 -11L540 7Q506 14 467 14Q309 14 197 -101.5Q85 -217 85 -380Q85 -543 197 -658Q309 -773 467 -773Q506 -773 540 -766Z"/>
	<path fill="#60a04c" d="M528 -149Q428 -149 318.5 -127Q209 -105 182 -76Q154 -47 222 -24.5Q290 -2 390 -2L460 1Q424 2 385 3Q227 3 137 -20Q47 -43 78 -76Q109 -109 242.5 -132Q376 -155 534 -155Q573 -155 605 -153Z"/>
	<path fill="#fdb70d" d="M432 -744Q332 -744 243 -633.5Q154 -523 154 -378Q154 -232 243 -121.5Q332 -11 432 -11L505 7Q471 14 432 14Q274 14 162 -101.5Q50 -217 50 -380Q50 -543 162 -658Q274 -773 432 -773Q471 -773 505 -766Z"/>
	<path fill="#f40224" d="M437 -736Q340 -736 254 -629Q166 -520 166 -378Q166 -235 254 -126Q341 -18 437 -18Q437 -18 439 -18L512 0Q518 2 518 7Q518 12 512 14Q475 22 437 22Q277 22 162 -96Q48 -213 48 -380Q48 -546 162 -663Q276 -780 437 -780Q480 -780 512 -773Q518 -771 518 -766Q518 -761 512 -759L439 -737Q438 -737 438 -736.5Q438 -736 437 -736ZM152 -378Q152 -526 242 -638Q334 -751 436 -751L476 -764Q450 -766 437 -766Q282 -766 172 -653Q62 -540 62 -380Q62 -222 172 -107Q281 6 437 6Q460 6 471 5L436 -4Q334 -4 242 -117Q152 -230 152 -378Z"/>
</svg>