<svg xmlns="http://www.w3.org/2000/svg" viewBox="0 -1024 1024 1024">
	<path fill="#000000" d="M90 -57L165 -182Q177 -172 187 -167Q225 -145 267 -155.5Q309 -166 332 -202Q354 -241 329.5 -274.5Q305 -308 262 -315Q195 -351 154.5 -398Q114 -445 103.5 -507.5Q93 -570 136 -639Q188 -726 291 -751.5Q394 -777 488 -727Q491 -724 498.5 -719.5Q506 -715 509 -712L434 -587Q422 -597 412 -602Q374 -623 331.5 -612.5Q289 -602 267 -565Q242 -524 262.5 -475Q283 -426 331 -418Q380 -392 413.5 -365.5Q447 -339 471.5 -303.5Q496 -268 494.5 -224Q493 -180 462 -130Q410 -42 307.5 -16.5Q205 9 111 -42Q108 -45 100.5 -49.5Q93 -54 90 -57Z"/>
	<path fill="#60a04c" d="M21 -11L120 -36Q129 -34 139 -33Q173 -29 217 -31Q261 -33 291 -40Q321 -48 302.5 -55Q284 -62 242 -63Q182 -70 150 -79.5Q118 -89 119.5 -101.5Q121 -114 178 -128Q246 -145 353.5 -150Q461 -155 546 -145Q548 -144 554.5 -143.5Q561 -143 564 -142L465 -117Q456 -119 446 -120Q412 -124 367.5 -122Q323 -120 294 -113Q261 -105 272.5 -95Q284 -85 330 -84Q374 -79 403 -73.5Q432 -68 450 -61Q468 -54 458 -45Q448 -36 407 -26Q338 -8 231 -3Q124 2 39 -8Q37 -9 30.5 -9.5Q24 -10 21 -11Z"/>
	<path fill="#fdb70d" d="M55 -57L130 -182Q142 -172 152 -167Q190 -145 232 -155.5Q274 -166 297 -202Q319 -241 294.5 -274.5Q270 -308 227 -315Q160 -351 119.5 -398Q79 -445 68.5 -507.5Q58 -570 101 -639Q153 -726 256 -751.5Q359 -777 453 -727Q456 -724 463.5 -719.5Q471 -715 474 -712L399 -587Q387 -597 377 -602Q339 -623 296.5 -612.5Q254 -602 232 -565Q207 -524 227.5 -475Q248 -426 296 -418Q345 -392 378.5 -365.5Q412 -339 436.5 -303.5Q461 -268 459.5 -224Q458 -180 427 -130Q375 -42 272.5 -16.5Q170 9 76 -42Q73 -45 65.5 -49.5Q58 -54 55 -57Z"/>
	<path fill="#f40224" d="M135 -190Q138 -190 140 -188Q174 -160 210 -160Q223 -160 235 -163Q276 -174 296 -206Q305 -223 305 -238Q305 -254 293 -270Q270 -302 231 -308Q231 -308 228 -308Q163 -343 119 -393Q76 -442 66 -506Q64 -524 64 -532Q64 -586 100 -643Q154 -734 259 -759Q295 -768 330 -768Q400 -768 462 -734Q462 -734 462 -733Q462 -732 463 -732Q464 -730 472 -726Q480 -722 484 -717Q486 -715 486 -712Q486 -709 485 -708L410 -583Q408 -580 404 -580Q400 -580 399 -581Q367 -608 329 -608Q316 -608 303 -605Q264 -595 243 -561Q231 -542 231 -518Q231 -497 239 -478Q258 -433 302 -425Q302 -425 305 -425Q346 -404 388 -371Q422 -344 448 -308Q472 -272 472 -229Q472 -229 472 -224Q471 -179 438 -126Q383 -34 279 -9Q244 0 210 0Q142 0 77 -35Q76 -35 76 -35.5Q76 -36 76 -37Q74 -38 67 -43Q60 -48 55 -52Q52 -55 52 -57Q52 -59 54 -61L129 -186Q131 -190 135 -190ZM457 -229Q457 -268 435 -299Q408 -337 379 -360Q344 -387 299 -411Q247 -420 226 -472Q216 -497 216 -518Q216 -545 231 -569Q256 -610 300 -620Q320 -624 329 -624Q358 -624 385 -609Q390 -606 402 -598L469 -710Q459 -716 454 -721Q393 -753 330 -753Q298 -753 263 -744Q163 -719 112 -635Q79 -583 79 -532Q79 -525 81 -509Q92 -447 130 -403Q170 -357 234 -322Q281 -314 306 -279Q320 -259 320 -238Q320 -218 309 -198H308Q284 -158 239 -148Q224 -145 210 -145Q180 -145 153 -160Q150 -162 144.5 -166Q139 -170 137 -171L70 -59Q80 -53 85 -48Q145 -16 210 -16Q247 -16 276 -24Q375 -49 426 -134Q456 -183 457 -224Q457 -224 457 -229Z"/>
</svg>