<svg xmlns="http://www.w3.org/2000/svg" viewBox="0 -1024 1024 1024">
	<path fill="#000000" d="M85 5V-119Q98 -116 111 -116Q177 -116 223 -141Q269 -166 269 -202Q269 -236 242 -260Q215 -284 175 -288Q169 -288 162.5 -288Q156 -288 150 -288Q143 -287 136 -286V-289V-410V-413Q143 -412 150 -411Q156 -411 162 -411Q168 -411 175 -411Q216 -415 242.5 -439Q269 -463 269 -496Q269 -532 225 -557.5Q181 -583 117 -583Q104 -583 91 -580V-704Q104 -705 117 -705Q243 -705 331.5 -644Q420 -583 420 -496Q420 -410 345 -349Q420 -288 420 -202Q420 -116 329.5 -55Q239 6 111 6Q98 6 85 5Z"/>
	<path fill="#60a04c" d="M9 1L32 -24Q45 -23 57 -23Q123 -23 174 -28Q225 -33 232 -40Q238 -47 215.5 -52Q193 -57 154 -58Q148 -58 141.5 -58Q135 -58 129 -58Q122 -58 114 -57L115 -58L138 -82L139 -83Q146 -83 151 -82Q157 -82 163.5 -82Q170 -82 177 -82Q219 -83 250 -88Q281 -93 287 -99Q294 -106 254.5 -111.5Q215 -117 151 -117Q138 -117 125 -116L148 -141Q161 -141 174 -141Q300 -141 377 -129Q454 -117 438 -99Q422 -82 336 -70Q399 -58 382.5 -40.5Q366 -23 264.5 -11Q163 1 35 1Q22 1 9 1Z"/>
	<path fill="#fdb70d" d="M50 5V-119Q63 -116 76 -116Q142 -116 188 -141Q234 -166 234 -202Q234 -236 207 -260Q180 -284 140 -288Q133 -288 127 -288Q121 -288 115 -288Q108 -288 101 -286V-289V-410V-413Q108 -411 115 -411Q121 -411 127 -411Q133 -411 140 -411Q180 -414 207 -438.5Q234 -463 234 -496Q234 -533 190 -558Q146 -583 82 -583Q69 -583 56 -580V-704Q69 -705 82 -705Q208 -705 296.5 -644Q385 -583 385 -496Q385 -410 310 -349Q385 -288 385 -202Q385 -116 294.5 -55Q204 6 76 6Q63 6 50 5Z"/>
	<path fill="#f40224" d="M48 5V-119Q48 -126 55 -126Q55 -126 57 -126Q65 -124 81 -124Q146 -124 189 -148Q232 -172 232 -202Q232 -232 207 -254Q183 -275 145 -280H121L107 -279L106 -278Q98 -278 98 -286V-413Q98 -420 106 -420H107L121 -418H145Q183 -422 207 -445Q232 -468 232 -496Q232 -528 191 -551Q147 -576 87 -576Q75 -576 63 -573Q62 -573 62 -572.5Q62 -572 61 -572Q54 -572 54 -580V-704Q54 -711 60 -711Q69 -712 87 -712Q217 -712 306 -650Q398 -586 398 -496Q398 -411 327 -349Q398 -287 398 -202Q398 -113 304 -49Q211 14 81 14Q72 14 54 12Q48 12 48 5ZM310 -343Q308 -344 308 -349Q308 -354 310 -355Q382 -414 382 -496Q382 -579 297 -638Q210 -698 87 -698Q84 -698 77.5 -697.5Q71 -697 68 -697V-589Q74 -590 87 -590Q154 -590 199 -564Q246 -537 246 -496Q246 -458 218 -433Q191 -409 146 -404H145H120H114V-295Q115 -295 117 -295.5Q119 -296 120 -296H145L146 -295Q190 -290 217 -266Q246 -240 246 -202Q246 -160 197 -134Q148 -108 81 -108Q74 -108 62 -110V-2H81Q208 -2 295 -61Q382 -120 382 -202Q382 -284 310 -343Z"/>
</svg>