<svg xmlns="http://www.w3.org/2000/svg" viewBox="0 -1024 1024 1024">
	<path fill="#000000" d="M165 -586Q260 -586 327 -531Q394 -476 394 -399Q394 -322 328 -274Q262 -226 165 -226Q127 -226 92 -236L89 0L592 -5V-126L317 -124Q421 -158 484 -231.5Q547 -305 547 -400Q547 -485 496 -558Q445 -631 357 -673Q269 -715 165 -715Q128 -715 92 -709V-576Q127 -586 165 -586Z"/>
	<path fill="#60a04c" d="M199 -117Q294 -117 351 -106Q408 -95 393 -80Q378 -65 303.5 -55Q229 -45 131 -45Q93 -45 60 -47L13 0L516 -1L539 -25H264Q374 -32 451 -46.5Q528 -61 546 -80Q562 -97 524.5 -111.5Q487 -126 407 -134.5Q327 -143 223 -143Q186 -143 150 -142L124 -115Q161 -117 199 -117Z"/>
	<path fill="#fdb70d" d="M130 -586Q225 -586 292 -531Q359 -476 359 -399Q359 -322 293 -274Q227 -226 130 -226Q92 -226 57 -236L54 0L557 -5V-126L282 -124Q386 -158 449 -231.5Q512 -305 512 -400Q512 -486 461 -558.5Q410 -631 322 -673Q234 -715 130 -715Q93 -715 57 -709V-576Q92 -586 130 -586Z"/>
	<path fill="#f40224" d="M135 -578Q98 -578 64 -569Q64 -569 63 -568H62Q54 -568 54 -576V-709Q54 -714 61 -716Q97 -722 135 -722Q240 -722 330 -680Q418 -639 472 -562Q524 -488 524 -400Q524 -301 460 -227Q406 -165 329 -132L562 -134Q570 -134 570 -126V-5Q570 2 562 2L59 8Q52 8 52 0L55 -236Q55 -244 62 -244H63L64 -243Q99 -234 135 -234Q230 -234 294 -280Q356 -326 356 -399Q356 -471 292 -525Q229 -578 135 -578ZM372 -399Q372 -318 302 -268Q234 -218 135 -218Q103 -218 69 -226L67 -8L554 -12V-118L287 -116Q280 -116 280 -124Q280 -129 285 -131Q386 -164 448 -236Q510 -309 510 -400Q510 -481 460 -554Q412 -623 324 -666Q237 -708 135 -708Q107 -708 70 -703V-586Q104 -594 135 -594Q233 -594 302 -537Q372 -479 372 -399Z"/>
</svg>