<svg xmlns="http://www.w3.org/2000/svg" viewBox="0 -1024 1024 1024">
	<path fill="#000000" d="M422 -245Q421 -245 419 -244Q417 -243 416 -243Q407 -244 405 -240Q403 -237 405 -235Q412 -227 435 -227Q448 -227 448 -234Q448 -241 425 -245ZM438 -267Q436 -267 434 -267Q431 -267 428.5 -267Q426 -267 424.5 -266Q423 -265 422.5 -263Q422 -261 422 -257Q422 -256 427 -255.5Q432 -255 436.5 -255.5Q441 -256 441 -257V-259Q441 -260 442 -261V-263Q442 -265 438 -267ZM400 -282Q391 -282 391 -269Q391 -262 402 -262Q413 -262 413 -268Q413 -269 413.5 -270.5Q414 -272 414 -273Q414 -277 400 -282ZM439 -291Q439 -291 422 -291Q415 -287 423 -281Q436 -272 448 -272Q450 -272 453.5 -274Q457 -276 457 -277Q457 -285 439 -291ZM428 -387Q427 -387 425.5 -385Q424 -383 423 -381.5Q422 -380 422 -380Q421 -380 420 -377Q419 -373 423 -370Q427 -367 430 -367Q433 -367 440 -371Q447 -375 448 -378Q451 -384 442.5 -387Q434 -390 428 -387ZM257 -368H254L252 -367L259 -365Q259 -367 266 -366Q271 -366 274 -366Q277 -367 276 -369Q274 -371 269 -373Q257 -376 257 -368ZM294 -423Q289 -421 289 -420Q289 -417 306 -417Q318 -417 318 -424Q318 -428 306 -428Q305 -428 303 -427Q301 -426 298.5 -425Q296 -424 294 -423ZM472 -540Q472 -532 469 -527Q469 -527 468 -526Q467 -525 467 -524Q467 -521 460 -516.5Q453 -512 446 -512Q438 -512 417 -520.5Q396 -529 396 -537Q0 0 472 -540ZM282 -325Q260 -325 260 -334Q260 -343 282 -343Q304 -343 304 -334Q304 -325 282 -325ZM303 -363Q317 -363 317 -356Q317 -349 303 -349Q290 -349 290 -356Q290 -363 303 -363ZM243 -349Q243 -357 247 -357Q251 -357 251 -349Q251 -342 247 -342Q243 -342 243 -349ZM391 -489Q399 -489 399 -480Q399 -471 391 -471Q384 -471 384 -480Q384 -489 391 -489ZM399 -455Q405 -455 405 -449Q405 -443 399 -443Q394 -443 394 -449Q394 -455 399 -455ZM555 -514Q555 -524 576 -524Q597 -524 597 -514Q597 -505 576 -505Q555 -505 555 -514ZM572 -540Q572 -546 584 -546Q596 -546 596 -540Q596 -535 584 -535Q572 -535 572 -540ZM600 -512Q600 -525 605 -525Q610 -525 610 -512Q610 -500 605 -500Q600 -500 600 -512ZM546 -490Q546 -498 560 -498Q575 -498 575 -490Q575 -481 560 -481Q546 -481 546 -490ZM415 -531Q407 -531 407 -536Q407 -541 415 -541Q423 -541 423 -536Q423 -531 415 -531ZM435 -533Q435 -537 440 -537Q445 -537 445 -533Q445 -528 440 -528Q435 -528 435 -533ZM459 -523Q451 -523 451 -529Q451 -535 459 -535Q467 -535 467 -529Q467 -523 459 -523ZM444 -509Q434 -509 434 -514Q434 -519 444 -519Q454 -519 454 -514Q454 -509 444 -509ZM454 -541Q454 -545 462 -545Q470 -545 470 -541Q470 -536 462 -536Q454 -536 454 -541ZM329 -585Q329 -596 337 -596Q344 -596 344 -585Q344 -575 337 -575Q329 -575 329 -585ZM374 -581Q374 -575 365 -575Q0 0 374 -581ZM363 -611Q373 -611 373 -604Q373 -597 363 -597Q352 -597 352 -604Q352 -611 363 -611ZM457 -670Q457 -664 463 -664Q468 -664 468 -670Q468 -677 463 -677Q457 -677 457 -670ZM460 -656Q453 -656 453 -653Q453 -650 460 -650Q467 -650 467 -653Q467 -656 460 -656ZM478 -662Q473 -662 473 -658Q473 -654 478 -654Q483 -654 483 -658Q483 -662 478 -662ZM628 -398Q620 -398 620 -403Q620 -408 628 -408Q636 -408 636 -403Q636 -398 628 -398ZM610 -385Q610 -391 618 -391Q626 -391 626 -385Q626 -378 618 -378Q610 -378 610 -385ZM596 -383Q596 -388 599 -388Q602 -388 602 -383Q602 -377 599 -377Q596 -377 596 -383ZM609 -404Q616 -404 616 -400Q616 -396 609 -396Q603 -396 603 -400Q603 -404 609 -404ZM601 -371Q613 -371 613 -368Q613 -365 601 -365Q590 -365 590 -368Q590 -371 601 -371ZM572 -658Q576 -658 576 -655Q576 -652 572 -652Q569 -652 569 -655Q569 -658 572 -658ZM592 -658Q598 -658 598 -653Q598 -648 592 -648Q585 -648 585 -653Q585 -658 592 -658Z"/>
	<path fill="#60a04c" d="M633 -354Q632 -354 629 -352.5Q626 -351 622.5 -348.5Q619 -346 618 -346Q611 -342 616 -340Q624 -341 624 -338Q624 -335 626 -335.5Q628 -336 630.5 -337Q633 -338 635 -337Q637 -335 648 -343Q657 -350 648 -350Q644 -350 644 -352Q644 -352 641.5 -352.5Q639 -353 636 -353Q633 -353 633 -354ZM302 -481Q300 -482 294.5 -478Q289 -474 288 -474Q287 -474 284 -471.5Q281 -469 281 -468Q281 -467 288 -465.5Q295 -464 301.5 -463.5Q308 -463 309 -465Q309 -466 311 -466Q313 -466 313 -468Q313 -470 315.5 -470Q318 -470 321 -473Q323 -475 322.5 -475.5Q322 -476 319 -476Q315 -476 313 -478.5Q311 -481 308 -480Q303 -479 302 -481ZM496 -729Q496 -729 499 -730.5Q502 -732 505 -733.5Q508 -735 512 -736Q516 -737 518.5 -736.5Q521 -736 522 -734Q523 -732 527 -732Q534 -732 524 -724Q518 -720 510 -719Q502 -718 501 -721Q501 -722 499.5 -722.5Q498 -723 496 -723Q486 -725 496 -729Z"/>
	<path fill="#fdb70d" d="M592 -662Q562 -662 562 -653Q562 -653 566.5 -650Q571 -647 576.5 -643.5Q582 -640 583 -639Q589 -639 597 -647Q605 -655 605 -658.5Q605 -662 592 -662ZM557 -653Q557 -667 592 -667Q610 -667 610 -659Q610 -652 600.5 -643Q591 -634 583 -634Q581 -634 578 -637Q576 -639 570.5 -641.5Q565 -644 561 -647Q557 -650 557 -653ZM484 -658Q484 -664 474 -671Q464 -678 460 -678Q459 -678 458.5 -677.5Q458 -677 457 -677Q455 -677 454 -679Q450 -678 446 -668.5Q442 -659 442 -652Q442 -647 445 -645.5Q448 -644 448 -641Q452 -637 463 -637Q470 -637 477 -644.5Q484 -652 484 -658ZM460 -683Q467 -683 478 -674.5Q489 -666 489 -658Q489 -649 480.5 -640.5Q472 -632 463 -632Q443 -632 443 -641Q443 -641 442 -642Q437 -643 437 -652Q437 -656 437.5 -659Q438 -662 439.5 -665Q441 -668 442 -671Q447 -685 456 -685Q458 -685 459 -683ZM390 -496Q374 -496 374 -479Q374 -478 376 -474Q384 -462 387 -445Q391 -420 415 -420Q420 -420 420 -424Q420 -427 417 -431Q410 -440 410 -458Q410 -462 411.5 -471Q413 -480 413 -480Q413 -486 404.5 -491Q396 -496 390 -496ZM418 -480Q418 -479 416.5 -470.5Q415 -462 415 -458Q415 -442 421 -434Q425 -429 425 -424Q425 -415 415 -415Q387 -415 382 -444Q378 -464 372 -472Q369 -473 369 -478Q369 -478 369 -479Q369 -501 390 -501Q399 -501 408.5 -494.5Q418 -488 418 -480ZM533 -515Q533 -499 544.5 -487Q556 -475 573 -475Q588 -475 594 -478Q599 -481 609.5 -497Q620 -513 620 -523Q620 -540 584 -550Q577 -552 574 -552Q573 -552 569.5 -551Q566 -550 564 -550Q562 -550 557.5 -547.5Q553 -545 551 -545Q550 -545 548.5 -546Q547 -547 545 -547Q544 -547 542.5 -546.5Q541 -546 540 -546Q539 -546 536 -547.5Q533 -549 532 -547Q531 -545 522 -540Q524 -540 527.5 -536.5Q531 -533 532 -533Q536 -533 536 -530.5Q536 -528 534.5 -523Q533 -518 533 -515ZM563 -555Q565 -555 569 -556Q573 -557 574 -557Q586 -557 600 -550Q614 -543 619 -537Q625 -531 625 -523Q625 -511 614 -494Q603 -477 596 -474Q589 -470 573 -470Q554 -470 541 -483.5Q528 -497 528 -515Q528 -519 531 -528Q529 -529 526 -532Q523 -535 521 -535Q520 -535 519 -534.5Q518 -534 518 -534Q514 -534 514 -537.5Q514 -541 522.5 -547Q531 -553 535 -553Q536 -553 537 -552Q538 -551 540 -551Q541 -551 542.5 -551.5Q544 -552 545 -552Q546 -552 548 -551Q550 -550 551 -550Q552 -550 557 -552.5Q562 -555 563 -555ZM417 -299Q401 -299 394.5 -292Q388 -285 388 -268Q388 -242 397 -230Q406 -218 431 -218Q447 -218 455.5 -230Q464 -242 464 -262Q464 -279 450.5 -289Q437 -299 417 -299ZM383 -268Q383 -304 417 -304Q439 -304 454 -292.5Q469 -281 469 -262Q469 -241 459 -227Q449 -213 431 -213Q406 -213 395 -223Q383 -236 383 -268ZM252 -382Q251 -382 246 -383Q241 -384 239 -384Q238 -384 237 -383.5Q236 -383 235 -383Q235 -383 235 -381Q235 -361 237 -354Q238 -353 239.5 -345.5Q241 -338 241 -337Q243 -334 243 -332Q243 -332 244.5 -329.5Q246 -327 246 -326Q247 -318 262.5 -311.5Q278 -305 298 -305Q298 -305 299 -305Q305 -305 305 -308Q305 -311 308 -311Q315 -311 324.5 -325.5Q334 -340 334 -351Q334 -358 325 -364Q326 -363 326 -363Q326 -360 323 -360Q321 -360 319.5 -361Q318 -362 316.5 -364.5Q315 -367 314 -367.5Q313 -368 304 -370.5Q295 -373 284.5 -375.5Q274 -378 272 -378Q270 -379 266.5 -379.5Q263 -380 260.5 -380.5Q258 -381 257 -383Q256 -383 255 -384Q255 -382 252 -382ZM319 -371Q326 -371 332.5 -364.5Q339 -358 339 -351Q339 -332 322 -315Q321 -313 318 -311.5Q315 -310 314 -308Q314 -305 311 -305H310Q310 -300 298 -300Q276 -300 259.5 -307Q243 -314 241 -325Q240 -327 238.5 -328Q237 -329 237 -331Q237 -339 233.5 -353.5Q230 -368 230 -381Q230 -382 230 -382Q230 -387 232 -388Q232 -388 232 -389Q232 -393 238 -393Q242 -393 251 -389.5Q260 -386 263 -386Q266 -386 274 -383Q276 -382 293 -378Q310 -374 314 -373Q318 -371 319 -371ZM422 -245Q421 -245 419 -244Q417 -243 416 -243Q407 -244 405 -240Q403 -237 405 -235Q412 -227 435 -227Q448 -227 448 -234Q448 -241 425 -245ZM438 -267Q436 -267 434 -267Q431 -267 428.5 -267Q426 -267 424.5 -266Q423 -265 422.5 -263Q422 -261 422 -257Q422 -256 427 -255.5Q432 -255 436.5 -255.5Q441 -256 441 -257V-259Q441 -260 442 -261V-263Q442 -265 438 -267ZM400 -282Q391 -282 391 -269Q391 -262 402 -262Q413 -262 413 -268Q413 -269 413.5 -270.5Q414 -272 414 -273Q414 -277 400 -282ZM439 -291Q439 -291 422 -291Q415 -287 423 -281Q436 -272 448 -272Q450 -272 453.5 -274Q457 -276 457 -277Q457 -285 439 -291ZM416 -197Q413 -200 409 -199.5Q405 -199 398 -195.5Q391 -192 387.5 -189Q384 -186 382 -185Q394 -185 395 -182Q396 -179 404 -180.5Q412 -182 419 -186Q425 -194 421 -194Q416 -194 416 -197ZM513 -312Q508 -298 518 -294Q524 -292 528 -295.5Q532 -299 532 -306Q532 -312 523.5 -314.5Q515 -317 513 -312ZM633 -354Q632 -354 629 -352.5Q626 -351 622.5 -348.5Q619 -346 618 -346Q611 -342 616 -340Q624 -341 624 -338Q624 -335 626 -335.5Q628 -336 630.5 -337Q633 -338 635 -337Q637 -335 648 -343Q657 -350 648 -350Q644 -350 644 -352Q644 -352 641.5 -352.5Q639 -353 636 -353Q633 -353 633 -354ZM428 -387Q427 -387 425.5 -385Q424 -383 423 -381.5Q422 -380 422 -380Q421 -380 420 -377Q419 -373 423 -370Q427 -367 430 -367Q433 -367 440 -371Q447 -375 448 -378Q451 -384 442.5 -387Q434 -390 428 -387ZM257 -368Q257 -376 269 -373Q274 -371 276 -369Q277 -367 274 -366Q271 -366 266 -366Q259 -367 259 -365L252 -367L254 -368ZM272 -377L270 -378ZM275.5 -376.5Q275 -375 277 -375Q279 -375 278.5 -376.5Q278 -378 277 -378Q276 -378 275.5 -376.5ZM312 -369ZM305 -366L307 -367Q306 -368 305 -368L302 -367Q303 -367 305 -366ZM328 -363Q327 -362 329 -360Q330 -360 330 -361.5Q330 -363 328 -363ZM331 -349Q331 -346 332 -348Q333 -350 332 -351ZM326 -330V-333L325 -332Q325 -331 326 -330ZM321 -326Q324 -322 324 -325Q324 -327 323 -328Q320 -331 320 -329Q320 -328 321 -326ZM317 -320Q318 -325 318 -325L316 -313Q316 -313 318.5 -316.5Q321 -320 318.5 -318.5Q316 -317 317 -320ZM294 -423Q296 -424 298.5 -425Q301 -426 303 -427Q305 -428 306 -428Q318 -428 318 -424Q318 -417 306 -417Q289 -417 289 -420Q289 -421 294 -423ZM306 -438Q315 -435 304 -434L306 -433Q307 -432 308.5 -432.5Q310 -433 310 -430L312 -432Q314 -434 313.5 -436Q313 -438 312 -439Q301 -444 300 -442L305 -438ZM286 -441Q288 -441 298.5 -443Q309 -445 315 -444Q321 -443 324 -438Q325 -435 325.5 -431Q326 -427 326 -424.5Q326 -422 325 -422Q319 -408 316 -407Q313 -406 308 -405Q303 -404 298.5 -404.5Q294 -405 294 -406Q294 -407 292 -407Q289 -407 276 -424Q270 -433 270 -437Q271 -440 273 -440.5Q275 -441 286 -441ZM302 -481Q300 -482 294.5 -478Q289 -474 288 -474Q287 -474 284 -471.5Q281 -469 281 -468Q281 -467 288 -465.5Q295 -464 301.5 -463.5Q308 -463 309 -465Q309 -466 311 -466Q313 -466 313 -468Q313 -470 315.5 -470Q318 -470 321 -473Q323 -475 322.5 -475.5Q322 -476 319 -476Q315 -476 313 -478.5Q311 -481 308 -480Q303 -479 302 -481ZM587.5 -646Q589 -646 589 -648Q589 -650 587.5 -650Q586 -650 586 -648Q586 -646 587.5 -646ZM537 -713L535 -711Q536 -711 536.5 -711.5Q537 -712 537 -713ZM496 -729Q496 -729 499 -730.5Q502 -732 505 -733.5Q508 -735 512 -736Q516 -737 518.5 -736.5Q521 -736 522 -734Q523 -732 527 -732Q534 -732 524 -724Q518 -720 510 -719Q502 -718 501 -721Q501 -722 499.5 -722.5Q498 -723 496 -723Q486 -725 496 -729ZM204 -248L201 -260Q201 -259 201 -254L206 -236Q206 -238 204 -248ZM617 -418Q646 -418 646 -403Q646 -401 642 -392.5Q638 -384 638 -383Q638 -379 631.5 -370.5Q625 -362 621 -359Q612 -353 601 -353Q580 -353 580 -372Q580 -379 584 -390Q589 -405 596 -411.5Q603 -418 617 -418ZM641 -403Q641 -413 617 -413Q604 -413 598.5 -407.5Q593 -402 588 -388Q585 -378 585 -372Q585 -358 601 -358Q611 -358 618 -364Q622 -366 627.5 -373Q633 -380 633 -383Q633 -384 637 -393Q641 -402 641 -403ZM444 -745L455 -750Q486 -766 536 -766Q650 -766 692 -683Q734 -598 698 -452Q672 -348 616.5 -271.5Q561 -195 480 -155Q417 -123 382 -126Q327 -131 288.5 -148.5Q250 -166 236 -192Q207 -248 209 -364Q210 -421 219 -454Q228 -487 254 -532Q306 -621 372 -687Q401 -716 427 -734Q438 -742 444 -745ZM447 -506Q435 -506 413.5 -515.5Q392 -525 392 -536Q392 -542 394.5 -545.5Q397 -549 404 -550.5Q411 -552 415.5 -552Q420 -552 433 -552Q457 -552 460 -554Q464 -556 466 -556Q471 -556 474.5 -551Q478 -546 478 -539.5Q478 -533 476 -527Q476 -527 474.5 -525Q473 -523 473 -522Q473 -516 464 -511Q455 -506 447 -506ZM396 -537Q396 -529 417 -520.5Q438 -512 446 -512Q453 -512 460 -516.5Q467 -521 467 -524Q467 -525 468 -526Q469 -527 469 -527Q472 -532 472 -540Q472 -546 469 -548.5Q466 -551 462 -549Q458 -547 433 -547Q431 -547 428 -547Q418 -547 414 -547Q410 -547 405 -546Q400 -545 398 -543Q396 -541 396 -537ZM385 -595Q385 -581 369.5 -567.5Q354 -554 342 -554Q333 -554 324.5 -564.5Q316 -575 316 -585Q316 -593 331 -608.5Q346 -624 356 -624Q364 -624 374.5 -614Q385 -604 385 -595ZM380 -595Q380 -603 372 -610Q364 -617 356 -619Q349 -619 335 -605.5Q321 -592 321 -585Q321 -577 328.5 -568Q336 -559 342 -559Q352 -559 366 -571Q380 -583 380 -595ZM282 -343Q260 -343 260 -334Q260 -325 282 -325Q304 -325 304 -334Q304 -343 282 -343ZM303 -349Q317 -349 317 -356Q317 -363 303 -363Q290 -363 290 -356Q290 -349 303 -349ZM243 -349Q243 -342 247 -342Q251 -342 251 -349Q251 -357 247 -357Q243 -357 243 -349ZM391 -471Q399 -471 399 -480Q399 -489 391 -489Q384 -489 384 -480Q384 -471 391 -471ZM399 -443Q405 -443 405 -449Q405 -455 399 -455Q394 -455 394 -449Q394 -443 399 -443ZM555 -514Q555 -505 576 -505Q597 -505 597 -514Q597 -524 576 -524Q555 -524 555 -514ZM572 -540Q572 -535 584 -535Q596 -535 596 -540Q596 -546 584 -546Q572 -546 572 -540ZM600 -512Q600 -500 605 -500Q610 -500 610 -512Q610 -525 605 -525Q600 -525 600 -512ZM546 -490Q546 -481 560 -481Q575 -481 575 -490Q575 -498 560 -498Q546 -498 546 -490ZM415 -541Q407 -541 407 -536Q407 -531 415 -531Q423 -531 423 -536Q423 -541 415 -541ZM435 -533Q435 -528 440 -528Q445 -528 445 -533Q445 -537 440 -537Q435 -537 435 -533ZM459 -535Q451 -535 451 -529Q451 -523 459 -523Q467 -523 467 -529Q467 -535 459 -535ZM444 -519Q434 -519 434 -514Q434 -509 444 -509Q454 -509 454 -514Q454 -519 444 -519ZM454 -541Q454 -536 462 -536Q470 -536 470 -541Q470 -545 462 -545Q454 -545 454 -541ZM329 -585Q329 -575 337 -575Q344 -575 344 -585Q344 -596 337 -596Q329 -596 329 -585ZM356 -580Q356 -575 365 -575Q374 -575 374 -581Q374 -586 366 -586Q356 -586 356 -580ZM363 -597Q373 -597 373 -604Q373 -611 363 -611Q352 -611 352 -604Q352 -597 363 -597ZM457 -670Q457 -664 463 -664Q468 -664 468 -670Q468 -677 463 -677Q457 -677 457 -670ZM460 -656Q453 -656 453 -653Q453 -650 460 -650Q467 -650 467 -653Q467 -656 460 -656ZM478 -662Q473 -662 473 -658Q473 -654 478 -654Q483 -654 483 -658Q483 -662 478 -662ZM628 -408Q620 -408 620 -403Q620 -398 628 -398Q636 -398 636 -403Q636 -408 628 -408ZM610 -385Q610 -378 618 -378Q626 -378 626 -385Q626 -391 618 -391Q610 -391 610 -385ZM596 -383Q596 -377 599 -377Q602 -377 602 -383Q602 -388 599 -388Q596 -388 596 -383ZM609 -396Q616 -396 616 -400Q616 -404 609 -404Q603 -404 603 -400Q603 -396 609 -396ZM601 -365Q613 -365 613 -368Q613 -371 601 -371Q590 -371 590 -368Q590 -365 601 -365ZM572 -652Q576 -652 576 -655Q576 -658 572 -658Q569 -658 569 -655Q569 -652 572 -652ZM592 -648Q598 -648 598 -653Q598 -658 592 -658Q585 -658 585 -653Q585 -648 592 -648ZM517 -366Q502 -366 481 -379Q460 -392 447 -392H438Q438 -392 437 -392Q426 -392 426 -399Q426 -405 431 -417Q436 -429 436 -435Q436 -443 432 -451Q429 -456 429 -459Q429 -460 430 -461Q435 -474 460.5 -485.5Q486 -497 491 -502Q494 -505 498 -505Q502 -505 502 -501V-497Q502 -496 503 -492.5Q504 -489 504 -487Q504 -484 502 -478Q500 -472 500 -469Q500 -469 502 -467.5Q504 -466 506 -466Q533 -466 570.5 -458Q608 -450 608 -433Q608 -433 608.5 -432.5Q609 -432 609 -432Q609 -428 604 -428H599Q595 -428 570 -423Q545 -418 539 -415Q539 -405 565 -390Q578 -383 578 -379Q578 -366 517 -366ZM506 -462Q494 -461 494 -468Q494 -469 494 -469Q494 -472 496 -478Q498 -484 498 -487Q498 -489 498 -492Q498 -495 498 -497V-500Q496 -499 495 -498Q489 -493 464 -481.5Q439 -470 434 -459Q434 -458 438 -451Q442 -443 442 -435Q442 -429 436 -416.5Q430 -404 430 -399Q430 -398 438 -398H447Q461 -398 482 -384Q503 -370 517 -370Q569 -370 572 -379Q571 -381 562 -386Q534 -402 534 -416Q534 -422 562.5 -428Q591 -434 599 -434H603Q603 -447 565 -454.5Q527 -462 506 -462ZM537 -726Q561 -726 561 -716Q561 -713 557 -710.5Q553 -708 552 -707Q548 -700 533 -698Q526 -697 526 -702Q526 -702 526 -703Q526 -703 525 -705.5Q524 -708 524 -710Q524 -726 537 -726ZM529 -710Q529 -703 533 -703Q543 -703 548 -710Q549 -711 552 -713Q555 -715 556 -716Q552 -721 537 -721Q534 -721 532.5 -719.5Q531 -718 530.5 -716.5Q530 -715 529.5 -712.5Q529 -710 529 -710Z"/>
	<path fill="#f40224" d="M592 -662Q562 -662 562 -653Q562 -653 566.5 -650Q571 -647 576.5 -643.5Q582 -640 583 -639Q589 -639 597 -647Q605 -655 605 -658.5Q605 -662 592 -662ZM557 -653Q557 -667 592 -667Q610 -667 610 -659Q610 -652 600.5 -643Q591 -634 583 -634Q581 -634 578 -637Q576 -639 570.5 -641.5Q565 -644 561 -647Q557 -650 557 -653ZM484 -658Q484 -664 474 -671Q464 -678 460 -678Q459 -678 458.5 -677.5Q458 -677 457 -677Q455 -677 454 -679Q450 -678 446 -668.5Q442 -659 442 -652Q442 -647 445 -645.5Q448 -644 448 -641Q452 -637 463 -637Q470 -637 477 -644.5Q484 -652 484 -658ZM460 -683Q467 -683 478 -674.5Q489 -666 489 -658Q489 -649 480.5 -640.5Q472 -632 463 -632Q443 -632 443 -641Q443 -641 442 -642Q437 -643 437 -652Q437 -656 437.5 -659Q438 -662 439.5 -665Q441 -668 442 -671Q447 -685 456 -685Q458 -685 459 -683ZM390 -496Q374 -496 374 -479Q374 -478 376 -474Q384 -462 387 -445Q391 -420 415 -420Q420 -420 420 -424Q420 -427 417 -431Q410 -440 410 -458Q410 -462 411.5 -471Q413 -480 413 -480Q413 -486 404.5 -491Q396 -496 390 -496ZM418 -480Q418 -479 416.5 -470.5Q415 -462 415 -458Q415 -442 421 -434Q425 -429 425 -424Q425 -415 415 -415Q387 -415 382 -444Q378 -464 372 -472Q369 -473 369 -478Q369 -478 369 -479Q369 -501 390 -501Q399 -501 408.5 -494.5Q418 -488 418 -480ZM533 -515Q533 -499 544.5 -487Q556 -475 573 -475Q588 -475 594 -478Q599 -481 609.5 -497Q620 -513 620 -523Q620 -540 584 -550Q577 -552 574 -552Q573 -552 569.5 -551Q566 -550 564 -550Q562 -550 557.5 -547.5Q553 -545 551 -545Q550 -545 548.5 -546Q547 -547 545 -547Q544 -547 542.5 -546.5Q541 -546 540 -546Q539 -546 536 -547.5Q533 -549 532 -547Q531 -545 522 -540Q524 -540 527.5 -536.5Q531 -533 532 -533Q534 -533 535 -532Q536 -531 536 -530Q536 -528 534.5 -523Q533 -518 533 -515ZM563 -555Q565 -555 569 -556Q573 -557 574 -557Q586 -557 600 -550Q614 -543 619 -537Q625 -531 625 -523Q625 -511 614 -494Q603 -477 596 -474Q589 -470 573 -470Q554 -470 541 -483.5Q528 -497 528 -515Q528 -519 531 -528Q529 -529 526 -532Q523 -535 521 -535Q520 -535 519 -534.5Q518 -534 518 -534Q514 -534 514 -537.5Q514 -541 522.5 -547Q531 -553 535 -553Q536 -553 537 -552Q538 -551 540 -551Q541 -551 542.5 -551.5Q544 -552 545 -552Q546 -552 548 -551Q550 -550 551 -550Q552 -550 557 -552.5Q562 -555 563 -555ZM417 -299Q401 -299 394.5 -292Q388 -285 388 -268Q388 -242 397 -230Q406 -218 431 -218Q447 -218 455.5 -230Q464 -242 464 -262Q464 -279 450.5 -289Q437 -299 417 -299ZM383 -268Q383 -304 417 -304Q439 -304 454 -292.5Q469 -281 469 -262Q469 -241 459 -227Q449 -213 431 -213Q406 -213 395 -223Q383 -236 383 -268ZM252 -382Q251 -382 246 -383Q241 -384 239 -384Q238 -384 237 -383.5Q236 -383 235 -383Q235 -383 235 -381Q235 -361 237 -354Q238 -353 239.5 -345.5Q241 -338 241 -337Q243 -334 243 -332Q243 -332 244.5 -329.5Q246 -327 246 -326Q247 -318 262.5 -311.5Q278 -305 298 -305Q298 -305 299 -305Q305 -305 305 -308Q305 -311 308 -311Q315 -311 324.5 -325.5Q334 -340 334 -351Q334 -358 325 -364Q326 -363 326 -363Q326 -360 323 -360Q321 -360 319.5 -361Q318 -362 316.5 -364.5Q315 -367 314 -367.5Q313 -368 304 -370.5Q295 -373 284.5 -375.5Q274 -378 272 -378Q270 -379 266.5 -379.5Q263 -380 260.5 -380.5Q258 -381 257 -383Q256 -383 255 -384Q255 -382 252 -382ZM319 -371Q326 -371 332.5 -364.5Q339 -358 339 -351Q339 -332 322 -315Q321 -313 318 -311.5Q315 -310 314 -308Q314 -305 311 -305H310Q310 -300 298 -300Q276 -300 259.5 -307Q243 -314 241 -325Q240 -327 238.5 -328Q237 -329 237 -331Q237 -339 233.5 -353.5Q230 -368 230 -381Q230 -382 230 -382Q230 -387 232 -388Q232 -388 232 -389Q232 -393 238 -393Q242 -393 251 -389.5Q260 -386 263 -386Q266 -386 274 -383Q276 -382 293 -378Q310 -374 314 -373Q318 -371 319 -371ZM286 -441Q288 -441 298.5 -443Q309 -445 315 -444Q321 -443 324 -438Q325 -435 325.5 -431Q326 -427 326 -424.5Q326 -422 325 -422Q319 -408 316 -407Q313 -406 308 -405Q303 -404 298.5 -404.5Q294 -405 294 -406Q294 -407 292 -407Q289 -407 276 -424Q270 -433 270 -437Q271 -440 273 -440.5Q275 -441 286 -441ZM617 -418Q646 -418 646 -403Q646 -401 642 -392.5Q638 -384 638 -383Q638 -379 631.5 -370.5Q625 -362 621 -359Q612 -353 601 -353Q580 -353 580 -372Q580 -379 584 -390Q589 -405 596 -411.5Q603 -418 617 -418ZM641 -403Q641 -413 617 -413Q604 -413 598.5 -407.5Q593 -402 588 -388Q585 -378 585 -372Q585 -358 601 -358Q611 -358 618 -364Q622 -366 627.5 -373Q633 -380 633 -383Q633 -384 637 -393Q641 -402 641 -403ZM509 -776Q540 -779 576 -773.5Q612 -768 635 -756Q687 -730 709.5 -673Q732 -616 727 -547.5Q722 -479 696 -401Q663 -304 601 -234Q586 -216 560.5 -194.5Q535 -173 530 -173Q527 -173 527 -171Q525 -166 499 -152Q473 -138 450 -130Q416 -117 387 -116Q379 -116 368 -114Q357 -112 353 -113L264 -138V-144L223 -191L222 -199L193 -286Q192 -329 191.5 -336.5Q191 -344 188.5 -344.5Q186 -345 185.5 -349Q185 -353 184 -374Q183 -403 186 -405Q187 -406 192 -408Q197 -410 198.5 -412.5Q200 -415 198 -421Q198 -424 199.5 -426.5Q201 -429 201 -431Q201 -437 206.5 -460Q212 -483 218 -486Q220 -487 221 -493Q222 -499 223 -501Q226 -507 222 -507Q238 -547 240 -547Q249 -547 252 -551L287 -601L331 -673Q384 -719 386 -721Q396 -741 427 -745Q428 -745 431 -745Q434 -744 435 -745Q436 -748 444 -752L477 -768Q480 -769 482.5 -769Q485 -769 486 -769Q487 -769 487 -770Q487 -774 509 -776ZM444 -745Q438 -742 427 -734Q401 -716 372 -687Q306 -621 254 -532Q228 -487 219 -454Q210 -421 209 -364Q207 -248 236 -192Q250 -166 288.5 -148.5Q327 -131 382 -126Q417 -123 480 -155Q561 -195 616.5 -271.5Q672 -348 698 -452Q734 -598 692 -683Q650 -766 536 -766Q486 -766 455 -750ZM447 -506Q435 -506 413.5 -515.5Q392 -525 392 -536Q392 -542 394.5 -545.5Q397 -549 404 -550.5Q411 -552 415.5 -552Q420 -552 433 -552Q457 -552 460 -554Q464 -556 466 -556Q471 -556 474.5 -551Q478 -546 478 -539.5Q478 -533 476 -527Q476 -527 474.5 -525Q473 -523 473 -522Q473 -516 464 -511Q455 -506 447 -506ZM397 -536Q397 -528 418 -519.5Q439 -511 447 -511Q454 -511 461 -515.5Q468 -520 468 -523Q468 -524 469 -525Q470 -526 470 -526Q473 -531 473 -539Q473 -546 469.5 -548.5Q466 -551 462 -549Q458 -547 433 -547Q431 -547 428 -547Q419 -547 414.5 -547Q410 -547 405 -546Q400 -545 398.5 -542.5Q397 -540 397 -536ZM385 -595Q385 -581 369.5 -567.5Q354 -554 342 -554Q333 -554 324.5 -564.5Q316 -575 316 -585Q316 -593 331 -608.5Q346 -624 356 -624Q364 -624 374.5 -614Q385 -604 385 -595ZM380 -595Q380 -603 372 -610Q364 -617 356 -619Q349 -619 335 -605.5Q321 -592 321 -585Q321 -577 328.5 -568Q336 -559 342 -559Q352 -559 366 -571Q380 -583 380 -595ZM517 -366Q502 -366 481 -379Q460 -392 447 -392H438Q438 -392 437 -392Q434 -392 432 -392.5Q430 -393 428 -394.5Q426 -396 426 -399Q426 -405 431 -417Q436 -429 436 -435Q436 -443 432 -451Q429 -456 429 -459Q429 -460 430 -461Q435 -474 460.5 -485.5Q486 -497 491 -502Q494 -505 498 -505Q502 -505 502 -501V-497Q502 -496 503 -492.5Q504 -489 504 -487Q504 -484 502 -478Q500 -472 500 -469Q500 -469 502 -467.5Q504 -466 506 -466Q533 -466 570.5 -458Q608 -450 608 -433Q608 -433 608.5 -432.5Q609 -432 609 -432Q609 -428 604 -428H599Q595 -428 570 -423Q545 -418 539 -415Q539 -405 565 -390Q578 -383 578 -379Q578 -366 517 -366ZM506 -462Q494 -461 494 -468Q494 -469 494 -469Q494 -472 496 -478Q498 -484 498 -487Q498 -489 498 -492Q498 -495 498 -497V-500Q496 -499 495 -498Q489 -493 464 -481.5Q439 -470 434 -459Q434 -458 438 -451Q442 -443 442 -435Q442 -429 436 -416.5Q430 -404 430 -399Q430 -398 438 -398H447Q461 -398 482 -384Q503 -370 517 -370Q569 -370 572 -379Q571 -381 562 -386Q534 -402 534 -416Q534 -422 562.5 -428Q591 -434 599 -434H603Q603 -447 565 -454.5Q527 -462 506 -462ZM537 -726Q561 -726 561 -716Q561 -713 557 -710.5Q553 -708 552 -707Q548 -700 533 -698Q526 -697 526 -702Q526 -702 526 -703Q526 -703 525 -705.5Q524 -708 524 -710Q524 -726 537 -726ZM529 -710Q529 -703 533 -703Q543 -703 548 -710Q549 -711 552 -713Q555 -715 556 -716Q552 -721 537 -721Q534 -721 532.5 -719.5Q531 -718 530.5 -716.5Q530 -715 529.5 -712.5Q529 -710 529 -710Z"/>
</svg>