<svg xmlns="http://www.w3.org/2000/svg" viewBox="0 -1024 1024 1024">
	<path fill="#000000" d="M309 214Q228 206 228 195Q228 184 309 176Q390 168 504 168Q618 168 699 176Q780 184 780 195Q780 206 699 214Q618 222 504 222Q390 222 309 214ZM502 -41Z"/>
	<path fill="#00ff00" d="M76 -272L98 -266Q120 -259 161.5 -248.5Q203 -238 253 -228Q303 -218 369 -211.5Q435 -205 496 -206Q568 -208 629 -220.5Q690 -233 724 -247Q758 -261 798.5 -276Q839 -291 870 -296Q865 -283 855 -261.5Q845 -240 809.5 -185.5Q774 -131 734 -89Q694 -47 629.5 -12.5Q565 22 496 22Q414 22 337 -12Q260 -46 208 -96Q156 -146 122 -192Q88 -238 76 -272Z"/>
	<path fill="#e3ab45" d="M454 -291Q454 -293 451.5 -295Q449 -297 446.5 -296.5Q444 -296 442 -297L440 -294Q439 -292 438 -286.5Q437 -281 438 -277Q439 -273 445.5 -270Q452 -267 463 -267Q465 -267 470 -266.5Q475 -266 477.5 -266Q480 -266 482 -268.5Q484 -271 484 -276Q484 -280 491.5 -289Q499 -298 494 -298H473L450 -300ZM276 -376Q272 -375 271.5 -371.5Q271 -368 272.5 -361.5Q274 -355 274 -353Q274 -336 281 -329.5Q288 -323 307 -323Q316 -323 316 -335Q316 -350 311.5 -355Q307 -360 297.5 -362.5Q288 -365 283 -371ZM189 -409Q215 -431 246 -438.5Q277 -446 301 -428Q311 -418 344 -429.5Q377 -441 388 -440Q404 -439 442.5 -447Q481 -455 502 -452Q522 -453 555 -442.5Q588 -432 604 -431Q613 -430 633 -424.5Q653 -419 664 -419Q671 -419 683.5 -419Q696 -419 703 -416Q726 -407 748 -407Q765 -411 790 -386Q811 -365 811 -353Q811 -341 795.5 -330.5Q780 -320 769 -320H748Q726 -316 703.5 -301Q681 -286 665.5 -271.5Q650 -257 625.5 -249Q601 -241 574 -248Q548 -248 506.5 -241Q465 -234 441 -231.5Q417 -229 376 -236Q350 -237 320 -247Q290 -257 275 -264.5Q260 -272 226 -290Q221 -293 205 -300.5Q189 -308 177.5 -314Q166 -320 152.5 -328.5Q139 -337 131.5 -346.5Q124 -356 124 -365Q124 -374 131.5 -377.5Q139 -381 152 -382.5Q165 -384 169 -386Z"/>
	<path fill="#ff0000" d="M728 -609L737 -612H743Q748 -612 754.5 -607Q761 -602 761 -597Q761 -561 734 -510Q728 -499 722 -476.5Q716 -454 710 -444Q704 -432 694.5 -406.5Q685 -381 675 -362.5Q665 -344 650 -330Q647 -327 640.5 -320.5Q634 -314 630 -310.5Q626 -307 620 -303.5Q614 -300 608 -300H569Q560 -302 539 -303Q518 -304 502.5 -306.5Q487 -309 471 -313.5Q455 -318 447.5 -330Q440 -342 443 -360Q439 -409 475 -439Q511 -469 563 -471Q573 -474 599 -479Q625 -484 639.5 -488.5Q654 -493 673 -501.5Q692 -510 703.5 -525Q715 -540 719 -561Q720 -566 723.5 -575.5Q727 -585 728.5 -593Q730 -601 728 -609ZM574 -245Q548 -245 497 -236.5Q446 -228 420 -228Q396 -228 376 -234Q349 -235 319 -245Q289 -255 273.5 -262.5Q258 -270 225 -288Q220 -290 206 -297Q187 -306 178 -311Q169 -316 152.5 -325.5Q136 -335 129 -345Q122 -355 122 -365Q122 -375 129.5 -379Q137 -383 150 -384.5Q163 -386 167 -388L187 -411Q226 -443 266 -443Q289 -443 303 -430Q307 -425 315 -425Q324 -425 347 -433Q373 -443 385 -443Q387 -443 390 -442.5Q393 -442 394 -442Q409 -442 440.5 -448.5Q472 -455 488 -455Q495 -455 502 -455Q504 -455 505 -455Q524 -455 556.5 -445Q589 -435 604 -433Q613 -433 633 -427.5Q653 -422 664 -422Q665 -422 668 -421.5Q671 -421 672 -421Q674 -421 678.5 -421Q683 -421 685 -421Q697 -421 704 -418Q726 -410 748 -410Q752 -410 755 -410Q760 -410 764.5 -408.5Q769 -407 774 -403.5Q779 -400 781.5 -397.5Q784 -395 789.5 -390Q795 -385 796 -383Q814 -366 814 -353Q814 -340 797.5 -329Q781 -318 769 -318H748Q721 -313 680 -280Q664 -267 655.5 -261Q647 -255 631 -248.5Q615 -242 599 -242Q587 -242 574 -245ZM685 -416Q683 -416 678.5 -416Q674 -416 672 -416Q654 -416 630 -423Q612 -428 604 -429Q588 -430 556 -440Q524 -450 505 -450Q504 -450 502 -450Q495 -450 488 -450Q472 -450 440.5 -443.5Q409 -437 394 -437Q393 -437 390 -437.5Q387 -438 385 -438Q375 -438 350.5 -429Q326 -420 315 -420Q305 -420 299 -426Q287 -438 266 -438Q228 -438 191 -407L171 -384Q171 -384 170 -384Q165 -382 153 -380Q141 -378 133.5 -375Q126 -372 126 -365Q126 -340 208 -302Q222 -295 233 -289Q263 -273 279.5 -265Q296 -257 324 -248.5Q352 -240 376 -238H377Q397 -233 420 -233Q446 -233 497 -241.5Q548 -250 574 -250Q574 -250 575 -250Q587 -247 599 -247Q620 -247 637 -256Q654 -265 677 -284Q719 -317 748 -322H769Q779 -322 793.5 -332.5Q808 -343 808 -353Q808 -357 807 -360.5Q806 -364 803.5 -368Q801 -372 799 -374Q797 -376 792.5 -380Q788 -384 787 -386Q768 -405 755 -405Q754 -405 751.5 -404.5Q749 -404 748 -404Q725 -404 702 -414Q696 -416 685 -416Z"/>
</svg>