<svg xmlns="http://www.w3.org/2000/svg" viewBox="0 -1024 1024 1024">
	<path fill="#000000" d="M528 -62Q608 -61 666 -57Q724 -53 724 -46Q724 -39 666 -35Q608 -31 528 -30Q448 -31 390 -35Q332 -39 332 -46Q332 -53 390 -57Q448 -61 528 -62Z"/>
	<path fill="#60a04c" d="M358 -451Q330 -479 330 -519Q330 -559 358 -587Q386 -615 426 -615Q466 -615 494 -587Q522 -559 522 -519Q522 -479 494 -451Q466 -423 426 -423Q386 -423 358 -451ZM556 -441Q528 -469 528 -509Q528 -549 556 -577Q584 -605 624 -605Q664 -605 692 -577Q720 -549 720 -509Q720 -469 692 -441Q664 -413 624 -413Q584 -413 556 -441ZM672 -274Q644 -302 644 -342Q644 -382 672 -410Q700 -438 740 -438Q780 -438 808 -410Q836 -382 836 -342Q836 -302 808 -274Q780 -246 740 -246Q700 -246 672 -274ZM469 -260Q441 -288 441 -328Q441 -368 469 -396Q497 -424 537 -424Q577 -424 605 -396Q633 -368 633 -328Q633 -288 605 -260Q577 -232 537 -232Q497 -232 469 -260ZM273 -274Q245 -302 245 -342Q245 -382 273 -410Q301 -438 341 -438Q381 -438 409 -410Q437 -382 437 -342Q437 -302 409 -274Q381 -246 341 -246Q301 -246 273 -274ZM790 -277Q790 -202 709 -149Q628 -96 514 -96Q399 -96 309.5 -150.5Q220 -205 220 -279Q220 -257 303.5 -242Q387 -227 505 -227Q624 -227 707 -241.5Q790 -256 790 -277Z"/>
	<path fill="#fdb70d" d="M420 -556Q420 -566 405.5 -566Q391 -566 390.5 -556Q390 -546 405 -546Q420 -546 420 -556ZM685 -552Q685 -560 675 -560Q665 -560 665 -552Q665 -544 675 -544Q685 -544 685 -552ZM731 -360Q731 -350 741 -350Q751 -350 751 -360Q751 -370 741 -370Q731 -370 731 -360ZM731 -350ZM499 -370Q499 -360 509 -360Q519 -360 519 -370Q519 -380 509 -380Q499 -380 499 -370ZM499 -360ZM362 -378Q362 -378 364 -378Q379 -378 379 -374Q379 -370 364 -371H362Q347 -370 347 -374Q347 -378 362 -378ZM358 -451Q330 -479 330 -519Q330 -559 358 -587Q386 -615 426 -615Q466 -615 494 -587Q522 -559 522 -519Q522 -479 494 -451Q466 -423 426 -423Q386 -423 358 -451ZM556 -441Q528 -469 528 -509Q528 -549 556 -577Q584 -605 624 -605Q664 -605 692 -577Q720 -549 720 -509Q720 -469 692 -441Q664 -413 624 -413Q584 -413 556 -441ZM672 -274Q644 -302 644 -342Q644 -382 672 -410Q700 -438 740 -438Q780 -438 808 -410Q836 -382 836 -342Q836 -302 808 -274Q780 -246 740 -246Q700 -246 672 -274ZM469 -260Q441 -288 441 -328Q441 -368 469 -396Q497 -424 537 -424Q577 -424 605 -396Q633 -368 633 -328Q633 -288 605 -260Q577 -232 537 -232Q497 -232 469 -260ZM273 -410Q245 -382 245 -342Q245 -302 273 -274Q301 -246 341 -246Q381 -246 409 -274Q437 -302 437 -342Q437 -382 409 -410Q381 -438 341 -438Q301 -438 273 -410Z"/>
	<path fill="#f40224" d="M673 -374Q659 -374 659 -388Q659 -402 673 -402Q687 -402 687 -388Q687 -374 673 -374ZM481 -264Q465 -264 465 -276Q465 -288 481 -288Q497 -288 497 -276Q497 -264 481 -264ZM423 -582Q423 -595 449 -595Q475 -595 475 -582Q475 -568 449 -568Q423 -568 423 -582ZM275 -408.5Q248 -381 248 -342Q248 -303 275 -275.5Q302 -248 341 -248Q380 -248 407 -275.5Q434 -303 434 -342Q434 -381 407 -408.5Q380 -436 341 -436Q302 -436 275 -408.5ZM341 -440Q359 -440 376 -434Q354 -447 341 -469.5Q328 -492 328 -519Q328 -560 356.5 -589Q385 -618 426 -618Q467 -618 495.5 -589Q524 -560 524 -519Q524 -478 495.5 -449Q467 -420 426 -420Q408 -420 391 -427Q413 -414 426 -391.5Q439 -369 439 -342Q445 -378 472.5 -402Q500 -426 537 -426Q578 -426 607 -397.5Q636 -369 636 -328Q636 -287 607 -258.5Q578 -230 537 -230Q496 -230 467.5 -258.5Q439 -287 439 -328Q433 -292 405.5 -268Q378 -244 341 -244Q300 -244 271 -272.5Q242 -301 242 -342Q242 -383 271 -411.5Q300 -440 341 -440ZM471 -394.5Q444 -367 444 -328Q444 -289 471 -261.5Q498 -234 537 -234Q576 -234 603 -261.5Q630 -289 630 -328Q630 -367 603 -394.5Q576 -422 537 -422Q498 -422 471 -394.5ZM673.5 -408.5Q646 -381 646 -342Q646 -303 673.5 -275.5Q701 -248 740 -248Q779 -248 806.5 -275.5Q834 -303 834 -342Q834 -381 806.5 -408.5Q779 -436 740 -436Q701 -436 673.5 -408.5ZM670.5 -272.5Q642 -301 642 -342Q642 -383 670.5 -411.5Q699 -440 740 -440Q781 -440 809.5 -411.5Q838 -383 838 -342Q838 -301 809.5 -272.5Q781 -244 740 -244Q699 -244 670.5 -272.5ZM557.5 -575Q530 -548 530 -509Q530 -470 557.5 -443Q585 -416 624 -416Q663 -416 690.5 -443Q718 -470 718 -509Q718 -548 690.5 -575Q663 -602 624 -602Q585 -602 557.5 -575ZM554.5 -439Q526 -468 526 -509Q526 -550 554.5 -579Q583 -608 624 -608Q665 -608 693.5 -579Q722 -550 722 -509Q722 -468 693.5 -439Q665 -410 624 -410Q583 -410 554.5 -439ZM359.5 -585Q332 -558 332 -519Q332 -480 359.5 -453Q387 -426 426 -426Q465 -426 492.5 -453Q520 -480 520 -519Q520 -558 492.5 -585Q465 -612 426 -612Q387 -612 359.5 -585Z"/>
</svg>