<svg xmlns="http://www.w3.org/2000/svg" viewBox="0 -1024 1024 1024">
	<path fill="#000000" d="M228 -451L29 -765H181L305 -594L429 -765H581L381 -450H380V-1H228Z"/>
	<path fill="#60a04c" d="M234 -90L94 -153H246L338 -119L494 -153H646L387 -90H386L301 0H149Z"/>
	<path fill="#fdb70d" d="M193 -451L-6 -765H146L270 -594L394 -765H546L346 -450H345V-1H193Z"/>
	<path fill="#f40224" d="M358 -1Q358 6 350 6H198Q190 6 190 -1V-449L-7 -761Q-8 -762 -8 -765Q-8 -772 -1 -772H151Q156 -772 157 -769L275 -607L393 -769Q394 -772 399 -772H551Q558 -772 558 -765Q558 -762 557 -761L358 -446ZM206 -451V-8H342V-450Q342 -454 346 -456L537 -758H403L281 -590Q279 -586 275 -586Q271 -586 269 -590L147 -758H13L204 -455Q206 -453 206 -451Z"/>
</svg>