<svg xmlns="http://www.w3.org/2000/svg" viewBox="0 -1024 1024 1024">
	<path fill="#000000" d="M772 -380Q772 -273 731.5 -182Q691 -91 621 -38.5Q551 14 467.5 14Q384 14 313.5 -38.5Q243 -91 202.5 -182Q162 -273 162 -380Q162 -487 202.5 -577.5Q243 -668 313.5 -720.5Q384 -773 467.5 -773Q551 -773 621 -720.5Q691 -668 731.5 -577.5Q772 -487 772 -380ZM650 -378Q650 -475 597 -543.5Q544 -612 467.5 -612Q391 -612 337.5 -543.5Q284 -475 284 -378Q284 -280 337.5 -211.5Q391 -143 467.5 -143Q544 -143 597 -211.5Q650 -280 650 -378Z"/>
	<path fill="#60a04c" d="M765 -76Q745 -55 687.5 -36.5Q630 -18 549.5 -7.5Q469 3 385.5 3Q302 3 242 -7.5Q182 -18 158 -36.5Q134 -55 154 -76Q174 -97 232 -115.5Q290 -134 371 -144.5Q452 -155 535 -155Q618 -155 678 -144.5Q738 -134 761.5 -115.5Q785 -97 765 -76ZM643 -76Q661 -95 620.5 -108.5Q580 -122 504 -122Q428 -122 361 -108.5Q294 -95 276 -76Q257 -56 298 -42.5Q339 -29 415.5 -29Q492 -29 558 -42.5Q624 -56 643 -76Z"/>
	<path fill="#fdb70d" d="M738 -380Q738 -273 697 -182Q656 -91 586 -38.5Q516 14 432.5 14Q349 14 278.5 -38.5Q208 -91 167 -182Q126 -273 126 -380Q126 -487 167 -577.5Q208 -668 278.5 -720.5Q349 -773 432.5 -773Q516 -773 586 -720.5Q656 -668 697 -577.5Q738 -487 738 -380ZM616 -378Q616 -475 562.5 -543.5Q509 -612 432.5 -612Q356 -612 302 -543.5Q248 -475 248 -378Q248 -280 302 -211.5Q356 -143 432.5 -143Q509 -143 562.5 -211.5Q616 -280 616 -378Z"/>
	<path fill="#f40224" d="M750 -380Q750 -275 708 -179Q668 -87 595 -32Q523 22 438 22Q351 22 279 -32Q206 -87 166 -179Q124 -275 124 -380Q124 -486 166 -581Q207 -673 279 -727Q350 -780 438 -780Q524 -780 595 -727Q667 -673 708 -581Q750 -486 750 -380ZM734 -380Q734 -489 695 -574Q653 -665 587 -714Q518 -766 438 -766Q358 -766 288 -714Q220 -664 179 -574Q140 -489 140 -380Q140 -272 179 -185Q219 -96 288 -45Q357 6 438 6Q520 6 587 -45Q654 -95 695 -185Q734 -272 734 -380ZM628 -378Q628 -279 573 -207Q519 -136 438 -136Q358 -136 302 -207Q246 -278 246 -378Q246 -477 302 -548Q359 -620 438 -620Q518 -620 573 -548Q628 -476 628 -378ZM612 -378Q612 -473 561 -539Q511 -604 438 -604Q365 -604 313 -539Q262 -475 262 -378Q262 -280 313 -216Q366 -150 438 -150Q510 -150 561 -216Q612 -282 612 -378Z"/>
</svg>