<svg xmlns="http://www.w3.org/2000/svg" viewBox="0 -1024 1024 1024">
	<path fill="#000000" d="M565 0L476 -228V-227H276L217 0H65L265 -769H417L717 0ZM422 -367L356 -535L312 -367Z"/>
	<path fill="#00ff00" d="M506 0L460 -46V-45H260L158 0H6L350 -154H502L658 0ZM432 -73L397 -107L322 -73Z"/>
	<path fill="#ffff00" d="M550 0L461 -228V-227H261L202 0H50L250 -769H402L702 0ZM407 -367L341 -535L297 -367Z"/>
	<path fill="#ff0000" d="M207 8H55Q48 8 48 0Q48 0 48 -2L248 -771Q250 -776 255 -776H407Q413 -776 414 -772L714 -3Q714 -3 714 0Q714 8 707 8H555Q550 8 548 3L461 -220H272L214 2Q212 8 207 8ZM466 -236Q471 -236 473 -231L560 -8H696L402 -762H261L65 -8H201L259 -229Q261 -234 266 -234H462Q464 -236 466 -236ZM412 -360H302Q294 -360 294 -367Q294 -368 294.5 -368Q295 -368 295 -369L339 -537Q341 -542 346 -542Q352 -542 353 -538L419 -370L420 -369Q420 -368 420 -367Q420 -360 412 -360ZM312 -374H401L347 -511Z"/>
</svg>