<svg xmlns="http://www.w3.org/2000/svg" viewBox="0 -1024 1024 1024">
	<path fill="#000000" d="M404 -810L401 -691Q383 -690 318.5 -655Q254 -620 239 -605Q205 -571 208 -521L231 -498Q278 -518 330 -518Q343 -518 356 -517V-373L467 -262Q580 -354 584 -355V-202Q581 -202 551 -178L615 -114L497 4L421 -73Q334 -3 330 -3Q223 -3 147.5 -78Q72 -153 72 -260Q72 -330 107 -390L91 -406Q71 -442 66 -480Q61 -518 71 -558.5Q81 -599 94.5 -633Q108 -667 132 -712Q145 -736 205.5 -764Q266 -792 327 -806Q388 -820 404 -810ZM337 -158L224 -272Q223 -266 223 -260Q223 -216 254 -185Q285 -154 330 -154Q331 -154 337 -158Z"/>
	<path fill="#00ff00" d="M495 -162L469 -138Q451 -138 380 -131Q309 -124 291 -121Q250 -114 244 -104L263 -100Q314 -104 366 -104Q379 -104 392 -103L365 -75L454 -52Q585 -70 589 -71L560 -40Q557 -40 523 -36L575 -23L435 1L373 -15Q273 -1 269 -1Q162 -1 100.5 -16Q39 -31 59 -52Q72 -66 118 -78L105 -81Q92 -88 94.5 -96Q97 -104 114.5 -112Q132 -120 152 -126.5Q172 -133 204 -142Q221 -147 287 -152.5Q353 -158 417 -161Q481 -164 495 -162ZM305 -32L212 -54Q211 -53 210 -52Q202 -43 227 -37Q252 -31 297 -31Q298 -31 305 -32Z"/>
	<path fill="#ffff00" d="M389 -810L386 -691Q368 -690 303.5 -655Q239 -620 224 -605Q190 -571 193 -521L216 -498Q263 -518 315 -518Q328 -518 341 -517V-373L452 -262Q565 -354 569 -355V-202Q566 -202 536 -178L600 -114L482 4L406 -73Q319 -3 315 -3Q208 -3 132.5 -78Q57 -153 57 -260Q57 -330 92 -390L76 -406Q56 -442 51 -480Q46 -518 56 -558.5Q66 -599 79.5 -633Q93 -667 117 -712Q130 -736 190.5 -764Q251 -792 312 -806Q373 -820 389 -810ZM322 -158L209 -272Q208 -266 208 -260Q208 -216 239 -185Q270 -154 315 -154Q316 -154 322 -158Z"/>
	<path fill="#ff0000" d="M205 -529Q205 -529 205 -524L223 -507Q272 -526 320 -526Q329 -526 347 -524Q354 -524 354 -517V-376L458 -272Q526 -328 544 -342Q560 -355 568 -360Q570 -362 574 -362Q582 -362 582 -355V-202Q582 -197 576 -195Q574 -194 552 -177L610 -119Q612 -117 612 -114Q612 -111 610 -109L492 9Q489 12 487 12Q485 12 482 9L410 -63Q400 -55 344 -11Q329 1 325 3Q324 4 320 4Q211 4 132 -73Q54 -150 54 -260Q54 -327 88 -389L76 -401Q74 -401 74 -402Q54 -438 49 -479Q47 -497 47 -506Q47 -533 54 -560Q65 -603 78 -636Q94 -676 115 -716Q128 -742 192 -771Q254 -800 315 -813Q351 -822 373 -822Q389 -822 398 -816Q402 -814 402 -810L398 -691Q398 -684 391 -684Q379 -684 312 -648Q248 -614 234 -600Q205 -571 205 -529ZM373 -807Q356 -807 319 -799Q266 -787 199 -757Q140 -729 129 -708Q103 -659 91 -630Q80 -603 68 -557Q62 -532 62 -506Q62 -489 63 -481Q67 -446 87 -411L102 -395Q104 -393 104 -390Q104 -387 103 -386Q70 -330 70 -260Q70 -156 143 -83Q217 -11 318 -11Q330 -18 406 -79Q407 -80 411 -80Q414 -80 416 -78L487 -7L594 -114L536 -173Q534 -175 534 -178Q534 -183 536 -184Q563 -205 566 -207V-340Q558 -334 462 -256Q460 -254 457 -254Q455 -254 452 -257L341 -368Q338 -371 338 -373V-510H320Q268 -510 224 -491L223 -490Q222 -490 221 -490Q219 -490 216 -493L193 -516Q190 -519 190 -529Q190 -576 224 -610Q243 -629 305 -662Q362 -693 384 -697L386 -805Q380 -807 373 -807ZM206 -260Q206 -280 214 -280Q216 -280 219 -277L332 -163Q334 -161 334 -158Q334 -154 325 -148Q323 -146 320 -146Q273 -146 239 -180Q206 -213 206 -260ZM221 -255Q223 -216 249 -190Q274 -165 313 -162Z"/>
</svg>