<svg xmlns="http://www.w3.org/2000/svg" viewBox="0 -1024 1024 1024">
	<path fill="#000000" d="M136 -283L279 -617H280H431H432L538 -283H386L344 -497L288 -283Z"/>
	<path fill="#00ff00" d="M123 -57L328 -123H329H480H481L525 -57H373L370 -99L275 -57Z"/>
	<path fill="#ffff00" d="M121 -283L264 -617H265H416H417L523 -283H371L329 -497L273 -283Z"/>
	<path fill="#ff0000" d="M269 -624H422Q427 -624 429 -619L535 -285Q535 -284 535.5 -284Q536 -284 536 -283Q536 -276 528 -276H376Q371 -276 369 -282L333 -463L285 -281Q283 -276 278 -276H126Q118 -276 118 -283Q118 -284 118 -284L119 -286L262 -620Q263 -624 269 -624ZM341 -498L382 -290H518L417 -610H274L137 -290H272L327 -499Q329 -504 334 -504Q339 -504 341 -498Z"/>
</svg>