<svg xmlns="http://www.w3.org/2000/svg" viewBox="0 -1024 1024 1024">
	<path fill="#000000" d="M599 -496V-344H510L573 -281L466 -174L403 -237V-149H251V-237L188 -174L81 -281L144 -344H55V-496H144L81 -559L188 -666L251 -603V-692H403V-603L466 -666L573 -559L510 -496Z"/>
	<path fill="#00ff00" d="M630 -99L619 -69H530L588 -56L474 -35L415 -47L409 -30H257L263 -47L196 -35L96 -56L164 -69H75L86 -99H175L117 -112L231 -133L290 -121L296 -138H448L442 -121L509 -133L609 -112L541 -99Z"/>
	<path fill="#ffff00" d="M594 -496V-344H505L568 -281L461 -174L398 -237V-149H246V-237L183 -174L76 -281L139 -344H50V-496H139L76 -559L183 -666L246 -603V-692H398V-603L461 -666L568 -559L505 -496Z"/>
	<path fill="#ff0000" d="M606 -496V-344Q606 -336 599 -336H528L578 -286Q580 -284 580 -281Q580 -278 578 -276L471 -169Q469 -166 466 -166Q463 -166 461 -169L410 -219V-149Q410 -142 403 -142H251Q244 -142 244 -149V-219L193 -169Q191 -166 188 -166Q185 -166 183 -169L76 -276Q74 -278 74 -281Q74 -284 76 -286L126 -336H55Q48 -336 48 -344V-496Q48 -504 55 -504H126L76 -554Q74 -556 74 -559Q74 -562 76 -564L183 -671Q185 -674 188 -674Q191 -674 193 -671L244 -621V-692Q244 -700 251 -700H403Q410 -700 410 -692V-621L461 -671Q463 -674 466 -674Q469 -674 471 -671L578 -564Q580 -562 580 -559Q580 -556 578 -554L528 -504H599Q606 -504 606 -496ZM592 -352V-488H510Q502 -488 502 -496Q502 -499 505 -501L562 -559L466 -655L408 -598Q406 -596 403 -596Q396 -596 396 -603V-684H258V-603Q258 -596 251 -596Q248 -596 246 -598L188 -655L92 -559L149 -501Q152 -499 152 -496Q152 -488 144 -488H62V-352H144Q152 -352 152 -344Q152 -341 149 -339L92 -281L188 -185L246 -242Q248 -244 251 -244Q258 -244 258 -237V-156H396V-237Q396 -244 403 -244Q406 -244 408 -242L466 -185L562 -281L505 -339Q502 -341 502 -344Q502 -352 510 -352Z"/>
</svg>