<svg xmlns="http://www.w3.org/2000/svg" viewBox="0 -1024 1024 1024">
	<path fill="#000000" d="M207 -780Q213 -780 225 -780Q332 -780 407.5 -704.5Q483 -629 483 -522Q483 -499 469 -477Q455 -455 430.5 -429Q406 -403 400 -396Q402 -394 432.5 -362Q463 -330 476 -307.5Q489 -285 489 -260Q489 -153 413.5 -78Q338 -3 231 -3Q215 -3 207 -4H55V-780ZM207 -136Q219 -133 231 -133Q276 -133 307 -164Q338 -195 338 -239Q338 -284 307 -315Q276 -346 231 -346Q219 -346 207 -343ZM207 -454Q219 -451 231 -451Q276 -451 307 -482Q338 -513 338 -557Q338 -602 307 -633Q276 -664 231 -664Q219 -664 207 -661Z"/>
	<path fill="#00ff00" d="M259 -156Q265 -156 277 -156Q384 -156 454 -141Q524 -126 516 -104Q514 -99 498.5 -95Q483 -91 456.5 -86Q430 -81 424 -79Q426 -79 454 -72.5Q482 -66 493.5 -61.5Q505 -57 503 -52Q495 -31 414 -16Q333 -1 226 -1Q210 -1 202 -1H50L107 -156ZM212 -27Q224 -26 236 -27Q281 -27 314 -33Q347 -39 350 -48Q353 -57 324.5 -63Q296 -69 251 -69Q239 -69 227 -69ZM235 -91Q247 -90 259 -90Q304 -90 337 -96.5Q370 -103 374 -111Q377 -120 348 -126.5Q319 -133 274 -133Q262 -133 250 -132Z"/>
	<path fill="#ffff00" d="M202 -780Q208 -780 220 -780Q327 -780 402.5 -704.5Q478 -629 478 -522Q478 -499 464 -477Q450 -455 425.5 -429Q401 -403 395 -396Q397 -394 427.5 -362Q458 -330 471 -307.5Q484 -285 484 -260Q484 -153 408.5 -78Q333 -3 226 -3Q210 -3 202 -4H50V-780ZM202 -136Q214 -133 226 -133Q271 -133 302 -164Q333 -195 333 -239Q333 -284 302 -315Q271 -346 226 -346Q214 -346 202 -343ZM202 -454Q214 -451 226 -451Q271 -451 302 -482Q333 -513 333 -557Q333 -602 302 -633Q271 -664 226 -664Q214 -664 202 -661Z"/>
	<path fill="#ff0000" d="M225 -788Q335 -788 412.5 -710Q490 -632 490 -522Q490 -497 475 -473Q461 -450 436 -424Q418 -405 410 -396L438 -367Q469 -335 482 -311Q496 -287 496 -260Q496 -150 418.5 -73Q341 4 231 4Q215 4 207 4H55Q48 4 48 -4V-780Q48 -788 55 -788ZM62 -12H207Q207 -12 208 -11Q215 -10 231 -10Q335 -10 408.5 -83Q482 -156 482 -260Q482 -283 470 -304Q457 -325 427 -357L395 -391Q392 -393 392 -396Q392 -399 394 -401Q400 -408 425 -434Q449 -460 463 -481Q476 -501 476 -522Q476 -626 402.5 -699Q329 -772 225 -772H62ZM200 -136V-343Q200 -349 205 -350Q218 -354 231 -354Q279 -354 312.5 -320.5Q346 -287 346 -239Q346 -192 312.5 -159Q279 -126 231 -126Q218 -126 205 -129Q200 -130 200 -136ZM231 -140Q273 -140 301.5 -169Q330 -198 330 -239Q330 -281 301.5 -309.5Q273 -338 231 -338Q223 -338 214 -337V-142Q223 -140 231 -140ZM200 -454V-661Q200 -667 205 -668Q218 -672 231 -672Q279 -672 312.5 -638.5Q346 -605 346 -557Q346 -510 312.5 -477Q279 -444 231 -444Q218 -444 205 -447Q200 -448 200 -454ZM330 -557Q330 -599 301.5 -627.5Q273 -656 231 -656Q223 -656 214 -655V-460Q223 -458 231 -458Q273 -458 301.5 -487Q330 -516 330 -557Z"/>
</svg>