<svg xmlns="http://www.w3.org/2000/svg" viewBox="0 -1024 1024 1024">
	<path fill="#000000" d="M237 -780Q243 -780 255 -780Q362 -780 437.5 -704.5Q513 -629 513 -522Q513 -499 499 -477Q485 -455 460.5 -429Q436 -403 430 -396Q432 -394 462.5 -362Q493 -330 506 -307.5Q519 -285 519 -260Q519 -153 443.5 -78Q368 -3 261 -3Q245 -3 237 -4H85V-780ZM237 -136Q249 -133 261 -133Q306 -133 337 -164Q368 -195 368 -239Q368 -284 337 -315Q306 -346 261 -346Q249 -346 237 -343ZM237 -454Q249 -451 261 -451Q306 -451 337 -482Q368 -513 368 -557Q368 -602 337 -633Q306 -664 261 -664Q249 -664 237 -661Z"/>
	<path fill="#00ff00" d="M304 -156Q310 -156 322 -156Q429 -156 490 -141Q551 -126 531 -104Q526 -99 508 -95Q490 -91 460.5 -86Q431 -81 424 -79Q426 -79 450.5 -72.5Q475 -66 484 -61.5Q493 -57 488 -52Q468 -31 378 -16Q288 -1 181 -1Q165 -1 157 -1H5L152 -156ZM182 -27Q194 -26 206 -27Q251 -27 287.5 -33Q324 -39 332.5 -48Q341 -57 316 -63Q291 -69 246 -69Q234 -69 222 -69ZM242 -91Q254 -90 266 -90Q311 -90 347.5 -96.5Q384 -103 393 -111Q401 -120 375.5 -126.5Q350 -133 305 -133Q293 -133 281 -132Z"/>
	<path fill="#e3ab45" d="M202 -780Q208 -780 220 -780Q327 -780 402.5 -704.5Q478 -629 478 -522Q478 -499 464 -477Q450 -455 425.5 -429Q401 -403 395 -396Q397 -394 427.5 -362Q458 -330 471 -307.5Q484 -285 484 -260Q484 -153 408.5 -78Q333 -3 226 -3Q210 -3 202 -4H50V-780ZM202 -136Q214 -133 226 -133Q271 -133 302 -164Q333 -195 333 -239Q333 -284 302 -315Q271 -346 226 -346Q214 -346 202 -343ZM202 -454Q214 -451 226 -451Q271 -451 302 -482Q333 -513 333 -557Q333 -602 302 -633Q271 -664 226 -664Q214 -664 202 -661Z"/>
	<path fill="#ff0000" d="M225 -788Q335 -788 413 -710Q490 -633 490 -522Q490 -497 475 -473Q458 -447 436 -424Q431 -419 425.5 -413Q420 -407 416 -403Q412 -399 410 -396L438 -367Q468 -335 482 -311Q496 -286 496 -260Q496 -149 419 -73Q340 4 231 4H207H55Q48 4 48 -4V-780Q48 -788 55 -788ZM62 -12H207L208 -11Q213 -10 231 -10Q335 -10 408 -83Q482 -157 482 -260Q482 -283 470 -304Q459 -324 427 -357L395 -391Q392 -394 392 -396Q392 -399 394 -401L425 -434Q450 -460 463 -481Q476 -501 476 -522Q476 -625 402 -699Q329 -772 225 -772H62ZM200 -136V-343Q200 -348 205 -350Q223 -354 231 -354Q278 -354 312 -320Q346 -286 346 -239Q346 -193 312 -159Q279 -126 231 -126Q218 -126 205 -129Q200 -131 200 -136ZM231 -140Q273 -140 302 -169Q330 -197 330 -239Q330 -282 302 -310Q274 -338 231 -338Q220 -338 214 -337V-142Q226 -140 231 -140ZM200 -454V-661Q200 -666 205 -668Q223 -672 231 -672Q278 -672 312 -638Q346 -604 346 -557Q346 -511 312 -477Q279 -444 231 -444Q218 -444 205 -447Q200 -449 200 -454ZM330 -557Q330 -600 302 -628Q274 -656 231 -656Q220 -656 214 -655V-460Q226 -458 231 -458Q273 -458 302 -487Q330 -515 330 -557Z"/>
</svg>