<svg xmlns="http://www.w3.org/2000/svg" viewBox="0 -1024 1024 1024">
	<path fill="#000000" d="M316 81H55L56 -4H223V-689H56L55 -774H316H317V-773V80V81Z"/>
	<path fill="#00ff00" d="M305 16H44L51 -1H218L268 -138H101L106 -155H367H368L306 16Z"/>
	<path fill="#ffff00" d="M311 81H50L51 -4H218V-689H51L50 -774H311H312V-773V80V81Z"/>
	<path fill="#ff0000" d="M317 88H55Q47 88 48 81L49 -4Q49 -12 56 -12H216V-682H56Q49 -682 49 -689Q48 -774 48 -774Q48 -782 55 -782H317Q324 -782 324 -774V81Q324 88 317 88ZM310 74V-766H63V-696H223Q230 -696 230 -689V-4Q230 4 223 4H63V74Z"/>
</svg>