<svg xmlns="http://www.w3.org/2000/svg" viewBox="0 -1024 1024 1024">
	<path fill="#000000" d="M466 85Q451 92 429 92Q385 92 350.5 50Q316 8 304 -58L303 -228L194 -358L303 -485L304 -655Q316 -721 350.5 -763Q385 -805 429 -805Q451 -805 466 -798V-663Q450 -684 429 -684Q405 -684 388 -654L389 -470L307 -369L388 -228V-58Q404 -29 429 -29Q450 -29 466 -50Z"/>
	<path fill="#00ff00" d="M394 17Q377 18 355 18Q311 18 284.5 10Q258 2 259 -12L290 -46L205 -72L338 -97L371 -131Q396 -144 438.5 -152.5Q481 -161 525 -161Q547 -161 560 -160L535 -133Q523 -137 502 -137Q478 -137 455 -131L421 -94L320 -74L375 -46L343 -12Q353 -6 378 -6Q399 -6 419 -10Z"/>
	<path fill="#ffff00" d="M451 85Q436 92 414 92Q370 92 335.5 50Q301 8 289 -58L288 -228L179 -358L288 -485L289 -655Q301 -721 335.5 -763Q370 -805 414 -805Q436 -805 451 -798V-663Q435 -684 414 -684Q390 -684 373 -654L374 -470L292 -369L373 -228V-58Q389 -29 414 -29Q435 -29 451 -50Z"/>
	<path fill="#ff0000" d="M419 100Q372 100 335 55Q299 12 287 -57V-58L286 -225L178 -353Q176 -355 176 -358Q176 -361 178 -363L286 -488L287 -655V-656Q299 -725 335 -768Q371 -812 419 -812Q444 -812 459 -805Q464 -803 464 -798V-663Q464 -656 456 -656Q451 -656 450 -658Q436 -676 419 -676Q399 -676 386 -652V-470Q386 -466 385 -465L306 -368L385 -232Q386 -231 386 -228V-60Q400 -36 419 -36Q435 -36 450 -55Q452 -58 456 -58Q464 -58 464 -50V85Q464 90 459 92Q441 100 419 100ZM419 84Q437 84 448 80V-32Q435 -22 419 -22Q388 -22 371 -54Q370 -55 370 -58V-226L290 -365V-369Q290 -373 291 -374L371 -473L370 -654Q370 -657 371 -658Q390 -692 419 -692Q434 -692 448 -681V-793Q435 -798 419 -798Q379 -798 346 -758Q313 -717 301 -654L300 -485Q300 -481 299 -480L194 -358L299 -233Q300 -232 300 -228L301 -59Q313 4 346 45Q378 84 419 84Z"/>
</svg>