<svg xmlns="http://www.w3.org/2000/svg" viewBox="0 -1024 1024 1024">
	<path fill="#000000" d="M55 -768Q70 -763 129 -768Q188 -773 203 -773Q361 -773 473 -658Q585 -543 585 -380Q585 -273 534.5 -183Q484 -93 397 -40Q310 13 207 14H55ZM207 -143Q301 -145 366.5 -213.5Q432 -282 432 -378Q432 -474 366.5 -542Q301 -610 207 -612Z"/>
	<path fill="#00ff00" d="M106 -154Q121 -153 180 -154Q239 -155 254 -155Q412 -155 516 -132Q620 -109 608 -76Q600 -55 543 -37Q486 -19 395 -8Q304 3 201 3H49ZM212 -29Q306 -29 376.5 -42.5Q447 -56 455 -76Q462 -95 401 -108.5Q340 -122 247 -122Z"/>
	<path fill="#ffff00" d="M50 -768Q65 -763 124 -768Q183 -773 198 -773Q356 -773 468 -658Q580 -543 580 -380Q580 -273 529.5 -183Q479 -93 392 -40Q305 13 202 14H50ZM202 -143Q296 -145 361.5 -213.5Q427 -282 427 -378Q427 -474 361.5 -542Q296 -610 202 -612Z"/>
	<path fill="#ff0000" d="M81 -773Q99 -773 128 -775Q188 -780 203 -780Q364 -780 478 -663Q592 -546 592 -380Q592 -271 541 -179.5Q490 -88 401 -34Q312 20 207 22H55Q48 22 48 14V-768Q48 -776 55 -776Q56 -776 57 -775Q64 -773 81 -773ZM62 6H207Q308 6 393 -46Q478 -98 528 -186.5Q578 -275 578 -380Q578 -540 468 -653Q358 -766 203 -766Q188 -766 130 -761Q100 -758 81 -758Q70 -758 62 -759ZM200 -143V-612Q200 -620 207 -620Q207 -620 207 -619Q304 -617 372 -547Q440 -477 440 -378Q440 -279 372 -208.5Q304 -138 207 -136Q200 -136 200 -143ZM361 -537Q300 -600 214 -604V-151Q300 -155 361 -219Q424 -285 424 -378Q424 -471 361 -537Z"/>
</svg>