<svg xmlns="http://www.w3.org/2000/svg" viewBox="0 -1024 1024 1024">
	<path fill="#000000" d="M60 -57L135 -182Q143 -176 157 -167Q195 -145 238 -155Q246 -157 253 -160V-310Q243 -313 232 -315Q183 -342 147 -375Q111 -408 90 -449Q69 -490 72 -539Q75 -588 106 -639Q157 -723 253 -758V-1030H332V-774Q403 -777 458 -727Q461 -724 468.5 -719.5Q476 -715 479 -712L404 -587Q392 -597 382 -602Q358 -615 332 -616V-401Q361 -383 383 -366Q416 -339 440.5 -304Q465 -269 463.5 -225Q462 -181 432 -130Q397 -71 332 -32Q332 -32 332 -32V182H253V0Q227 6 202 6Q135 7 81 -42Q78 -45 70.5 -49.5Q63 -54 60 -57ZM253 -586Q244 -577 237 -565Q212 -524 232 -475Q241 -456 253 -443Z"/>
	<path fill="#00ff00" d="M64 -11L148 -36Q156 -35 169 -33Q206 -29 249 -31Q257 -31 265 -32L276 -62Q266 -63 255 -63Q208 -68 174.5 -75Q141 -82 123 -90Q105 -98 111.5 -108Q118 -118 153 -128Q210 -145 308 -152L328 -206H407L388 -155Q459 -155 511 -145Q514 -145 521 -144Q528 -143 531 -142L447 -117Q435 -119 426 -120Q403 -123 377 -123L361 -80Q389 -77 410 -73Q441 -68 463 -61Q485 -54 480 -45Q475 -36 441 -26Q402 -14 335 -6Q335 -6 334 -6L319 36H240L253 0Q227 1 201 1Q134 1 84 -8Q81 -9 74 -10Q67 -11 64 -11ZM296 -117Q286 -115 278 -113Q250 -105 267 -95Q274 -91 285 -89Z"/>
	<path fill="#ffff00" d="M60 -57L135 -182Q143 -176 157 -167Q195 -145 238 -155Q246 -157 253 -160V-310Q243 -313 232 -315Q183 -342 147 -375Q111 -408 90 -449Q69 -490 72 -539Q75 -588 106 -639Q157 -723 253 -758V-1030H332V-774Q403 -777 458 -727Q461 -724 468.5 -719.5Q476 -715 479 -712L404 -587Q392 -597 382 -602Q358 -615 332 -616V-401Q361 -383 383 -366Q416 -339 440.5 -304Q465 -269 463.5 -225Q462 -181 432 -130Q397 -71 332 -32Q332 -32 332 -32V182H253V0Q227 6 202 6Q135 7 81 -42Q78 -45 70.5 -49.5Q63 -54 60 -57ZM253 -586Q244 -577 237 -565Q212 -524 232 -475Q241 -456 253 -443Z"/>
	<path fill="#ff0000" d="M253 -1038H332Q340 -1038 340 -1030V182Q340 190 332 190H253Q246 190 246 182V-1030Q246 -1038 253 -1038ZM324 -1022H260V174H324ZM135 -190Q137 -190 139 -188Q147 -182 161 -173Q185 -159 212 -159Q224 -159 236 -162Q276 -172 295 -206Q305 -222 305 -238Q305 -254 293 -270Q271 -301 231 -308Q230 -308 228 -308Q179 -336 142 -369Q105 -403 83 -446Q64 -483 64 -527Q64 -533 65 -539Q68 -590 100 -643Q157 -737 269 -771Q305 -782 338 -782Q408 -782 463 -733Q465 -731 473.5 -725Q482 -719 484 -717Q486 -715 486 -712Q486 -710 485 -708L410 -583Q408 -580 404 -580Q401 -580 399 -581Q366 -608 329 -608Q317 -608 303 -605Q264 -595 243 -561Q231 -540 231 -518Q231 -499 239 -478Q258 -433 302 -425Q303 -425 305 -425Q354 -398 388 -371Q422 -344 447 -308Q471 -273 471 -230Q471 -227 471 -225Q469 -179 438 -126Q402 -66 336 -26Q269 14 200 14Q132 14 76 -36Q74 -38 65.5 -44Q57 -50 55 -52Q52 -54 52 -57Q52 -59 54 -61L129 -186Q131 -190 135 -190ZM456 -230Q456 -269 434 -300Q410 -334 378 -359.5Q346 -385 299 -411Q247 -420 226 -472Q216 -496 216 -518Q216 -545 231 -569Q254 -609 300 -620Q315 -624 329 -624Q359 -624 385 -609Q393 -605 402 -598L469 -710Q454 -721 453 -722Q438 -735 413.5 -744.5Q389 -754 364.5 -760Q340 -766 338 -767Q307 -767 273 -757Q167 -725 112 -635Q82 -586 79 -539Q79 -533 79 -527Q79 -487 97 -452Q117 -413 152 -381Q187 -349 235 -322Q280 -314 306 -279Q320 -259 320 -238Q320 -218 309 -198Q286 -158 240 -148Q225 -144 212 -144Q181 -144 153 -161Q149 -163 137 -171L70 -59Q85 -48 86 -47Q137 -1 200 -1Q265 -1 329 -39Q392 -76 426 -134Q455 -183 456 -225Q456 -228 456 -230Z"/>
</svg>