<svg xmlns="http://www.w3.org/2000/svg" viewBox="0 -1024 1024 1024">
	<path fill="#000000" d="M514 -485L515 -333H207V-149H622L623 3H56V2H55V-774V-778H622L623 -626H207V-485Z"/>
	<path fill="#00ff00" d="M544 -97L534 -67H226L213 -30H628L618 1H51V0H50L106 -155L107 -156H674L664 -125H248L237 -97Z"/>
	<path fill="#ffff00" d="M509 -485L510 -333H202V-149H617L618 3H51V2H50V-774V-778H617L618 -626H202V-485Z"/>
	<path fill="#ff0000" d="M56 10Q53 10 50.5 7.5Q48 5 48 2V-778Q48 -786 55 -786H622Q629 -786 629 -778Q630 -626 630 -626Q630 -618 623 -618H214V-492H514Q521 -492 521 -485Q522 -333 522 -333Q522 -326 515 -326H214V-156H622Q629 -156 629 -149Q630 3 630 3Q630 10 623 10ZM207 -478Q200 -478 200 -485V-626Q200 -634 207 -634H615V-770H62V-4H615V-142H207Q200 -142 200 -149V-333Q200 -340 207 -340H507V-478Z"/>
</svg>