<svg xmlns="http://www.w3.org/2000/svg" viewBox="0 -1024 1024 1024">
	<path fill="#000000" d="M524 -485L525 -333H217V-149H632L633 3H66V2H65V-774V-778H632L633 -626H217V-485Z"/>
	<path fill="#00ff00" d="M555 -97L528 -67H220L186 -30H601L573 1H6V0H5L151 -155L152 -156H719L691 -125H275L248 -97Z"/>
	<path fill="#ffff00" d="M509 -485L510 -333H202V-149H617L618 3H51V2H50V-774V-778H617L618 -626H202V-485Z"/>
	<path fill="#ff0000" d="M56 10Q48 10 48 2V-778Q48 -786 55 -786H622Q629 -786 629 -778L630 -626Q630 -618 623 -618H214V-492H514Q521 -492 521 -485L522 -333Q522 -326 515 -326H214V-156H622Q629 -156 629 -149L630 3Q630 10 623 10ZM207 -478Q200 -478 200 -485V-626Q200 -634 207 -634H615V-770H62V-4H615V-142H207Q200 -142 200 -149V-333Q200 -340 207 -340H507V-478Z"/>
</svg>