<svg xmlns="http://www.w3.org/2000/svg" viewBox="0 -1024 1024 1024">
	<path fill="#000000" d="M599 -296V-144H55V-296ZM599 -546V-394H55V-546Z"/>
	<path fill="#00ff00" d="M616 -59L604 -29H60L72 -59ZM634 -109L623 -79H79L90 -109Z"/>
	<path fill="#ffff00" d="M594 -296V-144H50V-296ZM594 -546V-394H50V-546Z"/>
	<path fill="#ff0000" d="M606 -296V-144Q606 -136 599 -136H55Q48 -136 48 -144V-296Q48 -304 55 -304H599Q606 -304 606 -296ZM592 -152V-288H62V-152ZM606 -546V-394Q606 -386 599 -386H55Q48 -386 48 -394V-546Q48 -554 55 -554H599Q606 -554 606 -546ZM592 -402V-538H62V-402Z"/>
</svg>