<svg xmlns="http://www.w3.org/2000/svg" viewBox="0 -1024 1024 1024">
	<path fill="#000000" d="M609 -296V-144H65V-296ZM609 -546V-394H65V-546Z"/>
	<path fill="#00ff00" d="M610 -59L581 -29H37L66 -59ZM657 -109L629 -79H85L113 -109Z"/>
	<path fill="#ffff00" d="M594 -296V-144H50V-296ZM594 -546V-394H50V-546Z"/>
	<path fill="#ff0000" d="M606 -296V-144Q606 -136 599 -136H55Q48 -136 48 -144V-296Q48 -304 55 -304H599Q606 -304 606 -296ZM592 -152V-288H62V-152ZM606 -546V-394Q606 -386 599 -386H55Q48 -386 48 -394V-546Q48 -554 55 -554H599Q606 -554 606 -546ZM592 -402V-538H62V-402Z"/>
</svg>