<svg xmlns="http://www.w3.org/2000/svg" viewBox="0 -1024 1024 1024">
	<path fill="#000000" d="M65 -258V-772H217V-258ZM65 2V-140H217V2Z"/>
	<path fill="#00ff00" d="M55 -52L150 -154H302L207 -52ZM6 0L32 -28H184L158 0Z"/>
	<path fill="#ffff00" d="M50 -258V-772H202V-258ZM50 2V-140H202V2Z"/>
	<path fill="#ff0000" d="M48 -258V-772Q48 -780 55 -780H207Q214 -780 214 -772V-258Q214 -250 207 -250H55Q48 -250 48 -258ZM62 -764V-266H200V-764ZM48 2V-140Q48 -148 55 -148H207Q214 -148 214 -140V2Q214 10 207 10H55Q48 10 48 2ZM62 -132V-6H200V-132Z"/>
</svg>