<svg xmlns="http://www.w3.org/2000/svg" viewBox="0 -1024 1024 1024">
	<path fill="#000000" d="M65 -4V-157Q77 -154 91 -154Q136 -154 167 -185Q198 -216 198 -260Q198 -305 167 -336Q136 -367 91 -367Q77 -367 65 -364V-397V-517V-773H66V-774H383L382 -622H217V-485Q277 -451 313 -391.5Q349 -332 349 -260Q349 -153 273.5 -78Q198 -3 91 -3Q74 -3 65 -4Z"/>
	<path fill="#00ff00" d="M6 -1L34 -31Q45 -30 60 -31Q105 -31 142 -37Q179 -43 187 -52Q195 -61 170 -67Q145 -73 100 -73Q86 -73 73 -73L80 -79L102 -103L150 -155H151H468L439 -124H274L248 -97Q302 -90 326.5 -78Q351 -66 338 -52Q318 -31 228.5 -16Q139 -1 32 -1Q15 -1 6 -1Z"/>
	<path fill="#ffff00" d="M50 -4V-157Q62 -154 76 -154Q121 -154 152 -185Q183 -216 183 -260Q183 -305 152 -336Q121 -367 76 -367Q62 -367 50 -364V-397V-517V-773H51V-774H368L367 -622H202V-485Q262 -451 298 -391.5Q334 -332 334 -260Q334 -153 258.5 -78Q183 -3 76 -3Q59 -3 50 -4Z"/>
	<path fill="#ff0000" d="M214 -489Q272 -455 309 -395.5Q346 -336 346 -260Q346 -149 269 -73Q190 4 81 4Q60 4 54 3Q48 3 48 -4V-157Q48 -164 55 -164H57Q64 -162 81 -162Q124 -162 152 -190Q180 -218 180 -260Q180 -303 152 -331Q123 -360 81 -360Q68 -360 57 -357Q56 -357 56 -356.5Q56 -356 55 -356Q48 -356 48 -364V-773Q48 -782 56 -782H373Q380 -782 380 -774L379 -622Q379 -614 372 -614H214ZM81 -10Q185 -10 258 -83Q332 -157 332 -260Q332 -333 295.5 -389.5Q259 -446 203 -478Q200 -480 200 -485V-622Q200 -630 207 -630H365V-766H62V-373Q68 -374 81 -374Q129 -374 162 -341Q196 -307 196 -260Q196 -214 162 -180Q128 -146 81 -146Q74 -146 62 -148V-11Q64 -11 70.5 -10.5Q77 -10 81 -10Z"/>
</svg>