<svg xmlns="http://www.w3.org/2000/svg" viewBox="0 -1024 1024 1024">
	<path fill="#000000" d="M55 -4V-157Q67 -154 81 -154Q126 -154 157 -185Q188 -216 188 -260Q188 -305 157 -336Q126 -367 81 -367Q67 -367 55 -364V-397V-517V-773H56V-774H373L372 -622H207V-485Q267 -451 303 -391.5Q339 -332 339 -260Q339 -153 263.5 -78Q188 -3 81 -3Q64 -3 55 -4Z"/>
	<path fill="#00ff00" d="M50 -1L61 -31Q73 -30 87 -31Q132 -31 165.5 -37Q199 -43 202 -52Q205 -61 176.5 -67Q148 -73 103 -73Q89 -73 76 -73L79 -79L88 -103L106 -155H107H424L412 -124H247L237 -97Q295 -90 326.5 -78Q358 -66 353 -52Q345 -31 264 -16Q183 -1 76 -1Q59 -1 50 -1Z"/>
	<path fill="#ffff00" d="M50 -4V-157Q62 -154 76 -154Q121 -154 152 -185Q183 -216 183 -260Q183 -305 152 -336Q121 -367 76 -367Q62 -367 50 -364V-397V-517V-773H51V-774H368L367 -622H202V-485Q262 -451 298 -391.5Q334 -332 334 -260Q334 -153 258.5 -78Q183 -3 76 -3Q59 -3 50 -4Z"/>
	<path fill="#ff0000" d="M214 -489Q272 -456 309 -396Q346 -336 346 -260Q346 -150 268.5 -73Q191 4 81 4Q64 4 54 3Q48 3 48 -4V-157Q48 -164 55 -164Q56 -164 57 -164Q68 -162 81 -162Q123 -162 151.5 -190.5Q180 -219 180 -260Q180 -302 151.5 -331Q123 -360 81 -360Q68 -360 57 -357Q56 -356 55 -356Q48 -356 48 -364V-773Q48 -776 50.5 -779Q53 -782 56 -782H373Q381 -782 380 -774L379 -622Q379 -614 372 -614H214ZM81 -10Q185 -10 258.5 -83Q332 -156 332 -260Q332 -333 295.5 -390Q259 -447 203 -478Q200 -481 200 -485V-622Q200 -630 207 -630H365V-766H62V-373Q71 -374 81 -374Q129 -374 162.5 -341Q196 -308 196 -260Q196 -213 162.5 -179.5Q129 -146 81 -146Q71 -146 62 -148V-11Q70 -10 81 -10Z"/>
</svg>