<svg xmlns="http://www.w3.org/2000/svg" viewBox="0 -1024 1024 1024">
	<path fill="#000000" d="M409 0V-192L408 -191H73L395 -774H538V0ZM401 -341V-521L303 -344Z"/>
	<path fill="#00ff00" d="M349 0L385 -38H384H49L481 -155H624L478 0ZM406 -68L439 -104L308 -69Z"/>
	<path fill="#ffff00" d="M394 0V-192L393 -191H58L380 -774H523V0ZM386 -341V-521L288 -344Z"/>
	<path fill="#ff0000" d="M392 -184H63Q56 -184 56 -191Q56 -191 56 -195L378 -778Q380 -782 385 -782H528Q536 -782 536 -774V0Q536 8 528 8H399Q392 8 392 0ZM399 -200Q406 -200 406 -192V-8H520V-766H389L76 -198H395Q397 -200 399 -200ZM286 -344Q286 -344 286 -348L384 -525Q386 -528 391 -528Q398 -528 398 -521V-341Q398 -333 391 -333L293 -337Q286 -337 286 -344ZM306 -351L384 -349V-492Z"/>
</svg>