<svg xmlns="http://www.w3.org/2000/svg" viewBox="0 -1024 1024 1024">
	<path fill="#000000" d="M399 0V-192L398 -191H63L385 -774H528V0ZM391 -341V-521L293 -344Z"/>
	<path fill="#00ff00" d="M394 0L408 -38H407H72L436 -155H579L523 0ZM411 -68L424 -104L313 -69Z"/>
	<path fill="#ffff00" d="M394 0V-192L393 -191H58L380 -774H523V0ZM386 -341V-521L288 -344Z"/>
	<path fill="#ff0000" d="M392 -184H63Q56 -184 56 -191Q56 -193 56 -195L378 -778Q381 -782 385 -782H528Q536 -782 536 -774V0Q536 8 528 8H399Q392 8 392 0ZM399 -200Q406 -200 406 -192V-8H520V-766H389L76 -198H395Q397 -200 399 -200ZM286 -344Q286 -346 286 -348L384 -525Q387 -528 391 -528Q398 -528 398 -521V-341Q398 -333 391 -333L293 -337Q286 -337 286 -344ZM306 -351L384 -349V-492Z"/>
</svg>