<svg xmlns="http://www.w3.org/2000/svg" viewBox="0 -1024 1024 1024">
	<path fill="#000000" d="M198 -516L16 -698L124 -805L306 -623Z"/>
	<path fill="#00ff00" d="M184 -103L37 -140L165 -161L312 -125Z"/>
	<path fill="#e3ab45" d="M163 -516L-19 -698L89 -805L271 -623Z"/>
	<path fill="#ff0000" d="M-19 -703L89 -810Q91 -812 94 -812Q97 -812 99 -810L281 -628Q284 -625 284 -623Q284 -621 281 -618L173 -511Q170 -508 168 -508Q166 -508 163 -511L-19 -693Q-22 -696 -22 -698Q-22 -700 -19 -703ZM-3 -698L168 -527L265 -623L94 -794Z"/>
</svg>