<svg xmlns="http://www.w3.org/2000/svg" viewBox="0 -1024 1024 1024">
	<path fill="#000000" d="M55 -546L599 -403V-402V-251V-250L55 -144V-296L269 -338L55 -394Z"/>
	<path fill="#00ff00" d="M90 -109L623 -81V-80L612 -50L60 -29L72 -59L289 -68L79 -79Z"/>
	<path fill="#ffff00" d="M50 -546L594 -403V-402V-251V-250L50 -144V-296L264 -338L50 -394Z"/>
	<path fill="#ff0000" d="M606 -403V-250Q606 -244 600 -243L56 -137Q56 -136 55 -136Q48 -136 48 -144V-296Q48 -302 54 -303L235 -339L53 -387Q48 -388 48 -394V-546Q48 -554 55 -554Q56 -554 57 -553L601 -410Q606 -409 606 -403ZM276 -338Q276 -332 270 -331L62 -290V-153L592 -256V-397L62 -536V-400L271 -345Q276 -344 276 -338Z"/>
</svg>