<svg xmlns="http://www.w3.org/2000/svg" viewBox="0 -1024 1024 1024">
	<path fill="#000000" d="M455 -774H607V2H455V-333H207V2H55V-774H207V-485H455Z"/>
	<path fill="#00ff00" d="M506 -155H658L602 0H450L474 -67H226L202 0H50L106 -155H258L237 -97H485Z"/>
	<path fill="#ffff00" d="M450 -774H602V2H450V-333H202V2H50V-774H202V-485H450Z"/>
	<path fill="#ff0000" d="M455 -782H607Q614 -782 614 -774V2Q614 10 607 10H455Q448 10 448 2V-326H214V2Q214 10 207 10H55Q48 10 48 2V-774Q48 -782 55 -782H207Q214 -782 214 -774V-492H448V-774Q448 -782 455 -782ZM600 -766H462V-485Q462 -478 455 -478H207Q200 -478 200 -485V-766H62V-6H200V-333Q200 -340 207 -340H455Q462 -340 462 -333V-6H600Z"/>
</svg>