<svg xmlns="http://www.w3.org/2000/svg" viewBox="0 -1024 1024 1024">
	<path fill="#000000" d="M55 -774H207V-433L452 -770L638 -768L377 -387L708 3L516 2L264 -302L207 -219V2H55Z"/>
	<path fill="#00ff00" d="M106 -155H258L234 -87L503 -154H689L400 -77L703 1L511 0L281 -60L218 -44L202 0H50Z"/>
	<path fill="#ffff00" d="M50 -774H202V-433L447 -770L633 -768L372 -387L703 3L511 2L259 -302L202 -219V2H50Z"/>
	<path fill="#ff0000" d="M55 -782H207Q214 -782 214 -774V-456L446 -774Q448 -778 452 -777L638 -775Q646 -775 646 -768Q646 -766 644 -764L386 -387L714 -2Q716 0 716 3Q716 11 708 10L516 9Q512 9 510 7L265 -290L214 -217V2Q214 10 207 10H55Q48 10 48 2V-774Q48 -782 55 -782ZM200 -766H62V-6H200V-219Q200 -221 201 -223L258 -306Q260 -310 264 -310Q268 -310 270 -307L520 -5H692L371 -382Q370 -384 370 -387Q370 -389 371 -391L624 -761L456 -762L213 -429Q211 -426 207 -426Q200 -426 200 -433Z"/>
</svg>