<svg xmlns="http://www.w3.org/2000/svg" viewBox="0 -1024 1024 1024">
	<path fill="#000000" d="M599 -546V-394L385 -338L599 -296V-144L55 -250V-251V-402V-403Z"/>
	<path fill="#00ff00" d="M634 -109L623 -79L404 -68L616 -59L604 -29L68 -50L79 -80V-81Z"/>
	<path fill="#ffff00" d="M594 -546V-394L380 -338L594 -296V-144L50 -250V-251V-402V-403Z"/>
	<path fill="#ff0000" d="M606 -546V-394Q606 -388 601 -387L419 -339L600 -303Q606 -302 606 -296V-144Q606 -136 599 -136Q598 -136 598 -137L54 -243Q48 -244 48 -250V-403Q48 -409 53 -410L597 -553Q598 -554 599 -554Q606 -554 606 -546ZM378 -338Q378 -344 383 -345L592 -400V-536L62 -397V-256L592 -153V-290L384 -331Q378 -332 378 -338Z"/>
</svg>