<svg xmlns="http://www.w3.org/2000/svg" viewBox="0 -1024 1024 1024">
	<path fill="#000000" d="M55 -768H207L531 -146L855 -768H1007V2H855V-476L607 0H455L207 -476V2H55Z"/>
	<path fill="#00ff00" d="M106 -154H258L537 -29L906 -154H1058L1002 0H850L885 -95L602 0H450L237 -95L202 0H50Z"/>
	<path fill="#ffff00" d="M50 -768H202L526 -146L850 -768H1002V2H850V-476L602 0H450L202 -476V2H50Z"/>
	<path fill="#ff0000" d="M55 -776H207Q212 -776 214 -771L531 -162L848 -771Q850 -776 855 -776H1007Q1014 -776 1014 -768V2Q1014 10 1007 10H855Q848 10 848 2V-445L614 3Q612 8 607 8H455Q450 8 448 3L214 -445V2Q214 10 207 10H55Q48 10 48 2V-768Q48 -776 55 -776ZM62 -760V-6H200V-476Q200 -484 207 -484Q212 -484 214 -479L460 -8H602L848 -479Q850 -484 855 -484Q862 -484 862 -476V-6H1000V-760H860L538 -143Q536 -138 531 -138Q526 -138 524 -143L202 -760Z"/>
</svg>