<svg xmlns="http://www.w3.org/2000/svg" viewBox="0 -1024 1024 1024">
	<path fill="#000000" d="M282 -146Q367 -146 431 -202Q495 -258 508 -342Q438 -265 335 -259Q327 -258 321 -258Q319 -258 317 -258Q317 -258 316 -258Q315 -258 313 -258Q222 -258 151.5 -314.5Q81 -371 61 -458Q55 -486 55 -516Q55 -556 67 -594Q97 -688 183 -738Q232 -772 282 -772Q286 -772 289 -772Q301 -773 313 -773Q314 -773 315 -773H316Q316 -773 317 -773Q319 -773 321 -773Q330 -773 335 -772Q415 -765 477 -717Q563 -665 613.5 -575Q664 -485 664 -378Q664 -215 552 -100Q440 15 282 15Q199 15 163 8V-158Q178 -153 218 -149.5Q258 -146 282 -146ZM331 -391Q342 -391 355 -394V-393Q392 -400 416 -429.5Q440 -459 440 -498Q440 -552 396 -584Q380 -593 364 -600Q360 -601 355 -602V-601Q344 -604 331 -604Q319 -604 307 -601V-602Q270 -595 246 -565.5Q222 -536 222 -498Q222 -459 246 -430Q270 -401 307 -393V-394Q319 -391 331 -391Z"/>
	<path fill="#00ff00" d="M288 -29Q373 -29 440.5 -40.5Q508 -52 528 -68Q453 -53 349 -52Q341 -52 334 -52Q332 -52 331 -52Q331 -52 330 -52Q329 -52 327 -52Q236 -52 169.5 -63Q103 -74 90 -92Q86 -98 88 -103Q91 -111 105 -119Q142 -138 231 -148Q283 -155 333 -154Q337 -154 340 -154Q352 -154 364 -155Q365 -155 366 -155H367Q367 -155 368 -155Q370 -155 372 -155Q381 -155 386 -154Q465 -153 524 -143Q606 -133 650 -115Q694 -97 687 -76Q675 -43 554.5 -20Q434 3 276 3Q193 3 157 2L170 -32Q185 -31 224.5 -30Q264 -29 288 -29ZM355 -78Q366 -78 379 -79Q417 -80 442.5 -86Q468 -92 471 -100Q475 -111 434 -117Q419 -119 402 -120Q398 -120 394 -120Q383 -121 370 -121Q358 -121 346 -120Q308 -119 282 -113Q256 -107 253 -100Q250 -92 272 -86Q294 -80 331 -79Q343 -78 355 -78Z"/>
	<path fill="#ffff00" d="M277 -146Q362 -146 426 -202Q490 -258 503 -342Q433 -266 330 -259Q322 -258 316 -258Q313 -258 312 -258Q312 -258 311 -258Q310 -258 308 -258Q217 -258 146.5 -314.5Q76 -371 56 -458Q50 -486 50 -516Q50 -556 62 -594Q92 -688 178 -738Q227 -772 277 -772Q281 -772 284 -772Q296 -773 308 -773Q309 -773 310 -773Q311 -773 311 -773Q311 -773 312 -773Q314 -773 316 -773Q324 -773 330 -772Q410 -766 472 -717Q557 -665 608 -575Q659 -485 659 -378Q659 -215 547 -100Q435 15 277 15Q194 15 158 8V-158Q173 -153 213 -149.5Q253 -146 277 -146ZM326 -391Q337 -391 350 -394V-393Q387 -401 411 -430Q435 -459 435 -498Q435 -552 391 -584Q376 -593 359 -600Q354 -601 350 -602V-601Q339 -604 326 -604Q314 -604 302 -601V-602Q265 -594 241 -565Q217 -536 217 -498Q217 -459 241 -430Q265 -401 302 -393V-394Q314 -391 326 -391Z"/>
	<path fill="#ff0000" d="M282 -154Q364 -154 426 -208Q479 -254 496 -319Q429 -257 336 -252Q327 -250 321 -250H313Q219 -250 146.5 -308.5Q74 -367 54 -456Q48 -483 48 -516Q48 -557 60 -596Q91 -693 179 -744Q230 -779 282 -780H289Q301 -780 313 -780H321Q330 -780 336 -779Q418 -772 481 -723Q569 -670 620.5 -578.5Q672 -487 672 -378Q672 -212 557.5 -95Q443 22 282 22Q198 22 162 15Q156 14 156 8V-158Q156 -166 163 -166Q164 -166 165 -165Q180 -160 219 -157Q258 -154 282 -154ZM282 -138Q215 -138 170 -148V2Q207 8 282 8Q437 8 546.5 -105Q656 -218 656 -378Q656 -483 606.5 -571.5Q557 -660 473 -711Q473 -711 472 -711Q412 -758 334 -765Q323 -766 321 -766H313Q301 -766 290 -765Q289 -765 289 -764H282Q234 -764 187 -732Q103 -683 74 -592Q62 -555 62 -516Q62 -487 68 -460Q88 -375 156.5 -320.5Q225 -266 313 -266H321Q323 -266 328 -266Q333 -266 335 -266Q435 -272 502 -347Q505 -350 508 -350Q516 -350 516 -342Q516 -341 515 -341Q502 -254 436 -196Q370 -138 282 -138ZM307 -386Q306 -386 305 -386Q266 -394 240 -425Q214 -456 214 -498Q214 -539 240 -570.5Q266 -602 306 -609Q306 -610 307 -610Q308 -610 309 -609Q320 -611 331 -612Q343 -612 353 -609Q354 -610 355 -610Q361 -610 367 -607Q383 -600 400 -591Q400 -590 400 -590Q448 -556 448 -498Q448 -456 422 -424.5Q396 -393 356 -386Q356 -386 355 -386Q354 -386 353 -386Q341 -383 331 -383Q320 -383 309 -386Q308 -386 307 -386ZM331 -398Q341 -398 353 -401Q354 -402 355 -402Q356 -402 357 -401Q389 -408 410 -434Q432 -462 432 -498Q432 -548 392 -578Q377 -586 362 -593Q360 -593 357 -594Q356 -594 355 -594Q354 -594 353 -594Q343 -596 331 -596Q320 -596 309 -594Q308 -594 307 -594Q306 -594 305 -594Q273 -587 252 -561Q230 -533 230 -498Q230 -462 252 -435Q273 -409 305 -401Q306 -402 307 -402Q308 -402 309 -401Q320 -398 331 -398Z"/>
</svg>