<svg xmlns="http://www.w3.org/2000/svg" viewBox="0 -1024 1024 1024">
	<path fill="#000000" d="M179 -692H331L318 -618H466L479 -692H631L618 -618H629V-466H591L574 -368H629V-216H547L535 -149H383L395 -216H247L235 -149H83L95 -216H85V-368H122L139 -466H85V-618H166ZM439 -466H291L274 -368H422Z"/>
	<path fill="#00ff00" d="M231 -138H383L356 -124H504L531 -138H683L656 -124H667L638 -93H600L564 -74H620L591 -43H509L484 -30H332L357 -43H209L184 -30H32L57 -43H47L76 -74H112L148 -93H94L123 -124H204ZM448 -93H300L264 -74H412Z"/>
	<path fill="#e3ab45" d="M149 -692H301L288 -618H436L449 -692H601L588 -618H599V-466H561L544 -368H599V-216H517L505 -149H353L365 -216H217L205 -149H53L65 -216H55V-368H92L109 -466H55V-618H136ZM409 -466H261L244 -368H392Z"/>
	<path fill="#ff0000" d="M385 -376L400 -458H267L253 -376ZM392 -360H244Q236 -360 236 -368Q236 -369 236 -369L254 -467Q255 -474 261 -474H409Q417 -474 417 -466Q417 -465 416 -465L399 -367Q398 -360 392 -360ZM136 -610H62V-474H109Q117 -474 117 -466Q117 -465 116 -465L99 -367Q98 -360 92 -360H62V-224H65Q72 -224 72 -216Q72 -215 72 -215L62 -156H199L209 -217Q211 -224 217 -224H365Q372 -224 372 -216Q372 -215 372 -215L362 -156H499L509 -217Q511 -224 517 -224H592V-360H544Q536 -360 536 -368Q536 -369 536 -369L554 -467Q555 -474 561 -474H592V-610H588Q580 -610 580 -618Q580 -619 581 -619L592 -684H455L443 -617Q442 -610 436 -610H288Q280 -610 280 -618Q280 -619 281 -619L292 -684H155L143 -617Q142 -610 136 -610ZM149 -700H301Q308 -700 308 -692Q308 -691 308 -691L297 -626H430L442 -693Q443 -700 449 -700H601Q608 -700 608 -692Q608 -691 608 -691L597 -626H599Q606 -626 606 -618V-466Q606 -458 599 -458H567L553 -376H599Q606 -376 606 -368V-216Q606 -208 599 -208H523L512 -148Q511 -142 505 -142H353Q346 -142 346 -149Q346 -150 346 -150L356 -208H223L212 -148Q211 -142 205 -142H53Q46 -142 46 -149Q46 -150 46 -150L56 -208H55Q48 -208 48 -216V-368Q48 -376 55 -376H85L100 -458H55Q48 -458 48 -466V-618Q48 -626 55 -626H130L142 -693Q143 -700 149 -700Z"/>
</svg>