<svg xmlns="http://www.w3.org/2000/svg" viewBox="0 -1024 1024 1024">
	<path fill="#000000" d="M149 -692H301L288 -618H436L449 -692H601L588 -618H599V-466H561L544 -368H599V-216H517L505 -149H353L365 -216H217L205 -149H53L65 -216H55V-368H92L109 -466H55V-618H136ZM409 -466H261L244 -368H392Z"/>
	<path fill="#00ff00" d="M199 -138H351L333 -124H481L499 -138H651L633 -124H644L633 -93H595L571 -74H626L615 -43H533L516 -30H364L381 -43H233L216 -30H64L81 -43H71L82 -74H119L143 -93H89L100 -124H181ZM443 -93H295L271 -74H419Z"/>
	<path fill="#ffff00" d="M149 -692H301L288 -618H436L449 -692H601L588 -618H599V-466H561L544 -368H599V-216H517L505 -149H353L365 -216H217L205 -149H53L65 -216H55V-368H92L109 -466H55V-618H136ZM409 -466H261L244 -368H392Z"/>
	<path fill="#ff0000" d="M449 -700H601Q608 -700 608 -692Q608 -691 608 -691L512 -148Q511 -142 505 -142H353Q346 -142 346 -149Q346 -150 346 -150L442 -693Q443 -700 449 -700ZM592 -684H455L362 -156H499ZM606 -618V-466Q606 -458 599 -458H55Q48 -458 48 -466V-618Q48 -626 55 -626H599Q606 -626 606 -618ZM592 -474V-610H62V-474ZM606 -368V-216Q606 -208 599 -208H55Q48 -208 48 -216V-368Q48 -376 55 -376H599Q606 -376 606 -368ZM592 -224V-360H62V-224ZM149 -700H301Q308 -700 308 -692Q308 -691 308 -691L212 -148Q211 -142 205 -142H53Q46 -142 46 -149Q46 -150 46 -150L142 -693Q143 -700 149 -700ZM292 -684H155L62 -156H199Z"/>
</svg>