<svg xmlns="http://www.w3.org/2000/svg" viewBox="0 -1024 1024 1024">
	<path fill="#000000" d="M138 -744L65 -766Q99 -773 138 -773Q296 -773 408 -658Q520 -543 520 -380Q520 -217 408 -101.5Q296 14 138 14Q99 14 65 7L138 -11Q238 -11 327 -121.5Q416 -232 416 -378Q416 -523 327 -633.5Q238 -744 138 -744Z"/>
	<path fill="#00ff00" d="M219 -149L150 -153Q186 -154 225 -155Q383 -155 473.5 -132Q564 -109 533 -76Q502 -43 368 -20Q234 3 76 3Q37 3 5 1L81 -2Q181 -2 291 -24Q401 -46 429 -76Q457 -105 388 -127Q319 -149 219 -149Z"/>
	<path fill="#ffff00" d="M123 -744L50 -766Q84 -773 123 -773Q281 -773 393 -658Q505 -543 505 -380Q505 -217 393 -101.5Q281 14 123 14Q84 14 50 7L123 -11Q223 -11 312 -121.5Q401 -232 401 -378Q401 -523 312 -633.5Q223 -744 123 -744Z"/>
	<path fill="#ff0000" d="M53 -773Q85 -780 128 -780Q289 -780 403 -663Q518 -545 518 -380Q518 -214 403 -96Q288 22 128 22Q90 22 53 14Q48 12 48 7Q48 2 53 0L126 -18H128Q224 -18 311 -126Q398 -234 398 -378Q398 -521 311 -629Q225 -736 128 -736H127L126 -737L53 -759Q48 -761 48 -766Q48 -771 53 -773ZM414 -378Q414 -231 323 -117Q231 -4 129 -4L94 5Q105 6 128 6Q284 6 393 -107Q502 -220 502 -380Q502 -541 393 -653Q283 -766 128 -766Q115 -766 89 -764L129 -751Q231 -751 323 -638Q414 -524 414 -378Z"/>
</svg>