<svg xmlns="http://www.w3.org/2000/svg" viewBox="0 -1024 1024 1024">
	<path fill="#000000" d="M437 -744Q337 -744 248 -633.5Q159 -523 159 -378Q159 -232 248 -121.5Q337 -11 437 -11L510 7Q476 14 437 14Q279 14 167 -101.5Q55 -217 55 -380Q55 -543 167 -658Q279 -773 437 -773Q476 -773 510 -766Z"/>
	<path fill="#00ff00" d="M486 -149Q386 -149 289 -127Q192 -105 182 -76Q171 -47 252 -24.5Q333 -2 433 -2L504 1Q469 2 431 3Q273 3 169.5 -20Q66 -43 78 -76Q90 -109 210 -132Q330 -155 488 -155Q527 -155 561 -153Z"/>
	<path fill="#ffff00" d="M432 -744Q332 -744 243 -633.5Q154 -523 154 -378Q154 -232 243 -121.5Q332 -11 432 -11L505 7Q471 14 432 14Q274 14 162 -101.5Q50 -217 50 -380Q50 -543 162 -658Q274 -773 432 -773Q471 -773 505 -766Z"/>
	<path fill="#ff0000" d="M437 -736Q341 -736 254 -629Q166 -520 166 -378Q166 -235 254 -126Q341 -18 437 -18Q438 -18 439 -18L512 0Q518 1 518 7Q518 13 512 14Q477 22 437 22Q276 22 162 -96Q48 -214 48 -380Q48 -546 162 -663Q276 -780 437 -780Q477 -780 512 -773Q518 -772 518 -766Q518 -760 512 -759L439 -737Q438 -736 437 -736ZM152 -378Q152 -526 242.5 -638.5Q333 -751 436 -751L476 -764Q457 -766 437 -766Q282 -766 172 -653Q62 -540 62 -380Q62 -220 172 -107Q282 6 437 6Q454 6 471 5L436 -4Q333 -4 242 -117Q152 -229 152 -378Z"/>
</svg>