<svg xmlns="http://www.w3.org/2000/svg" viewBox="0 -1024 1024 1024">
	<path fill="#000000" d="M128 -744L55 -766Q89 -773 128 -773Q286 -773 398 -658Q510 -543 510 -380Q510 -217 398 -101.5Q286 14 128 14Q89 14 55 7L128 -11Q228 -11 317 -121.5Q406 -232 406 -378Q406 -523 317 -633.5Q228 -744 128 -744Z"/>
	<path fill="#00ff00" d="M177 -149L106 -153Q141 -154 179 -155Q337 -155 441 -132Q545 -109 533 -76Q521 -43 400.5 -20Q280 3 122 3Q83 3 49 1L124 -2Q224 -2 321 -24Q418 -46 429 -76Q440 -105 358.5 -127Q277 -149 177 -149Z"/>
	<path fill="#ffff00" d="M123 -744L50 -766Q84 -773 123 -773Q281 -773 393 -658Q505 -543 505 -380Q505 -217 393 -101.5Q281 14 123 14Q84 14 50 7L123 -11Q223 -11 312 -121.5Q401 -232 401 -378Q401 -523 312 -633.5Q223 -744 123 -744Z"/>
	<path fill="#ff0000" d="M48 -766Q48 -772 53 -773Q88 -780 128 -780Q289 -780 403.5 -663Q518 -546 518 -380Q518 -214 403.5 -96Q289 22 128 22Q88 22 53 14Q48 13 48 7Q48 1 53 0L126 -18Q127 -18 128 -18Q224 -18 311 -126Q398 -235 398 -378Q398 -520 311 -629Q224 -736 128 -736Q127 -736 126 -737L53 -759Q48 -760 48 -766ZM414 -378Q414 -229 323 -117Q232 -4 129 -4L94 5Q111 6 128 6Q283 6 392.5 -107Q502 -220 502 -380Q502 -540 392.5 -653Q283 -766 128 -766Q108 -766 89 -764L129 -751Q232 -751 323 -638.5Q414 -526 414 -378Z"/>
</svg>