<svg xmlns="http://www.w3.org/2000/svg" viewBox="0 -1024 1024 1024">
	<path fill="#000000" d="M209 -483H207H200Q149 -487 114.5 -523.5Q80 -560 80 -611Q80 -662 115 -699Q150 -736 200 -740H207H209H211Q265 -740 302.5 -702.5Q340 -665 340 -611Q340 -558 302.5 -520.5Q265 -483 211 -483ZM210 -665Q206 -665 198 -663V-664Q179 -660 167.5 -645.5Q156 -631 156 -611Q156 -592 167.5 -577.5Q179 -563 198 -559V-560Q206 -558 210 -558Q214 -558 222 -560V-559Q241 -563 252.5 -577.5Q264 -592 264 -611Q264 -631 252.5 -645.5Q241 -660 222 -664V-663Q214 -665 210 -665ZM514 -82H512H505Q454 -86 419.5 -122.5Q385 -159 385 -210Q385 -261 420 -298Q455 -335 505 -339H512H514H516Q570 -339 607.5 -301.5Q645 -264 645 -210Q645 -157 607.5 -119.5Q570 -82 516 -82ZM515 -264Q511 -264 503 -262V-263Q484 -259 472.5 -244.5Q461 -230 461 -210Q461 -191 472.5 -176.5Q484 -162 503 -158V-159Q511 -157 515 -157Q519 -157 527 -159V-158Q546 -162 557.5 -176.5Q569 -191 569 -210Q569 -230 557.5 -244.5Q546 -259 527 -263V-262Q519 -264 515 -264ZM540 -818L646 -757L161 83L55 22Z"/>
	<path fill="#00ff00" d="M239 -97H237H230Q179 -98 147.5 -105Q116 -112 119.5 -122Q123 -132 161 -139.5Q199 -147 249 -148H256H258H260Q314 -148 348.5 -140.5Q383 -133 379 -122Q375 -111 335 -104Q295 -97 241 -97ZM253 -133Q249 -133 241 -133Q222 -132 209.5 -129Q197 -126 195 -122Q194 -118 204.5 -115.5Q215 -113 234 -112Q242 -112 246 -112Q250 -112 258 -112Q277 -113 289.5 -115.5Q302 -118 303 -122Q304 -126 294 -129Q284 -132 265 -133Q257 -133 253 -133ZM515 -16H513H506Q455 -17 423.5 -24.5Q392 -32 395.5 -42Q399 -52 436.5 -59.5Q474 -67 525 -68H532H534H536Q590 -68 624.5 -60.5Q659 -53 655 -42Q651 -31 611 -23.5Q571 -16 517 -16ZM529 -53Q525 -53 517 -52V-53Q498 -52 485.5 -49Q473 -46 471 -42Q470 -38 480.5 -35Q491 -32 510 -32Q518 -32 521.5 -31.5Q525 -31 534 -32Q553 -33 565.5 -35.5Q578 -38 579 -42Q580 -46 570 -49Q560 -52 541 -53V-52Q533 -53 529 -53ZM595 -164L696 -151L150 17L48 4Z"/>
	<path fill="#ffff00" d="M204 -483H202H195Q144 -487 109.5 -523.5Q75 -560 75 -611Q75 -662 110 -699Q145 -736 195 -740H202H204H206Q260 -740 297.5 -702.5Q335 -665 335 -611Q335 -558 297.5 -520.5Q260 -483 206 -483ZM205 -665Q201 -665 193 -663V-664Q174 -660 162.5 -645.5Q151 -631 151 -611Q151 -592 162.5 -577.5Q174 -563 193 -559V-560Q201 -558 205 -558Q209 -558 217 -560V-559Q236 -563 247.5 -577.5Q259 -592 259 -611Q259 -631 247.5 -645.5Q236 -660 217 -664V-663Q209 -665 205 -665ZM509 -82H507H500Q449 -86 414.5 -122.5Q380 -159 380 -210Q380 -261 415 -298Q450 -335 500 -339H507H509H511Q565 -339 602.5 -301.5Q640 -264 640 -210Q640 -157 602.5 -119.5Q565 -82 511 -82ZM510 -264Q506 -264 498 -262V-263Q479 -259 467.5 -244.5Q456 -230 456 -210Q456 -191 467.5 -176.5Q479 -162 498 -158V-159Q506 -157 510 -157Q514 -157 522 -159V-158Q541 -162 552.5 -176.5Q564 -191 564 -210Q564 -230 552.5 -244.5Q541 -259 522 -263V-262Q514 -264 510 -264ZM535 -818L641 -757L156 83L50 22Z"/>
	<path fill="#ff0000" d="M211 -476H200Q200 -476 199 -476Q146 -480 109 -518.5Q72 -557 72 -611Q72 -665 109.5 -704Q147 -743 199 -747Q200 -747 200 -748H211Q268 -748 308 -708Q348 -668 348 -611Q348 -555 308 -515.5Q268 -476 211 -476ZM200 -490H211Q262 -490 297 -525.5Q332 -561 332 -611Q332 -662 297 -697Q262 -732 211 -732H200Q153 -729 120.5 -694Q88 -659 88 -611Q88 -563 120 -528.5Q152 -494 200 -490ZM222 -672Q223 -672 224 -671Q244 -667 258 -650.5Q272 -634 272 -611Q272 -589 258.5 -572.5Q245 -556 224 -552Q223 -552 222 -552Q221 -552 220 -552Q214 -551 210 -550.5Q206 -550 200 -552Q199 -552 198 -552Q197 -552 196 -552Q175 -556 161.5 -572.5Q148 -589 148 -611Q148 -634 162 -650.5Q176 -667 196 -671Q197 -672 198 -672Q199 -672 200 -671Q206 -672 210 -672Q214 -672 220 -671Q221 -672 222 -672ZM224 -567Q238 -571 247 -583Q256 -595 256 -611Q256 -628 247 -640Q238 -652 224 -656Q223 -656 222 -656Q221 -656 220 -656Q213 -658 210 -658Q207 -658 200 -656Q199 -656 198 -656Q197 -656 196 -656Q182 -652 173 -640Q164 -628 164 -611Q164 -595 173 -583Q182 -571 196 -567Q197 -568 198 -568Q199 -568 200 -567Q207 -566 210 -566Q213 -566 220 -567Q221 -568 222 -568Q223 -568 224 -567ZM516 -74H505Q505 -74 504 -75Q451 -79 414.5 -117.5Q378 -156 378 -210Q378 -264 415 -303Q452 -342 504 -346Q505 -346 505 -346H516Q573 -346 612.5 -306.5Q652 -267 652 -210Q652 -154 612.5 -114Q573 -74 516 -74ZM505 -90H516Q567 -90 602.5 -125Q638 -160 638 -210Q638 -261 602.5 -296.5Q567 -332 516 -332H505Q458 -328 425 -293Q392 -258 392 -210Q392 -162 424.5 -127.5Q457 -93 505 -90ZM576 -210Q576 -188 563 -171.5Q550 -155 529 -151Q528 -150 527 -150Q526 -150 525 -151Q519 -150 515 -150Q511 -150 505 -151Q504 -150 503 -150Q502 -150 501 -151Q480 -155 467 -171.5Q454 -188 454 -210Q454 -233 467.5 -249.5Q481 -266 501 -270Q502 -270 503 -270Q504 -270 505 -270Q511 -271 515 -271.5Q519 -272 525 -270Q526 -270 527 -270Q528 -270 529 -270Q549 -266 562.5 -249.5Q576 -233 576 -210ZM529 -166Q543 -170 552.5 -182Q562 -194 562 -210Q562 -227 552.5 -239Q543 -251 529 -255Q528 -254 527 -254Q526 -254 525 -255Q518 -256 515 -256Q512 -256 505 -255Q504 -254 503 -254Q502 -254 501 -255Q487 -251 477.5 -239Q468 -227 468 -210Q468 -194 477.5 -182Q487 -170 501 -166Q502 -166 503 -166Q504 -166 505 -166Q512 -164 515 -164Q518 -164 525 -166Q526 -166 527 -166Q528 -166 529 -166ZM654 -757Q654 -755 652 -753L167 87Q165 90 161 90Q159 90 157 90L51 29Q48 26 48 22Q48 20 49 18L534 -822Q536 -826 540 -826Q542 -826 544 -825L650 -764Q654 -761 654 -757ZM636 -754L543 -808L65 19L158 73Z"/>
</svg>