<svg xmlns="http://www.w3.org/2000/svg" viewBox="0 -1024 1024 1024">
	<path fill="#000000" d="M279 -692H431V-496H627V-344H431V-149H279V-344H83V-496H279Z"/>
	<path fill="#00ff00" d="M639 -99L610 -69H66L95 -99ZM327 -138H479L378 -30H226Z"/>
	<path fill="#e3ab45" d="M594 -496V-344H50V-496ZM246 -692H398V-149H246Z"/>
	<path fill="#ff0000" d="M390 -684H254V-496Q254 -488 246 -488H58V-352H246Q254 -352 254 -344V-156H390V-344Q390 -352 398 -352H586V-488H398Q390 -488 390 -496ZM246 -700H398Q406 -700 406 -692V-504H594Q602 -504 602 -496V-344Q602 -336 594 -336H406V-149Q406 -142 398 -142H246Q238 -142 238 -149V-336H50Q42 -336 42 -344V-496Q42 -504 50 -504H238V-692Q238 -700 246 -700Z"/>
</svg>