<svg xmlns="http://www.w3.org/2000/svg" viewBox="0 -1024 1024 1024">
	<path fill="#000000" d="M676 -378Q676 -475 609 -543.5Q542 -612 447 -612Q352 -612 285 -543.5Q218 -475 218 -378Q218 -280 285 -211.5Q352 -143 447 -143Q542 -143 609 -211.5Q676 -280 676 -378ZM829 -380Q829 -293 795 -216.5Q761 -140 700 -85L837 52L699 191L516 8Q482 14 447 14Q289 14 177 -101.5Q65 -217 65 -380Q65 -543 177 -658Q289 -773 447 -773Q605 -773 717 -658Q829 -543 829 -380Z"/>
	<path fill="#00ff00" d="M699 -76Q717 -95 663 -108.5Q609 -122 514 -122Q419 -122 339 -108.5Q259 -95 241 -76Q223 -56 276.5 -42.5Q330 -29 425 -29Q520 -29 600.5 -42.5Q681 -56 699 -76ZM852 -76Q836 -59 787 -43.5Q738 -28 667 -17L778 10L614 38L465 2Q430 3 395 3Q237 3 147 -20Q57 -43 88 -76Q119 -109 252.5 -132Q386 -155 544 -155Q702 -155 792.5 -132Q883 -109 852 -76Z"/>
	<path fill="#ffff00" d="M661 -378Q661 -475 594 -543.5Q527 -612 432 -612Q337 -612 270 -543.5Q203 -475 203 -378Q203 -280 270 -211.5Q337 -143 432 -143Q527 -143 594 -211.5Q661 -280 661 -378ZM814 -380Q814 -293 780 -216.5Q746 -140 685 -85L822 52L684 191L501 8Q467 14 432 14Q274 14 162 -101.5Q50 -217 50 -380Q50 -543 162 -658Q274 -773 432 -773Q590 -773 702 -658Q814 -543 814 -380Z"/>
	<path fill="#ff0000" d="M674 -378Q674 -278 604 -206Q535 -136 437 -136Q339 -136 270 -206Q200 -278 200 -378Q200 -477 270 -549Q339 -620 437 -620Q535 -620 604 -549Q674 -477 674 -378ZM658 -378Q658 -473 594 -538Q530 -604 437 -604Q344 -604 280 -538Q216 -473 216 -378Q216 -282 280 -217Q345 -150 437 -150Q529 -150 594 -217Q658 -282 658 -378ZM826 -380Q826 -203 701 -85L832 47Q834 49 834 52Q834 55 832 57L694 196Q692 198 689 198Q686 198 684 196L503 16Q470 22 437 22Q277 22 162 -96Q48 -213 48 -380Q48 -546 162 -663Q276 -780 437 -780Q598 -780 712 -663Q826 -546 826 -380ZM812 -380Q812 -540 702 -653Q592 -766 437 -766Q282 -766 172 -653Q62 -540 62 -380Q62 -222 172 -107Q281 6 437 6Q478 6 505 1L506 0Q508 0 511 3L689 180L816 52L685 -80Q682 -83 682 -85Q682 -90 685 -91Q812 -205 812 -380Z"/>
</svg>