<svg xmlns="http://www.w3.org/2000/svg" viewBox="0 -1024 1024 1024">
	<path fill="#000000" d="M85 2V-140H237V2ZM85 -828Q94 -829 111 -829Q218 -829 293.5 -754Q369 -679 369 -572Q369 -500 333 -440Q297 -380 237 -347V-230H85V-315V-440V-468Q97 -465 111 -465Q156 -465 187 -496Q218 -527 218 -572Q218 -616 187 -647Q156 -678 111 -678Q97 -678 85 -675Z"/>
	<path fill="#00ff00" d="M2 0L28 -28H180L154 0ZM158 -166Q167 -166 184 -166Q291 -166 352.5 -151Q414 -136 394 -114Q381 -100 333.5 -88Q286 -76 219 -69L198 -46H46L61 -63L85 -88L90 -94Q102 -93 116 -93Q161 -93 197.5 -99Q234 -105 243 -114Q251 -123 226 -129.5Q201 -136 156 -136Q142 -136 129 -135Z"/>
	<path fill="#e3ab45" d="M50 2V-140H202V2ZM50 -828Q59 -829 76 -829Q183 -829 258.5 -754Q334 -679 334 -572Q334 -500 298 -440Q262 -380 202 -347V-230H50V-315V-440V-468Q62 -465 76 -465Q121 -465 152 -496Q183 -527 183 -572Q183 -616 152 -647Q121 -678 76 -678Q62 -678 50 -675Z"/>
	<path fill="#ff0000" d="M48 2V-140Q48 -148 55 -148H207Q214 -148 214 -140V2Q214 10 207 10H55Q48 10 48 2ZM62 -132V-6H200V-132ZM81 -836Q190 -836 269 -759Q346 -683 346 -572Q346 -497 309 -436Q273 -376 214 -343V-230Q214 -222 207 -222H55Q48 -222 48 -230V-468Q48 -476 55 -476Q56 -476 56 -475.5Q56 -475 57 -475Q68 -472 81 -472Q123 -472 152 -501Q180 -529 180 -572Q180 -614 152 -642Q124 -670 81 -670Q64 -670 57 -668Q57 -668 55 -668Q48 -668 48 -675V-828Q48 -835 54 -835Q60 -836 81 -836ZM200 -238V-347Q200 -352 203 -354Q263 -386 297 -444Q332 -503 332 -572Q332 -675 258 -749Q185 -822 81 -822Q77 -822 70.5 -821.5Q64 -821 62 -821V-684Q74 -686 81 -686Q128 -686 162 -652Q196 -618 196 -572Q196 -525 162 -491Q129 -458 81 -458Q68 -458 62 -459V-238Z"/>
</svg>