<svg xmlns="http://www.w3.org/2000/svg" viewBox="0 -1024 1024 1024">
	<path fill="#000000" d="M65 2V-140H217V2L157 134L99 130L108 2ZM65 -398V-540H217V-398Z"/>
	<path fill="#00ff00" d="M27 0L53 -28H205L179 0L93 27L37 26L70 0ZM102 -80L128 -108H280L254 -80Z"/>
	<path fill="#ffff00" d="M50 2V-140H202V2L142 134L84 130L93 2ZM50 -398V-540H202V-398Z"/>
	<path fill="#ff0000" d="M48 2V-140Q48 -148 55 -148H207Q214 -148 214 -140V2Q214 2 214 5L154 137Q152 142 147 142L146 141L88 137Q82 137 82 130V129L90 10H55Q48 10 48 2ZM62 -132V-6H98Q106 -6 106 2L105 3L97 123L142 126L200 0V-132ZM48 -398V-540Q48 -548 55 -548H207Q214 -548 214 -540V-398Q214 -390 207 -390H55Q48 -390 48 -398ZM62 -532V-406H200V-532Z"/>
</svg>