<svg xmlns="http://www.w3.org/2000/svg" viewBox="0 -1024 1024 1024">
	<path fill="#000000" d="M228 0H66L404 -610H65V-762H575V-610Z"/>
	<path fill="#00ff00" d="M169 0H7L460 -122H121L149 -152H659L631 -122Z"/>
	<path fill="#ffff00" d="M213 0H51L389 -610H50V-762H560V-610Z"/>
	<path fill="#ff0000" d="M218 8H56Q48 8 48 0Q48 -3 49 -4L381 -602H55Q48 -602 48 -610V-762Q48 -770 55 -770H565Q572 -770 572 -762V-610Q572 -610 572 -606L225 4Q223 8 218 8ZM558 -754H62V-618H394Q402 -618 402 -610Q402 -607 401 -606L69 -8H214L558 -612Z"/>
</svg>