<svg xmlns="http://www.w3.org/2000/svg" viewBox="0 -1024 1024 1024">
	<path fill="#000000" d="M437 -612Q352 -612 288 -556Q224 -500 211 -416Q281 -493 384 -499Q392 -500 398 -500Q400 -500 402 -500Q402 -500 403 -500Q404 -500 406 -500Q497 -500 567.5 -443.5Q638 -387 658 -300Q664 -272 664 -242Q664 -202 652 -164Q622 -70 536 -20Q487 14 437 14Q433 14 430 14Q418 15 406 15Q405 15 404 15H403Q403 15 402 15Q400 15 398 15Q389 15 384 14Q304 7 242 -41Q156 -93 105.5 -183Q55 -273 55 -380Q55 -543 167 -658Q279 -773 437 -773Q520 -773 556 -766V-600Q541 -605 501 -608.5Q461 -612 437 -612ZM388 -367Q377 -367 364 -364V-365Q327 -358 303 -328.5Q279 -299 279 -260Q279 -206 323 -174Q339 -165 355 -158Q359 -157 364 -156V-157Q375 -154 388 -154Q400 -154 412 -157V-156Q449 -163 473 -192.5Q497 -222 497 -260Q497 -299 473 -328Q449 -357 412 -365V-364Q400 -367 388 -367Z"/>
	<path fill="#00ff00" d="M477 -122Q392 -122 324 -111Q256 -100 236 -83Q311 -98 415 -100Q423 -100 430 -100Q432 -100 433 -100Q433 -100 434 -100Q435 -100 437 -100Q528 -100 594.5 -88.5Q661 -77 674 -60Q678 -54 677 -48Q674 -40 659 -33Q622 -14 533 -4Q481 3 431 3Q427 3 424 3Q412 3 400 3Q399 3 398 3H397Q397 3 396 3Q394 3 392 3Q383 3 378 3Q299 2 240 -8Q158 -18 114 -36.5Q70 -55 78 -76Q90 -109 210 -132Q330 -155 488 -155Q571 -155 607 -153L595 -120Q580 -121 540.5 -121.5Q501 -122 477 -122ZM410 -73Q399 -73 385 -73H386Q348 -72 322 -66Q296 -60 293 -52Q289 -41 330 -35Q345 -33 362 -32Q366 -32 370 -31Q381 -30 394 -31Q406 -31 418 -31Q456 -32 482 -38Q508 -44 511 -52Q514 -60 492 -65.5Q470 -71 434 -73H433Q422 -73 410 -73Z"/>
	<path fill="#ffff00" d="M432 -612Q347 -612 283 -556Q219 -500 206 -416Q276 -492 379 -499Q387 -500 393 -500Q396 -500 397 -500Q397 -500 398 -500Q399 -500 401 -500Q492 -500 562.5 -443.5Q633 -387 653 -300Q659 -272 659 -242Q659 -202 647 -164Q617 -70 531 -20Q482 14 432 14Q428 14 425 14Q413 15 401 15Q400 15 399 15Q398 15 398 15Q398 15 397 15Q395 15 393 15Q385 15 379 14Q299 8 237 -41Q152 -93 101 -183Q50 -273 50 -380Q50 -543 162 -658Q274 -773 432 -773Q515 -773 551 -766V-600Q536 -605 496 -608.5Q456 -612 432 -612ZM383 -367Q372 -367 359 -364V-365Q322 -357 298 -328Q274 -299 274 -260Q274 -206 318 -174Q333 -165 350 -158Q355 -157 359 -156V-157Q370 -154 383 -154Q395 -154 407 -157V-156Q444 -164 468 -193Q492 -222 492 -260Q492 -299 468 -328Q444 -357 407 -365V-364Q395 -367 383 -367Z"/>
	<path fill="#ff0000" d="M437 -604Q355 -604 293 -550Q240 -504 223 -439Q290 -501 383 -506Q392 -508 398 -508H406Q500 -508 572.5 -449.5Q645 -391 665 -302Q672 -275 672 -242Q672 -201 659 -162Q628 -65 540 -14Q489 21 437 22H430Q418 22 406 22H398Q389 22 383 21Q301 14 238 -35Q150 -88 99 -179.5Q48 -271 48 -380Q48 -546 162 -663Q276 -780 437 -780Q521 -780 557 -773Q564 -772 564 -766V-600Q564 -592 556 -592Q555 -592 554 -593Q539 -598 500 -601Q461 -604 437 -604ZM437 -620Q504 -620 548 -610V-760Q512 -766 437 -766Q282 -766 172 -653Q62 -540 62 -380Q62 -275 112 -186.5Q162 -98 246 -47Q246 -47 247 -47Q307 0 385 7Q396 8 398 8H406Q418 8 429 7Q430 7 430 6H437Q485 6 532 -26Q616 -75 645 -166Q656 -203 656 -242Q656 -271 651 -298Q631 -383 562.5 -437.5Q494 -492 406 -492H398Q396 -492 391 -492Q386 -492 384 -492Q284 -486 217 -411Q214 -408 211 -408Q204 -408 204 -416Q204 -417 204 -417Q217 -504 283 -562Q349 -620 437 -620ZM412 -372Q413 -372 414 -372Q453 -364 478.5 -333Q504 -302 504 -260Q504 -219 478.5 -187.5Q453 -156 413 -149Q413 -148 412 -148Q411 -148 410 -149Q399 -147 388 -146Q376 -146 366 -149Q365 -148 364 -148Q358 -148 352 -151Q336 -158 319 -167Q319 -168 319 -168Q272 -202 272 -260Q272 -302 297.5 -333.5Q323 -365 363 -372Q363 -372 364 -372Q365 -372 366 -372Q378 -375 388 -375Q399 -375 410 -372Q411 -372 412 -372ZM388 -360Q378 -360 366 -357Q365 -356 364 -356Q363 -356 362 -357Q330 -350 309 -324Q286 -296 286 -260Q286 -210 327 -180Q342 -172 357 -165Q359 -165 362 -164Q363 -164 364 -164Q365 -164 366 -164Q376 -162 388 -162Q399 -162 410 -164Q411 -164 412 -164Q413 -164 414 -164Q446 -171 467 -197Q490 -225 490 -260Q490 -296 467 -323Q446 -349 414 -357Q413 -356 412 -356Q411 -356 410 -357Q399 -360 388 -360Z"/>
</svg>