<svg xmlns="http://www.w3.org/2000/svg" viewBox="0 -1024 1024 1024">
	<path fill="#000000" d="M447 -612Q362 -612 298 -556Q234 -500 221 -416Q291 -493 394 -499Q402 -500 408 -500Q410 -500 412 -500Q412 -500 413 -500Q414 -500 416 -500Q507 -500 577.5 -443.5Q648 -387 668 -300Q674 -272 674 -242Q674 -202 662 -164Q632 -70 546 -20Q497 14 447 14Q443 14 440 14Q428 15 416 15Q415 15 414 15H413Q413 15 412 15Q410 15 408 15Q399 15 394 14Q314 7 252 -41Q166 -93 115.5 -183Q65 -273 65 -380Q65 -543 177 -658Q289 -773 447 -773Q530 -773 566 -766V-600Q551 -605 511 -608.5Q471 -612 447 -612ZM398 -367Q387 -367 374 -364V-365Q337 -358 313 -328.5Q289 -299 289 -260Q289 -206 333 -174Q349 -165 365 -158Q369 -157 374 -156V-157Q385 -154 398 -154Q410 -154 422 -157V-156Q459 -163 483 -192.5Q507 -222 507 -260Q507 -299 483 -328Q459 -357 422 -365V-364Q410 -367 398 -367Z"/>
	<path fill="#00ff00" d="M504 -122Q419 -122 344.5 -111Q270 -100 240 -83Q324 -98 429 -100Q437 -100 444 -100Q446 -100 447 -100Q447 -100 448 -100Q449 -100 451 -100Q542 -100 602 -88.5Q662 -77 665 -60Q665 -54 661 -48Q653 -40 634 -33Q586 -14 491 -4Q435 3 385 3Q381 3 378 3Q366 3 354 3Q353 3 352 3H351Q351 3 350 3Q348 3 346 3Q337 3 332 3Q254 2 201 -8Q125 -18 91.5 -36.5Q58 -55 78 -76Q109 -109 242.5 -132Q376 -155 534 -155Q617 -155 651 -153L620 -120Q606 -121 567 -121.5Q528 -122 504 -122ZM408 -73Q397 -73 383 -73H384Q346 -72 316.5 -66Q287 -60 279 -52Q269 -41 306 -35Q320 -33 337 -32Q341 -32 344 -31Q354 -30 368 -31Q380 -31 392 -31Q431 -32 460.5 -38Q490 -44 497.5 -52Q505 -60 486 -65.5Q467 -71 432 -73H431Q420 -73 408 -73Z"/>
	<path fill="#ffff00" d="M432 -612Q347 -612 283 -556Q219 -500 206 -416Q276 -492 379 -499Q387 -500 393 -500Q396 -500 397 -500Q397 -500 398 -500Q399 -500 401 -500Q492 -500 562.5 -443.5Q633 -387 653 -300Q659 -272 659 -242Q659 -202 647 -164Q617 -70 531 -20Q482 14 432 14Q428 14 425 14Q413 15 401 15Q400 15 399 15Q398 15 398 15Q398 15 397 15Q395 15 393 15Q385 15 379 14Q299 8 237 -41Q152 -93 101 -183Q50 -273 50 -380Q50 -543 162 -658Q274 -773 432 -773Q515 -773 551 -766V-600Q536 -605 496 -608.5Q456 -612 432 -612ZM383 -367Q372 -367 359 -364V-365Q322 -357 298 -328Q274 -299 274 -260Q274 -206 318 -174Q333 -165 350 -158Q355 -157 359 -156V-157Q370 -154 383 -154Q395 -154 407 -157V-156Q444 -164 468 -193Q492 -222 492 -260Q492 -299 468 -328Q444 -357 407 -365V-364Q395 -367 383 -367Z"/>
	<path fill="#ff0000" d="M437 -604Q354 -604 293 -550Q239 -502 223 -439Q290 -500 383 -506Q383 -506 398 -508H406Q499 -508 572 -449Q644 -390 665 -302Q672 -269 672 -242Q672 -204 659 -162Q627 -64 540 -14Q487 22 437 22H430Q430 22 406 22Q406 22 398 22Q387 22 383 21Q299 13 238 -35Q149 -88 99 -179Q48 -270 48 -380Q48 -546 162 -663Q276 -780 437 -780Q522 -780 557 -773Q564 -771 564 -766V-600Q564 -592 556 -592H555L554 -593Q539 -598 500 -601Q460 -604 437 -604ZM437 -620Q502 -620 548 -610V-760Q512 -766 437 -766Q282 -766 172 -653Q62 -540 62 -380Q62 -276 112 -187Q162 -98 246 -47H247Q307 0 385 7Q386 7 390.5 7.5Q395 8 398 8H406Q421 8 429 7L430 6H437Q485 6 532 -26Q616 -74 645 -166Q656 -200 656 -242Q656 -276 651 -298Q631 -383 563 -438Q496 -492 406 -492H398H384Q285 -486 217 -411Q216 -408 211 -408Q204 -408 204 -416V-417Q218 -506 283 -562Q350 -620 437 -620ZM412 -372H414Q455 -363 479 -333Q504 -302 504 -260Q504 -219 479 -188Q454 -157 413 -149L412 -148H411L410 -149Q400 -146 388 -146Q376 -146 366 -149L365 -148H364Q361 -148 352 -151Q330 -161 319 -167V-168Q272 -203 272 -260Q272 -302 297 -333Q322 -364 363 -372H364H366Q387 -375 388 -375Q400 -375 410 -372ZM388 -360Q378 -360 366 -357L365 -356H364H363L362 -357Q330 -349 309 -324Q286 -296 286 -260Q286 -210 327 -180Q342 -171 357 -165L359 -164Q361 -164 362 -164H364H366Q373 -162 388 -162Q403 -162 410 -164H412H414Q446 -172 467 -197Q490 -225 490 -260Q490 -295 467 -323Q445 -350 414 -357L413 -356H412H411L410 -357Q399 -360 388 -360Z"/>
</svg>