<svg xmlns="http://www.w3.org/2000/svg" viewBox="0 -1024 1024 1024">
	<path fill="#000000" d="M88 -614V-766H664V-614H452V2H300V-614Z"/>
	<path fill="#00ff00" d="M365 -153H517L373 0H221ZM125 -123L153 -153H729L701 -123Z"/>
	<path fill="#e3ab45" d="M265 -766H417V2H265ZM53 -614V-766H629V-614Z"/>
	<path fill="#ff0000" d="M60 -758V-622H265Q272 -622 272 -614V-6H410V-614Q410 -622 417 -622H622V-758ZM46 -614V-766Q46 -774 53 -774H629Q636 -774 636 -766V-614Q636 -606 629 -606H424V2Q424 10 417 10H265Q258 10 258 2V-606H53Q46 -606 46 -614Z"/>
</svg>