<svg xmlns="http://www.w3.org/2000/svg" viewBox="0 -1024 1024 1024">
	<path fill="#000000" d="M55 5V-119Q68 -116 81 -116Q147 -116 193 -141Q239 -166 239 -202Q239 -236 212 -260Q185 -284 145 -288Q139 -288 132.5 -288Q126 -288 120 -288Q113 -287 106 -286V-289V-410V-413Q113 -412 120 -411Q126 -411 132 -411Q138 -411 145 -411Q186 -415 212.5 -439Q239 -463 239 -496Q239 -532 195 -557.5Q151 -583 87 -583Q74 -583 61 -580V-704Q74 -705 87 -705Q213 -705 301.5 -644Q390 -583 390 -496Q390 -410 315 -349Q390 -288 390 -202Q390 -116 299.5 -55Q209 6 81 6Q68 6 55 5Z"/>
	<path fill="#00ff00" d="M50 1L59 -24Q72 -23 84 -23Q150 -23 198 -28Q246 -33 249 -40Q251 -47 226 -52Q201 -57 161 -58Q155 -58 148.5 -58Q142 -58 136 -58Q129 -58 122 -57V-58L131 -82V-83Q138 -83 144 -82Q150 -82 156.5 -82Q163 -82 170 -82Q211 -83 239.5 -88Q268 -93 270 -99Q273 -106 230.5 -111.5Q188 -117 124 -117Q111 -117 98 -116L107 -141Q120 -141 133 -141Q259 -141 343 -129Q427 -117 421 -99Q415 -82 336 -70Q406 -58 399.5 -40.5Q393 -23 298.5 -11Q204 1 76 1Q63 1 50 1Z"/>
	<path fill="#ffff00" d="M50 5V-119Q63 -116 76 -116Q142 -116 188 -141Q234 -166 234 -202Q234 -236 207 -260Q180 -284 140 -288Q133 -288 127 -288Q121 -288 115 -288Q108 -288 101 -286V-289V-410V-413Q108 -411 115 -411Q121 -411 127 -411Q133 -411 140 -411Q180 -414 207 -438.5Q234 -463 234 -496Q234 -533 190 -558Q146 -583 82 -583Q69 -583 56 -580V-704Q69 -705 82 -705Q208 -705 296.5 -644Q385 -583 385 -496Q385 -410 310 -349Q385 -288 385 -202Q385 -116 294.5 -55Q204 6 76 6Q63 6 50 5Z"/>
	<path fill="#ff0000" d="M48 5V-119Q48 -126 55 -126Q56 -126 57 -126Q69 -124 81 -124Q145 -124 189 -148Q232 -170 232 -202Q232 -233 207 -254Q182 -277 145 -280Q145 -280 121 -280L107 -279Q107 -278 106 -278Q98 -278 98 -286V-413Q98 -420 106 -420Q107 -420 107 -420L121 -418Q121 -418 145 -418Q183 -422 207 -445Q232 -466 232 -496Q232 -528 191 -551Q149 -576 87 -576Q75 -576 63 -573Q62 -572 61 -572Q54 -572 54 -580V-704Q54 -711 60 -711Q74 -712 87 -712Q215 -712 306 -650Q398 -587 398 -496Q398 -411 327 -349Q398 -287 398 -202Q398 -112 304 -49Q211 14 81 14Q68 14 54 12Q48 12 48 5ZM382 -202Q382 -284 310 -343Q308 -345 308 -349Q308 -353 310 -355Q382 -414 382 -496Q382 -579 297 -638Q211 -698 87 -698Q78 -698 68 -697V-589Q78 -590 87 -590Q153 -590 199 -564Q246 -536 246 -496Q246 -460 218 -433Q189 -408 146 -404Q145 -404 145 -404H120Q119 -404 114 -404V-295Q119 -296 120 -296H145Q145 -296 146 -295Q188 -291 217 -266Q246 -239 246 -202Q246 -162 197 -134Q149 -108 81 -108Q72 -108 62 -110V-2Q72 -1 81 -2Q207 -2 295 -61Q382 -120 382 -202Z"/>
</svg>