<svg xmlns="http://www.w3.org/2000/svg" viewBox="0 -1024 1024 1024">
	<path fill="#000000" d="M631 -184Q615 -126 570.5 -84.5Q526 -43 470 -23.5Q414 -4 350 -3.5Q286 -3 229.5 -22Q173 -41 129 -83Q85 -125 68 -184L65 -761H232V-185Q261 -152 350 -151.5Q439 -151 467 -185V-761H634Z"/>
	<path fill="#00ff00" d="M606 -37Q579 -25 527 -17Q475 -9 415 -5Q355 -1 291 -1Q227 -1 174 -4.5Q121 -8 85 -16.5Q49 -25 43 -37L149 -152H316L207 -37Q230 -30 319 -30Q408 -30 442 -37L551 -152H718Z"/>
	<path fill="#ffff00" d="M616 -184Q600 -126 555.5 -84.5Q511 -43 455 -23.5Q399 -4 335 -3.5Q271 -3 214.5 -22Q158 -41 114 -83Q70 -125 53 -184L50 -761H217V-185Q246 -152 335 -151.5Q424 -151 452 -185V-761H619Z"/>
	<path fill="#ff0000" d="M230 -188Q259 -159 343 -159Q423 -159 450 -188V-761Q450 -768 457 -768H624Q631 -768 631 -761L628 -184Q628 -184 628 -182Q611 -121 566 -79Q520 -36 462 -16Q406 4 337 4Q273 4 217 -15Q159 -34 114 -78Q69 -122 51 -182V-184L48 -761Q48 -768 55 -768H222Q230 -768 230 -761ZM337 -11Q401 -11 458 -31Q513 -51 555 -90Q600 -133 614 -185L616 -754H464V-185Q464 -181 463 -180Q433 -144 343 -144Q248 -144 216 -180Q214 -182 214 -185V-754H63L65 -185Q81 -129 124 -88Q169 -46 222 -29Q276 -11 337 -11Z"/>
</svg>