<svg xmlns="http://www.w3.org/2000/svg" viewBox="0 -1024 1024 1024">
	<path fill="#000000" d="M453 -804L296 -434Q273 -385 273 -323Q273 -295 279 -262Q291 -201 311 -153V-152L121 5Q113 12 113 21.5Q113 31 119 37L259 196Q265 204 275 204Q287 204 293 195L492 -84Q496 -89 496 -97V-796Q496 -804 491 -810Q484 -818 471.5 -818Q459 -818 453 -804ZM120 4L309 -153Q299 -176 291.5 -202Q284 -228 277.5 -261.5Q271 -295 271 -316.5Q271 -338 273 -353Q277 -397 294 -435L452 -805Q458 -820 472 -820Q485 -820 493 -811Q498 -804 498 -796V-97Q498 -89 493 -82L295 196Q288 206 276 206Q264 206 257 198L117 39Q111 32 111 21.5Q111 11 120 4ZM713 -153Q733 -201 745 -262Q751 -295 751 -316.5Q751 -338 749 -353Q745 -397 728 -434L571 -804Q565 -818 552 -818Q540 -818 534 -811Q528 -804 528 -796V-97Q528 -89 532 -84L731 195Q737 204 748 204Q759 204 765 196L905 37Q911 31 911 23Q911 12 903 5L713 -152ZM729 196L531 -82Q526 -89 526 -97V-796Q526 -804 531 -811Q539 -820 552.5 -820Q566 -820 572 -805L730 -435Q753 -385 753 -323Q753 -295 746 -262Q735 -201 715 -153L904 4Q913 11 913 21.5Q913 32 907 39L767 198Q760 206 748 206Q736 206 729 196ZM309 -153Z"/>
	<path fill="#00ff00" d="M828 -58L657 100L813 272L999 101ZM349 118L159 -27L-10 159L170 325Z"/>
	<path fill="#e3ab45" d="M906 38L766 197Q759 205 749 205Q748 205 747 205Q736 204 730 195L531 -83Q527 -89 527 -97V-130Q527 -780 527 -796Q527 -804 532 -810.5Q537 -817 545 -819Q564 -822 571 -805L729 -435Q746 -397 750 -353Q754 -309 746.5 -269Q739 -229 731.5 -202.5Q724 -176 714 -152L903 5Q911 11 911.5 20.5Q912 30 906 38ZM479 -819Q487 -817 492 -810.5Q497 -804 497 -796Q497 -782 497 -130V-97Q497 -89 493 -83L294 195Q288 204 277 205Q276 205 275 205Q265 205 258 197L118 38Q112 30 112.5 20.5Q113 11 121 5L310 -152Q300 -176 292.5 -202.5Q285 -229 277.5 -269Q270 -309 274 -353Q278 -397 295 -435L453 -805Q460 -822 479 -819Z"/>
	<path fill="#ff0000" d="M524 -796Q524 -807 532 -814.5Q540 -822 552 -822Q551 -822 551 -822Q554 -822 562.5 -816.5Q571 -811 574 -806L732 -436Q754 -385 754 -323Q754 -270 734 -201Q726 -176 717 -153L905 3Q914 10 914 23Q914 32 908 39L768 199Q760 208 749 208Q735 208 728 197L529 -82Q525 -88 525 -97ZM552 -817Q542 -817 535.5 -811Q529 -805 529 -796L530 -97Q530 -90 533 -84L732 194Q738 203 749 203Q758 203 764 195L904 36Q909 30 909 23Q909 13 902 7L712 -150Q711 -151 711 -152Q711 -153 712 -153Q732 -201 744 -269Q749 -295 749 -323Q749 -384 727 -433L569 -804Q567 -808 564 -810.5Q561 -813 557 -814.5Q553 -816 552 -817ZM265 220Q264 219 263 219Q252 219 244 211L104 51Q98 44 98 35Q98 22 107 15L295 -141Q275 -189 263 -256Q258 -283 258 -311Q258 -326 259 -341Q260 -355 264.5 -367Q269 -379 278.5 -398Q288 -417 289 -420L447 -791Q448 -792 449.5 -796.5Q451 -801 452 -803Q453 -805 456 -807.5Q459 -810 462 -810Q473 -810 480.5 -802Q488 -794 488 -784L487 -85Q487 -76 483 -70L267 218Q267 220 265 220ZM483 -784Q483 -792 477 -798.5Q471 -805 462 -805Q458 -805 454 -795Q453 -791 452 -789L294 -419Q291 -413 285 -401Q279 -389 275.5 -381Q272 -373 268.5 -362Q265 -351 264 -341Q263 -326 263 -311Q263 -259 283 -191Q291 -164 300 -141Q301 -141 301 -140Q301 -139 300 -138L110 19Q103 25 103 35Q103 42 108 48L248 207Q254 214 263 214L479 -73Q482 -78 482 -85Z"/>
</svg>