<svg xmlns="http://www.w3.org/2000/svg" viewBox="0 -1024 1024 1024">
	<path fill="#000000" d="M547 -8Q661 -9 742 -3Q823 3 823 11Q823 19 742 25Q661 31 547 30Q433 31 352 25Q271 19 271 11Q271 3 352 -3Q433 -9 547 -8Z"/>
	<path fill="#00ff00" d="M418 -20Q464 -20 498 -14Q532 -8 532 0Q532 8 498 14Q464 20 418 20Q372 20 338 14Q304 8 304 0Q304 -8 338 -14Q372 -20 418 -20Z"/>
	<path fill="#e3ab45" d="M478.5 -466.5Q449 -438 449 -398Q449 -358 478.5 -329.5Q508 -301 550 -301Q592 -301 621.5 -329.5Q651 -358 651 -398Q651 -438 621.5 -466.5Q592 -495 550 -495Q508 -495 478.5 -466.5ZM312.5 -169Q214 -264 214 -398Q214 -532 312.5 -627Q411 -722 550 -722Q689 -722 787.5 -627Q886 -532 886 -398Q886 -264 787.5 -169Q689 -74 550 -74Q411 -74 312.5 -169Z"/>
	<path fill="#ff0000" d="M477 -327.5Q447 -357 447 -398Q447 -439 477 -468.5Q507 -498 550 -498Q593 -498 623 -468.5Q653 -439 653 -398Q653 -357 623 -327.5Q593 -298 550 -298Q507 -298 477 -327.5ZM480.5 -465Q452 -437 452 -398Q452 -359 480.5 -331Q509 -303 550 -303Q591 -303 619.5 -331Q648 -359 648 -398Q648 -437 619.5 -465Q591 -493 550 -493Q509 -493 480.5 -465ZM257 -234Q212 -309 212 -398Q212 -487 257 -562Q302 -637 380 -680.5Q458 -724 550 -724Q642 -724 720 -680.5Q798 -637 843 -562Q888 -487 888 -398Q888 -309 843 -234Q798 -159 720 -115.5Q642 -72 550 -72Q458 -72 380 -115.5Q302 -159 257 -234ZM261 -559Q216 -485 216 -398Q216 -311 261 -237Q306 -163 383 -119.5Q460 -76 550 -76Q640 -76 717 -119.5Q794 -163 839 -237Q884 -311 884 -398Q884 -485 839 -559Q794 -633 717 -676.5Q640 -720 550 -720Q460 -720 383 -676.5Q306 -633 261 -559Z"/>
</svg>