<svg xmlns="http://www.w3.org/2000/svg" viewBox="0 -1024 1024 1024">
	<path fill="#000000" d="M474 -875L480 -791L486 -677V-569Q486 -569 486 -568Q470 -522 468 -452Q467 -441 467 -422.5Q467 -404 473.5 -363Q480 -322 480 -302Q480 -300 480 -299Q480 -252 507 -232Q507 -231 507 -230L510 -194Q510 -192 508 -192Q506 -192 506 -194L503 -229Q475 -251 475 -299Q475 -300 476 -302Q476 -322 469 -362.5Q462 -403 462 -422Q462 -441 464 -452Q466 -522 482 -569V-677L476 -791L470 -875Q470 -878 472 -878Q474 -878 474 -875Z"/>
	<path fill="#00ff00" d="M472 -162Q671 -162 813 -156Q955 -150 955 -143Q955 -136 813 -130Q671 -124 472 -124Q273 -124 131 -130Q-11 -136 -11 -143Q-11 -150 131 -156Q273 -162 472 -162Z"/>
	<path fill="#ffff00" d="M470 -882Q470 -885 474 -885Q478 -885 478 -882V-271L495 -245Q496 -244 496 -243L505 -189Q505 -185 501 -185Q498 -185 498 -188L489 -241L471 -267Q470 -268 470 -270ZM38 -176ZM38 -176H897L474 -900Z"/>
	<path fill="#ff0000" d="M468 -882Q468 -888 474 -888Q480 -888 480 -882V-271L497 -246Q498 -245 498 -244L507 -190Q508 -189 508 -189Q508 -182 501 -182Q496 -182 495 -187L486 -240L469 -266Q468 -268 468 -270ZM473 -882V-270Q473 -269 473 -269L491 -242L500 -188Q500 -187 501 -187Q502 -187 502 -189L493 -243L476 -269Q476 -270 476 -271V-882Q476 -883 474.5 -883Q473 -883 473 -882ZM37.5 -174Q35 -174 35 -176.5Q35 -179 37.5 -179Q40 -179 40 -176.5Q40 -174 37.5 -174ZM476 -901L899 -178Q900 -177 900 -176Q900 -174 897 -174H38Q35 -174 35 -176Q35 -177 36 -178L472 -901Q473 -902 474.5 -902Q476 -902 476 -901ZM474 -895L42 -179H893Z"/>
</svg>