<svg xmlns="http://www.w3.org/2000/svg" viewBox="0 -1024 1024 1024">
	<path fill="#000000" d="M79 -155H910Q925 -155 925 -140V-128Q925 -113 910 -113H79Q64 -113 64 -128V-140Q64 -155 79 -155Z"/>
	<path fill="#00ff00" d="M41 -429Q40 -454 72 -470Q104 -486 149 -486Q194 -486 226 -470Q258 -454 258 -430Q258 -404 226 -388Q194 -372 149 -372Q104 -372 72 -388Q40 -404 41 -429ZM861 -531Q860 -530 861 -527L863 -521Q864 -518 863 -518Q800 -547 663 -499Q625 -490 604.5 -490.5Q584 -491 544 -496Q504 -501 483 -501Q448 -501 444 -501Q438 -502 440 -504Q442 -506 465 -513L529 -519L577 -531L693 -529H753Q782 -535 783 -535Q785 -534 823 -531Q826 -531 835 -529.5Q844 -528 849.5 -528Q855 -528 861 -531Z"/>
	<path fill="#e3ab45" d="M863 -531Q857 -528 851.5 -528Q846 -528 837 -529.5Q828 -531 825 -531Q787 -534 785 -535Q784 -535 755 -529H695L579 -531L531 -519L467 -513Q444 -506 442 -504Q440 -502 446 -501Q450 -501 485 -501Q506 -501 546 -496Q586 -491 606.5 -490.5Q627 -490 665 -499Q802 -547 865 -518Q866 -518 865 -521Q864 -524 863 -527Q862 -530 863 -531ZM206.5 -472Q201 -465 201 -455Q201 -445 206.5 -438Q212 -431 219 -431Q226 -431 231.5 -438Q237 -445 237 -455Q237 -465 231.5 -472Q226 -479 219 -479Q212 -479 206.5 -472ZM221 -535Q209 -535 209 -523Q209 -511 221 -511Q233 -511 233 -523Q233 -535 221 -535ZM353 -433Q337 -433 337 -417Q337 -401 353 -401Q369 -401 369 -417Q369 -433 353 -433ZM453 -457Q435 -457 435 -443Q435 -429 453 -429ZM376 -510Q360 -510 360 -492Q360 -474 376 -474Q392 -474 392 -492Q392 -510 376 -510ZM171 -443ZM556.5 -352Q551 -345 551 -335Q551 -325 556.5 -318Q562 -311 569 -311Q576 -311 581.5 -318Q587 -325 587 -335Q587 -345 581.5 -352Q576 -359 569 -359Q562 -359 556.5 -352ZM571 -415Q559 -415 559 -403Q559 -391 571 -391Q583 -391 583 -403Q583 -415 571 -415ZM703 -313Q687 -313 687 -297Q687 -281 703 -281Q719 -281 719 -297Q719 -313 703 -313ZM803 -337Q785 -337 785 -323Q785 -309 803 -309ZM726 -390Q710 -390 710 -372Q710 -354 726 -354Q742 -354 742 -372Q742 -390 726 -390ZM521 -323ZM656.5 -352Q651 -345 651 -335Q651 -325 656.5 -318Q662 -311 669 -311Q676 -311 681.5 -318Q687 -325 687 -335Q687 -345 681.5 -352Q676 -359 669 -359Q662 -359 656.5 -352ZM671 -415Q659 -415 659 -403Q659 -391 671 -391Q683 -391 683 -403Q683 -415 671 -415ZM356.5 -352Q351 -345 351 -335Q351 -325 356.5 -318Q362 -311 369 -311Q376 -311 381.5 -318Q387 -325 387 -335Q387 -345 381.5 -352Q376 -359 369 -359Q362 -359 356.5 -352ZM371 -415Q359 -415 359 -403Q359 -391 371 -391Q383 -391 383 -403Q383 -415 371 -415ZM503 -313Q487 -313 487 -297Q487 -281 503 -281Q519 -281 519 -297Q519 -313 503 -313ZM603 -337Q585 -337 585 -323Q585 -309 603 -309Q621 -309 621 -323Q621 -337 603 -337ZM526 -390Q510 -390 510 -372Q510 -354 526 -354Q542 -354 542 -372Q542 -390 526 -390ZM203 -313Q187 -313 187 -297Q187 -281 203 -281Q219 -281 219 -297Q219 -313 203 -313ZM56.5 -352Q51 -345 51 -335Q51 -325 56.5 -318Q62 -311 69 -311Q76 -311 81.5 -318Q87 -325 87 -335Q87 -345 81.5 -352Q76 -359 69 -359Q62 -359 56.5 -352ZM71 -415Q59 -415 59 -403Q59 -391 71 -391Q83 -391 83 -403Q83 -415 71 -415ZM303 -337Q285 -337 285 -323Q285 -309 303 -309Q321 -309 321 -323Q321 -337 303 -337ZM226 -390Q210 -390 210 -372Q210 -354 226 -354Q242 -354 242 -372Q242 -390 226 -390ZM67 -527L138 -460L136 -458Q133 -455 129.5 -451Q126 -447 126 -442V-225Q126 -222 128 -216Q131 -210 126 -210H63Q57 -210 52.5 -214.5Q48 -219 48 -225L52 -512Q52 -520 55.5 -523.5Q59 -527 63 -527ZM78 -537L798 -555L857 -554L892 -472Q894 -466 891 -461.5Q888 -457 882 -457H147Q141 -457 134 -461.5Q127 -466 127 -472L70 -522Q68 -530 69.5 -533Q71 -536 74 -537ZM141 -459H888Q894 -459 898.5 -454.5Q903 -450 903 -444V-225Q903 -219 898.5 -214.5Q894 -210 888 -210H141Q135 -210 130.5 -214.5Q126 -219 126 -225V-444Q126 -450 130.5 -454.5Q135 -459 141 -459Z"/>
	<path fill="#ff0000" d="M376 -505Q365 -505 365 -492Q365 -479 376 -479Q387 -479 387 -492Q387 -505 376 -505ZM361 -476Q355 -483 355 -492Q355 -501 361 -508Q367 -515 376 -515Q385 -515 391 -508Q397 -501 397 -492Q397 -483 391 -476Q385 -469 376 -469Q367 -469 361 -476ZM78 -534Q77 -534 77 -535Q71 -535 71 -529Q71 -528 71 -526L106 -493L128 -474Q129 -473 129 -472L140 -462V-461Q141 -461 141 -462H888Q890 -464 890 -467Q890 -469 889 -471L855 -552Q819 -553 803 -553Q800 -553 798 -553ZM376 -510Q392 -510 392 -492Q392 -510 376 -510ZM376 -510Q360 -510 360 -492Q360 -510 376 -510ZM392 -492Q392 -474 376 -474Q392 -474 392 -492ZM360 -492Q360 -474 376 -474Q360 -474 360 -492ZM67 -524L66 -525Q65 -525 65 -525Q54 -525 54 -512L50 -225Q50 -220 54 -216Q58 -212 63 -212H126Q127 -212 127 -213Q127 -214 125.5 -216.5Q124 -219 124 -221Q123 -223 124 -225V-442V-444Q124 -454 133 -459Q126 -463 125 -469L103 -490L68 -520Q67 -521 67 -524ZM66 -530Q66 -540 77 -540Q77 -540 78 -540L798 -557Q800 -558 803 -558Q820 -558 857 -556Q859 -556 859 -555L894 -473Q895 -470 895 -467Q895 -463 894 -461Q906 -456 906 -444V-225Q906 -218 900.5 -213Q895 -208 888 -208H141Q136 -208 132 -210Q130 -208 126 -208H63Q56 -208 50.5 -213Q45 -218 45 -225L50 -512Q50 -530 65 -530Q66 -530 66 -530ZM889 -456Q886 -454 882 -454H147Q143 -454 139 -456Q138 -456 138 -456Q137 -456 137 -455Q128 -448 128 -442V-225Q128 -223 130 -220Q133 -212 141 -212H888Q893 -212 896.5 -216Q900 -220 900 -225V-444Q900 -455 889 -456Z"/>
</svg>