<svg xmlns="http://www.w3.org/2000/svg" viewBox="0 -1024 1024 1024">
	<path fill="#000000" d="M65 -770L251 -768L381 -541L513 -769L688 -768L468 -388L689 0L514 2L378 -233L244 -2L66 1L290 -384Z"/>
	<path fill="#00ff00" d="M150 -154H336L423 -108L598 -154H773L482 -78L630 0H455L363 -47L185 0H7L302 -77Z"/>
	<path fill="#ffff00" d="M50 -770L236 -768L366 -541L498 -769L673 -768L453 -388L674 0L499 2L363 -233L229 -2L51 1L274 -384Z"/>
	<path fill="#ff0000" d="M503 -777L678 -775Q686 -775 686 -768Q686 -766 684 -764L467 -388L686 -4Q686 -4 686 0Q686 7 679 7L504 10Q500 10 498 6L368 -218L240 2Q238 5 234 5L56 9Q48 9 48 1Q48 -1 50 -3L271 -384L49 -766Q48 -767 48 -770Q48 -778 55 -778L241 -775Q246 -775 248 -772L371 -556L497 -773Q499 -777 503 -777ZM286 -380L69 -7L230 -9L362 -237Q364 -240 368 -240Q372 -240 374 -237L508 -6L666 -7L451 -384Q450 -385 450 -388Q450 -390 452 -392L665 -761H507L377 -537Q376 -534 371 -534Q366 -534 364 -537L237 -761L68 -762L286 -388Q288 -386 288 -384Q288 -382 286 -380Z"/>
</svg>