<svg xmlns="http://www.w3.org/2000/svg" viewBox="0 -1024 1024 1024">
	<path fill="#000000" d="M198 -451L-1 -765H151L275 -594L399 -765H551L351 -450H350V-1H198Z"/>
	<path fill="#00ff00" d="M226 -90L50 -153H202L313 -119L450 -153H602L379 -90H378L345 0H193Z"/>
	<path fill="#ffff00" d="M193 -451L-6 -765H146L270 -594L394 -765H546L346 -450H345V-1H193Z"/>
	<path fill="#ff0000" d="M359 -1Q359 6 351 6H199Q191 6 191 -1V-449L-6 -761Q-7 -763 -7 -765Q-7 -772 0 -772H152Q156 -772 158 -769L276 -607L394 -769Q396 -772 400 -772H552Q559 -772 559 -765Q559 -763 558 -761L359 -446ZM207 -451V-8H343V-450Q343 -454 347 -456L538 -758H404L282 -590Q280 -586 276 -586Q272 -586 270 -590L148 -758H14L205 -455Q207 -453 207 -451Z"/>
</svg>