<svg xmlns="http://www.w3.org/2000/svg" viewBox="0 -1024 1024 1024">
	<path fill="#000000" d="M55 -10V-162L485 -610H55V-762H738V-610L306 -162H738V-10Z"/>
	<path fill="#00ff00" d="M51 -2L62 -32L524 -122H94L105 -152H788L777 -122L313 -32H745L734 -2Z"/>
	<path fill="#ffff00" d="M50 -10V-162L480 -610H50V-762H733V-610L301 -162H733V-10Z"/>
	<path fill="#ff0000" d="M48 -10V-162Q48 -165 50 -167L467 -602H55Q48 -602 48 -610V-762Q48 -770 55 -770H738Q746 -770 746 -762V-610Q746 -607 743 -605L324 -170H738Q746 -170 746 -162V-10Q746 -2 738 -2H55Q48 -2 48 -10ZM62 -18H730V-154H306Q298 -154 298 -162Q298 -165 301 -167L730 -613V-754H62V-618H485Q492 -618 492 -610Q492 -607 490 -605L62 -159Z"/>
</svg>