<svg xmlns="http://www.w3.org/2000/svg" viewBox="0 -1024 1024 1024">
	<path fill="#000000" d="M367 -1V-9Q359 -8 343 -8Q236 -8 160.5 -83.5Q85 -159 85 -266Q85 -372 160 -443.5Q235 -515 343 -515Q359 -515 367 -514H519V-1ZM367 -369Q355 -372 343 -372Q298 -372 267 -341Q236 -310 236 -266Q236 -221 267 -190Q298 -159 343 -159Q355 -159 367 -162Z"/>
	<path fill="#00ff00" d="M302 0L304 -2Q296 -2 280 -2Q173 -2 112 -17Q51 -32 70 -53Q90 -74 178.5 -88.5Q267 -103 375 -103Q391 -103 399 -103H551L454 0ZM372 -74Q361 -75 348 -74Q303 -74 266.5 -68Q230 -62 221 -53Q213 -44 238.5 -38Q264 -32 309 -32Q321 -32 333 -32Z"/>
	<path fill="#e3ab45" d="M332 -1V-9Q324 -8 308 -8Q201 -8 125.5 -83.5Q50 -159 50 -266Q50 -372 125 -443.5Q200 -515 308 -515Q324 -515 332 -514H484V-1ZM332 -369Q320 -372 308 -372Q263 -372 232 -341Q201 -310 201 -266Q201 -221 232 -190Q263 -159 308 -159Q320 -159 332 -162Z"/>
	<path fill="#ff0000" d="M489 -522Q496 -522 496 -514V-1Q496 6 489 6H337Q330 6 330 -1Q328 -1 322 -0.5Q316 0 313 0Q203 0 125 -78Q48 -155 48 -266Q48 -375 125 -449Q201 -522 313 -522H337ZM482 -506H337L336 -507Q331 -508 313 -508Q210 -508 135 -438Q62 -369 62 -266Q62 -163 136 -89Q209 -16 313 -16H336H337Q344 -16 344 -9V-8H482ZM344 -369V-162Q344 -157 339 -155Q326 -152 313 -152Q265 -152 232 -185Q198 -219 198 -266Q198 -312 232 -346Q266 -380 313 -380Q321 -380 339 -376Q344 -374 344 -369ZM313 -364Q270 -364 242 -336Q214 -308 214 -266Q214 -223 242 -195Q271 -166 313 -166Q318 -166 330 -168V-363Q324 -364 313 -364Z"/>
</svg>