<svg xmlns="http://www.w3.org/2000/svg" viewBox="0 -1024 1024 1024">
	<path fill="#000000" d="M367 -780H519V-4H367Q355 -3 343 -3Q236 -3 160.5 -78Q85 -153 85 -260Q85 -367 160.5 -442.5Q236 -518 343 -518Q355 -518 367 -517ZM367 -157V-364Q355 -367 343 -367Q298 -367 267 -336Q236 -305 236 -260Q236 -216 267 -185Q298 -154 343 -154Q355 -154 367 -157Z"/>
	<path fill="#60a04c" d="M434 -156H586L439 -1H287Q275 -1 263 -1Q156 -1 95 -16Q34 -31 54 -52Q74 -73 164 -88.5Q254 -104 361 -104Q373 -104 384 -103ZM316 -31L356 -73Q344 -74 332 -73Q287 -73 250 -67Q213 -61 205 -52Q197 -43 222 -37Q247 -31 292 -31Q303 -30 316 -31Z"/>
	<path fill="#fdb70d" d="M332 -780H484V-4H332Q320 -3 308 -3Q201 -3 125.5 -78Q50 -153 50 -260Q50 -367 125.5 -442.5Q201 -518 308 -518Q320 -518 332 -517ZM332 -157V-364Q320 -367 308 -367Q263 -367 232 -336Q201 -305 201 -260Q201 -216 232 -185Q263 -154 308 -154Q320 -154 332 -157Z"/>
	<path fill="#f40224" d="M337 -788H489Q496 -788 496 -780V-4Q496 4 489 4H337Q337 4 313 4Q204 4 125 -73Q48 -149 48 -260Q48 -371 125 -448Q203 -526 313 -526Q316 -526 322 -525.5Q328 -525 330 -525V-780Q330 -788 337 -788ZM482 -772H344V-517Q344 -510 337 -510H336Q336 -510 313 -510Q209 -510 136 -437Q62 -363 62 -260Q62 -157 136 -83Q209 -10 313 -10Q328 -10 336 -11L337 -12H482ZM313 -146Q266 -146 232 -180Q198 -214 198 -260Q198 -307 232 -341Q265 -374 313 -374Q326 -374 339 -371Q344 -369 344 -364V-157Q344 -152 339 -150Q321 -146 313 -146ZM313 -360Q271 -360 242 -331Q214 -303 214 -260Q214 -218 242 -190Q270 -162 313 -162Q324 -162 330 -163V-358Q318 -360 313 -360Z"/>
</svg>