<svg xmlns="http://www.w3.org/2000/svg" viewBox="0 -1024 1024 1024">
	<path fill="#000000" d="M85 -768H254V-512Q293 -524 334 -524Q421 -524 488 -472Q555 -420 579 -337L582 -6H415V-336Q383 -373 334 -373Q286 -373 254 -338V-6H85Z"/>
	<path fill="#00ff00" d="M150 -154H319L270 -102Q311 -104 353 -105Q440 -105 497.5 -94.5Q555 -84 563 -67L503 -1H336L398 -67Q373 -74 325 -75Q277 -75 239 -68L175 -1H6Z"/>
	<path fill="#e3ab45" d="M50 -768H219V-512Q258 -524 299 -524Q386 -524 453 -472Q520 -420 544 -337L547 -6H380V-336Q348 -373 299 -373Q251 -373 219 -338V-6H50Z"/>
	<path fill="#ff0000" d="M55 -776H224Q232 -776 232 -768V-522Q272 -532 304 -532Q394 -532 463 -478Q532 -424 556 -339V-337L560 -6Q560 2 552 2H385Q378 2 378 -6V-333Q348 -366 304 -366Q263 -366 232 -335V-6Q232 2 224 2H55Q48 2 48 -6V-768Q48 -776 55 -776ZM216 -760H62V-14H216V-338Q216 -341 218 -343Q252 -380 304 -380Q356 -380 391 -341Q392 -340 392 -336V-14H544L542 -336Q518 -414 453 -466Q390 -516 304 -516Q260 -516 226 -505L225 -504H224Q216 -504 216 -512Z"/>
</svg>