<svg xmlns="http://www.w3.org/2000/svg" viewBox="0 -1024 1024 1024">
	<path fill="#000000" d="M85 195V27Q116 53 156 53Q205 53 237 16V-517H404L401 17Q377 100 310 152Q243 204 156 204Q119 204 85 195ZM249 -772H401V-630H249Z"/>
	<path fill="#60a04c" d="M-18 39L13 5Q40 10 79 11Q128 11 168 3L268 -103H435L332 3Q292 20 215 30.5Q138 41 51 41Q14 41 -18 39ZM327 -154H479L453 -126H301Z"/>
	<path fill="#fdb70d" d="M50 195V27Q81 53 121 53Q170 53 202 16V-517H369L366 17Q342 100 275 152Q208 204 121 204Q84 204 50 195ZM214 -772H366V-630H214Z"/>
	<path fill="#f40224" d="M48 195V27Q48 20 55 20Q59 20 60 21Q90 46 126 46Q170 46 200 13V-517Q200 -524 207 -524H374Q381 -524 381 -517L378 17Q378 17 378 19Q354 104 285 158Q216 212 126 212Q91 212 53 202Q48 200 48 195ZM126 196Q212 196 275 146Q340 94 364 16L366 -510H214V16Q214 20 213 21Q178 60 126 60Q90 60 62 42V189Q90 196 126 196ZM219 -780H371Q378 -780 378 -772V-630Q378 -622 371 -622H219Q212 -622 212 -630V-772Q212 -780 219 -780ZM364 -764H226V-638H364Z"/>
</svg>