<svg xmlns="http://www.w3.org/2000/svg" viewBox="0 -1024 1024 1024">
	<path fill="#000000" d="M399 -6Q365 3 328 3Q241 3 174 -49Q107 -101 83 -184L80 -761H247V-185Q279 -148 328 -148Q368 -148 399 -174Z"/>
	<path fill="#60a04c" d="M326 -1Q291 1 254 1Q167 1 109.5 -9.5Q52 -20 44 -37L150 -152H317L208 -37Q233 -30 282 -30Q322 -30 358 -35Z"/>
	<path fill="#fdb70d" d="M369 -6Q335 3 298 3Q211 3 144 -49Q77 -101 53 -184L50 -761H217V-185Q249 -148 298 -148Q338 -148 369 -174Z"/>
	<path fill="#f40224" d="M298 10Q207 10 139 -43Q70 -97 46 -182Q46 -182 46 -184L42 -761Q42 -768 50 -768H217Q224 -768 224 -761V-188Q253 -156 298 -156Q336 -156 364 -180Q366 -182 369 -182Q376 -182 376 -174V-6Q376 -1 371 1Q336 10 298 10ZM298 -4Q330 -4 362 -12V-159Q332 -140 298 -140Q246 -140 211 -180Q210 -181 210 -185V-754H58L60 -185Q84 -107 149 -55Q214 -4 298 -4Z"/>
</svg>