<svg xmlns="http://www.w3.org/2000/svg" viewBox="0 -1024 1024 1024">
	<path fill="#000000" d="M367 202V4Q359 5 343 5Q236 5 160.5 -70.5Q85 -146 85 -253Q85 -360 160.5 -435Q236 -510 343 -510Q359 -510 367 -509H519V202ZM367 -356Q355 -359 343 -359Q298 -359 267 -328Q236 -297 236 -253Q236 -208 267 -177Q298 -146 343 -146Q355 -146 367 -149Z"/>
	<path fill="#00ff00" d="M276 40L314 1Q306 1 290 1Q183 1 121.5 -14Q60 -29 80 -50.5Q100 -72 189.5 -87Q279 -102 386 -102Q402 -102 410 -102H562L428 40ZM381 -71Q370 -72 358 -72Q313 -72 276 -65.5Q239 -59 231 -51Q222 -42 247.5 -35.5Q273 -29 318 -29Q330 -29 342 -30Z"/>
	<path fill="#e3ab45" d="M332 202V4Q324 5 308 5Q201 5 125.5 -70.5Q50 -146 50 -253Q50 -360 125.5 -435Q201 -510 308 -510Q324 -510 332 -509H484V202ZM332 -356Q320 -359 308 -359Q263 -359 232 -328Q201 -297 201 -253Q201 -208 232 -177Q263 -146 308 -146Q320 -146 332 -149Z"/>
	<path fill="#ff0000" d="M489 -516Q496 -516 496 -509V202Q496 210 489 210H337Q330 210 330 202V12Q330 12 313 12Q202 12 125 -65Q48 -142 48 -253Q48 -364 125 -440Q205 -518 313 -518Q325 -518 337 -516ZM482 -502H337H336Q334 -502 330.5 -502Q327 -502 322 -502Q317 -502 313 -502Q208 -502 136 -430Q62 -356 62 -253Q62 -150 136 -76Q210 -2 313 -2Q331 -2 336 -3L337 -4Q344 -4 344 4V194H482ZM344 -356V-149Q344 -144 339 -142Q321 -138 313 -138Q266 -138 232 -172Q198 -206 198 -253Q198 -299 232 -333Q265 -366 313 -366Q326 -366 339 -363Q344 -361 344 -356ZM313 -352Q271 -352 242 -323Q214 -295 214 -253Q214 -210 242 -182Q270 -154 313 -154Q324 -154 330 -155V-350Q318 -352 313 -352Z"/>
</svg>