<svg xmlns="http://www.w3.org/2000/svg" viewBox="0 -1024 1024 1024">
	<path fill="#000000" d="M104 -47L171 -159Q178 -152 193 -147Q233 -130 264.5 -134Q296 -138 316 -162Q339 -189 294 -201Q282 -204 240 -211Q174 -237 134 -271.5Q94 -306 86 -348Q78 -390 116 -434Q163 -491 263 -502.5Q363 -514 459 -473Q477 -465 481 -462L414 -332Q400 -341 392 -344Q352 -360 331.5 -356Q311 -352 291 -328Q267 -302 271 -292.5Q275 -283 322 -275Q362 -258 390.5 -243.5Q419 -229 445.5 -209Q472 -189 483.5 -169.5Q495 -150 492.5 -125.5Q490 -101 468 -75Q421 -18 321 -5.5Q221 7 126 -34Q118 -36 104 -47Z"/>
	<path fill="#00ff00" d="M48 -9L136 -32Q141 -31 155 -29Q193 -26 225.5 -27Q258 -28 281 -32Q309 -37 268 -40Q256 -41 215 -42Q154 -47 121 -54Q88 -61 87.5 -69.5Q87 -78 133 -87Q190 -98 293 -100.5Q396 -103 483 -95Q500 -93 503 -92L412 -66Q400 -68 392 -69Q355 -72 333.5 -71Q312 -70 288 -66Q259 -61 261.5 -59Q264 -57 309 -55Q347 -52 372.5 -49Q398 -46 420.5 -42Q443 -38 451 -34Q459 -30 451.5 -25Q444 -20 417 -15Q360 -4 258 -1.5Q156 1 68 -7Q61 -7 48 -9Z"/>
	<path fill="#e3ab45" d="M69 -47L136 -159Q143 -152 158 -147Q198 -130 229.5 -134Q261 -138 281 -162Q304 -189 259 -201Q247 -204 205 -211Q139 -237 99 -271.5Q59 -306 51 -348Q43 -390 81 -434Q128 -491 228 -502.5Q328 -514 424 -473Q442 -465 446 -462L379 -332Q365 -341 357 -344Q316 -360 296 -356Q276 -352 256 -328Q231 -302 235.5 -292.5Q240 -283 287 -275Q326 -258 355 -243.5Q384 -229 410.5 -209Q437 -189 448.5 -169.5Q460 -150 457.5 -125.5Q455 -101 433 -75Q386 -18 286 -5.5Q186 7 91 -34Q83 -36 69 -47Z"/>
	<path fill="#ff0000" d="M141 -166Q144 -166 146 -164Q151 -158 165 -154H166Q196 -141 222 -141Q222 -141 234 -141Q262 -144 280 -167Q286 -173 286 -179Q286 -188 262 -194Q257 -195 209 -204H207Q140 -231 99 -266Q58 -301 49 -347Q47 -357 47 -363Q47 -402 80 -439Q129 -498 232 -510Q254 -513 277 -513Q356 -513 432 -480Q448 -473 455 -468Q458 -466 458 -462V-459L391 -329Q388 -324 384 -324Q382 -324 380 -326Q370 -332 359 -337Q328 -349 310 -349H303Q287 -346 267 -323Q248 -303 248 -295Q250 -292 258 -290Q264 -288 293 -282H295Q331 -267 364 -250Q436 -214 460 -173Q470 -156 470 -134V-125Q467 -98 444 -70Q395 -10 292 2Q268 5 245 5Q169 5 94 -27Q83 -30 69 -41Q66 -42 66 -47Q66 -49 68 -51L135 -163Q136 -166 141 -166ZM441 -459Q366 -498 277 -498Q255 -498 234 -495Q137 -483 92 -429Q62 -394 62 -363Q62 -353 63 -349Q71 -309 109 -277Q150 -243 212 -218Q258 -210 266 -208Q301 -199 301 -179Q301 -168 292 -157Q270 -132 235 -127Q231 -126 222 -126Q194 -126 160 -140Q153 -142 143 -148L84 -49Q91 -43 98 -41H99Q170 -10 245 -10Q268 -10 290 -13Q386 -25 432 -80Q454 -106 455 -126V-134Q455 -153 447 -166Q426 -201 357 -237Q305 -262 290 -268Q257 -274 250 -277Q233 -283 233 -296Q233 -309 255 -333Q276 -358 300 -363Q303 -364 310 -364Q333 -364 365 -351Q375 -347 381 -343Z"/>
</svg>