<svg xmlns="http://www.w3.org/2000/svg" viewBox="0 -1024 1024 1024">
	<path fill="#000000" d="M85 -511H256L380 -144L485 -511L670 -514L391 200L243 204L312 0Z"/>
	<path fill="#60a04c" d="M128 -102H299L354 -29L528 -102L714 -103L300 40L151 41L259 0Z"/>
	<path fill="#fdb70d" d="M50 -511H221L345 -144L450 -511L635 -514L356 200L208 204L277 0Z"/>
	<path fill="#f40224" d="M55 -518H226Q231 -518 233 -513L349 -169L448 -513Q450 -518 455 -518L640 -522Q648 -522 648 -514Q648 -514 648 -513Q647 -512 647 -511L368 203Q367 207 361 207L213 212Q206 212 206 204V202L274 0L48 -508V-511Q48 -518 55 -518ZM290 0Q290 0 290 1L289 2L224 196L356 193L629 -506L461 -504L357 -142Q355 -136 350 -136Q345 -136 343 -142L221 -504H67L289 -3Q289 -2 290 0Z"/>
</svg>